#N canvas 662 204 600 412 12;
#X obj 172 130 spigot;
#X obj 393 96 t b f, f 24;
#X obj 393 173 f;
#X obj 172 172 pdcontrol;
#X msg 172 151 args 0;
#X obj 411 152 route float;
#X text 27 40 2) ins name;
#X text 27 20 1) \$0 main;
#X text 27 60 3) \$0 ins;
#X text 27 80 4) \$1 ins;
#X text 27 100 5) number par;
#X text 27 120 6) type par;
#X text 27 140 7) label par;
#X text 27 160 8) rng lower par;
#X text 27 180 9) rng upper par;
#X text 27 200 10) step par;
#X obj 172 88 r \$3-pdss-s-\$5;
#X obj 393 74 r \$3-pdss-save-par;
#X obj 411 131 r \$3-pdss-s-\$5;
#X obj 393 194 tabwrite \$3-pdss-array-0;
#X obj 558 173 + \$5;
#X obj 393 268 r \$3-pdss-load-par;
#X obj 393 290 + \$5;
#X obj 393 311 tabread \$3-pdss-array-0;
#X obj 393 334 s \$3-pdss-r-\$5;
#X obj 172 193 s \$1-pdss-par-info-return;
#X obj 210 109 r \$1-pdss-par-info-get;
#X connect 0 0 4 0;
#X connect 1 0 2 0;
#X connect 1 1 20 0;
#X connect 2 0 19 0;
#X connect 3 0 25 0;
#X connect 4 0 3 0;
#X connect 5 0 2 1;
#X connect 16 0 0 0;
#X connect 17 0 1 0;
#X connect 18 0 5 0;
#X connect 20 0 19 1;
#X connect 21 0 22 0;
#X connect 22 0 23 0;
#X connect 23 0 24 0;
#X connect 26 0 0 1;
