#N canvas 156 169 1128 457 10;
#X text 841 44 for example:;
#X obj 612 226 example2 3 4;
#X obj 612 78 example1 1 2;
#X obj 612 152 example1 2 4;
#X msg 48 221 save;
#X obj 60 312 print -n;
#X obj 33 136 bng 15 250 50 0 empty empty empty 17 7 0 10 #fcfcfc #000000
#000000;
#X obj 33 153 openpanel;
#X obj 87 195 bng 15 250 50 0 empty empty empty 17 7 0 10 #fcfcfc #000000
#000000;
#X obj 87 212 savepanel;
#X msg 87 232 save_as \$1;
#X obj 33 291 t a a;
#X symbolatom 33 382 32 0 0 0 - - - 0;
#X msg 33 173 open \$1;
#X obj 33 336 route name:;
#X obj 33 359 symbol;
#X obj 29 102 a_pdss_array;
#X obj 29 76 a_pdss_par;
#X obj 29 51 a_pdss_driver;
#X obj 30 24 a_pdss;
#X obj 33 266 a_pdss 1;
#A saved 187 7 4 0 16 2 1 10 2 0 52 1 1 10 1 0 26 3 1 10 3 0 40 187
7 4 0 16 2 1 10 2 0 52 1 1 10 1 0 0.879999 0.599999 0.28 0.0799998
-0.12 -0.32 -0.44 -0.52 -0.759999 -0.879999 0 0 0 0 0 0 0 0 0 0 0 0
0 0 0 0 0 0 0 0 0 0 0 0 0 0 0 0 0 0 0 0 0 0 0 0 0 0 0 0 0 0 0 0 0 0
0 0 0 0 0 0 0 0 0 0 0 0 0 0 0 0 0 0 0 0 0 0 0 0 0 0 0 0 0 0 0 0 0 0
0 0 0 0 0 0 0 0 0 0 0 0 0 0 0 0 0 0 0 0 0 0 0 0 0 0 0 0 0 0 0 0 0 0
0 0 0 0 0 0 0 0 0 0 0 0 0 0 0 0 0 0 0 0 0 0 0 0;
#N canvas 267 59 926 547 snap 0;
#X obj 175 141 hradio 15 1 0 4 empty empty snap 0 -8 0 10 #fcfcfc #000000
#000000 0;
#X msg 265 114 save;
#X msg 275 155 paste;
#X msg 254 134 save \, copy;
#X obj 419 375 hradio 15 1 0 4 empty empty snap 0 -8 0 10 #fcfcfc #000000
#000000 0;
#X msg 419 395 save \, \$1;
#X obj 103 171 bng 15 250 50 0 empty empty save_as 17 7 0 10 #fcfcfc
#000000 #000000;
#X obj 430 100 savepanel;
#X obj 103 154 bng 15 250 50 0 empty empty open 17 7 0 10 #fcfcfc #000000
#000000;
#X msg 322 109 open \$1 \, paste;
#X obj 322 89 openpanel;
#X msg 430 120 save \, copy \, save_as \$1;
#X obj 103 195 bng 15 250 50 0 empty empty rand_nbx 17 7 0 10 #fcfcfc
#000000 #000000;
#X obj 180 195 nbx 3 15 0 100 0 1 empty empty empty 0 -8 0 10 #bbbbbb
#000000 #000000 100 256;
#X obj 366 192 * 0.01;
#X obj 103 103 bng 15 250 50 0 empty empty save 17 7 0 10 #fcfcfc #000000
#000000;
#X obj 103 120 bng 15 250 50 0 empty empty copy 17 7 0 10 #fcfcfc #000000
#000000;
#X obj 103 137 bng 15 250 50 0 empty empty paste 17 7 0 10 #fcfcfc
#000000 #000000;
#X obj 280 356 outlet;
#X obj 218 195 tgl 15 1 empty empty i 17 7 0 10 #bbbbbb #000000 #000000
1 1;
#X msg 409 191 rand nbx \$2 \$3;
#X obj 300 194 pack f f f;
#X obj 103 212 bng 15 250 50 0 empty empty rand_sl 17 7 0 10 #fcfcfc
#000000 #000000;
#X obj 180 212 nbx 3 15 0 100 0 1 empty empty empty 0 -8 0 10 #bbbbbb
#000000 #000000 100 256;
#X obj 366 212 * 0.01;
#X obj 218 212 tgl 15 1 empty empty i 17 7 0 10 #bbbbbb #000000 #000000
1 1;
#X obj 300 214 pack f f f;
#X msg 425 219 rand sl \$2 \$3;
#X obj 103 229 bng 15 250 50 0 empty empty rand_rd 17 7 0 10 #fcfcfc
#000000 #000000;
#X obj 180 229 nbx 3 15 0 100 0 1 empty empty empty 0 -8 0 10 #bbbbbb
#000000 #000000 100 256;
#X obj 366 233 * 0.01;
#X obj 300 235 pack f f f;
#X msg 425 240 rand radio \$2;
#X obj 103 246 bng 15 250 50 0 empty empty rand_tgl 17 7 0 10 #fcfcfc
#000000 #000000;
#X obj 368 253 * 0.01;
#X obj 299 256 pack f f f;
#X obj 103 263 bng 15 250 50 0 empty empty rand_knb 17 7 0 10 #fcfcfc
#000000 #000000;
#X obj 180 263 nbx 3 15 0 100 0 1 empty empty empty 0 -8 0 10 #bbbbbb
#000000 #000000 100 256;
#X obj 368 282 * 0.01;
#X obj 218 263 tgl 15 1 empty empty i 17 7 0 10 #bbbbbb #000000 #000000
1 1;
#X obj 302 284 pack f f f;
#X msg 425 284 rand knob \$2 \$3;
#X msg 427 260 rand tgl;
#X connect 0 0 18 0;
#X connect 1 0 18 0;
#X connect 2 0 18 0;
#X connect 3 0 18 0;
#X connect 4 0 5 0;
#X connect 5 0 18 0;
#X connect 6 0 7 0;
#X connect 7 0 11 0;
#X connect 8 0 10 0;
#X connect 9 0 18 0;
#X connect 10 0 9 0;
#X connect 11 0 18 0;
#X connect 12 0 21 0;
#X connect 13 0 14 0;
#X connect 14 0 21 1;
#X connect 15 0 1 0;
#X connect 16 0 3 0;
#X connect 17 0 2 0;
#X connect 19 0 21 2;
#X connect 20 0 18 0;
#X connect 21 0 20 0;
#X connect 22 0 26 0;
#X connect 23 0 24 0;
#X connect 24 0 26 1;
#X connect 25 0 26 2;
#X connect 26 0 27 0;
#X connect 27 0 18 0;
#X connect 28 0 31 0;
#X connect 29 0 30 0;
#X connect 30 0 31 1;
#X connect 31 0 32 0;
#X connect 32 0 18 0;
#X connect 33 0 35 0;
#X connect 34 0 35 1;
#X connect 35 0 42 0;
#X connect 36 0 40 0;
#X connect 37 0 38 0;
#X connect 38 0 40 1;
#X connect 39 0 40 2;
#X connect 40 0 41 0;
#X connect 41 0 18 0;
#X connect 42 0 18 0;
#X coords 0 -1 1 1 150 180 2 100 100;
#X restore 247 36 pd snap;
#X obj 247 218 s pdss-snap-1;
#X obj 247 428 s pdss-snap-2;
#N canvas 267 59 592 627 snap 0;
#X obj 175 141 hradio 15 1 0 4 empty empty snap 0 -8 0 10 #fcfcfc #000000
#000000 0;
#X msg 265 114 save;
#X msg 275 155 paste;
#X msg 254 134 save \, copy;
#X obj 419 375 hradio 15 1 0 4 empty empty snap 0 -8 0 10 #fcfcfc #000000
#000000 0;
#X msg 419 395 save \, \$1;
#X obj 103 171 bng 15 250 50 0 empty empty save_as 17 7 0 10 #fcfcfc
#000000 #000000;
#X obj 430 100 savepanel;
#X obj 103 154 bng 15 250 50 0 empty empty open 17 7 0 10 #fcfcfc #000000
#000000;
#X msg 322 109 open \$1 \, paste;
#X obj 322 89 openpanel;
#X msg 430 120 save \, copy \, save_as \$1;
#X obj 103 195 bng 15 250 50 0 empty empty rand_nbx 17 7 0 10 #fcfcfc
#000000 #000000;
#X obj 180 195 nbx 3 15 0 100 0 1 empty empty empty 0 -8 0 10 #bbbbbb
#000000 #000000 100 256;
#X obj 366 192 * 0.01;
#X obj 103 103 bng 15 250 50 0 empty empty save 17 7 0 10 #fcfcfc #000000
#000000;
#X obj 103 120 bng 15 250 50 0 empty empty copy 17 7 0 10 #fcfcfc #000000
#000000;
#X obj 103 137 bng 15 250 50 0 empty empty paste 17 7 0 10 #fcfcfc
#000000 #000000;
#X obj 280 356 outlet;
#X obj 218 195 tgl 15 1 empty empty i 17 7 0 10 #bbbbbb #000000 #000000
1 1;
#X msg 409 191 rand nbx \$2 \$3;
#X obj 300 194 pack f f f;
#X obj 103 212 bng 15 250 50 0 empty empty rand_sl 17 7 0 10 #fcfcfc
#000000 #000000;
#X obj 180 212 nbx 3 15 0 100 0 1 empty empty empty 0 -8 0 10 #bbbbbb
#000000 #000000 94 256;
#X obj 366 212 * 0.01;
#X obj 218 212 tgl 15 1 empty empty i 17 7 0 10 #bbbbbb #000000 #000000
1 1;
#X obj 300 214 pack f f f;
#X msg 425 219 rand sl \$2 \$3;
#X obj 103 229 bng 15 250 50 0 empty empty rand_rd 17 7 0 10 #fcfcfc
#000000 #000000;
#X obj 180 229 nbx 3 15 0 100 0 1 empty empty empty 0 -8 0 10 #bbbbbb
#000000 #000000 100 256;
#X obj 366 233 * 0.01;
#X obj 300 235 pack f f f;
#X msg 425 240 rand radio \$2;
#X obj 103 246 bng 15 250 50 0 empty empty rand_tgl 17 7 0 10 #fcfcfc
#000000 #000000;
#X obj 368 253 * 0.01;
#X obj 299 256 pack f f f;
#X obj 103 263 bng 15 250 50 0 empty empty rand_knb 17 7 0 10 #fcfcfc
#000000 #000000;
#X obj 180 263 nbx 3 15 0 100 0 1 empty empty empty 0 -8 0 10 #bbbbbb
#000000 #000000 100 256;
#X obj 368 282 * 0.01;
#X obj 218 263 tgl 15 1 empty empty i 17 7 0 10 #bbbbbb #000000 #000000
1 1;
#X obj 302 284 pack f f f;
#X msg 425 284 rand knob \$2 \$3;
#X msg 427 260 rand tgl;
#X connect 0 0 18 0;
#X connect 1 0 18 0;
#X connect 2 0 18 0;
#X connect 3 0 18 0;
#X connect 4 0 5 0;
#X connect 5 0 18 0;
#X connect 6 0 7 0;
#X connect 7 0 11 0;
#X connect 8 0 10 0;
#X connect 9 0 18 0;
#X connect 10 0 9 0;
#X connect 11 0 18 0;
#X connect 12 0 21 0;
#X connect 13 0 14 0;
#X connect 14 0 21 1;
#X connect 15 0 1 0;
#X connect 16 0 3 0;
#X connect 17 0 2 0;
#X connect 19 0 21 2;
#X connect 20 0 18 0;
#X connect 21 0 20 0;
#X connect 22 0 26 0;
#X connect 23 0 24 0;
#X connect 24 0 26 1;
#X connect 25 0 26 2;
#X connect 26 0 27 0;
#X connect 27 0 18 0;
#X connect 28 0 31 0;
#X connect 29 0 30 0;
#X connect 30 0 31 1;
#X connect 31 0 32 0;
#X connect 32 0 18 0;
#X connect 33 0 35 0;
#X connect 34 0 35 1;
#X connect 35 0 42 0;
#X connect 36 0 40 0;
#X connect 37 0 38 0;
#X connect 38 0 40 1;
#X connect 39 0 40 2;
#X connect 40 0 41 0;
#X connect 41 0 18 0;
#X connect 42 0 18 0;
#X coords 0 -1 1 1 150 180 2 100 100;
#X restore 247 246 pd snap;
#N canvas 267 59 592 627 snap 0;
#X obj 175 141 hradio 15 1 0 4 empty empty snap 0 -8 0 10 #fcfcfc #000000
#000000 0;
#X msg 265 114 save;
#X msg 275 155 paste;
#X msg 254 134 save \, copy;
#X obj 419 375 hradio 15 1 0 4 empty empty snap 0 -8 0 10 #fcfcfc #000000
#000000 0;
#X msg 419 395 save \, \$1;
#X obj 103 171 bng 15 250 50 0 empty empty save_as 17 7 0 10 #fcfcfc
#000000 #000000;
#X obj 430 100 savepanel;
#X obj 103 154 bng 15 250 50 0 empty empty open 17 7 0 10 #fcfcfc #000000
#000000;
#X msg 322 109 open \$1 \, paste;
#X obj 322 89 openpanel;
#X msg 430 120 save \, copy \, save_as \$1;
#X obj 103 195 bng 15 250 50 0 empty empty rand_nbx 17 7 0 10 #fcfcfc
#000000 #000000;
#X obj 180 195 nbx 3 15 0 100 0 1 empty empty empty 0 -8 0 10 #bbbbbb
#000000 #000000 62 256;
#X obj 366 192 * 0.01;
#X obj 103 103 bng 15 250 50 0 empty empty save 17 7 0 10 #fcfcfc #000000
#000000;
#X obj 103 120 bng 15 250 50 0 empty empty copy 17 7 0 10 #fcfcfc #000000
#000000;
#X obj 103 137 bng 15 250 50 0 empty empty paste 17 7 0 10 #fcfcfc
#000000 #000000;
#X obj 280 356 outlet;
#X obj 218 195 tgl 15 1 empty empty i 17 7 0 10 #bbbbbb #000000 #000000
1 1;
#X msg 409 191 rand nbx \$2 \$3;
#X obj 300 194 pack f f f;
#X obj 103 212 bng 15 250 50 0 empty empty rand_sl 17 7 0 10 #fcfcfc
#000000 #000000;
#X obj 180 212 nbx 3 15 0 100 0 1 empty empty empty 0 -8 0 10 #bbbbbb
#000000 #000000 100 256;
#X obj 366 212 * 0.01;
#X obj 218 212 tgl 15 1 empty empty i 17 7 0 10 #bbbbbb #000000 #000000
1 1;
#X obj 300 214 pack f f f;
#X msg 425 219 rand sl \$2 \$3;
#X obj 103 229 bng 15 250 50 0 empty empty rand_rd 17 7 0 10 #fcfcfc
#000000 #000000;
#X obj 180 229 nbx 3 15 0 100 0 1 empty empty empty 0 -8 0 10 #bbbbbb
#000000 #000000 66 256;
#X obj 366 233 * 0.01;
#X obj 300 235 pack f f f;
#X msg 425 240 rand radio \$2;
#X obj 103 246 bng 15 250 50 0 empty empty rand_tgl 17 7 0 10 #fcfcfc
#000000 #000000;
#X obj 368 253 * 0.01;
#X obj 299 256 pack f f f;
#X obj 103 263 bng 15 250 50 0 empty empty rand_knb 17 7 0 10 #fcfcfc
#000000 #000000;
#X obj 180 263 nbx 3 15 0 100 0 1 empty empty empty 0 -8 0 10 #bbbbbb
#000000 #000000 100 256;
#X obj 368 282 * 0.01;
#X obj 218 263 tgl 15 1 empty empty i 17 7 0 10 #bbbbbb #000000 #000000
1 1;
#X obj 302 284 pack f f f;
#X msg 425 284 rand knob \$2 \$3;
#X msg 427 260 rand tgl;
#X connect 0 0 18 0;
#X connect 1 0 18 0;
#X connect 2 0 18 0;
#X connect 3 0 18 0;
#X connect 4 0 5 0;
#X connect 5 0 18 0;
#X connect 6 0 7 0;
#X connect 7 0 11 0;
#X connect 8 0 10 0;
#X connect 9 0 18 0;
#X connect 10 0 9 0;
#X connect 11 0 18 0;
#X connect 12 0 21 0;
#X connect 13 0 14 0;
#X connect 14 0 21 1;
#X connect 15 0 1 0;
#X connect 16 0 3 0;
#X connect 17 0 2 0;
#X connect 19 0 21 2;
#X connect 20 0 18 0;
#X connect 21 0 20 0;
#X connect 22 0 26 0;
#X connect 23 0 24 0;
#X connect 24 0 26 1;
#X connect 25 0 26 2;
#X connect 26 0 27 0;
#X connect 27 0 18 0;
#X connect 28 0 31 0;
#X connect 29 0 30 0;
#X connect 30 0 31 1;
#X connect 31 0 32 0;
#X connect 32 0 18 0;
#X connect 33 0 35 0;
#X connect 34 0 35 1;
#X connect 35 0 42 0;
#X connect 36 0 40 0;
#X connect 37 0 38 0;
#X connect 38 0 40 1;
#X connect 39 0 40 2;
#X connect 40 0 41 0;
#X connect 41 0 18 0;
#X connect 42 0 18 0;
#X coords 0 -1 1 1 150 180 2 100 100;
#X restore 401 36 pd snap;
#X obj 401 218 s pdss-snap-3;
#X obj 401 238 s pdss-snap-4;
#X obj 612 300 example3 4 4;
#N canvas 310 87 841 585 auto 0;
#X obj 157 313 inlet;
#X obj 157 456 s;
#X obj 200 217 bng 15 250 50 0 empty empty empty 4 8 0 10 #fcfcfc #000000
#000000;
#X msg 662 61 1;
#X msg 596 94 0;
#X msg 200 123 color 0 22 22;
#X obj 519 91 spigot;
#X obj 200 101 sel 0;
#X obj 157 345 *;
#X obj 157 366 +;
#X obj 519 111 t a b;
#X msg 93 217 color 13 22 22;
#X obj 141 105 loadbang;
#X obj 200 77 r pdss-par-info-get;
#X obj 662 95 s pdss-par-info-get;
#X obj 596 123 s pdss-par-info-get;
#X obj 519 41 r pdss-par-info-return;
#X obj 519 149 unpack s f f f s s f f f;
#X obj 554 211 nbx 3 14 -1e+37 1e+37 0 1 empty empty empty 0 -8 0 10
#bbbbbb #000000 #000000 2 256;
#X obj 590 211 nbx 3 14 0 1e+37 0 1 empty empty empty 0 -8 0 10 #bbbbbb
#000000 #000000 4 256;
#X obj 554 251 pack;
#X obj 590 228 t b f;
#X obj 554 274 t b a b;
#X msg 542 313 1;
#X msg 496 308 0;
#X obj 476 387 spigot;
#X obj 620 328 s pdss-ins-info-get;
#X obj 620 348 r pdss-ins-info-return;
#X obj 620 308 unpack f f;
#X obj 620 368 unpack s f f f f;
#X obj 643 391 pack f f;
#X obj 643 414 t b a;
#X obj 643 461 s;
#X msg 682 441 symbol \$1-pdss-r-\$2;
#X obj 477 347 s pdss-par-info-get;
#X obj 476 367 r pdss-par-info-return;
#X obj 408 391 print;
#X obj 476 461 t a a a a;
#X obj 662 540 s \$0-auto-label;
#X obj 215 217 nbx 5 15 0 127 0 1 empty empty empty 0 -8 0 10 #bbbbbb
#000000 #000000 49 256;
#X obj 269 217 nbx 5 15 0 127 0 1 empty empty empty 0 -8 0 10 #bbbbbb
#000000 #000000 88 256;
#X obj 384 542 s \$0-auto-max;
#X obj 280 542 s \$0-auto-min;
#X obj 215 143 r \$0-auto-min;
#X obj 269 163 r \$0-auto-max;
#X obj 200 357 s \$0-auto-rec;
#X obj 662 39 r \$0-auto-rec;
#N canvas 437 445 450 300 win 0;
#X obj 101 101 cnv 13 198 13 empty \$0-auto-label [example1][2][par_5]
0 8 0 10 #bbbbbb #000000 0;
#X coords 0 -1 1 1 200 15 2 100 100;
#X restore 323 217 pd win;
#X obj 269 236 t b f;
#X obj 215 257 -;
#X floatatom 215 304 5 0 0 1 range - - 0;
#X msg 491 522 symbol \$2-pdss-r-\$4;
#X obj 215 280 * -1;
#X msg 280 522 range \$7 \$8;
#X msg 384 522 range \$7 \$8;
#X msg 661 520 label [\$1][\$3][\$6];
#X connect 0 0 8 0;
#X connect 2 0 11 0;
#X connect 2 0 45 0;
#X connect 3 0 14 0;
#X connect 3 0 6 1;
#X connect 4 0 6 1;
#X connect 4 0 15 0;
#X connect 5 0 2 0;
#X connect 6 0 10 0;
#X connect 7 0 5 0;
#X connect 8 0 9 0;
#X connect 9 0 1 0;
#X connect 10 0 17 0;
#X connect 10 1 4 0;
#X connect 11 0 2 0;
#X connect 12 0 5 0;
#X connect 13 0 7 0;
#X connect 16 0 6 0;
#X connect 17 2 18 0;
#X connect 17 3 19 0;
#X connect 18 0 20 0;
#X connect 19 0 21 0;
#X connect 20 0 22 0;
#X connect 21 0 20 0;
#X connect 21 1 20 1;
#X connect 22 0 24 0;
#X connect 22 1 28 0;
#X connect 22 2 23 0;
#X connect 23 0 34 0;
#X connect 23 0 25 1;
#X connect 24 0 34 0;
#X connect 24 0 25 1;
#X connect 25 0 36 0;
#X connect 25 0 37 0;
#X connect 27 0 29 0;
#X connect 28 0 26 0;
#X connect 28 1 30 1;
#X connect 29 1 30 0;
#X connect 30 0 31 0;
#X connect 31 0 32 0;
#X connect 31 1 33 0;
#X connect 33 0 32 1;
#X connect 35 0 25 0;
#X connect 37 0 53 0;
#X connect 37 1 54 0;
#X connect 37 2 51 0;
#X connect 37 3 55 0;
#X connect 39 0 49 0;
#X connect 39 0 9 1;
#X connect 40 0 48 0;
#X connect 43 0 39 0;
#X connect 44 0 40 0;
#X connect 46 0 3 0;
#X connect 48 0 49 0;
#X connect 48 1 49 1;
#X connect 49 0 52 0;
#X connect 50 0 8 1;
#X connect 51 0 1 1;
#X connect 52 0 50 0;
#X connect 53 0 42 0;
#X connect 54 0 41 0;
#X connect 55 0 38 0;
#X coords 0 -1 1 1 323 32 2 200 200;
#X restore 399 393 pd auto;
#X obj 399 274 vsl 20 80 0 1 0 0 empty empty empty 0 -9 0 10 #fcfcfc
#000000 #000000 0 1;
#X connect 4 0 20 0;
#X connect 6 0 7 0;
#X connect 7 0 13 0;
#X connect 8 0 9 0;
#X connect 9 0 10 0;
#X connect 10 0 20 0;
#X connect 11 0 14 0;
#X connect 11 1 5 0;
#X connect 13 0 20 0;
#X connect 14 0 15 0;
#X connect 15 0 12 0;
#X connect 20 0 11 0;
#X connect 21 0 22 0;
#X connect 24 0 23 0;
#X connect 25 0 26 0;
#X connect 25 0 27 0;
#X connect 30 0 29 0;
