#N canvas 345 16 1021 505 12;
#X text 812 165 [0] size file;
#X obj 28 48 inlet;
#X obj 130 412 outlet;
#X text 813 147 structure file:;
#X obj 812 90 table \$0-pdss-main;
#X obj 812 111 table \$0-pdss-buffer;
#X obj 28 69 route snap snap_load snap_save;
#N canvas 452 75 714 573 old 0;
#X obj 264 61 savepanel;
#X obj 264 97 t b a;
#X msg 192 226 empty;
#N canvas 401 45 544 379 save 0;
#X obj 183 63 inlet;
#X obj 83 343 outlet;
#X obj 83 280 pack s s s, f 24;
#X msg 83 301 symbol \$1\$2\$3;
#N canvas 0 50 602 535 split 0;
#X obj 212 15 inlet;
#X obj 295 82 list fromsymbol;
#X obj 269 133 until;
#X obj 282 216 list store;
#X obj 307 159 + 1;
#X msg 321 133 0, f 2;
#X msg 268 198 get \$1 1;
#X obj 282 259 i;
#X obj 269 158 i;
#X obj 269 179 t f f;
#X obj 176 318 list split;
#X obj 236 299 i;
#X obj 204 343 list tosymbol;
#X obj 176 387 list tosymbol;
#X obj 137 103 list;
#X obj 212 36 t b b s;
#X obj 204 361 outlet;
#X obj 176 406 outlet;
#X obj 282 279 + 1;
#X obj 295 100 t b b l l;
#X obj 353 294 list length;
#X obj 282 237 sel 47;
#X connect 0 0 15 0;
#X connect 1 0 14 1;
#X connect 1 0 19 0;
#X connect 2 0 8 0;
#X connect 3 0 21 0;
#X connect 3 1 2 1;
#X connect 4 0 8 1;
#X connect 5 0 8 1;
#X connect 6 0 3 0;
#X connect 7 0 18 0;
#X connect 8 0 4 0;
#X connect 8 0 9 0;
#X connect 9 0 6 0;
#X connect 9 1 7 1;
#X connect 10 0 13 0;
#X connect 10 1 12 0;
#X connect 11 0 10 1;
#X connect 12 0 16 0;
#X connect 13 0 17 0;
#X connect 14 0 10 0;
#X connect 15 0 14 0;
#X connect 15 1 11 0;
#X connect 15 2 1 0;
#X connect 18 0 11 1;
#X connect 19 0 2 0;
#X connect 19 1 5 0;
#X connect 19 2 3 1;
#X connect 19 3 20 0;
#X connect 20 0 11 1;
#X connect 21 0 7 0;
#X restore 83 111 pd split '/';
#N canvas 0 50 602 535 split 0;
#X obj 212 15 inlet;
#X obj 295 82 list fromsymbol;
#X obj 269 133 until;
#X obj 282 216 list store;
#X obj 307 159 + 1;
#X msg 321 133 0, f 2;
#X msg 268 198 get \$1 1;
#X obj 282 259 i;
#X obj 269 158 i;
#X obj 269 179 t f f;
#X obj 176 318 list split;
#X obj 236 299 i;
#X obj 204 343 list tosymbol;
#X obj 176 387 list tosymbol;
#X obj 137 103 list;
#X obj 212 36 t b b s;
#X obj 204 361 outlet;
#X obj 176 406 outlet;
#X obj 282 279 + 1;
#X obj 295 100 t b b l l;
#X obj 353 294 list length;
#X obj 282 237 sel 46;
#X connect 0 0 15 0;
#X connect 1 0 14 1;
#X connect 1 0 19 0;
#X connect 2 0 8 0;
#X connect 3 0 21 0;
#X connect 3 1 2 1;
#X connect 4 0 8 1;
#X connect 5 0 8 1;
#X connect 6 0 3 0;
#X connect 7 0 18 0;
#X connect 8 0 4 0;
#X connect 8 0 9 0;
#X connect 9 0 6 0;
#X connect 9 1 7 1;
#X connect 10 0 13 0;
#X connect 10 1 12 0;
#X connect 11 0 10 1;
#X connect 12 0 16 0;
#X connect 13 0 17 0;
#X connect 14 0 10 0;
#X connect 15 0 14 0;
#X connect 15 1 11 0;
#X connect 15 2 1 0;
#X connect 18 0 11 1;
#X connect 19 0 2 0;
#X connect 19 1 5 0;
#X connect 19 2 3 1;
#X connect 19 3 20 0;
#X connect 20 0 11 1;
#X connect 21 0 7 0;
#X restore 153 146 pd split '.';
#X obj 183 86 t a b;
#X obj 270 155 sel txt;
#X msg 224 185 symbol txt;
#X msg 314 185 symbol \$1.txt;
#X msg 437 192 symbol txt;
#X connect 0 0 6 0;
#X connect 2 0 3 0;
#X connect 3 0 1 0;
#X connect 4 0 2 0;
#X connect 4 1 5 0;
#X connect 5 0 2 1;
#X connect 5 1 7 0;
#X connect 6 0 4 0;
#X connect 6 1 10 0;
#X connect 7 0 8 0;
#X connect 7 1 9 0;
#X connect 8 0 2 2;
#X connect 9 0 2 2;
#X connect 10 0 2 2;
#X restore 264 79 pd save as *.txt;
#X obj 418 119 loadbang;
#N canvas 219 69 991 650 save 0;
#X obj 596 192 n_array;
#X obj 474 259 n_array;
#X msg 501 295 0;
#X obj 474 277 t f b;
#X obj 291 510 n_array;
#X text 718 145 print.;
#X text 649 190 resize main.;
#X text 646 213 get all arrays and copy to main.;
#X text 533 347 write to file.;
#X text 344 511 clear.;
#X text 409 408 print.;
#X obj 25 56 inlet file;
#X obj 230 547 outlet;
#X text 275 547 label.;
#X obj 658 144 print -n;
#X obj 352 408 print -n;
#X obj 596 155 i \$0;
#X msg 596 173 resize \$1_ss_main 1;
#X obj 535 214 s \$0_ss_get_array;
#X obj 169 573 s \$0_ss_stop_save;
#X text 288 574 stop saving.;
#X obj 169 90 symbol;
#X obj 474 222 i \$0;
#X obj 474 311 tabwrite \$0_ss_main;
#X text 598 312 size main.;
#X msg 474 241 size \$1_ss_main;
#X obj 413 323 list \$0;
#X msg 413 341 \; \$2_ss_main write \$1;
#X obj 291 463 i \$0;
#X msg 291 481 resize \$1_ss_buffer 1 \, resize \$1_ss_main 1, f 23
;
#X msg 658 126 save ..........;
#X text 85 162 print.;
#X obj 25 161 print -n;
#X msg 25 142 save .......... \, empty;
#X obj 25 74 route empty;
#X obj 352 321 list;
#X msg 352 390 save to file \$1 \$2 elements;
#X obj 169 108 t b s b s s b b b b, f 82;
#X obj 724 349 n_array;
#X obj 724 307 i \$0;
#X msg 724 328 dump \$1_ss_main 0 0;
#X text 780 351 dump main.;
#X text 723 456 print.;
#X obj 666 456 print -n;
#X obj 666 369 i;
#X obj 169 58 t b s b b b b b b b, f 82;
#X msg 666 438 save \$1 elements;
#X obj 724 373 outlet;
#X obj 169 21 inlet local;
#X msg 169 39 symbol local;
#X connect 1 0 3 0;
#X connect 2 0 23 1;
#X connect 3 0 23 0;
#X connect 3 0 35 1;
#X connect 3 0 44 1;
#X connect 3 1 2 0;
#X connect 11 0 34 0;
#X connect 16 0 17 0;
#X connect 17 0 0 0;
#X connect 21 0 37 0;
#X connect 22 0 25 0;
#X connect 25 0 1 0;
#X connect 26 0 27 0;
#X connect 28 0 29 0;
#X connect 29 0 4 0;
#X connect 30 0 14 0;
#X connect 33 0 32 0;
#X connect 34 0 33 0;
#X connect 34 1 21 0;
#X connect 35 0 36 0;
#X connect 36 0 15 0;
#X connect 37 0 19 0;
#X connect 37 1 12 0;
#X connect 37 2 28 0;
#X connect 37 3 35 0;
#X connect 37 4 26 0;
#X connect 37 5 22 0;
#X connect 37 6 18 0;
#X connect 37 7 16 0;
#X connect 37 8 30 0;
#X connect 38 0 47 0;
#X connect 39 0 40 0;
#X connect 40 0 38 0;
#X connect 44 0 46 0;
#X connect 45 0 19 0;
#X connect 45 2 28 0;
#X connect 45 3 44 0;
#X connect 45 4 39 0;
#X connect 45 5 22 0;
#X connect 45 6 18 0;
#X connect 45 7 16 0;
#X connect 45 8 30 0;
#X connect 46 0 43 0;
#X connect 48 0 49 0;
#X connect 49 0 45 0;
#X restore 194 261 pd save;
#N canvas 418 16 948 626 load 0;
#X msg 65 171 0;
#X obj 653 335 n_array;
#X obj 225 598 s ss_init;
#X obj 277 518 symbol;
#X obj 65 209 moses 1;
#X obj 570 374 symbol;
#X obj 330 479 n_array;
#N canvas 297 46 646 649 read 0;
#X obj 17 10 inlet;
#X obj 154 536 outlet;
#X obj 411 139 + 0;
#X obj 297 127 + 1;
#X obj 319 492 n_array;
#X obj 180 113 + 2;
#X obj 154 491 +;
#X obj 147 172 + 3;
#X obj 42 126 + 0;
#X obj 154 455 t a a a, f 28;
#X text 429 117 number ins.;
#X text 307 107 number array.;
#X text 196 98 size array.;
#X text 55 26 ofs.;
#X text 200 538 ofs.;
#X text 371 493 copy.;
#X obj 236 534 print -n;
#X text 297 535 print.;
#X obj 537 176 i \$0;
#X obj 41 220 s ss_get_array_by_ins_num;
#X obj 32 243 r ss_get_array_by_ins_num_receive;
#X text 51 183 1) number ins;
#X text 51 203 2) number array;
#X obj 41 163 list;
#X text 85 126 number ins.;
#X obj 154 299 pack s f f f f f f, f 51;
#X text 174 317 1) name array;
#X text 174 337 2) ofs data;
#X text 174 357 3) size array;
#X text 174 377 4) number array;
#X text 174 397 5) number ins;
#X text 174 417 6) ofs;
#X text 174 437 7) \$0;
#X msg 319 474 copy \$7_ss_main \$2 \$3 \$1;
#X msg 236 516 copy \$3 elements to ins \$5 \$1;
#X msg 154 473 \$2 \$3;
#X obj 180 131 tabread \$0_ss_main;
#X obj 297 145 tabread \$0_ss_main;
#X obj 411 157 tabread \$0_ss_main;
#X obj 41 144 tabread \$0_ss_main;
#X obj 18 45 t b f f f f f f b, f 87;
#X obj 18 266 symbol;
#X connect 0 0 40 0;
#X connect 2 0 38 0;
#X connect 3 0 37 0;
#X connect 5 0 36 0;
#X connect 6 0 1 0;
#X connect 7 0 25 1;
#X connect 8 0 39 0;
#X connect 9 0 35 0;
#X connect 9 1 34 0;
#X connect 9 2 33 0;
#X connect 18 0 25 6;
#X connect 20 0 41 1;
#X connect 23 0 19 0;
#X connect 25 0 9 0;
#X connect 33 0 4 0;
#X connect 34 0 16 0;
#X connect 35 0 6 0;
#X connect 36 0 25 2;
#X connect 37 0 23 1;
#X connect 37 0 25 3;
#X connect 38 0 25 4;
#X connect 39 0 23 0;
#X connect 40 0 41 0;
#X connect 40 1 8 0;
#X connect 40 2 7 0;
#X connect 40 3 5 0;
#X connect 40 4 3 0;
#X connect 40 5 2 0;
#X connect 40 6 25 5;
#X connect 40 7 18 0;
#X connect 41 0 25 0;
#X restore 186 375 pd read array;
#X obj 186 357 i;
#N canvas 70 104 450 300 delay 0;
#X obj 85 88 inlet;
#X obj 83 190 outlet;
#X obj 85 109 t b f;
#X obj 57 140 delay 1;
#X obj 69 164 f;
#X connect 0 0 2 0;
#X connect 2 0 3 0;
#X connect 2 1 4 1;
#X connect 3 0 4 0;
#X connect 4 0 1 0;
#X restore 54 415 pd delay;
#X text 424 97 print.;
#X text 294 163 read file.;
#X text 194 190 read size file.;
#X text 692 413 read file.;
#X text 707 335 resize main.;
#X text 382 479 clear.;
#X msg 322 113 0;
#X msg 264 113 0;
#X text 399 129 init.;
#X text 125 274 error.;
#X obj 487 479 outlet;
#X text 532 479 label.;
#X obj 225 414 t b b b, f 18;
#X text 287 597 init.;
#X text 336 558 print.;
#X msg 364 79 load ..........;
#X obj 364 97 print -n;
#X obj 264 97 t b b;
#X obj 264 129 tabwrite \$0_ss_buffer;
#X msg 164 155 \; \$2_ss_buffer read \$1;
#X obj 164 137 list \$0;
#X obj 478 70 s \$0_ss_filename;
#X obj 603 356 r \$0_ss_filename;
#X obj 310 500 r \$0_ss_filename;
#X obj 65 40 t b s b b s, f 67;
#X obj 65 21 inlet filename;
#X obj 65 190 tabread \$0_ss_buffer;
#X obj 65 274 print -n;
#X obj 65 238 list;
#X obj 100 228 r \$0_ss_filename;
#X msg 65 256 error: file \$2 bad size: \$1;
#X obj 737 284 print -n;
#X obj 737 248 list;
#X obj 758 230 r \$0_ss_filename;
#X text 797 284 print.;
#X msg 737 266 file \$2 size: \$1;
#X obj 653 299 list \$0;
#X msg 653 317 resize \$2_ss_main \$1;
#X obj 570 392 list \$0;
#X msg 570 410 \; \$2_ss_main read \$1;
#X obj 487 461 symbol;
#X obj 520 443 r \$0_ss_filename;
#X obj 404 227 t f b b f f, f 56;
#X obj 186 308 t b b f;
#X text 285 377 count;
#X obj 330 432 i \$0;
#X msg 330 450 resize \$1_ss_buffer 1 \, resize \$1_ss_main 1, f 22
;
#X obj 277 554 print -n;
#X obj 657 59 inlet local;
#X obj 617 135 i \$0;
#X msg 617 156 size \$1_ss_main;
#X obj 617 177 n_array;
#X msg 277 536 load \$1;
#X obj 730 146 s \$0_ss_filename;
#X obj 657 80 t b b b;
#X msg 738 121 symbol local;
#X msg 201 333 1;
#X obj 181 403 moses;
#X connect 0 0 36 0;
#X connect 3 0 62 0;
#X connect 4 0 38 0;
#X connect 4 1 52 0;
#X connect 5 0 48 0;
#X connect 7 0 67 0;
#X connect 8 0 7 0;
#X connect 9 0 8 0;
#X connect 16 0 28 1;
#X connect 17 0 28 0;
#X connect 22 0 2 0;
#X connect 22 1 3 0;
#X connect 22 2 55 0;
#X connect 25 0 26 0;
#X connect 27 0 17 0;
#X connect 27 1 16 0;
#X connect 30 0 29 0;
#X connect 32 0 5 1;
#X connect 33 0 3 1;
#X connect 34 0 0 0;
#X connect 34 1 30 0;
#X connect 34 2 27 0;
#X connect 34 3 25 0;
#X connect 34 4 31 0;
#X connect 35 0 34 0;
#X connect 36 0 4 0;
#X connect 38 0 40 0;
#X connect 39 0 38 1;
#X connect 40 0 37 0;
#X connect 42 0 45 0;
#X connect 43 0 42 1;
#X connect 45 0 41 0;
#X connect 46 0 47 0;
#X connect 47 0 1 0;
#X connect 48 0 49 0;
#X connect 50 0 20 0;
#X connect 51 0 50 1;
#X connect 52 0 53 0;
#X connect 52 1 50 0;
#X connect 52 2 5 0;
#X connect 52 3 46 0;
#X connect 52 4 42 0;
#X connect 53 0 8 0;
#X connect 53 1 66 0;
#X connect 53 2 67 1;
#X connect 55 0 56 0;
#X connect 56 0 6 0;
#X connect 58 0 64 0;
#X connect 59 0 60 0;
#X connect 60 0 61 0;
#X connect 61 0 53 0;
#X connect 62 0 57 0;
#X connect 64 0 59 0;
#X connect 64 1 25 0;
#X connect 64 2 65 0;
#X connect 65 0 63 0;
#X connect 66 0 8 1;
#X connect 67 0 9 0;
#X connect 67 1 22 0;
#X restore 120 127 pd load;
#X msg 290 120 set symbol \$1;
#X msg 147 170 set symbol \$1;
#X msg 418 137 set empty;
#X obj 120 146 t a a;
#X obj 328 265 savestate;
#X obj 416 205 bng 15 250 50 0 empty empty save_local 17 7 0 10 #fc8000
#000000 #000000;
#X obj 379 308 spigot \$1;
#X obj 328 375 spigot \$1;
#X obj 395 485 list prepend set;
#X obj 328 396 t b a b, f 23;
#X obj 463 421 i \$0;
#X msg 463 442 \$1_ss_main;
#X obj 395 465 list prepend;
#X obj 395 526 n_array;
#X obj 395 506 list trim;
#X obj 453 270 s ss_save_local;
#X obj 379 284 t b b;
#X text 571 304 send to all.;
#N canvas 161 332 450 300 delay 0;
#X obj 137 124 delay 50;
#X obj 166 58 inlet;
#X obj 172 215 outlet;
#X obj 166 78 t b a;
#X obj 172 167 list;
#X obj 172 188 list trim;
#X connect 0 0 4 0;
#X connect 1 0 3 0;
#X connect 3 0 0 0;
#X connect 3 1 4 1;
#X connect 4 0 5 0;
#X connect 5 0 2 0;
#X restore 328 341 pd delay;
#N canvas 0 16 450 300 load_file 0;
#X obj 181 89 inlet;
#X obj 181 112 symbol;
#X obj 181 135 outlet;
#X connect 0 0 1 0;
#X connect 1 0 2 0;
#X restore 53 75 pd load_file;
#N canvas 0 16 450 300 load 0;
#X obj 181 89 inlet;
#X obj 181 135 outlet;
#X obj 181 112 openpanel;
#X connect 0 0 2 0;
#X connect 2 0 1 0;
#X restore 135 69 pd load;
#X connect 0 0 3 0;
#X connect 1 0 2 0;
#X connect 1 1 7 0;
#X connect 2 0 5 0;
#X connect 3 0 1 0;
#X connect 4 0 9 0;
#X connect 5 1 11 0;
#X connect 6 0 10 0;
#X connect 7 0 2 0;
#X connect 8 0 2 0;
#X connect 9 0 2 0;
#X connect 10 1 8 0;
#X connect 11 0 25 0;
#X connect 11 1 23 0;
#X connect 12 0 5 1;
#X connect 13 0 12 0;
#X connect 14 0 16 0;
#X connect 15 0 21 0;
#X connect 16 0 6 1;
#X connect 16 1 19 0;
#X connect 16 2 17 0;
#X connect 17 0 18 0;
#X connect 18 0 19 1;
#X connect 19 0 15 0;
#X connect 21 0 20 0;
#X connect 23 0 13 0;
#X connect 23 1 22 0;
#X connect 25 0 14 0;
#X connect 26 0 6 0;
#X connect 27 0 6 0;
#X restore 705 435 pd old;
#X obj 130 389 r \$0-out;
#N canvas 804 85 450 300 snap 0;
#X obj 132 54 inlet;
#X msg 201 232 symbol \$1-pdss-snap;
#X obj 145 252 send;
#X obj 48 94 route snap snap_load snap_save;
#X obj 48 144 unpack f f;
#X msg 48 120 \$2 \$1;
#X obj 136 152 unpack f f;
#X msg 136 128 \$2 \$1;
#X msg 125 195 load \$1;
#X obj 232 155 unpack f f;
#X msg 234 128 \$2 \$1;
#X msg 223 195 save \$1;
#X connect 0 0 3 0;
#X connect 1 0 2 1;
#X connect 3 0 5 0;
#X connect 3 1 7 0;
#X connect 3 2 10 0;
#X connect 4 0 2 0;
#X connect 4 1 1 0;
#X connect 5 0 4 0;
#X connect 6 0 8 0;
#X connect 6 1 1 0;
#X connect 7 0 6 0;
#X connect 8 0 2 0;
#X connect 9 0 11 0;
#X connect 9 1 1 0;
#X connect 10 0 9 0;
#X connect 11 0 2 0;
#X restore 28 201 pd snap;
#X msg 28 106 snap \$1 \$2;
#X msg 54 135 snap_load \$1 \$2;
#X msg 93 159 snap_save \$1 \$2;
#X obj 372 121 route save save_to;
#X obj 235 94 route load_from;
#X obj 433 168 symbol;
#X obj 235 159 symbol;
#N canvas 529 78 713 595 get 0;
#X obj 186 47 inlet;
#X obj 186 71 t b b b;
#X msg 158 107 0;
#X msg 249 106 1;
#X obj 156 325 spigot;
#X obj 152 237 s pdss-array-info-get;
#X obj 151 289 r pdss-array-info-return;
#X obj 156 349 t a a;
#X obj 212 369 list length;
#X obj 212 393 == 5;
#X obj 157 425 spigot;
#X msg 157 449 name=\$1 id0=\$2 id1=\$3 num_array=\$4 name_array=\$5
;
#X obj 148 501 s \$0-out;
#X connect 0 0 1 0;
#X connect 1 0 2 0;
#X connect 1 1 5 0;
#X connect 1 2 3 0;
#X connect 2 0 4 1;
#X connect 3 0 4 1;
#X connect 4 0 7 0;
#X connect 6 0 4 0;
#X connect 7 0 10 0;
#X connect 7 1 8 0;
#X connect 8 0 9 0;
#X connect 9 0 10 1;
#X connect 10 0 11 0;
#X connect 11 0 12 0;
#X restore 529 184 pd get info;
#X obj 529 142 route get_info;
#N canvas 401 45 544 379 save 0;
#X obj 176 26 inlet;
#X obj 95 348 outlet;
#X obj 83 280 pack s s s, f 24;
#X msg 95 306 symbol \$1\$2\$3;
#N canvas 0 50 602 535 split 0;
#X obj 212 15 inlet;
#X obj 295 82 list fromsymbol;
#X obj 269 133 until;
#X obj 282 216 list store;
#X obj 307 159 + 1;
#X msg 321 133 0, f 2;
#X msg 268 198 get \$1 1;
#X obj 282 259 i;
#X obj 269 158 i;
#X obj 269 179 t f f;
#X obj 176 318 list split;
#X obj 236 299 i;
#X obj 204 343 list tosymbol;
#X obj 176 387 list tosymbol;
#X obj 137 103 list;
#X obj 212 36 t b b s;
#X obj 204 361 outlet;
#X obj 176 406 outlet;
#X obj 282 279 + 1;
#X obj 295 100 t b b l l;
#X obj 353 294 list length;
#X obj 282 237 sel 47;
#X connect 0 0 15 0;
#X connect 1 0 14 1;
#X connect 1 0 19 0;
#X connect 2 0 8 0;
#X connect 3 0 21 0;
#X connect 3 1 2 1;
#X connect 4 0 8 1;
#X connect 5 0 8 1;
#X connect 6 0 3 0;
#X connect 7 0 18 0;
#X connect 8 0 4 0;
#X connect 8 0 9 0;
#X connect 9 0 6 0;
#X connect 9 1 7 1;
#X connect 10 0 13 0;
#X connect 10 1 12 0;
#X connect 11 0 10 1;
#X connect 12 0 16 0;
#X connect 13 0 17 0;
#X connect 14 0 10 0;
#X connect 15 0 14 0;
#X connect 15 1 11 0;
#X connect 15 2 1 0;
#X connect 18 0 11 1;
#X connect 19 0 2 0;
#X connect 19 1 5 0;
#X connect 19 2 3 1;
#X connect 19 3 20 0;
#X connect 20 0 11 1;
#X connect 21 0 7 0;
#X restore 83 111 pd split '/';
#N canvas 0 50 602 535 split 0;
#X obj 212 15 inlet;
#X obj 295 82 list fromsymbol;
#X obj 269 133 until;
#X obj 282 216 list store;
#X obj 307 159 + 1;
#X msg 321 133 0, f 2;
#X msg 268 198 get \$1 1;
#X obj 282 259 i;
#X obj 269 158 i;
#X obj 269 179 t f f;
#X obj 176 318 list split;
#X obj 236 299 i;
#X obj 204 343 list tosymbol;
#X obj 176 387 list tosymbol;
#X obj 137 103 list;
#X obj 212 36 t b b s;
#X obj 204 361 outlet;
#X obj 176 406 outlet;
#X obj 282 279 + 1;
#X obj 295 100 t b b l l;
#X obj 353 294 list length;
#X obj 282 237 sel 46;
#X connect 0 0 15 0;
#X connect 1 0 14 1;
#X connect 1 0 19 0;
#X connect 2 0 8 0;
#X connect 3 0 21 0;
#X connect 3 1 2 1;
#X connect 4 0 8 1;
#X connect 5 0 8 1;
#X connect 6 0 3 0;
#X connect 7 0 18 0;
#X connect 8 0 4 0;
#X connect 8 0 9 0;
#X connect 9 0 6 0;
#X connect 9 1 7 1;
#X connect 10 0 13 0;
#X connect 10 1 12 0;
#X connect 11 0 10 1;
#X connect 12 0 16 0;
#X connect 13 0 17 0;
#X connect 14 0 10 0;
#X connect 15 0 14 0;
#X connect 15 1 11 0;
#X connect 15 2 1 0;
#X connect 18 0 11 1;
#X connect 19 0 2 0;
#X connect 19 1 5 0;
#X connect 19 2 3 1;
#X connect 19 3 20 0;
#X connect 20 0 11 1;
#X connect 21 0 7 0;
#X restore 153 146 pd split '.';
#X obj 270 155 sel txt;
#X msg 224 185 symbol txt;
#X msg 314 185 symbol \$1.txt;
#X msg 437 192 symbol txt;
#X obj 176 49 t s b;
#X connect 0 0 10 0;
#X connect 2 0 3 0;
#X connect 3 0 1 0;
#X connect 4 0 2 0;
#X connect 4 1 5 0;
#X connect 5 0 2 1;
#X connect 5 1 6 0;
#X connect 6 0 7 0;
#X connect 6 1 8 0;
#X connect 7 0 2 2;
#X connect 8 0 2 2;
#X connect 9 0 2 2;
#X connect 10 0 4 0;
#X connect 10 1 9 0;
#X restore 433 218 pd save as *.txt;
#N canvas 225 204 955 469 save 0;
#X obj 184 24 inlet filename;
#N canvas 297 16 778 771 all 0;
#X obj 419 26 inlet;
#X msg 391 86 0;
#X msg 482 85 1;
#X obj 394 176 spigot;
#X obj 421 115 s pdss-array-info-get;
#X obj 389 140 r pdss-array-info-return;
#X obj 393 203 t a a;
#X obj 449 223 list length;
#X obj 449 244 == 5;
#X obj 397 266 spigot;
#X obj 397 290 unpack s f f f s;
#X obj 536 366 array size;
#X msg 587 345 symbol \$1;
#X obj 689 429 i;
#X obj 560 434 +;
#X obj 417 50 t b b b b b;
#X obj 531 488 i;
#X msg 701 381 0;
#X obj 536 390 + 3;
#X obj 386 476 i;
#X obj 345 481 +;
#X msg 342 445 1;
#X obj 540 520 array size \$0-pdss-main;
#X obj 344 577 tabwrite \$0-pdss-main;
#X obj 291 365 t b b b;
#X msg 470 552 1;
#X obj 327 505 i;
#X obj 327 529 t f b;
#X obj 113 564 tabwrite \$0-pdss-main;
#X obj 123 521 t f b;
#X obj 124 490 i;
#X obj 556 462 + 2;
#X msg 238 540 0;
#X obj 277 659 outlet;
#X obj 278 612 * 3;
#X obj 278 636 + 2;
#X obj 548 308 t b s b;
#X obj 92 618 s \$0-out;
#X obj 325 628 s \$0-out;
#X msg 89 593 size: \$1;
#X msg 326 607 amount_arrays: \$1;
#X connect 0 0 15 0;
#X connect 1 0 3 1;
#X connect 2 0 3 1;
#X connect 3 0 6 0;
#X connect 5 0 3 0;
#X connect 6 0 9 0;
#X connect 6 1 7 0;
#X connect 7 0 8 0;
#X connect 8 0 9 1;
#X connect 9 0 10 0;
#X connect 10 4 36 0;
#X connect 11 0 18 0;
#X connect 12 0 11 1;
#X connect 13 0 14 1;
#X connect 14 0 13 0;
#X connect 14 0 31 0;
#X connect 15 0 24 0;
#X connect 15 1 1 0;
#X connect 15 2 4 0;
#X connect 15 3 2 0;
#X connect 15 4 17 0;
#X connect 16 0 22 0;
#X connect 17 0 13 0;
#X connect 17 0 19 0;
#X connect 18 0 14 0;
#X connect 19 0 20 1;
#X connect 20 0 19 0;
#X connect 20 0 26 1;
#X connect 21 0 20 0;
#X connect 24 0 30 0;
#X connect 24 1 26 0;
#X connect 24 2 16 0;
#X connect 25 0 23 1;
#X connect 26 0 27 0;
#X connect 27 0 23 0;
#X connect 27 0 34 0;
#X connect 27 0 40 0;
#X connect 27 1 25 0;
#X connect 29 0 28 0;
#X connect 29 1 32 0;
#X connect 30 0 29 0;
#X connect 30 0 39 0;
#X connect 31 0 16 1;
#X connect 31 0 30 1;
#X connect 32 0 28 1;
#X connect 34 0 35 0;
#X connect 35 0 33 0;
#X connect 36 0 11 0;
#X connect 36 1 12 0;
#X connect 36 2 21 0;
#X connect 39 0 37 0;
#X connect 40 0 38 0;
#X restore 438 150 pd all arrays size;
#N canvas 243 104 574 563 all 0;
#X obj 186 47 inlet;
#X msg 158 107 0;
#X msg 249 106 1;
#X obj 161 197 spigot;
#X obj 188 136 s pdss-array-info-get;
#X obj 156 161 r pdss-array-info-return;
#X obj 160 224 t a a;
#X obj 216 244 list length;
#X obj 216 265 == 5;
#X obj 160 292 spigot;
#X obj 175 344 unpack s f f f s;
#X obj 206 444 array size;
#X msg 229 419 symbol \$1;
#X obj 185 71 t b b b b;
#X obj 203 492 pack f s;
#X obj 217 390 t b s s;
#N canvas 0 16 493 499 header 0;
#X obj 215 22 inlet;
#X obj 369 138 inlet reset;
#X obj 116 352 tabwrite \$0-pdss-main;
#X obj 193 55 unpack f f f;
#X obj 131 407 tabwrite \$0-pdss-main;
#X obj 288 371 + 1;
#X obj 151 462 tabwrite \$0-pdss-main;
#X obj 306 432 + 1;
#X msg 369 164 0;
#X obj 274 89 t f b;
#X obj 337 239 i;
#X obj 375 239 + 1;
#X obj 337 263 * 3;
#X obj 329 293 + 2;
#X connect 0 0 3 0;
#X connect 1 0 8 0;
#X connect 3 0 2 0;
#X connect 3 1 4 0;
#X connect 3 2 9 0;
#X connect 5 0 4 1;
#X connect 5 0 7 0;
#X connect 7 0 6 1;
#X connect 8 0 10 1;
#X connect 9 0 6 0;
#X connect 9 1 10 0;
#X connect 10 0 11 0;
#X connect 10 0 12 0;
#X connect 11 0 10 1;
#X connect 12 0 13 0;
#X connect 13 0 2 1;
#X connect 13 0 5 0;
#X restore 327 516 pd header arrays to main;
#N canvas 0 16 634 489 copy 0;
#X obj 215 22 inlet;
#X obj 179 128 until;
#X obj 179 152 i;
#X obj 208 152 + 1;
#X obj 179 176 t f f;
#X obj 177 308 tabread;
#X msg 221 129 0;
#X obj 317 307 +;
#X msg 254 211 set \$1;
#X obj 182 337 tabwrite \$0-pdss-main;
#X obj 214 67 unpack f s;
#X obj 279 99 t b s;
#X obj 469 181 inlet;
#X text 472 154 offset data;
#X obj 214 91 t f f;
#X obj 469 205 t f b;
#X msg 491 239 0;
#X obj 423 301 i;
#X obj 384 300 +;
#X connect 0 0 10 0;
#X connect 1 0 2 0;
#X connect 2 0 3 0;
#X connect 2 0 4 0;
#X connect 3 0 2 1;
#X connect 4 0 5 0;
#X connect 4 1 7 0;
#X connect 5 0 9 0;
#X connect 6 0 2 1;
#X connect 7 0 9 1;
#X connect 8 0 5 0;
#X connect 10 0 14 0;
#X connect 10 1 11 0;
#X connect 11 0 6 0;
#X connect 11 1 8 0;
#X connect 12 0 15 0;
#X connect 14 0 18 0;
#X connect 14 1 1 0;
#X connect 15 0 18 0;
#X connect 15 1 16 0;
#X connect 16 0 17 0;
#X connect 17 0 18 1;
#X connect 18 0 17 0;
#X connect 18 0 7 1;
#X restore 167 521 pd copy data to main;
#X obj 437 221 inlet;
#X text 453 176 offset data;
#X obj 337 490 pack f f f;
#X obj 6 485 s \$0-out;
#X obj 128 317 t a a;
#X obj 74 384 list append;
#X msg 3 457 copy_array: \$1 \$3 \$4 \$5 \$6;
#X connect 0 0 13 0;
#X connect 1 0 3 1;
#X connect 2 0 3 1;
#X connect 3 0 6 0;
#X connect 5 0 3 0;
#X connect 6 0 9 0;
#X connect 6 1 7 0;
#X connect 7 0 8 0;
#X connect 8 0 9 1;
#X connect 9 0 22 0;
#X connect 10 2 20 0;
#X connect 10 3 20 1;
#X connect 10 4 15 0;
#X connect 11 0 14 0;
#X connect 11 0 20 2;
#X connect 11 0 23 1;
#X connect 12 0 11 1;
#X connect 13 0 1 0;
#X connect 13 1 4 0;
#X connect 13 2 2 0;
#X connect 13 3 16 1;
#X connect 14 0 17 0;
#X connect 15 0 11 0;
#X connect 15 1 12 0;
#X connect 15 2 14 1;
#X connect 18 0 17 1;
#X connect 20 0 16 0;
#X connect 22 0 23 0;
#X connect 22 1 10 0;
#X connect 23 0 24 0;
#X connect 24 0 21 0;
#X restore 373 188 pd all arrays copy to main;
#X text 497 119 1) get all arrays \, sum size and resize main.;
#X text 581 142 2) write header to main.;
#X text 583 166 3) write header arrays to main.;
#X text 569 199 4) write data to main.;
#X text 427 254 5) write main to file.;
#X obj 257 225 pack s \$0;
#X msg 257 247 \; \$2-pdss-main write \$1;
#X obj 170 303 array size \$0-pdss-main;
#X msg 174 275 1;
#X obj 64 400 s \$0-out;
#X obj 184 86 t s b s b b;
#X text 350 306 6) resize main;
#X text 197 378 7) filename;
#X msg 64 377 filename: \$1.;
#X connect 0 0 13 0;
#X connect 1 0 2 1;
#X connect 8 0 9 0;
#X connect 11 0 10 0;
#X connect 13 0 16 0;
#X connect 13 1 11 0;
#X connect 13 2 8 0;
#X connect 13 3 2 0;
#X connect 13 4 1 0;
#X connect 16 0 12 0;
#X restore 433 303 pd save;
#N canvas 409 372 327 293 if 0;
#X obj 188 111 symbol;
#X obj 25 24 inlet filename;
#X obj 25 191 s \$0-out;
#X obj 188 137 outlet;
#X obj 25 73 t s;
#X obj 27 100 sel empty;
#X msg 27 153 filename: empty;
#X connect 0 0 3 0;
#X connect 1 0 4 0;
#X connect 4 0 5 0;
#X connect 5 0 6 0;
#X connect 5 1 0 0;
#X connect 6 0 2 0;
#X restore 433 272 pd if empty;
#X text 812 180 [1] amount arrays;
#X text 812 200 [2 + 0] number ins;
#X text 812 212 [2 + 1] number array;
#X text 812 295 [x] data;
#X text 812 224 [2 + 2] size array;
#X text 812 240 [5 + 0] number ins;
#X text 812 252 [5 + 1] number array;
#X text 812 264 [5 + 2] size array;
#X text 865 277 ..., f 4;
#N canvas 685 16 625 720 load 1;
#X obj 201 10 inlet;
#X msg 405 114 0;
#X msg 356 116 0;
#X obj 359 90 t b b;
#X obj 185 76 pack s \$0;
#X msg 21 104 0;
#X obj 21 147 moses 1;
#X msg 5 186 error_file_size: \$1;
#X obj 4 209 s \$0-out;
#X obj 426 193 array size \$0-pdss-main;
#X obj 307 164 t b b f;
#X obj 335 229 pack s \$0;
#X obj 335 207 symbol;
#X msg 329 251 \; \$2-pdss-main read \$1;
#X msg 188 99 \; \$2-pdss-main read \$1;
#X obj 22 123 tabread \$0-pdss-main;
#X obj 355 139 tabwrite \$0-pdss-main;
#X obj 164 232 tabread \$0-pdss-main;
#X msg 166 208 1;
#X obj 167 277 until;
#X obj 167 298 i;
#X obj 204 301 + 1;
#X msg 216 279 0;
#X obj 167 319 * 3;
#X obj 167 340 + 2;
#X obj 227 405 tabread \$0-pdss-main;
#X obj 205 427 tabread \$0-pdss-main;
#X obj 156 450 tabread \$0-pdss-main;
#X obj 189 386 + 1;
#X obj 220 383 + 2;
#X obj 160 475 pack f f;
#X obj 171 572 list append;
#X obj 167 361 t f f f;
#X obj 155 500 s pdss-array-inn;
#X obj 142 524 r pdss-array-inn-return;
#X obj 171 596 spigot;
#X msg 588 82 1;
#X msg 52 46 0;
#X obj 203 32 t b b s b s b;
#N canvas 0 75 737 537 load 0;
#X obj 188 74 inlet;
#X text 96 39 ins-name id0 id1 num_array name_array size;
#X obj 514 83 inlet reset;
#X obj 141 237 until;
#X obj 141 275 i;
#X obj 178 264 + 1;
#X msg 190 239 0;
#X obj 131 356 tabread \$0-pdss-main;
#X obj 210 413 tabwrite;
#X msg 305 357 set \$1;
#X obj 141 299 t f f;
#X obj 135 329 +;
#X obj 190 132 unpack f s;
#X msg 188 98 \$6 \$5;
#X obj 154 177 t f f b;
#X obj 386 208 +;
#X obj 430 199 i;
#X connect 0 0 13 0;
#X connect 2 0 16 0;
#X connect 3 0 4 0;
#X connect 4 0 5 0;
#X connect 4 0 10 0;
#X connect 5 0 4 1;
#X connect 6 0 4 1;
#X connect 7 0 8 0;
#X connect 9 0 8 0;
#X connect 10 0 11 0;
#X connect 10 1 8 1;
#X connect 11 0 7 0;
#X connect 12 0 14 0;
#X connect 12 1 9 0;
#X connect 13 0 12 0;
#X connect 14 0 15 0;
#X connect 14 1 3 0;
#X connect 14 2 6 0;
#X connect 15 0 16 0;
#X connect 15 0 11 1;
#X connect 16 0 15 1;
#X restore 170 620 pd load arrays;
#X obj 167 255 t f b f;
#X obj 294 305 * 3;
#X obj 294 326 + 2;
#X msg 134 661 symbol \$1-pdss-snap;
#X obj 78 681 send;
#X msg 70 653 load 0;
#X obj 101 623 t b f;
#X obj 142 548 t a a;
#X msg 116 585 \$3;
#X obj 18 371 s pdss-init;
#X msg 22 347 bang;
#X obj 50 590 print;
#X connect 0 0 38 0;
#X connect 1 0 16 1;
#X connect 2 0 16 0;
#X connect 3 0 2 0;
#X connect 3 1 1 0;
#X connect 4 0 14 0;
#X connect 5 0 15 0;
#X connect 6 0 7 0;
#X connect 6 1 10 0;
#X connect 7 0 8 0;
#X connect 10 0 18 0;
#X connect 10 1 12 0;
#X connect 10 2 9 0;
#X connect 11 0 13 0;
#X connect 12 0 11 0;
#X connect 15 0 6 0;
#X connect 17 0 40 0;
#X connect 18 0 17 0;
#X connect 19 0 20 0;
#X connect 20 0 21 0;
#X connect 20 0 23 0;
#X connect 21 0 20 1;
#X connect 22 0 20 1;
#X connect 23 0 24 0;
#X connect 24 0 32 0;
#X connect 25 0 31 1;
#X connect 26 0 30 1;
#X connect 27 0 30 0;
#X connect 28 0 26 0;
#X connect 29 0 25 0;
#X connect 30 0 33 0;
#X connect 31 0 35 0;
#X connect 32 0 27 0;
#X connect 32 1 28 0;
#X connect 32 2 29 0;
#X connect 34 0 47 0;
#X connect 35 0 39 0;
#X connect 36 0 35 1;
#X connect 37 0 35 1;
#X connect 38 0 37 0;
#X connect 38 0 50 0;
#X connect 38 1 5 0;
#X connect 38 2 4 0;
#X connect 38 3 3 0;
#X connect 38 4 12 1;
#X connect 38 5 36 0;
#X connect 40 0 19 0;
#X connect 40 1 22 0;
#X connect 40 2 41 0;
#X connect 41 0 42 0;
#X connect 42 0 39 1;
#X connect 43 0 44 1;
#X connect 43 0 51 0;
#X connect 45 0 44 0;
#X connect 46 0 45 0;
#X connect 46 1 43 0;
#X connect 47 0 48 0;
#X connect 47 1 31 0;
#X connect 48 0 46 0;
#X connect 50 0 49 0;
#X restore 235 224 pd load;
#X obj 433 246 symbol empty;
#X connect 1 0 6 0;
#X connect 6 0 10 0;
#X connect 6 1 11 0;
#X connect 6 2 12 0;
#X connect 6 3 14 0;
#X connect 8 0 2 0;
#X connect 10 0 9 0;
#X connect 11 0 9 0;
#X connect 12 0 9 0;
#X connect 13 0 32 0;
#X connect 13 1 15 0;
#X connect 13 2 18 0;
#X connect 14 0 16 0;
#X connect 14 1 13 0;
#X connect 15 0 19 0;
#X connect 16 0 31 0;
#X connect 18 0 17 0;
#X connect 19 0 32 0;
#X connect 21 0 20 0;
#X connect 32 0 21 0;
#X coords 0 505 1 504 206 40 0;
