#N canvas 400 103 541 542 12;
#X obj 73 64 inlet;
#X obj 408 81 outlet;
#X obj 368 21 table \$0-pdss-main;
#X obj 408 58 r \$0-out;
#N canvas 401 45 544 379 save 0;
#X obj 175 13 inlet;
#X obj 83 322 outlet;
#X obj 83 280 pack s s s, f 23;
#X msg 83 301 symbol \$1\$2\$3;
#N canvas 0 50 602 535 split 0;
#X obj 212 15 inlet;
#X obj 295 82 list fromsymbol;
#X obj 269 133 until;
#X obj 282 216 list store;
#X obj 307 159 + 1;
#X msg 321 133 0, f 2;
#X msg 268 198 get \$1 1;
#X obj 282 259 i;
#X obj 269 158 i;
#X obj 269 179 t f f;
#X obj 176 318 list split;
#X obj 236 299 i;
#X obj 204 343 list tosymbol;
#X obj 176 387 list tosymbol;
#X obj 137 103 list;
#X obj 212 36 t b b s;
#X obj 204 361 outlet;
#X obj 176 406 outlet;
#X obj 282 279 + 1;
#X obj 295 100 t b b l l;
#X obj 353 294 list length;
#X obj 282 237 sel 47;
#X connect 0 0 15 0;
#X connect 1 0 14 1;
#X connect 1 0 19 0;
#X connect 2 0 8 0;
#X connect 3 0 21 0;
#X connect 3 1 2 1;
#X connect 4 0 8 1;
#X connect 5 0 8 1;
#X connect 6 0 3 0;
#X connect 7 0 18 0;
#X connect 8 0 4 0;
#X connect 8 0 9 0;
#X connect 9 0 6 0;
#X connect 9 1 7 1;
#X connect 10 0 13 0;
#X connect 10 1 12 0;
#X connect 11 0 10 1;
#X connect 12 0 16 0;
#X connect 13 0 17 0;
#X connect 14 0 10 0;
#X connect 15 0 14 0;
#X connect 15 1 11 0;
#X connect 15 2 1 0;
#X connect 18 0 11 1;
#X connect 19 0 2 0;
#X connect 19 1 5 0;
#X connect 19 2 3 1;
#X connect 19 3 20 0;
#X connect 20 0 11 1;
#X connect 21 0 7 0;
#X restore 83 111 pd split '/';
#N canvas 0 50 602 535 split 0;
#X obj 212 15 inlet;
#X obj 295 82 list fromsymbol;
#X obj 269 133 until;
#X obj 282 216 list store;
#X obj 307 159 + 1;
#X msg 321 133 0, f 2;
#X msg 268 198 get \$1 1;
#X obj 282 259 i;
#X obj 269 158 i;
#X obj 269 179 t f f;
#X obj 176 318 list split;
#X obj 236 299 i;
#X obj 204 343 list tosymbol;
#X obj 176 387 list tosymbol;
#X obj 137 103 list;
#X obj 212 36 t b b s;
#X obj 204 361 outlet;
#X obj 176 406 outlet;
#X obj 282 279 + 1;
#X obj 295 100 t b b l l;
#X obj 353 294 list length;
#X obj 282 237 sel 46;
#X connect 0 0 15 0;
#X connect 1 0 14 1;
#X connect 1 0 19 0;
#X connect 2 0 8 0;
#X connect 3 0 21 0;
#X connect 3 1 2 1;
#X connect 4 0 8 1;
#X connect 5 0 8 1;
#X connect 6 0 3 0;
#X connect 7 0 18 0;
#X connect 8 0 4 0;
#X connect 8 0 9 0;
#X connect 9 0 6 0;
#X connect 9 1 7 1;
#X connect 10 0 13 0;
#X connect 10 1 12 0;
#X connect 11 0 10 1;
#X connect 12 0 16 0;
#X connect 13 0 17 0;
#X connect 14 0 10 0;
#X connect 15 0 14 0;
#X connect 15 1 11 0;
#X connect 15 2 1 0;
#X connect 18 0 11 1;
#X connect 19 0 2 0;
#X connect 19 1 5 0;
#X connect 19 2 3 1;
#X connect 19 3 20 0;
#X connect 20 0 11 1;
#X connect 21 0 7 0;
#X restore 164 146 pd split '.';
#X obj 245 174 sel txt;
#X msg 199 204 symbol txt;
#X msg 289 204 symbol \$1.txt;
#X msg 400 204 symbol txt;
#X obj 178 56 t s b;
#X obj 176 35 symbol;
#X connect 0 0 11 0;
#X connect 2 0 3 0;
#X connect 3 0 1 0;
#X connect 4 0 2 0;
#X connect 4 1 5 0;
#X connect 5 0 2 1;
#X connect 5 1 6 0;
#X connect 6 0 7 0;
#X connect 6 1 8 0;
#X connect 7 0 2 2;
#X connect 8 0 2 2;
#X connect 9 0 2 2;
#X connect 10 0 4 0;
#X connect 10 1 9 0;
#X connect 11 0 10 0;
#X restore 242 120 pd save as *.txt;
#N canvas 591 49 368 320 save-local 0;
#X obj 117 70 savestate;
#X obj 177 112 outlet;
#N canvas 161 332 450 300 delay 0;
#X obj 137 124 delay 50;
#X obj 166 58 inlet;
#X obj 172 215 outlet;
#X obj 166 78 t b a;
#X obj 172 167 list;
#X obj 172 188 list trim;
#X connect 0 0 4 0;
#X connect 1 0 3 0;
#X connect 3 0 0 0;
#X connect 3 1 4 1;
#X connect 4 0 5 0;
#X connect 5 0 2 0;
#X restore 117 135 pd delay;
#X obj 140 226 array set \$0-pdss-main;
#X obj 117 248 outlet;
#X obj 117 38 array get \$0-pdss-main;
#X obj 117 10 inlet;
#X obj 117 160 t b a a;
#X obj 163 183 list length;
#X obj 163 205 array size \$0-pdss-main;
#X connect 0 0 2 0;
#X connect 0 1 1 0;
#X connect 2 0 7 0;
#X connect 5 0 0 0;
#X connect 6 0 5 0;
#X connect 7 0 4 0;
#X connect 7 1 3 0;
#X connect 7 2 8 0;
#X connect 8 0 9 0;
#X restore 109 258 pd save-local;
#N canvas 293 104 716 574 load 0;
#X obj 159 450 outlet;
#X msg 515 166 0;
#X msg 482 166 0;
#X obj 482 144 t b b;
#X obj 402 214 pack s \$0;
#X msg 208 224 0;
#X obj 208 271 moses 1;
#X obj 44 507 s \$0-out;
#X obj 394 304 array size \$0-pdss-main;
#X obj 239 464 pack s \$0;
#X obj 282 364 symbol;
#X msg 239 489 \; \$2-pdss-main read \$1;
#X msg 402 236 \; \$2-pdss-main read \$1;
#X obj 208 248 tabread \$0-pdss-main;
#X obj 482 188 tabwrite \$0-pdss-main;
#X msg 44 484 error: file_size: \$1;
#X obj 295 87 t b s s b;
#X obj 295 62 symbol;
#X obj 295 39 inlet;
#X obj 352 402 outlet;
#X text 402 403 filename;
#X obj 370 366 s \$0-out;
#X msg 370 343 size: \$1;
#X obj 254 311 t b b f f;
#X obj 282 434 s \$0-out;
#X msg 282 407 name: \$1;
#X connect 1 0 14 1;
#X connect 2 0 14 0;
#X connect 3 0 2 0;
#X connect 3 1 1 0;
#X connect 4 0 12 0;
#X connect 5 0 13 0;
#X connect 6 0 15 0;
#X connect 6 1 23 0;
#X connect 9 0 11 0;
#X connect 10 0 9 0;
#X connect 10 0 19 0;
#X connect 10 0 25 0;
#X connect 13 0 6 0;
#X connect 15 0 7 0;
#X connect 16 0 5 0;
#X connect 16 1 10 1;
#X connect 16 2 4 0;
#X connect 16 3 3 0;
#X connect 17 0 16 0;
#X connect 18 0 17 0;
#X connect 22 0 21 0;
#X connect 23 0 0 0;
#X connect 23 1 10 0;
#X connect 23 2 22 0;
#X connect 23 3 8 0;
#X connect 25 0 24 0;
#X restore 73 220 pd load file to main;
#N canvas 185 39 469 685 main 0;
#X obj 207 96 tabread \$0-pdss-main;
#X msg 207 74 1;
#X obj 208 171 * 3;
#X obj 208 192 + 2;
#X obj 272 269 tabread \$0-pdss-main;
#X obj 241 291 tabread \$0-pdss-main;
#X obj 208 314 tabread \$0-pdss-main;
#X obj 241 250 + 1;
#X obj 272 247 + 2;
#X obj 208 339 pack f f;
#X obj 217 453 list append;
#X obj 208 213 t f f f;
#X obj 208 360 s pdss-array-inn;
#X obj 185 388 r pdss-array-inn-return;
#X obj 185 411 spigot;
#X msg 378 347 1;
#X msg 155 354 0;
#N canvas 0 75 737 537 load 0;
#X obj 188 74 inlet;
#X text 96 39 ins-name id0 id1 num_array name_array size;
#X obj 514 83 inlet reset;
#X obj 141 237 until;
#X obj 141 275 i;
#X obj 178 264 + 1;
#X msg 190 239 0;
#X obj 131 356 tabread \$0-pdss-main;
#X obj 210 413 tabwrite;
#X msg 305 357 set \$1;
#X obj 141 299 t f f;
#X obj 135 329 +;
#X obj 189 148 unpack f s;
#X msg 188 98 \$6 \$5;
#X obj 154 177 t f f b;
#X obj 386 208 +;
#X obj 429 216 i;
#X obj 396 333 array size;
#X obj 188 122 t a a;
#X obj 396 273 unpack f s;
#X msg 462 312 symbol \$1;
#X connect 0 0 13 0;
#X connect 2 0 16 0;
#X connect 2 0 11 1;
#X connect 3 0 4 0;
#X connect 4 0 5 0;
#X connect 4 0 10 0;
#X connect 5 0 4 1;
#X connect 6 0 4 1;
#X connect 7 0 8 0;
#X connect 9 0 8 0;
#X connect 10 0 11 0;
#X connect 10 1 8 1;
#X connect 11 0 7 0;
#X connect 12 0 14 0;
#X connect 12 1 9 0;
#X connect 13 0 18 0;
#X connect 14 0 15 0;
#X connect 14 1 3 0;
#X connect 14 2 6 0;
#X connect 15 0 16 0;
#X connect 15 0 11 1;
#X connect 16 0 15 1;
#X connect 18 0 12 0;
#X connect 18 1 19 0;
#X connect 19 0 17 0;
#X connect 19 1 20 0;
#X connect 20 0 17 1;
#X restore 256 494 pd load arrays;
#X obj 325 146 * 3;
#X obj 325 167 + 2;
#X obj 192 609 send;
#X obj 185 567 t b f;
#X obj 185 432 t a a;
#X msg 185 546 \$3;
#X obj 100 130 s pdss-init;
#X msg 100 109 bang;
#N canvas 0 16 450 300 itt 0;
#X obj 120 87 inlet;
#X obj 120 189 outlet;
#X obj 120 137 until;
#X obj 120 158 i;
#X obj 157 161 + 1;
#X msg 169 139 0;
#X obj 120 115 t f b;
#X connect 0 0 6 0;
#X connect 2 0 3 0;
#X connect 3 0 4 0;
#X connect 3 0 1 0;
#X connect 4 0 3 1;
#X connect 5 0 3 1;
#X connect 6 0 2 0;
#X connect 6 1 5 0;
#X restore 208 146 pd itt;
#X obj 208 119 t f f;
#X obj 167 26 inlet;
#X obj 167 49 t b b b b;
#X obj 217 536 s \$0-out;
#X obj 217 474 t a a;
#X msg 185 588 0;
#X msg 217 588 symbol pdss-snap-\$1;
#X msg 217 515 load_array: \$1 \$2 \$3 \$4 \$5 \$6;
#X connect 0 0 27 0;
#X connect 1 0 0 0;
#X connect 2 0 3 0;
#X connect 3 0 11 0;
#X connect 4 0 10 1;
#X connect 5 0 9 1;
#X connect 6 0 9 0;
#X connect 7 0 5 0;
#X connect 8 0 4 0;
#X connect 9 0 12 0;
#X connect 10 0 31 0;
#X connect 11 0 6 0;
#X connect 11 1 7 0;
#X connect 11 2 8 0;
#X connect 13 0 14 0;
#X connect 14 0 22 0;
#X connect 15 0 14 1;
#X connect 16 0 14 1;
#X connect 18 0 19 0;
#X connect 19 0 17 1;
#X connect 21 0 32 0;
#X connect 21 1 33 0;
#X connect 22 0 23 0;
#X connect 22 1 10 0;
#X connect 23 0 21 0;
#X connect 25 0 24 0;
#X connect 26 0 2 0;
#X connect 27 0 26 0;
#X connect 27 1 18 0;
#X connect 28 0 29 0;
#X connect 29 0 25 0;
#X connect 29 1 16 0;
#X connect 29 2 1 0;
#X connect 29 3 15 0;
#X connect 31 0 34 0;
#X connect 31 1 17 0;
#X connect 32 0 20 0;
#X connect 33 0 20 1;
#X connect 34 0 30 0;
#X restore 73 362 pd main to all arrays;
#N canvas 40 100 1154 572 all 0;
#X obj 192 164 unpack s f f f s;
#X obj 234 244 pack f f f;
#X obj 42 530 s \$0-out;
#X obj 160 142 t a a;
#X obj 42 488 list append;
#X obj 404 12 inlet;
#X obj 830 180 unpack s f f f s;
#X obj 968 346 i;
#X msg 1099 167 0;
#X obj 986 258 + 3;
#X msg 920 260 1;
#X obj 968 371 array size \$0-pdss-main;
#X obj 626 429 tabwrite \$0-pdss-main;
#X msg 770 407 1;
#X obj 603 367 i;
#X obj 834 442 tabwrite \$0-pdss-main;
#X obj 811 343 i;
#X obj 986 303 + 2;
#X msg 978 420 0;
#X obj 551 413 * 3;
#X obj 551 434 + 2;
#X obj 811 484 s \$0-out;
#X obj 602 471 s \$0-out;
#X msg 811 463 size: \$1;
#X msg 603 450 amount_arrays: \$1;
#N canvas 169 97 417 373 get 0;
#X obj 121 21 inlet;
#X obj 143 298 outlet;
#X msg 109 82 0;
#X msg 182 82 1;
#X obj 143 173 spigot;
#X obj 144 112 s pdss-array-info-get;
#X obj 143 137 r pdss-array-info-return;
#X obj 143 200 t a a;
#X obj 175 224 list length;
#X obj 175 245 == 5;
#X obj 143 270 spigot;
#X obj 121 45 t b b b;
#X connect 0 0 11 0;
#X connect 2 0 4 1;
#X connect 3 0 4 1;
#X connect 4 0 7 0;
#X connect 6 0 4 0;
#X connect 7 0 10 0;
#X connect 7 1 8 0;
#X connect 8 0 9 0;
#X connect 9 0 10 1;
#X connect 10 0 1 0;
#X connect 11 0 2 0;
#X connect 11 1 5 0;
#X connect 11 2 3 0;
#X restore 830 158 pd get info all arrays;
#N canvas 169 97 417 373 get 0;
#X obj 121 21 inlet;
#X obj 143 298 outlet;
#X msg 109 82 0;
#X msg 182 82 1;
#X obj 143 173 spigot;
#X obj 144 112 s pdss-array-info-get;
#X obj 143 137 r pdss-array-info-return;
#X obj 143 200 t a a;
#X obj 175 224 list length;
#X obj 175 245 == 5;
#X obj 143 270 spigot;
#X obj 121 45 t b b b;
#X connect 0 0 11 0;
#X connect 2 0 4 1;
#X connect 3 0 4 1;
#X connect 4 0 7 0;
#X connect 6 0 4 0;
#X connect 7 0 10 0;
#X connect 7 1 8 0;
#X connect 8 0 9 0;
#X connect 9 0 10 1;
#X connect 10 0 1 0;
#X connect 11 0 2 0;
#X connect 11 1 5 0;
#X connect 11 2 3 0;
#X restore 160 121 pd get info all arrays;
#X obj 82 133 outlet;
#X obj 811 401 t f f b;
#X obj 603 388 t f f b;
#N canvas 0 16 450 300 array 0;
#X obj 148 92 inlet;
#X obj 148 200 outlet;
#X obj 148 174 array size;
#X msg 215 151 symbol \$1;
#X obj 148 117 t b s;
#X connect 0 0 4 0;
#X connect 2 0 1 0;
#X connect 3 0 2 1;
#X connect 4 0 2 0;
#X connect 4 1 3 0;
#X restore 939 206 pd array size;
#N canvas 0 16 450 300 count 0;
#X obj 120 83 inlet;
#X obj 261 83 inlet;
#X obj 120 235 outlet;
#X obj 261 149 i;
#X obj 120 150 +;
#X text 127 48 inc;
#X text 264 47 set;
#X connect 0 0 4 0;
#X connect 1 0 3 0;
#X connect 3 0 4 1;
#X connect 4 0 3 0;
#X connect 4 0 2 0;
#X restore 986 280 pd count;
#X obj 939 228 t b f;
#N canvas 0 16 450 300 count 0;
#X obj 120 83 inlet;
#X obj 261 83 inlet;
#X obj 120 235 outlet;
#X obj 261 149 i;
#X obj 120 150 +;
#X text 127 48 inc;
#X text 264 47 set;
#X connect 0 0 4 0;
#X connect 1 0 3 0;
#X connect 3 0 4 1;
#X connect 4 0 3 0;
#X connect 4 0 2 0;
#X restore 920 282 pd count;
#X obj 362 479 t f f;
#X obj 362 512 tabread;
#X obj 506 512 +;
#X msg 433 473 set \$1;
#X obj 362 534 tabwrite \$0-pdss-main;
#X obj 365 422 t f f;
#N canvas 0 16 450 300 count 0;
#X obj 120 83 inlet;
#X obj 261 83 inlet;
#X obj 120 235 outlet;
#X obj 261 149 i;
#X obj 120 150 +;
#X text 127 48 inc;
#X text 264 47 set;
#X connect 0 0 4 0;
#X connect 1 0 3 0;
#X connect 3 0 4 1;
#X connect 4 0 3 0;
#X connect 4 0 2 0;
#X restore 524 482 pd count;
#N canvas 0 16 450 300 itt 0;
#X obj 120 87 inlet;
#X obj 120 189 outlet;
#X obj 120 137 until;
#X obj 120 158 i;
#X obj 157 161 + 1;
#X msg 169 139 0;
#X obj 120 115 t f b;
#X connect 0 0 6 0;
#X connect 2 0 3 0;
#X connect 3 0 4 0;
#X connect 3 0 1 0;
#X connect 4 0 3 1;
#X connect 5 0 3 1;
#X connect 6 0 2 0;
#X connect 6 1 5 0;
#X restore 362 454 pd itt;
#N canvas 0 16 450 300 array 0;
#X obj 148 92 inlet;
#X obj 148 200 outlet;
#X obj 148 174 array size;
#X msg 215 151 symbol \$1;
#X obj 148 117 t b s;
#X connect 0 0 4 0;
#X connect 2 0 1 0;
#X connect 3 0 2 1;
#X connect 4 0 2 0;
#X connect 4 1 3 0;
#X restore 301 218 pd array size;
#X obj 301 194 t s s;
#X obj 118 435 tabwrite \$0-pdss-main;
#X obj 163 306 unpack f f f;
#X obj 142 458 tabwrite \$0-pdss-main;
#X obj 299 422 + 1;
#X obj 162 481 tabwrite \$0-pdss-main;
#X obj 317 451 + 1;
#X obj 244 328 t f b;
#X obj 299 369 * 3;
#X obj 299 391 + 2;
#N canvas 493 61 450 300 count2 0;
#X obj 120 83 inlet;
#X obj 261 83 inlet;
#X obj 120 235 outlet;
#X text 127 48 inc;
#X text 264 47 set;
#X obj 120 150 i;
#X obj 261 149 + 1;
#X connect 0 0 5 0;
#X connect 1 0 5 1;
#X connect 5 0 2 0;
#X connect 5 0 6 0;
#X connect 6 0 5 1;
#X restore 299 348 pd count2;
#X msg 42 509 save_array: \$1 \$3 \$4 \$5 \$6;
#X obj 855 111 send;
#X obj 848 69 t b f;
#X msg 848 27 \$3;
#X msg 880 90 symbol pdss-snap-\$1;
#N canvas 169 97 417 373 get 0;
#X obj 121 21 inlet;
#X obj 143 298 outlet;
#X msg 109 82 0;
#X msg 182 82 1;
#X obj 143 173 spigot;
#X obj 144 112 s pdss-array-info-get;
#X obj 143 137 r pdss-array-info-return;
#X obj 143 200 t a a;
#X obj 175 224 list length;
#X obj 175 245 == 5;
#X obj 143 270 spigot;
#X obj 121 45 t b b b;
#X connect 0 0 11 0;
#X connect 2 0 4 1;
#X connect 3 0 4 1;
#X connect 4 0 7 0;
#X connect 6 0 4 0;
#X connect 7 0 10 0;
#X connect 7 1 8 0;
#X connect 8 0 9 0;
#X connect 9 0 10 1;
#X connect 10 0 1 0;
#X connect 11 0 2 0;
#X connect 11 1 5 0;
#X connect 11 2 3 0;
#X restore 848 6 pd get info all arrays;
#X obj 404 42 t s b b b b b b b;
#X msg 843 90 save;
#X obj 848 48 change -1;
#X connect 0 2 1 0;
#X connect 0 3 1 1;
#X connect 0 4 43 0;
#X connect 1 0 45 0;
#X connect 3 0 4 0;
#X connect 3 1 0 0;
#X connect 4 0 54 0;
#X connect 5 0 60 0;
#X connect 6 4 30 0;
#X connect 7 0 11 0;
#X connect 8 0 31 1;
#X connect 8 0 33 1;
#X connect 8 0 53 1;
#X connect 9 0 31 0;
#X connect 10 0 33 0;
#X connect 13 0 12 1;
#X connect 14 0 29 0;
#X connect 16 0 28 0;
#X connect 17 0 7 1;
#X connect 17 0 16 1;
#X connect 18 0 15 1;
#X connect 19 0 20 0;
#X connect 20 0 40 1;
#X connect 20 0 36 1;
#X connect 23 0 21 0;
#X connect 24 0 22 0;
#X connect 25 0 6 0;
#X connect 26 0 3 0;
#X connect 28 0 23 0;
#X connect 28 1 18 0;
#X connect 28 1 15 0;
#X connect 29 0 19 0;
#X connect 29 0 24 0;
#X connect 29 1 12 0;
#X connect 29 2 13 0;
#X connect 30 0 32 0;
#X connect 31 0 17 0;
#X connect 32 0 10 0;
#X connect 32 1 9 0;
#X connect 33 0 14 1;
#X connect 34 0 35 0;
#X connect 34 1 36 0;
#X connect 35 0 38 0;
#X connect 36 0 38 1;
#X connect 37 0 35 0;
#X connect 39 0 40 0;
#X connect 39 1 41 0;
#X connect 40 0 36 1;
#X connect 41 0 34 0;
#X connect 42 0 4 1;
#X connect 42 0 1 2;
#X connect 42 0 39 0;
#X connect 43 0 42 0;
#X connect 43 1 37 0;
#X connect 45 0 44 0;
#X connect 45 1 46 0;
#X connect 45 2 50 0;
#X connect 47 0 46 1;
#X connect 47 0 49 0;
#X connect 49 0 48 1;
#X connect 50 0 48 0;
#X connect 50 1 53 0;
#X connect 51 0 52 0;
#X connect 52 0 44 1;
#X connect 52 0 47 0;
#X connect 53 0 51 0;
#X connect 54 0 2 0;
#X connect 56 0 61 0;
#X connect 56 1 58 0;
#X connect 57 0 62 0;
#X connect 58 0 55 1;
#X connect 59 0 57 0;
#X connect 60 0 27 0;
#X connect 60 1 26 0;
#X connect 60 2 14 0;
#X connect 60 3 16 0;
#X connect 60 4 7 0;
#X connect 60 5 25 0;
#X connect 60 6 59 0;
#X connect 60 7 8 0;
#X connect 61 0 55 0;
#X connect 62 0 56 0;
#X restore 242 320 pd all arrays to main;
#N canvas 139 270 345 215 main 0;
#X obj 75 24 inlet;
#X obj 75 48 t s b;
#X obj 75 133 outlet;
#X obj 107 76 outlet;
#X connect 0 0 1 0;
#X connect 1 0 2 0;
#X connect 1 1 3 0;
#X restore 242 341 pd main to savestate;
#N canvas 139 270 438 307 end 0;
#X obj 184 129 array size \$0-pdss-main;
#X msg 184 108 1;
#X obj 152 176 s \$0-out;
#X msg 152 155 name: \$1;
#X obj 152 66 inlet;
#X obj 152 87 t s b;
#X connect 1 0 0 0;
#X connect 3 0 2 0;
#X connect 4 0 5 0;
#X connect 5 0 3 0;
#X connect 5 1 1 0;
#X restore 242 383 pd end save;
#N canvas 370 202 375 302 main 0;
#X obj 156 109 symbol;
#X obj 64 46 inlet;
#X obj 156 130 pack s \$0;
#X msg 156 151 \; \$2-pdss-main write \$1;
#X obj 64 67 t s s;
#X obj 64 234 outlet;
#X obj 96 88 sel empty;
#X connect 0 0 2 0;
#X connect 1 0 4 0;
#X connect 2 0 3 0;
#X connect 4 0 5 0;
#X connect 4 1 6 0;
#X connect 6 1 0 0;
#X restore 242 362 pd main to file;
#X obj 242 299 symbol empty;
#X obj 405 256 s \$0-out;
#X msg 405 235 name: empty;
#X obj 405 213 loadbang;
#X obj 73 91 route open save_as;
#X connect 0 0 16 0;
#X connect 3 0 1 0;
#X connect 4 0 12 0;
#X connect 5 0 7 0;
#X connect 5 1 12 0;
#X connect 6 0 7 0;
#X connect 6 1 12 1;
#X connect 8 0 9 0;
#X connect 9 0 11 0;
#X connect 9 1 5 0;
#X connect 11 0 10 0;
#X connect 12 0 8 0;
#X connect 14 0 13 0;
#X connect 15 0 14 0;
#X connect 16 0 6 0;
#X connect 16 1 4 0;
#X coords 0 542 1 541 206 40 0;
