#N canvas 630 274 625 442 12;
#X text 51 63 1) name ins;
#X text 51 124 4) number parameters in snap;
#X obj 29 364 * \$4;
#X text 51 83 2) \$0;
#X text 51 103 3) \$1;
#X obj 178 364 * \$4;
#X text 51 144 5) number snapshots;
#X obj 394 76 loadbang;
#X obj 254 324 - 1;
#X obj 178 343 clip 0 1;
#X obj 29 343 clip 0 1;
#X obj 394 263 t b b;
#X obj 429 284 i \$5;
#X obj 394 284 i \$4;
#X obj 394 322 *;
#X obj 429 305 max 1;
#X obj 29 228 t f b;
#X obj 29 198 route float load save;
#X obj 39 256 f 0;
#X obj 394 343 pack f \$2;
#X obj 29 6 r \$3-pdss-snap;
#X obj 29 385 s \$2-pdss-load-par;
#X obj 178 385 s \$2-pdss-save-par;
#X msg 394 364 \; \$2-pdss-array-0 resize \$1;
#X obj 394 118 pdcontrol;
#X msg 394 97 args 0;
#X obj 394 142 t a a;
#X obj 433 167 list length;
#X obj 433 191 == 5;
#X obj 394 213 spigot;
#X connect 2 0 21 0;
#X connect 5 0 22 0;
#X connect 7 0 25 0;
#X connect 8 0 9 2;
#X connect 8 0 10 2;
#X connect 9 0 5 0;
#X connect 10 0 2 0;
#X connect 11 0 13 0;
#X connect 11 1 12 0;
#X connect 12 0 15 0;
#X connect 13 0 14 0;
#X connect 14 0 19 0;
#X connect 15 0 14 1;
#X connect 15 0 8 0;
#X connect 16 0 10 0;
#X connect 16 0 18 1;
#X connect 16 1 18 0;
#X connect 17 0 16 0;
#X connect 17 1 10 0;
#X connect 17 2 9 0;
#X connect 18 0 9 0;
#X connect 19 0 23 0;
#X connect 20 0 17 0;
#X connect 24 0 26 0;
#X connect 25 0 24 0;
#X connect 26 0 29 0;
#X connect 26 1 27 0;
#X connect 27 0 28 0;
#X connect 28 0 29 1;
#X connect 29 0 11 0;
