#N canvas 331 373 744 310 12;
#X text 23 103 1) ins name;
#X text 23 123 2) \$0;
#X text 23 143 3) \$1;
#X text 23 163 4) number;
#X text 23 183 5) name;
#X obj 230 145 pdcontrol;
#X msg 230 124 args 0;
#X obj 230 188 pdcontrol;
#X msg 230 167 args 0;
#X obj 230 103 r pdss-array-info-get;
#X obj 230 209 s pdss-array-info-return;
#X obj 539 125 == \$4;
#X obj 472 125 == \$3;
#X obj 472 151 spigot;
#X obj 472 100 unpack f f;
#X obj 472 175 sel 1;
#X obj 471 221 pdcontrol;
#X msg 472 198 args 0;
#X obj 472 77 r pdss-array-inn;
#X obj 471 244 s pdss-array-inn-return;
#X connect 5 0 8 0;
#X connect 6 0 5 0;
#X connect 7 0 10 0;
#X connect 8 0 7 0;
#X connect 9 0 6 0;
#X connect 11 0 13 1;
#X connect 12 0 13 0;
#X connect 13 0 15 0;
#X connect 14 0 12 0;
#X connect 14 1 11 0;
#X connect 15 0 17 0;
#X connect 16 0 19 0;
#X connect 17 0 16 0;
#X connect 18 0 14 0;
