#N canvas 75 213 545 334 12;
#X obj 229 153 pdcontrol;
#X msg 229 132 args 0;
#X text 23 103 2) ins name;
#X text 23 83 1) \$0 main;
#X text 23 123 3) \$0 ins;
#X text 23 143 4) \$1 ins;
#X text 23 163 5) number array;
#X text 23 183 6) name array;
#X obj 229 111 r \$1-pdss-array-info-get;
#X obj 229 174 s \$1-pdss-array-info-return;
#X connect 0 0 9 0;
#X connect 1 0 0 0;
#X connect 8 0 1 0;
