#N canvas 817 236 600 412 12;
#X obj 172 103 spigot;
#X obj 393 75 + \$4;
#X text 27 67 1) ins name;
#X text 27 107 3) \$1;
#X text 27 87 2) \$0;
#X text 27 147 5) type;
#X text 27 167 6) label;
#X text 27 187 7) lower;
#X text 27 207 8) upper;
#X obj 393 96 t b f, f 24;
#X obj 393 173 f;
#X obj 393 290 + \$4;
#X text 27 127 4) number;
#X obj 172 124 t b;
#X obj 393 54 r \$2-pdss-save-par;
#X obj 393 268 r \$2-pdss-load-par;
#X obj 393 311 tabread \$2-pdss-array-0;
#X obj 393 194 tabwrite \$2-pdss-array-0;
#X obj 172 61 r \$2-pdss-s-\$4;
#X obj 172 209 s pdss-par-info-return;
#X obj 210 82 r pdss-par-info-get;
#X obj 172 166 pdcontrol;
#X msg 172 145 args 0;
#X obj 411 124 r \$2-pdss-s-\$4;
#X obj 393 334 s \$2-pdss-r-\$4;
#X obj 411 145 route float;
#X obj 172 188 list append;
#X connect 0 0 13 0;
#X connect 1 0 9 0;
#X connect 9 0 10 0;
#X connect 9 1 17 1;
#X connect 10 0 17 0;
#X connect 11 0 16 0;
#X connect 13 0 22 0;
#X connect 14 0 1 0;
#X connect 15 0 11 0;
#X connect 16 0 24 0;
#X connect 18 0 0 0;
#X connect 20 0 0 1;
#X connect 21 0 26 0;
#X connect 22 0 21 0;
#X connect 23 0 25 0;
#X connect 25 0 10 1;
#X connect 25 0 26 1;
#X connect 26 0 19 0;
