#N canvas 471 140 675 463 10;
#X text 459 38 1) name ins;
#X text 459 99 4) number parameters in snap;
#X obj 29 367 * \$4;
#X text 459 58 2) \$0;
#X text 459 78 3) \$1;
#X obj 29 385 s \$2_load_state_par;
#X obj 178 367 * \$4;
#X obj 178 385 s \$2_save_state_par;
#X text 459 119 5) number snapshots;
#X obj 230 126 loadbang;
#X obj 219 185 i \$5;
#X obj 219 229 - 1;
#X obj 178 349 clip 0 1;
#X obj 29 349 clip 0 1;
#X obj 332 226 t b b, f 7;
#X obj 371 247 i \$5;
#X obj 332 247 i \$4;
#X obj 332 287 *, f 7;
#X obj 332 307 list \$2;
#X msg 332 327 \; \$2_ss_a_0 resize \$1;
#X obj 219 208 max 1;
#X obj 371 268 max 1;
#X obj 302 175 i \$3;
#X obj 305 208 sel 0;
#X msg 305 364 n_ss_snap error. id ins = 0;
#X obj 87 124 r ss_save_local;
#X obj 49 39 r ss_init;
#X obj 29 118 t f b;
#X obj 29 88 route float load save;
#X obj 29 6 r \$3_ss_snap;
#X msg 49 60 load 0;
#X obj 87 194 f 0;
#X obj 305 385 print -n;
#X connect 2 0 5 0;
#X connect 6 0 7 0;
#X connect 9 0 10 0;
#X connect 9 0 22 0;
#X connect 10 0 20 0;
#X connect 11 0 12 2;
#X connect 11 0 13 2;
#X connect 12 0 6 0;
#X connect 13 0 2 0;
#X connect 14 0 16 0;
#X connect 14 1 15 0;
#X connect 15 0 21 0;
#X connect 16 0 17 0;
#X connect 17 0 18 0;
#X connect 18 0 19 0;
#X connect 20 0 11 0;
#X connect 21 0 17 1;
#X connect 22 0 23 0;
#X connect 23 0 24 0;
#X connect 23 1 14 0;
#X connect 24 0 32 0;
#X connect 25 0 31 0;
#X connect 26 0 30 0;
#X connect 27 0 13 0;
#X connect 27 0 31 1;
#X connect 27 1 31 0;
#X connect 28 0 27 0;
#X connect 28 1 13 0;
#X connect 28 2 12 0;
#X connect 29 0 28 0;
#X connect 30 0 28 0;
#X connect 31 0 12 0;
