#N canvas 381 106 622 512 12;
#X text 51 63 1) name ins;
#X text 51 124 4) number parameters in snap;
#X obj 28 399 * \$4;
#X text 51 83 2) \$0;
#X text 51 103 3) \$1;
#X text 51 144 5) number snapshots;
#X obj 394 79 loadbang;
#X obj 254 324 - 1;
#X obj 28 343 clip 0 1;
#X obj 429 284 i \$5;
#X obj 394 284 i \$4;
#X obj 394 329 *;
#X obj 429 305 max 1;
#X obj 28 420 s \$2-pdss-load-par;
#X obj 72 466 s \$2-pdss-save-par;
#X obj 394 121 pdcontrol;
#X msg 394 100 args 0;
#X obj 394 142 t a a;
#X obj 433 167 list length;
#X obj 433 188 == 5;
#X obj 394 210 spigot;
#X obj 28 6 r pdss-snap-\$3;
#X obj 72 445 i 0;
#X obj 72 229 bang;
#X text 382 454 resize par array if exist.;
#X obj 496 84 table \$0-buffer;
#X obj 394 263 t b b b;
#X obj 468 282 i \$4;
#X msg 394 388 \; \$2-pdss-array-0 resize \$1 \; \$4-buffer resize
\$3;
#X obj 394 350 pack f \$2 f \$0;
#N canvas 0 16 400 337 copy 0;
#X obj 146 50 inlet;
#X obj 146 78 i \$4;
#X obj 146 102 t f b;
#X obj 146 132 until;
#X msg 188 132 0;
#X obj 146 160 i;
#X obj 174 160 + 1;
#X obj 146 184 t f f;
#X obj 146 254 tabread \$2-pdss-array-0;
#X obj 146 278 tabwrite \$0-buffer;
#X obj 146 231 +;
#X obj 164 208 r \$0-offset;
#X connect 0 0 1 0;
#X connect 1 0 2 0;
#X connect 2 0 3 0;
#X connect 2 1 4 0;
#X connect 3 0 5 0;
#X connect 4 0 5 1;
#X connect 5 0 6 0;
#X connect 5 0 7 0;
#X connect 6 0 5 1;
#X connect 7 0 10 0;
#X connect 7 1 9 1;
#X connect 8 0 9 0;
#X connect 10 0 8 0;
#X connect 11 0 10 1;
#X restore 117 315 pd copy;
#X obj 182 418 s \$0-offset;
#N canvas 0 16 436 377 paste 0;
#X obj 84 44 inlet;
#X obj 117 90 i \$4;
#X obj 117 114 t f b;
#X obj 117 144 until;
#X msg 159 144 0;
#X obj 117 172 i;
#X obj 145 172 + 1;
#X obj 117 196 t f f;
#X obj 281 282 +;
#X obj 299 259 r \$0-offset;
#X obj 117 309 tabwrite \$2-pdss-array-0;
#X obj 117 285 tabread \$0-buffer;
#X obj 84 68 t b b;
#X obj 84 332 outlet;
#X connect 0 0 12 0;
#X connect 1 0 2 0;
#X connect 2 0 3 0;
#X connect 2 1 4 0;
#X connect 3 0 5 0;
#X connect 4 0 5 1;
#X connect 5 0 6 0;
#X connect 5 0 7 0;
#X connect 6 0 5 1;
#X connect 7 0 11 0;
#X connect 7 1 8 0;
#X connect 8 0 10 1;
#X connect 9 0 8 1;
#X connect 11 0 10 0;
#X connect 12 0 13 0;
#X connect 12 1 1 0;
#X restore 161 286 pd paste;
#X obj 28 375 i;
#N canvas 0 16 489 346 save 0;
#X obj 146 50 inlet;
#X obj 146 91 symbol;
#X obj 146 118 pack s \$0;
#X msg 146 140 \; \$2-buffer write \$1;
#X connect 0 0 1 0;
#X connect 1 0 2 0;
#X connect 2 0 3 0;
#X restore 206 264 pd save as;
#N canvas 0 16 489 346 open 0;
#X obj 146 50 inlet;
#X obj 146 91 symbol;
#X obj 146 118 pack s \$0;
#X msg 146 140 \; \$2-buffer read \$1;
#X connect 0 0 1 0;
#X connect 1 0 2 0;
#X connect 2 0 3 0;
#X restore 250 240 pd open;
#X obj 28 189 route float save copy paste save_as open rand;
#N canvas 235 63 422 356 rand 0;
#X obj 92 86 inlet;
#X obj 92 110 route nbx sl radio tgl knob;
#N canvas 135 16 649 716 (subpatch) 0;
#X obj 297 16 inlet;
#X msg 285 77 0;
#X msg 358 77 1;
#X obj 204 165 spigot;
#X obj 205 190 t a a;
#X obj 237 214 list length;
#X obj 205 260 spigot;
#X obj 205 113 s pdss-par-info-get;
#X obj 204 139 r pdss-par-info-return;
#X obj 469 18 i \$4;
#X obj 469 42 t f b;
#X obj 467 65 until;
#X msg 509 65 0;
#X obj 467 93 i;
#X obj 495 93 + 1;
#X obj 467 117 t b f;
#X obj 467 192 send;
#X obj 501 143 pack f \$2;
#X msg 501 165 symbol \$2-pdss-s-\$1;
#X obj 204 285 t a a;
#X msg 329 376 1;
#X msg 372 376 0;
#X obj 233 395 spigot;
#X obj 331 351 sel nbx;
#X obj 246 312 unpack s f f f s s f f f;
#X obj 237 235 == 9;
#X obj 92 460 unpack s f f f s s f f f;
#X obj 216 679 send;
#X msg 266 595 symbol \$1-pdss-r-\$2;
#X obj 242 545 pack f f;
#X obj 205 639 f;
#X obj 120 499 -;
#X obj 116 521 * -1;
#X obj 111 578 *;
#X obj 107 428 t a b;
#X obj 292 452 random 10000;
#X obj 292 476 / 10000;
#X obj 112 549 *;
#X obj 113 601 +;
#X obj 292 500 - 0.5;
#X obj 441 442 list store;
#X msg 515 415 bang;
#X obj 440 375 list prepend append;
#X obj 440 399 list trim;
#X msg 426 345 get 0 -1;
#X obj 436 467 list split 9;
#X obj 526 505 list;
#X obj 234 570 t b a;
#X obj 297 40 t b b b a;
#X obj 97 626 spigot;
#X obj 494 308 i;
#X obj 97 650 i;
#X obj 152 612 spigot;
#X obj 528 312 == 0;
#X obj 306 263 unpack f f;
#X obj 268 641 clip;
#X connect 0 0 48 0;
#X connect 1 0 3 1;
#X connect 1 0 7 0;
#X connect 2 0 3 1;
#X connect 2 0 7 0;
#X connect 3 0 4 0;
#X connect 4 0 6 0;
#X connect 4 1 5 0;
#X connect 5 0 25 0;
#X connect 6 0 19 0;
#X connect 8 0 3 0;
#X connect 9 0 10 0;
#X connect 10 0 11 0;
#X connect 10 1 12 0;
#X connect 11 0 13 0;
#X connect 12 0 13 1;
#X connect 13 0 14 0;
#X connect 13 0 15 0;
#X connect 14 0 13 1;
#X connect 15 0 16 0;
#X connect 15 1 17 0;
#X connect 17 0 18 0;
#X connect 18 0 16 1;
#X connect 19 0 22 0;
#X connect 19 1 24 0;
#X connect 20 0 22 1;
#X connect 21 0 22 1;
#X connect 22 0 42 0;
#X connect 23 0 20 0;
#X connect 23 1 21 0;
#X connect 24 4 23 0;
#X connect 25 0 6 1;
#X connect 26 1 29 0;
#X connect 26 3 29 1;
#X connect 26 6 31 0;
#X connect 26 6 55 1;
#X connect 26 7 31 1;
#X connect 26 7 55 2;
#X connect 26 8 38 1;
#X connect 28 0 27 1;
#X connect 29 0 47 0;
#X connect 30 0 55 0;
#X connect 31 0 32 0;
#X connect 32 0 37 0;
#X connect 33 0 38 0;
#X connect 34 0 26 0;
#X connect 34 1 35 0;
#X connect 35 0 36 0;
#X connect 36 0 39 0;
#X connect 37 0 33 0;
#X connect 38 0 49 0;
#X connect 38 0 52 0;
#X connect 39 0 37 1;
#X connect 40 0 45 0;
#X connect 41 0 40 1;
#X connect 42 0 43 0;
#X connect 43 0 40 0;
#X connect 44 0 40 0;
#X connect 45 0 34 0;
#X connect 45 1 46 0;
#X connect 46 0 45 0;
#X connect 47 0 30 0;
#X connect 47 1 28 0;
#X connect 48 0 1 0;
#X connect 48 0 44 0;
#X connect 48 1 9 0;
#X connect 48 2 2 0;
#X connect 48 2 41 0;
#X connect 48 3 54 0;
#X connect 49 0 51 0;
#X connect 50 0 49 1;
#X connect 50 0 53 0;
#X connect 51 0 30 1;
#X connect 52 0 30 1;
#X connect 53 0 52 1;
#X connect 54 0 33 1;
#X connect 54 1 50 0;
#X connect 55 0 27 0;
#X restore 92 166 pd;
#N canvas 135 16 650 700 (subpatch) 0;
#X obj 297 16 inlet;
#X msg 285 77 0;
#X msg 358 77 1;
#X obj 204 165 spigot;
#X obj 205 190 t a a;
#X obj 237 214 list length;
#X obj 205 260 spigot;
#X obj 205 113 s pdss-par-info-get;
#X obj 204 139 r pdss-par-info-return;
#X obj 469 18 i \$4;
#X obj 469 42 t f b;
#X obj 467 65 until;
#X msg 509 65 0;
#X obj 467 93 i;
#X obj 495 93 + 1;
#X obj 467 117 t b f;
#X obj 467 192 send;
#X obj 501 143 pack f \$2;
#X msg 501 165 symbol \$2-pdss-s-\$1;
#X obj 204 285 t a a;
#X msg 329 376 1;
#X msg 372 376 0;
#X obj 233 395 spigot;
#X obj 246 312 unpack s f f f s s f f f;
#X obj 237 235 == 9;
#X obj 92 460 unpack s f f f s s f f f;
#X obj 227 673 send;
#X msg 266 595 symbol \$1-pdss-r-\$2;
#X obj 242 545 pack f f;
#X obj 205 639 f;
#X obj 120 499 -;
#X obj 116 521 * -1;
#X obj 111 578 *;
#X obj 107 428 t a b;
#X obj 292 452 random 10000;
#X obj 292 476 / 10000;
#X obj 112 549 *;
#X obj 113 601 +;
#X obj 292 500 - 0.5;
#X obj 441 442 list store;
#X msg 515 415 bang;
#X obj 440 375 list prepend append;
#X obj 440 399 list trim;
#X msg 426 345 get 0 -1;
#X obj 436 467 list split 9;
#X obj 526 505 list;
#X obj 234 570 t b a;
#X obj 297 40 t b b b a;
#X obj 97 626 spigot;
#X obj 494 308 i;
#X obj 97 650 i;
#X obj 152 612 spigot;
#X obj 528 312 == 0;
#X obj 306 263 unpack f f;
#X obj 312 345 sel vsl hsl;
#X obj 171 662 clip;
#X connect 0 0 47 0;
#X connect 1 0 3 1;
#X connect 1 0 7 0;
#X connect 2 0 3 1;
#X connect 2 0 7 0;
#X connect 3 0 4 0;
#X connect 4 0 6 0;
#X connect 4 1 5 0;
#X connect 5 0 24 0;
#X connect 6 0 19 0;
#X connect 8 0 3 0;
#X connect 9 0 10 0;
#X connect 10 0 11 0;
#X connect 10 1 12 0;
#X connect 11 0 13 0;
#X connect 12 0 13 1;
#X connect 13 0 14 0;
#X connect 13 0 15 0;
#X connect 14 0 13 1;
#X connect 15 0 16 0;
#X connect 15 1 17 0;
#X connect 17 0 18 0;
#X connect 18 0 16 1;
#X connect 19 0 22 0;
#X connect 19 1 23 0;
#X connect 20 0 22 1;
#X connect 21 0 22 1;
#X connect 22 0 41 0;
#X connect 23 4 54 0;
#X connect 24 0 6 1;
#X connect 25 1 28 0;
#X connect 25 3 28 1;
#X connect 25 6 30 0;
#X connect 25 6 55 1;
#X connect 25 7 30 1;
#X connect 25 7 55 2;
#X connect 25 8 37 1;
#X connect 27 0 26 1;
#X connect 28 0 46 0;
#X connect 29 0 55 0;
#X connect 30 0 31 0;
#X connect 31 0 36 0;
#X connect 32 0 37 0;
#X connect 33 0 25 0;
#X connect 33 1 34 0;
#X connect 34 0 35 0;
#X connect 35 0 38 0;
#X connect 36 0 32 0;
#X connect 37 0 48 0;
#X connect 37 0 51 0;
#X connect 38 0 36 1;
#X connect 39 0 44 0;
#X connect 40 0 39 1;
#X connect 41 0 42 0;
#X connect 42 0 39 0;
#X connect 43 0 39 0;
#X connect 44 0 33 0;
#X connect 44 1 45 0;
#X connect 45 0 44 0;
#X connect 46 0 29 0;
#X connect 46 1 27 0;
#X connect 47 0 1 0;
#X connect 47 0 43 0;
#X connect 47 1 9 0;
#X connect 47 2 2 0;
#X connect 47 2 40 0;
#X connect 47 3 53 0;
#X connect 48 0 50 0;
#X connect 49 0 48 1;
#X connect 49 0 52 0;
#X connect 50 0 29 1;
#X connect 51 0 29 1;
#X connect 52 0 51 1;
#X connect 53 0 32 1;
#X connect 53 1 49 0;
#X connect 54 0 20 0;
#X connect 54 1 20 0;
#X connect 54 2 21 0;
#X connect 55 0 26 0;
#X restore 129 166 pd;
#N canvas 135 16 650 700 (subpatch) 0;
#X obj 297 16 inlet;
#X msg 285 77 0;
#X msg 358 77 1;
#X obj 204 165 spigot;
#X obj 205 190 t a a;
#X obj 237 214 list length;
#X obj 205 260 spigot;
#X obj 205 113 s pdss-par-info-get;
#X obj 204 139 r pdss-par-info-return;
#X obj 469 18 i \$4;
#X obj 469 42 t f b;
#X obj 467 65 until;
#X msg 509 65 0;
#X obj 467 93 i;
#X obj 495 93 + 1;
#X obj 467 117 t b f;
#X obj 467 192 send;
#X obj 501 143 pack f \$2;
#X msg 501 165 symbol \$2-pdss-s-\$1;
#X obj 204 285 t a a;
#X msg 329 376 1;
#X msg 372 376 0;
#X obj 233 395 spigot;
#X obj 246 312 unpack s f f f s s f f f;
#X obj 237 235 == 9;
#X obj 92 460 unpack s f f f s s f f f;
#X obj 227 673 send;
#X msg 266 595 symbol \$1-pdss-r-\$2;
#X obj 242 545 pack f f;
#X obj 120 499 -;
#X obj 116 521 * -1;
#X obj 111 574 *;
#X obj 107 428 t a b;
#X obj 292 452 random 10000;
#X obj 292 476 / 10000;
#X obj 112 549 *;
#X obj 123 620 +;
#X obj 292 500 - 0.5;
#X obj 441 442 list store;
#X msg 515 415 bang;
#X obj 440 375 list prepend append;
#X obj 440 399 list trim;
#X msg 426 345 get 0 -1;
#X obj 436 467 list split 9;
#X obj 526 505 list;
#X obj 234 570 t b a;
#X obj 189 651 clip;
#X obj 216 625 i;
#X obj 297 40 t b b b f;
#X obj 296 347 sel vrd hrd;
#N canvas 0 16 450 300 ceil 0;
#X obj 125 75 inlet;
#X obj 124 99 moses 0;
#X obj 149 206 outlet;
#X obj 148 176 i;
#X obj 172 123 + 0.45;
#X obj 101 130 - 0.45;
#X connect 0 0 1 0;
#X connect 1 0 5 0;
#X connect 1 1 4 0;
#X connect 3 0 2 0;
#X connect 4 0 3 0;
#X connect 5 0 3 0;
#X restore 78 598 pd ceil;
#X connect 0 0 48 0;
#X connect 1 0 3 1;
#X connect 1 0 7 0;
#X connect 2 0 3 1;
#X connect 2 0 7 0;
#X connect 3 0 4 0;
#X connect 4 0 6 0;
#X connect 4 1 5 0;
#X connect 5 0 24 0;
#X connect 6 0 19 0;
#X connect 8 0 3 0;
#X connect 9 0 10 0;
#X connect 10 0 11 0;
#X connect 10 1 12 0;
#X connect 11 0 13 0;
#X connect 12 0 13 1;
#X connect 13 0 14 0;
#X connect 13 0 15 0;
#X connect 14 0 13 1;
#X connect 15 0 16 0;
#X connect 15 1 17 0;
#X connect 17 0 18 0;
#X connect 18 0 16 1;
#X connect 19 0 22 0;
#X connect 19 1 23 0;
#X connect 20 0 22 1;
#X connect 21 0 22 1;
#X connect 22 0 40 0;
#X connect 23 4 49 0;
#X connect 24 0 6 1;
#X connect 25 1 28 0;
#X connect 25 3 28 1;
#X connect 25 6 29 0;
#X connect 25 6 46 1;
#X connect 25 7 29 1;
#X connect 25 7 46 2;
#X connect 25 8 36 1;
#X connect 27 0 26 1;
#X connect 28 0 45 0;
#X connect 29 0 30 0;
#X connect 30 0 35 0;
#X connect 31 0 50 0;
#X connect 32 0 25 0;
#X connect 32 1 33 0;
#X connect 33 0 34 0;
#X connect 34 0 37 0;
#X connect 35 0 31 0;
#X connect 36 0 47 1;
#X connect 37 0 35 1;
#X connect 38 0 43 0;
#X connect 39 0 38 1;
#X connect 40 0 41 0;
#X connect 41 0 38 0;
#X connect 42 0 38 0;
#X connect 43 0 32 0;
#X connect 43 1 44 0;
#X connect 44 0 43 0;
#X connect 45 0 47 0;
#X connect 45 1 27 0;
#X connect 46 0 26 0;
#X connect 47 0 46 0;
#X connect 48 0 1 0;
#X connect 48 0 42 0;
#X connect 48 1 9 0;
#X connect 48 2 2 0;
#X connect 48 2 39 0;
#X connect 48 3 31 1;
#X connect 49 0 20 0;
#X connect 49 1 20 0;
#X connect 49 2 21 0;
#X connect 50 0 36 0;
#X restore 166 166 pd;
#N canvas 135 16 650 700 (subpatch) 0;
#X obj 297 16 inlet;
#X msg 285 77 0;
#X msg 358 77 1;
#X obj 204 165 spigot;
#X obj 205 190 t a a;
#X obj 237 214 list length;
#X obj 205 260 spigot;
#X obj 205 113 s pdss-par-info-get;
#X obj 204 139 r pdss-par-info-return;
#X obj 469 18 i \$4;
#X obj 469 42 t f b;
#X obj 467 65 until;
#X msg 509 65 0;
#X obj 467 93 i;
#X obj 495 93 + 1;
#X obj 467 117 t b f;
#X obj 467 192 send;
#X obj 501 143 pack f \$2;
#X msg 501 165 symbol \$2-pdss-s-\$1;
#X obj 204 285 t a a;
#X msg 329 376 1;
#X msg 372 376 0;
#X obj 233 395 spigot;
#X obj 246 312 unpack s f f f s s f f f;
#X obj 237 235 == 9;
#X obj 92 460 unpack s f f f s s f f f;
#X obj 187 652 send;
#X msg 266 595 symbol \$1-pdss-r-\$2;
#X obj 242 545 pack f f;
#X obj 107 428 t a b;
#X obj 56 498 random 10000;
#X obj 56 522 / 10000;
#X obj 56 546 - 0.5;
#X obj 441 442 list store;
#X msg 515 415 bang;
#X obj 440 375 list prepend append;
#X obj 440 399 list trim;
#X msg 426 345 get 0 -1;
#X obj 436 467 list split 9;
#X obj 526 505 list;
#X obj 234 570 t b a;
#X obj 297 40 t b b b f;
#X obj 296 347 sel tgl;
#X obj 56 570 moses 0;
#X msg 56 595 0;
#X obj 116 601 f;
#X obj 123 565 bang;
#X connect 0 0 41 0;
#X connect 1 0 3 1;
#X connect 1 0 7 0;
#X connect 2 0 3 1;
#X connect 2 0 7 0;
#X connect 3 0 4 0;
#X connect 4 0 6 0;
#X connect 4 1 5 0;
#X connect 5 0 24 0;
#X connect 6 0 19 0;
#X connect 8 0 3 0;
#X connect 9 0 10 0;
#X connect 10 0 11 0;
#X connect 10 1 12 0;
#X connect 11 0 13 0;
#X connect 12 0 13 1;
#X connect 13 0 14 0;
#X connect 13 0 15 0;
#X connect 14 0 13 1;
#X connect 15 0 16 0;
#X connect 15 1 17 0;
#X connect 17 0 18 0;
#X connect 18 0 16 1;
#X connect 19 0 22 0;
#X connect 19 1 23 0;
#X connect 20 0 22 1;
#X connect 21 0 22 1;
#X connect 22 0 35 0;
#X connect 23 4 42 0;
#X connect 24 0 6 1;
#X connect 25 1 28 0;
#X connect 25 3 28 1;
#X connect 25 7 45 1;
#X connect 27 0 26 1;
#X connect 28 0 40 0;
#X connect 29 0 25 0;
#X connect 29 1 30 0;
#X connect 30 0 31 0;
#X connect 31 0 32 0;
#X connect 32 0 43 0;
#X connect 33 0 38 0;
#X connect 34 0 33 1;
#X connect 35 0 36 0;
#X connect 36 0 33 0;
#X connect 37 0 33 0;
#X connect 38 0 29 0;
#X connect 38 1 39 0;
#X connect 39 0 38 0;
#X connect 40 1 27 0;
#X connect 41 0 1 0;
#X connect 41 0 37 0;
#X connect 41 1 9 0;
#X connect 41 2 2 0;
#X connect 41 2 34 0;
#X connect 42 0 20 0;
#X connect 42 1 21 0;
#X connect 43 0 44 0;
#X connect 43 1 46 0;
#X connect 44 0 26 0;
#X connect 45 0 26 0;
#X connect 46 0 45 0;
#X restore 203 166 pd;
#N canvas 135 16 649 716 (subpatch) 0;
#X obj 297 16 inlet;
#X msg 285 77 0;
#X msg 358 77 1;
#X obj 204 165 spigot;
#X obj 205 190 t a a;
#X obj 237 214 list length;
#X obj 205 260 spigot;
#X obj 205 113 s pdss-par-info-get;
#X obj 204 139 r pdss-par-info-return;
#X obj 469 18 i \$4;
#X obj 469 42 t f b;
#X obj 467 65 until;
#X msg 509 65 0;
#X obj 467 93 i;
#X obj 495 93 + 1;
#X obj 467 117 t b f;
#X obj 467 192 send;
#X obj 501 143 pack f \$2;
#X msg 501 165 symbol \$2-pdss-s-\$1;
#X obj 204 285 t a a;
#X msg 329 376 1;
#X msg 372 376 0;
#X obj 233 395 spigot;
#X obj 246 312 unpack s f f f s s f f f;
#X obj 237 235 == 9;
#X obj 92 460 unpack s f f f s s f f f;
#X obj 216 679 send;
#X msg 266 595 symbol \$1-pdss-r-\$2;
#X obj 242 545 pack f f;
#X obj 205 639 f;
#X obj 120 499 -;
#X obj 116 521 * -1;
#X obj 111 578 *;
#X obj 107 428 t a b;
#X obj 292 452 random 10000;
#X obj 292 476 / 10000;
#X obj 112 549 *;
#X obj 113 601 +;
#X obj 292 500 - 0.5;
#X obj 441 442 list store;
#X msg 515 415 bang;
#X obj 440 375 list prepend append;
#X obj 440 399 list trim;
#X msg 426 345 get 0 -1;
#X obj 436 467 list split 9;
#X obj 526 505 list;
#X obj 234 570 t b a;
#X obj 297 40 t b b b a;
#X obj 97 626 spigot;
#X obj 494 308 i;
#X obj 97 650 i;
#X obj 152 612 spigot;
#X obj 528 312 == 0;
#X obj 306 263 unpack f f;
#X obj 268 641 clip;
#X obj 330 350 sel n_knob;
#X connect 0 0 47 0;
#X connect 1 0 3 1;
#X connect 1 0 7 0;
#X connect 2 0 3 1;
#X connect 2 0 7 0;
#X connect 3 0 4 0;
#X connect 4 0 6 0;
#X connect 4 1 5 0;
#X connect 5 0 24 0;
#X connect 6 0 19 0;
#X connect 8 0 3 0;
#X connect 9 0 10 0;
#X connect 10 0 11 0;
#X connect 10 1 12 0;
#X connect 11 0 13 0;
#X connect 12 0 13 1;
#X connect 13 0 14 0;
#X connect 13 0 15 0;
#X connect 14 0 13 1;
#X connect 15 0 16 0;
#X connect 15 1 17 0;
#X connect 17 0 18 0;
#X connect 18 0 16 1;
#X connect 19 0 22 0;
#X connect 19 1 23 0;
#X connect 20 0 22 1;
#X connect 21 0 22 1;
#X connect 22 0 41 0;
#X connect 23 4 55 0;
#X connect 24 0 6 1;
#X connect 25 1 28 0;
#X connect 25 3 28 1;
#X connect 25 6 30 0;
#X connect 25 6 54 1;
#X connect 25 7 30 1;
#X connect 25 7 54 2;
#X connect 25 8 37 1;
#X connect 27 0 26 1;
#X connect 28 0 46 0;
#X connect 29 0 54 0;
#X connect 30 0 31 0;
#X connect 31 0 36 0;
#X connect 32 0 37 0;
#X connect 33 0 25 0;
#X connect 33 1 34 0;
#X connect 34 0 35 0;
#X connect 35 0 38 0;
#X connect 36 0 32 0;
#X connect 37 0 48 0;
#X connect 37 0 51 0;
#X connect 38 0 36 1;
#X connect 39 0 44 0;
#X connect 40 0 39 1;
#X connect 41 0 42 0;
#X connect 42 0 39 0;
#X connect 43 0 39 0;
#X connect 44 0 33 0;
#X connect 44 1 45 0;
#X connect 45 0 44 0;
#X connect 46 0 29 0;
#X connect 46 1 27 0;
#X connect 47 0 1 0;
#X connect 47 0 43 0;
#X connect 47 1 9 0;
#X connect 47 2 2 0;
#X connect 47 2 40 0;
#X connect 47 3 53 0;
#X connect 48 0 50 0;
#X connect 49 0 48 1;
#X connect 49 0 52 0;
#X connect 50 0 29 1;
#X connect 51 0 29 1;
#X connect 52 0 51 1;
#X connect 53 0 32 1;
#X connect 53 1 49 0;
#X connect 54 0 26 0;
#X connect 55 0 20 0;
#X connect 55 1 21 0;
#X restore 240 166 pd;
#X connect 0 0 1 0;
#X connect 1 0 2 0;
#X connect 1 1 3 0;
#X connect 1 2 4 0;
#X connect 1 3 5 0;
#X connect 1 4 6 0;
#X restore 295 219 pd rand;
#X connect 2 0 13 0;
#X connect 2 0 22 1;
#X connect 2 0 31 0;
#X connect 6 0 16 0;
#X connect 7 0 8 2;
#X connect 8 0 33 0;
#X connect 9 0 12 0;
#X connect 10 0 11 0;
#X connect 11 0 29 0;
#X connect 12 0 11 1;
#X connect 12 0 7 0;
#X connect 15 0 17 0;
#X connect 16 0 15 0;
#X connect 17 0 20 0;
#X connect 17 1 18 0;
#X connect 18 0 19 0;
#X connect 19 0 20 1;
#X connect 20 0 26 0;
#X connect 21 0 36 0;
#X connect 22 0 14 0;
#X connect 23 0 22 0;
#X connect 26 0 10 0;
#X connect 26 1 9 0;
#X connect 26 2 27 0;
#X connect 27 0 29 2;
#X connect 29 0 28 0;
#X connect 32 0 33 0;
#X connect 33 0 2 0;
#X connect 36 0 8 0;
#X connect 36 1 23 0;
#X connect 36 2 30 0;
#X connect 36 3 32 0;
#X connect 36 4 34 0;
#X connect 36 5 35 0;
#X connect 36 6 37 0;
