#N canvas 170 105 939 584 10;
#N canvas 0 50 450 250 (subpatch) 0;
#X array \$0-snap 13 float 3;
#A 0 115 110 97 112 0 0 0 0 0 0 0 0 0;
#X coords 0 1 13 -1 200 140 1 0 0;
#X restore 85 380 graph;
#X obj 26 441 print;
#X obj 26 422 r \$0-par;
#X obj 117 328 f;
#X obj 357 49 loadbang;
#X text 202 68 <- par;
#X obj 149 109 +;
#X obj 149 272 s \$0-par;
#X obj 149 236 pack f f;
#X msg 149 254 set \$2 \$1;
#X obj 209 328 +;
#X obj 117 310 t b f, f 15;
#X msg 176 67 0;
#X floatatom 149 192 5 0 0 1 par_0 - -;
#X obj 149 127 tabread \$0-snap;
#X obj 117 346 tabwrite \$0-snap;
#X obj 117 292 r \$0-save-snap;
#X obj 149 91 r \$0-load-snap;
#X obj 237 328 f;
#X text 322 68 <- par;
#X obj 269 109 +;
#X obj 269 272 s \$0-par;
#X obj 269 236 pack f f;
#X msg 269 254 set \$2 \$1;
#X obj 329 328 +;
#X obj 237 310 t b f, f 15;
#X floatatom 269 192 5 0 0 1 par_1 - -;
#X obj 269 127 tabread \$0-snap;
#X obj 237 346 tabwrite \$0-snap;
#X obj 237 292 r \$0-save-snap;
#X obj 269 91 r \$0-load-snap;
#X obj 367 328 f;
#X text 452 68 <- par;
#X obj 399 109 +;
#X obj 399 272 s \$0-par;
#X obj 399 236 pack f f;
#X msg 399 254 set \$2 \$1;
#X obj 459 328 +;
#X obj 367 310 t b f, f 15;
#X floatatom 399 192 5 0 0 1 par_2 - -;
#X obj 399 127 tabread \$0-snap;
#X obj 367 346 tabwrite \$0-snap;
#X obj 367 292 r \$0-save-snap;
#X obj 399 91 r \$0-load-snap;
#X obj 497 328 f;
#X text 582 68 <- par;
#X obj 529 109 +;
#X obj 529 272 s \$0-par;
#X obj 529 236 pack f f;
#X msg 529 254 set \$2 \$1;
#X obj 589 328 +;
#X obj 497 310 t b f, f 15;
#X floatatom 529 192 5 0 0 1 par_3 - -;
#X obj 529 127 tabread \$0-snap;
#X obj 497 346 tabwrite \$0-snap;
#X obj 497 292 r \$0-save-snap;
#X obj 529 91 r \$0-load-snap;
#X msg 296 67 1;
#X msg 426 67 2;
#X msg 556 67 3;
#X text 306 507 instrument snap memory.;
#X obj 306 158 bng 15 250 50 0 empty empty select_this_instrument_in_snaphot_browser
17 7 0 10 -262144 -1 -1;
#X obj 356 441 s to-snapshot-browser;
#X obj 356 405 i \$0;
#X text 455 423 <- name array memory;
#X msg 356 423 init \$1-snap;
#X obj 326 473 s snapshot-select;
#X obj 684 73 r snapshot-select;
#X obj 684 91 t f b;
#X obj 707 110 i \$0;
#X obj 684 124 ==;
#X obj 684 145 sel 1;
#X msg 712 182 color 0 22 22;
#X msg 684 164 color 17 22 22;
#X connect 2 0 1 0;
#X connect 3 0 15 0;
#X connect 4 0 12 0;
#X connect 4 0 57 0;
#X connect 4 0 58 0;
#X connect 4 0 59 0;
#X connect 6 0 14 0;
#X connect 8 0 9 0;
#X connect 9 0 7 0;
#X connect 10 0 15 1;
#X connect 11 0 3 0;
#X connect 11 1 10 0;
#X connect 12 0 6 1;
#X connect 12 0 8 1;
#X connect 12 0 10 1;
#X connect 13 0 8 0;
#X connect 13 0 3 1;
#X connect 14 0 13 0;
#X connect 16 0 11 0;
#X connect 17 0 6 0;
#X connect 18 0 28 0;
#X connect 20 0 27 0;
#X connect 22 0 23 0;
#X connect 23 0 21 0;
#X connect 24 0 28 1;
#X connect 25 0 18 0;
#X connect 25 1 24 0;
#X connect 26 0 22 0;
#X connect 26 0 18 1;
#X connect 27 0 26 0;
#X connect 29 0 25 0;
#X connect 30 0 20 0;
#X connect 31 0 41 0;
#X connect 33 0 40 0;
#X connect 35 0 36 0;
#X connect 36 0 34 0;
#X connect 37 0 41 1;
#X connect 38 0 31 0;
#X connect 38 1 37 0;
#X connect 39 0 35 0;
#X connect 39 0 31 1;
#X connect 40 0 39 0;
#X connect 42 0 38 0;
#X connect 43 0 33 0;
#X connect 44 0 54 0;
#X connect 46 0 53 0;
#X connect 48 0 49 0;
#X connect 49 0 47 0;
#X connect 50 0 54 1;
#X connect 51 0 44 0;
#X connect 51 1 50 0;
#X connect 52 0 48 0;
#X connect 52 0 44 1;
#X connect 53 0 52 0;
#X connect 55 0 51 0;
#X connect 56 0 46 0;
#X connect 57 0 20 1;
#X connect 57 0 22 1;
#X connect 57 0 24 1;
#X connect 58 0 33 1;
#X connect 58 0 35 1;
#X connect 58 0 37 1;
#X connect 59 0 46 1;
#X connect 59 0 48 1;
#X connect 59 0 50 1;
#X connect 61 0 63 0;
#X connect 63 0 65 0;
#X connect 63 0 66 0;
#X connect 65 0 62 0;
#X connect 67 0 68 0;
#X connect 68 0 70 0;
#X connect 68 1 69 0;
#X connect 69 0 70 1;
#X connect 70 0 71 0;
#X connect 71 0 73 0;
#X connect 71 1 72 0;
#X connect 72 0 61 0;
#X connect 73 0 61 0;
#X coords 0 -1 1 1 500 60 1 100 150;
