#N canvas 408 91 939 584 10;
#X obj 135 192 nbx 5 14 -1e+37 1e+37 0 0 \$0-s-0 \$0-r-0 par-0 0 -8
0 10 -262144 -1 -1 72 256;
#X obj 199 192 nbx 5 14 -1e+37 1e+37 0 0 \$0-s-1 \$0-r-1 par-1 0 -8
0 10 -262144 -1 -1 54 256;
#X obj 262 192 nbx 5 14 -1e+37 1e+37 0 0 \$0-s-2 \$0-r-2 par-2 0 -8
0 10 -262144 -1 -1 54 256;
#X obj 325 192 nbx 5 14 -1e+37 1e+37 0 0 \$0-s-3 \$0-r-3 par-3 0 -8
0 10 -262144 -1 -1 68 256;
#X obj 102 243 ss_par \$0 0 0;
#X obj 192 243 ss_par \$0 0 1;
#X obj 282 243 ss_par \$0 0 2;
#X obj 372 243 ss_par \$0 0 3;
#X text 759 74 this inlet recall snap.;
#X floatatom 775 114 5 0 127 0 - - -;
#X obj 775 131 * 4;
#X obj 775 149 s \$0-load-state-par;
#X obj 775 96 inlet load snap;
#X obj 147 459 table \$0-ss-0 512;
#N canvas 0 50 450 250 (subpatch) 0;
#X array \$0-ss-1 128 float 2;
#X coords 0 1 128 -1 40 40 1 0 0;
#X restore 404 166 graph;
#X obj 647 314 r ss-get-array;
#X obj 648 224 r ss-get-dollarzero;
#X obj 648 242 sel \$1;
#X obj 648 278 s ss-get-dollarzero-receive;
#X obj 648 260 i \$0;
#X obj 647 332 pack \$1 0;
#X obj 647 350 s ss-get-array-receive;
#X obj 647 379 r ss-get-array;
#X obj 647 415 s ss-get-array-receive;
#X obj 647 397 pack \$1 1;
#X connect 9 0 10 0;
#X connect 10 0 11 0;
#X connect 12 0 9 0;
#X connect 15 0 20 0;
#X connect 16 0 17 0;
#X connect 17 0 19 0;
#X connect 19 0 18 0;
#X connect 20 0 21 0;
#X connect 22 0 24 0;
#X connect 24 0 23 0;
#X coords 0 -1 1 1 350 60 1 100 150;
