#N canvas 301 229 758 274 10;
#X obj 116 153 nbx 5 14 0 100 0 0 \$0-sss-s-0 \$0-sss-r-0 par_0 0 -8 0 10 #fcfcfc #000000 #000000 0 256;
#X obj 182 153 nbx 5 14 0 100 0 0 \$0-sss-s-1 \$0-sss-r-1 par_1 0 -8 0 10 #fcfcfc #000000 #000000 0 256;
#X obj 254 153 nbx 5 14 0 100 0 0 \$0-sss-s-2 \$0-sss-r-2 par_2 0 -8 0 10 #fcfcfc #000000 #000000 0 256;
#X obj 327 154 nbx 5 14 0 100 0 0 \$0-sss-s-3 \$0-sss-r-3 par_3 0 -8 0 10 #fcfcfc #000000 #000000 0 256;
#X floatatom 497 116 5 0 0 1 snap - - 0;
#X obj 537 60 route float;
#X obj 537 37 r pdss-snap-\$1;
#X obj 468 66 r pdss-init;
#X obj 505 145 bng 15 250 50 0 empty empty init 17 7 0 10 #ffffff #00ff04 #000000;
#N canvas 20 20 1070 424 __sss__ 0;
#X obj 20 20 sss_par example3 \$0 \$1 \$2 0 nbx par_0 0 100 0.01;
#X obj 20 44 sss_par example3 \$0 \$1 \$2 1 nbx par_1 0 100 0.01;
#X obj 20 68 sss_par example3 \$0 \$1 \$2 2 nbx par_2 0 100 0.01;
#X obj 20 92 sss_par example3 \$0 \$1 \$2 3 nbx par_3 0 100 0.01;
#X restore 20 20 pd __sss__;
#X obj 586 100 sss_focus \$1 \$2;
#X connect 5 0 4 0;
#X connect 6 0 5 0;
#X connect 7 0 8 0;
#X coords 0 -1 1 1 500 72 1 100 100;
