#N canvas 165 214 758 274 10;
#X obj 116 153 nbx 5 14 0 100 0 0 \$0-pdss-s-0 \$0-pdss-r-0 par_0 0 -8 0 10 #fcfcfc #000000 #000000 0 256;
#X obj 182 153 nbx 5 14 0 100 0 0 \$0-pdss-s-1 \$0-pdss-r-1 par_1 0 -8 0 10 #fcfcfc #000000 #000000 0 256;
#X obj 254 153 nbx 5 14 0 100 0 0 \$0-pdss-s-2 \$0-pdss-r-2 par_2 0 -8 0 10 #fcfcfc #000000 #000000 0 256;
#X obj 327 154 nbx 5 14 0 100 0 0 \$0-pdss-s-3 \$0-pdss-r-3 par_3 0 -8 0 10 #fcfcfc #000000 #000000 0 256;
#N canvas 20 20 1070 424 __pdss__ 0;
#X text 20 20 [Created by pdss.py];
#X obj 20 44 a_pdss_driver example3 \$0 \$1 4 \$2;
#X obj 20 68 table \$0-pdss-array-0;
#X obj 370 20 a_pdss_par example3 \$0 \$1 0 nbx par_0 0 100;
#X obj 370 44 a_pdss_par example3 \$0 \$1 1 nbx par_1 0 100;
#X obj 370 68 a_pdss_par example3 \$0 \$1 2 nbx par_2 0 100;
#X obj 370 92 a_pdss_par example3 \$0 \$1 3 nbx par_3 0 100;
#X obj 720 20 a_pdss_array example3 \$0 \$1 0 \$0-pdss-array-0;
#X restore 20 20 pd __pdss__;
#X floatatom 537 109 5 0 0 1 snap - - 0;
#X obj 537 60 route float;
#X obj 537 37 r pdss-snap-\$1;
#X obj 468 66 r pdss-init;
#X obj 545 138 bng 15 250 50 0 empty empty init 17 7 0 10 #ffffff #00ff04 #000000;
#X connect 6 0 5 0;
#X connect 7 0 6 0;
#X connect 8 0 9 0;
#X coords 0 -1 1 1 500 72 1 100 100;
