#N canvas 362 160 704 517 10;
#X obj 116 153 nbx 5 14 0 100 0 0 \$0_s_0 \$0_r_0 par_0 0 -8 0 10 #fcfcfc #000000 #000000 0 256;
#X obj 182 153 nbx 5 14 0 100 0 0 \$0_s_1 \$0_r_1 par_1 0 -8 0 10 #fcfcfc #000000 #000000 0 256;
#X obj 254 153 nbx 5 14 0 100 0 0 \$0_s_2 \$0_r_2 par_2 0 -8 0 10 #fcfcfc #000000 #000000 0 256;
#X obj 327 154 nbx 5 14 0 100 0 0 \$0_s_3 \$0_r_3 par_3 0 -8 0 10 #fcfcfc #000000 #000000 0 256;
#X obj 185 112 tgl 15 0 \$0_s_6 \$0_r_6 par_4 17 7 0 10 #fcfcfc #000000 #000000 0 1;
#X obj 243 113 hsl 60 12 0 127 0 0 \$0_s_4 \$0_r_4 par_5 66 6 0 10 #fcfcfc #000000 #000000 0 1;
#N canvas 0 50 450 250 (subpatch) 0;
#X array \$0-array1 100 float 2;
#X coords 0 1 100 -1 100 50 1 0 0;
#X restore 399 119 graph;
#X obj 116 172 f;
#X obj 182 172 f;
#X obj 254 172 f;
#X obj 327 173 f;
#X obj 72 127 f;
#X obj 315 304 i;
#X obj 357 114 vsl 20 24 -24 24 0 0 \$0_s_5 \$0_r_5 empty 0 -9 0 10 #fcfcfc #000000 #000000 0 1;
#X obj 511 118 vradio 12 1 0 4 \$0_s_11 \$0_r_11 empty 0 -8 0 10 #fcfcfc #000000 #000000 0;
#X obj 525 118 vradio 12 1 0 4 \$0_s_12 \$0_r_12 empty 0 -8 0 10 #fcfcfc #000000 #000000 0;
#X obj 539 118 vradio 12 1 0 4 \$0_s_13 \$0_r_13 empty 0 -8 0 10 #fcfcfc #000000 #000000 0;
#X obj 559 118 hradio 12 1 0 3 \$0_s_8 \$0_r_8 empty 0 -8 0 10 #fcfcfc #000000 #000000 0;
#X obj 559 136 hradio 12 1 0 3 \$0_s_9 \$0_r_9 empty 0 -8 0 10 #fcfcfc #000000 #000000 0;
#X obj 559 154 hradio 12 1 0 3 \$0_s_10 \$0_r_10 empty 0 -8 0 10 #fcfcfc #000000 #000000 0;
#N canvas 0 50 450 250 (subpatch) 0;
#X array \$0-array2 100 float 3;
#A 0 0 0 0 0 0 0 0 0 0 0 0 0 0 0 0 0 0 0 0 0 0 0 0 0 0 0 0 0 0 0 0 0 0 0 0 0 0 0 0 0 0 0 0 0 0.88 0 0 0 0 0 0 0 0 0 0.76 0 0 0 0 0 0 0 0 0 0 0 0 0 0 0 0 0 0 0 0 0 0 0 0 0 0 0 0 0 0 0 0 0 0 0 0 0 0 0 0 0 0 0 0 0;
#X coords 0 1 100 -1 100 50 1 0 0;
#X restore 412 326 graph;
#X text 355 51 array without flag 'save content';
#X text 371 393 array with flag 'save content';
#N canvas 0 50 450 250 (subpatch) 0;
#X array array1 100 float 1;
#A 0 0 0 0 0 0 0 0 0 0 0 0 0 0 0 0 0 0 0 0 0 0 0 0 0 0 0 0 0 0 0 0 0 0 0 0 0 0 0 0 0 0 0 0 0 0 0 0 0 0 0 0 0 0 0 0 0 0 0 0 0 0 0 0 0 0 0 0 0 0 0 0 0 0 0 0 0 0 0 0 0 0 0 0 0 0 0 0 0 0 0 0 0 0 0 0 0 0 0 0 0;
#X coords 0 1 99 -1 200 140 1 0 0;
#X restore 24 328 graph;
#N canvas 0 50 450 250 (subpatch) 0;
#X array \$0-array4 100 float 4;
#X coords 0 1 99 -1 100 50 1 0 0;
#X restore 517 235 graph;
#X obj 344 220 tgl 15 0 \$0_s_7 \$0_r_7 another 17 7 0 10 #fcfcfc #000000 #000000 0 12;
#X connect 0 0 7 0;
#X connect 1 0 8 0;
#X connect 2 0 9 0;
#X connect 3 0 10 0;
#X connect 4 0 11 0;
#X connect 5 0 12 0;
#X connect 7 0 12 0;
#X connect 8 0 12 0;
#X connect 9 0 12 0;
#X connect 10 0 12 0;
#X connect 11 0 12 0;
#X connect 13 0 12 0;
#X connect 14 0 12 0;
#X connect 15 0 12 0;
#X connect 16 0 12 0;
#X connect 17 0 12 0;
#X connect 18 0 12 0;
#X connect 19 0 12 0;
#X connect 25 0 12 0;
#X coords 0 -1 1 1 500 72 1 100 100;
#N canvas 20 20 600 500 __pdss__ 0;
#X text 20 20 Created by pdss.py;
#X obj 20 48 a_pdss_snap example1 \$0 \$1 14 \$2;
#X obj 20 76 table \$0_ss_a_1;;
#X obj 20 104 a_pdss_par example1 \$0 \$1 0 nbx par_0 0 100;
#X obj 20 132 a_pdss_par example1 \$0 \$1 1 nbx par_1 0 100;
#X obj 20 160 a_pdss_par example1 \$0 \$1 2 nbx par_2 0 100;
#X obj 20 188 a_pdss_par example1 \$0 \$1 3 nbx par_3 0 100;
#X obj 20 216 a_pdss_par example1 \$0 \$1 4 hsl par_5 0 127;
#X obj 20 244 a_pdss_par example1 \$0 \$1 5 vsl empty -24 24;
#X obj 20 272 a_pdss_par example1 \$0 \$1 6 tgl par_4 0 1;
#X obj 20 300 a_pdss_par example1 \$0 \$1 7 tgl another 0 12;
#X obj 20 328 a_pdss_par example1 \$0 \$1 8 hrd empty 0 3;
#X obj 20 356 a_pdss_par example1 \$0 \$1 9 hrd empty 0 3;
#X obj 20 384 a_pdss_par example1 \$0 \$1 10 hrd empty 0 3;
#X obj 20 412 a_pdss_par example1 \$0 \$1 11 vrd empty 0 4;
#X obj 20 440 a_pdss_par example1 \$0 \$1 12 vrd empty 0 4;
#X obj 320 20 a_pdss_par example1 \$0 \$1 13 vrd empty 0 4;
#X obj 320 48 a_pdss_array example1 \$0 \$1 1 \$0-array1;
#X obj 320 76 a_pdss_array example1 \$0 \$1 2 \$0-array4;
#X restore 20 20 pd __pdss__;
