#N canvas 0 15 604 359 10;
#X obj 102 128 nbx 5 14 0 100 0 0 \$0-sss-s-0 \$0-sss-r-0 par_0 0 -8 0 10 #bbbbbb #000000 #000000 0 256;
#X obj 102 156 nbx 5 14 0 100 0 0 \$0-sss-s-1 \$0-sss-r-1 par_1 0 -8 0 10 #bbbbbb #000000 #000000 0 256;
#X obj 156 128 nbx 5 14 0 100 0 0 \$0-sss-s-2 \$0-sss-r-2 par_2 0 -8 0 10 #bbbbbb #000000 #000000 0 256;
#X obj 156 156 nbx 5 14 0 100 0 0 \$0-sss-s-3 \$0-sss-r-3 par_3 0 -8 0 10 #bbbbbb #000000 #000000 0 256;
#N canvas 20 20 1070 424 __sss__ 0;
#X obj 20 20 sss_par example3 \$0 \$1 \$2 0 nbx par_0 0 100 1;
#X obj 20 44 sss_par example3 \$0 \$1 \$2 1 nbx par_1 0 100 1;
#X obj 20 68 sss_par example3 \$0 \$1 \$2 2 nbx par_2 0 100 1;
#X obj 20 92 sss_par example3 \$0 \$1 \$2 3 nbx par_3 0 100 1;
#X obj 20 116 sss_ar example3 \$0 \$1 \$2 0 \$0-sss-0;
#X obj 20 140 sss_ar example3 \$0 \$1 \$2 1 \$0-sss-1;
#X obj 20 164 sss_ar example3 \$0 \$1 \$2 2 \$0-sss-table;
#X restore 20 20 pd __sss__;
#X obj 436 100 sss_focus \$1 \$2;
#N canvas 0 50 450 250 (subpatch) 0;
#X array \$0-sss-0 6800 float 2;
#X coords 0 1 6800 -1 60 20 1 0 0;
#X restore 246 144 graph;
#X obj 116 215 table \$0-sss-table 128;
#X obj 116 239 table \$0-no;
#X obj 263 113 bng 10 250 50 0 empty empty open 12 4 0 10 #fcfcfc #000000 #000000;
#X obj 264 70 soundfiler;
#X obj 264 32 pack s \$0;
#N canvas 0 50 450 250 (subpatch) 0;
#X array \$0-sss-1 10112 float 2;
#X coords 0 1 10112 -1 60 20 1 0 0;
#X restore 359 144 graph;
#X obj 373 113 bng 10 250 50 0 empty empty open 12 4 0 10 #fcfcfc #000000 #000000;
#X msg 264 51 read -resize \$1 \$2-sss-0;
#X obj 264 13 openpanel;
#X obj 373 249 soundfiler;
#X obj 373 211 pack s \$0;
#X obj 373 192 openpanel;
#X msg 373 230 read -resize \$1 \$2-sss-1;
#X connect 9 0 15 0;
#X connect 11 0 14 0;
#X connect 13 0 18 0;
#X connect 14 0 10 0;
#X connect 15 0 11 0;
#X connect 17 0 19 0;
#X connect 18 0 17 0;
#X connect 19 0 16 0;
#X coords 0 -1 1 1 350 72 1 100 100;
