#N canvas 408 91 939 584 10;
#X text 759 74 this inlet recall snap.;
#X floatatom 775 114 5 0 127 0 - - -;
#X obj 775 131 * 4;
#X obj 775 149 s \$0-load-state-par;
#X obj 775 96 inlet load snap;
#N canvas 0 50 450 250 (subpatch) 0;
#X array \$0-ss-3 128 float 2;
#X coords 0 1 128 -1 40 40 1 0 0;
#X restore 400 166 graph;
#X obj 483 352 r ss-get-array;
#X obj 484 262 r ss-get-dollarzero;
#X obj 484 280 sel \$1;
#X obj 484 316 s ss-get-dollarzero-receive;
#X obj 484 298 i \$0;
#X obj 483 370 pack \$1 0;
#X obj 483 388 s ss-get-array-receive;
#X obj 483 417 r ss-get-array;
#X obj 483 453 s ss-get-array-receive;
#X obj 483 435 pack \$1 1;
#N canvas 0 50 450 250 (subpatch) 0;
#X array \$0-ss-0 128 float 2;
#X coords 0 1 128 -1 40 40 1 0 0;
#X restore 268 166 graph;
#N canvas 0 50 450 250 (subpatch) 0;
#X array \$0-ss-1 128 float 2;
#X coords 0 1 128 -1 40 40 1 0 0;
#X restore 312 166 graph;
#N canvas 0 50 450 250 (subpatch) 0;
#X array \$0-ss-2 128 float 2;
#X coords 0 1 128 -1 40 40 1 0 0;
#X restore 356 166 graph;
#X obj 673 352 r ss-get-array;
#X obj 673 388 s ss-get-array-receive;
#X obj 673 417 r ss-get-array;
#X obj 673 453 s ss-get-array-receive;
#X obj 673 370 pack \$1 2;
#X obj 673 435 pack \$1 3;
#X connect 1 0 2 0;
#X connect 2 0 3 0;
#X connect 4 0 1 0;
#X connect 6 0 11 0;
#X connect 7 0 8 0;
#X connect 8 0 10 0;
#X connect 10 0 9 0;
#X connect 11 0 12 0;
#X connect 13 0 15 0;
#X connect 15 0 14 0;
#X connect 19 0 23 0;
#X connect 21 0 24 0;
#X connect 23 0 20 0;
#X connect 24 0 22 0;
#X coords 0 -1 1 1 350 60 1 100 150;
