#N canvas 408 91 939 584 10;
#X text 759 74 this inlet recall snap.;
#X floatatom 775 114 5 0 127 0 - - -;
#X obj 775 131 * 4;
#X obj 775 149 s \$0-load-state-par;
#X obj 775 96 inlet load snap;
#X obj 719 374 r ss-get-array;
#X obj 720 284 r ss-get-dollarzero;
#X obj 720 302 sel \$1;
#X obj 720 338 s ss-get-dollarzero-receive;
#X obj 720 320 i \$0;
#X obj 719 392 pack \$1 0;
#X obj 719 410 s ss-get-array-receive;
#X obj 719 439 r ss-get-array;
#X obj 719 475 s ss-get-array-receive;
#X obj 719 457 pack \$1 1;
#N canvas 0 50 450 250 (subpatch) 0;
#X array \$0-ss-0 65682 float 2;
#X coords 0 1 65682 -1 40 40 1 0 0;
#X restore 285 166 graph;
#N canvas 0 50 450 250 (subpatch) 0;
#X array \$0-ss-1 269338 float 2;
#X coords 0 1 269338 -1 40 40 1 0 0;
#X restore 403 166 graph;
#X obj 224 178 bng 15 250 50 0 empty empty load-> 17 7 0 10 -262144
-1 -1;
#X obj 224 278 openpanel;
#X obj 224 337 soundfiler;
#X msg 224 319 read -resize \$1 \$2-ss-0;
#X obj 224 299 pack s \$0;
#X obj 344 178 bng 15 250 50 0 empty empty load-> 17 7 0 10 -262144
-1 -1;
#X obj 344 229 openpanel;
#X obj 344 288 soundfiler;
#X obj 344 250 pack s \$0;
#X msg 344 270 read -resize \$1 \$2-ss-1;
#X connect 1 0 2 0;
#X connect 2 0 3 0;
#X connect 4 0 1 0;
#X connect 5 0 10 0;
#X connect 6 0 7 0;
#X connect 7 0 9 0;
#X connect 9 0 8 0;
#X connect 10 0 11 0;
#X connect 12 0 14 0;
#X connect 14 0 13 0;
#X connect 17 0 18 0;
#X connect 18 0 21 0;
#X connect 20 0 19 0;
#X connect 21 0 20 0;
#X connect 22 0 23 0;
#X connect 23 0 25 0;
#X connect 25 0 26 0;
#X connect 26 0 24 0;
#X coords 0 -1 1 1 350 60 1 100 150;
