#N canvas 333 215 693 302 10;
#X obj 116 153 nbx 5 14 0 100 0 0 \$0-sss-s-0 \$0-sss-r-0 par_0 0 -8 0 10 #fcfcfc #000000 #000000 0 256;
#X obj 182 153 nbx 5 14 0 100 0 0 \$0-sss-s-1 \$0-sss-r-1 par_1 0 -8 0 10 #fcfcfc #000000 #000000 0 256;
#X obj 254 153 nbx 5 14 0 100 0 0 \$0-sss-s-2 \$0-sss-r-2 par_2 0 -8 0 10 #fcfcfc #000000 #000000 0 256;
#X obj 327 154 nbx 5 14 0 100 0 0 \$0-sss-s-3 \$0-sss-r-3 par_3 0 -8 0 10 #fcfcfc #000000 #000000 0 256;
#X obj 185 112 tgl 15 0 \$0-sss-s-5 \$0-sss-r-5 par_4 17 7 0 10 #fcfcfc #000000 #000000 0 1;
#X obj 270 113 hsl 60 12 0 127 0 0 \$0-sss-s-4 \$0-sss-r-4 par_5 66 6 0 10 #fcfcfc #000000 #000000 0 1;
#N canvas 0 50 450 250 (subpatch) 0;
#X array \$0-sss-a1 10 float 2;
#X coords 0 1 10 -1 100 50 1 0 0;
#X restore 428 118 graph;
#X obj 385 120 vradio 8 1 0 4 \$0-sss-s-6 \$0-sss-r-6 empty 0 -8 0 10 #fcfcfc #000000 #000000 0;
#X obj 395 120 vradio 8 1 0 4 \$0-sss-s-7 \$0-sss-r-7 empty 0 -8 0 10 #fcfcfc #000000 #000000 0;
#X obj 405 120 vradio 8 1 0 4 \$0-sss-s-8 \$0-sss-r-8 empty 0 -8 0 10 #fcfcfc #000000 #000000 0;
#X obj 415 120 vradio 8 1 0 4 \$0-sss-s-9 \$0-sss-r-9 empty 0 -8 0 10 #fcfcfc #000000 #000000 0;
#X floatatom 537 123 5 0 0 1 snap - - 0;
#X obj 537 60 route float;
#X obj 537 37 r pdss-snap-\$1;
#X obj 468 66 r pdss-init;
#X obj 545 152 bng 15 250 50 0 empty empty init 17 7 0 10 #ffffff #00ff04 #000000;
#N canvas 20 20 1070 424 __sss__ 0;
#X obj 20 20 sss_par example2 \$0 \$1 \$2 0 nbx par_0 0 100 0.01;
#X obj 20 44 sss_par example2 \$0 \$1 \$2 1 nbx par_1 0 100 0.01;
#X obj 20 68 sss_par example2 \$0 \$1 \$2 2 nbx par_2 0 100 0.01;
#X obj 20 92 sss_par example2 \$0 \$1 \$2 3 nbx par_3 0 100 0.01;
#X obj 20 116 sss_par example2 \$0 \$1 \$2 4 hsl par_5 0 127 0.01;
#X obj 20 140 sss_par example2 \$0 \$1 \$2 5 tgl par_4 0 1 1;
#X obj 20 164 sss_par example2 \$0 \$1 \$2 6 vrd empty 0 4 1;
#X obj 20 188 sss_par example2 \$0 \$1 \$2 7 vrd empty 0 4 1;
#X obj 20 212 sss_par example2 \$0 \$1 \$2 8 vrd empty 0 4 1;
#X obj 20 236 sss_par example2 \$0 \$1 \$2 9 vrd empty 0 4 1;
#X obj 20 260 sss_array example2 \$0 \$1 \$2 0 \$0-sss-a1;
#X restore 20 20 pd __sss__;
#X obj 586 100 sss_focus \$1 \$2;
#X connect 12 0 11 0;
#X connect 13 0 12 0;
#X connect 14 0 15 0;
#X coords 0 -1 1 1 500 72 1 100 100;
