#N canvas 228 174 825 515 10;
#X obj 135 192 nbx 5 14 -1e+37 1e+37 0 0 \$0-s-0 \$0-r-0 par-0 0 -8
0 10 -262144 -1 -1 100 256;
#X obj 199 192 nbx 5 14 -1e+37 1e+37 0 0 \$0-s-1 \$0-r-1 par-1 0 -8
0 10 -262144 -1 -1 200 256;
#X obj 262 192 nbx 5 14 -1e+37 1e+37 0 0 \$0-s-2 \$0-r-2 par-2 0 -8
0 10 -262144 -1 -1 300 256;
#X obj 325 192 nbx 5 14 -1e+37 1e+37 0 0 \$0-s-3 \$0-r-3 par-3 0 -8
0 10 -262144 -1 -1 400 256;
#X obj 147 459 table \$0-ss-0 512;
#N canvas 0 50 450 250 (subpatch) 0;
#X array \$0-ss-1 3 float 2;
#X coords 0 1 3 -1 40 40 1 0 0;
#X restore 404 166 graph;
#X obj 61 243 n_ss_par \$0 0 0;
#X obj 160 243 n_ss_par \$0 0 1;
#X obj 259 243 n_ss_par \$0 0 2;
#X obj 358 243 n_ss_par \$0 0 3;
#X text 267 459 <---;
#X text 453 174 <---;
#X obj 647 58 inlet snap;
#X obj 647 77 n_ss_snap \$0 \$1 4;
#X obj 490 173 n_ss_array \$1 1;
#X obj 309 459 n_ss_array \$1 0;
#X text 53 271 for saving parameters. n_ss_par \$0 number_array number_parameter
, f 65;
#X text 238 423 for array. n_ss_array \$1 number_array, f 38;
#X text 378 119 for array. n_ss_array \$1 number_array, f 38;
#X text 448 27 for recall snaps. n_ss_snap \$0 \$1 number_parameters_in_snap
;
#X connect 12 0 13 0;
#X coords 0 -1 1 1 350 60 1 100 150;
