#N canvas 290 45 954 604 10;
#X obj 157 380 inlet;
#X obj 157 456 s;
#X obj 200 245 bng 12 250 50 0 empty empty empty 4 8 0 10 #fcfcfc #000000
#000000;
#X msg 680 63 1;
#X msg 596 94 0;
#X msg 200 118 color 0 22 22;
#X obj 519 91 spigot;
#X obj 200 96 sel 0;
#X obj 157 412 *;
#X obj 157 433 +;
#X obj 519 112 t a b;
#X msg 86 242 color 13 22 22;
#X obj 123 99 loadbang;
#X obj 200 72 r pdss-par-info-get;
#X obj 680 97 s pdss-par-info-get;
#X obj 596 123 s pdss-par-info-get;
#X obj 519 41 r pdss-par-info-return;
#X obj 519 149 unpack s f f f s s f f f;
#X obj 554 211 nbx 3 14 -1e+37 1e+37 0 0 \$0-pdss-s-0 \$0-pdss-r-0
empty 0 -8 0 10 #bbbbbb #000000 #000000 0 256;
#X obj 590 211 nbx 3 14 0 1e+37 0 0 \$0-pdss-s-1 \$0-pdss-r-1 empty
0 -8 0 10 #bbbbbb #000000 #000000 0 256;
#X obj 554 251 pack;
#X obj 590 228 t b f;
#X obj 554 274 t b a b;
#X msg 540 313 1;
#X msg 494 308 0;
#X obj 475 389 spigot;
#X obj 652 330 s pdss-ins-info-get;
#X obj 652 352 r pdss-ins-info-return;
#X obj 652 308 unpack f f;
#X obj 652 374 unpack s f f f f;
#X obj 675 397 pack f f;
#X obj 675 420 t b a;
#X obj 675 466 s;
#X msg 707 442 symbol \$1-pdss-r-\$2;
#X obj 475 347 s pdss-par-info-get;
#X obj 475 369 r pdss-par-info-return;
#X obj 212 245 nbx 4 12 0 100 0 0 \$0-pdss-s-2 \$0-pdss-r-2 empty 0
-8 0 10 #bbbbbb #000000 #000000 0 256;
#X obj 256 245 nbx 4 12 0 100 0 0 \$0-pdss-s-3 \$0-pdss-r-3 empty 0
-8 0 10 #bbbbbb #000000 #000000 0 256;
#X obj 384 543 s \$0-auto-max;
#X obj 280 543 s \$0-auto-min;
#X obj 215 140 r \$0-auto-min;
#X obj 267 162 r \$0-auto-max;
#X obj 200 424 s \$0-auto-rec;
#X obj 680 41 r \$0-auto-rec;
#N canvas 437 439 450 300 win 0;
#X obj 101 101 cnv 13 98 13 empty \$0-auto-label-ins example3(4) 2
7 0 8 #bbbbbb #000000 0;
#X coords 0 -1 1 1 100 15 2 100 100;
#X restore 200 215 pd win;
#X obj 267 303 t b f;
#X obj 215 324 -;
#X floatatom 215 371 5 0 0 1 range - - 0;
#X msg 491 522 symbol \$2-pdss-r-\$4;
#X obj 215 347 * -1;
#X msg 280 522 range \$7 \$8;
#X msg 384 522 range \$7 \$8;
#N canvas 437 439 450 300 win 0;
#X obj 101 101 cnv 13 98 13 empty \$0-auto-label-par par_1 2 7 0 8
#bbbbbb #000000 0;
#X coords 0 -1 1 1 100 15 2 100 100;
#X restore 200 230 pd win;
#X obj 655 535 s \$0-auto-label-ins;
#X obj 796 535 s \$0-auto-label-par;
#X obj 475 460 t a a a a a;
#X msg 655 514 label \$1(\$3);
#X msg 796 514 label \$6;
#N canvas 20 20 1070 424 __pdss__ 0;
#X text 20 20 [Created by pdss.py];
#X obj 20 44 a_pdss_driver i_auto \$0 \$1 4 \$2;
#X obj 20 68 table \$0-pdss-array-0;
#X obj 370 20 a_pdss_par i_auto \$0 \$1 0 nbx empty -1e+37 1e+37;
#X obj 370 44 a_pdss_par i_auto \$0 \$1 1 nbx empty 0 1e+37;
#X obj 370 68 a_pdss_par i_auto \$0 \$1 2 nbx empty 0 127;
#X obj 370 92 a_pdss_par i_auto \$0 \$1 3 nbx empty 0 127;
#X obj 720 20 a_pdss_array i_auto \$0 \$1 0 \$0-pdss-array-0;
#X restore 20 20 pd __pdss__;
#X connect 0 0 8 0;
#X connect 2 0 11 0;
#X connect 2 0 42 0;
#X connect 3 0 14 0;
#X connect 3 0 6 1;
#X connect 4 0 6 1;
#X connect 4 0 15 0;
#X connect 5 0 2 0;
#X connect 6 0 10 0;
#X connect 7 0 5 0;
#X connect 8 0 9 0;
#X connect 9 0 1 0;
#X connect 10 0 17 0;
#X connect 10 1 4 0;
#X connect 11 0 2 0;
#X connect 12 0 5 0;
#X connect 13 0 7 0;
#X connect 16 0 6 0;
#X connect 17 2 18 0;
#X connect 17 3 19 0;
#X connect 18 0 20 0;
#X connect 19 0 21 0;
#X connect 20 0 22 0;
#X connect 21 0 20 0;
#X connect 21 1 20 1;
#X connect 22 0 24 0;
#X connect 22 1 28 0;
#X connect 22 2 23 0;
#X connect 23 0 34 0;
#X connect 23 0 25 1;
#X connect 24 0 34 0;
#X connect 24 0 25 1;
#X connect 25 0 55 0;
#X connect 27 0 29 0;
#X connect 28 0 26 0;
#X connect 28 1 30 1;
#X connect 29 1 30 0;
#X connect 30 0 31 0;
#X connect 31 0 32 0;
#X connect 31 1 33 0;
#X connect 33 0 32 1;
#X connect 35 0 25 0;
#X connect 36 0 46 0;
#X connect 36 0 9 1;
#X connect 37 0 45 0;
#X connect 40 0 36 0;
#X connect 41 0 37 0;
#X connect 43 0 3 0;
#X connect 45 0 46 0;
#X connect 45 1 46 1;
#X connect 46 0 49 0;
#X connect 47 0 8 1;
#X connect 48 0 1 1;
#X connect 49 0 47 0;
#X connect 50 0 39 0;
#X connect 51 0 38 0;
#X connect 55 0 50 0;
#X connect 55 1 51 0;
#X connect 55 2 48 0;
#X connect 55 3 56 0;
#X connect 55 4 57 0;
#X connect 56 0 53 0;
#X connect 57 0 54 0;
#X coords 0 -1 1 1 100 57 1 200 200;
