#N canvas 245 60 1080 654 10;
#N canvas 200 45 737 509 (subpatch) 0;
#X obj 550 440 n_canvas 50 16 empty empty +0.08 8 8 11 14737632 12369084
2105376 1;
#N canvas 737 334 450 300 unpack/delta 0;
#X obj 129 37 inlet;
#X obj 249 140 outlet;
#X obj 180 81 unpack f f f;
#X obj 249 119 * -1;
#X obj 154 100 unpack f f f;
#X obj 129 62 route 0 1;
#N canvas 0 50 450 300 delta 0;
#X obj 40 45 inlet;
#X obj 40 180 outlet;
#X obj 40 135 -;
#X obj 67 118 f;
#X obj 40 81 t f b;
#X obj 82 45 inlet set;
#X connect 0 0 4 0;
#X connect 2 0 1 0;
#X connect 3 0 2 1;
#X connect 4 0 2 0;
#X connect 4 0 3 1;
#X connect 4 1 3 0;
#X connect 5 0 3 1;
#X restore 249 99 pd delta;
#X connect 0 0 5 0;
#X connect 2 2 6 0;
#X connect 3 0 1 0;
#X connect 4 1 6 1;
#X connect 5 1 4 0;
#X connect 5 2 2 0;
#X connect 6 0 3 0;
#X restore 293 456 pd unpack/delta;
#N canvas 116 45 623 417 calc 0;
#X obj 63 134 +;
#X obj 165 134 clip 0 256;
#X floatatom 165 153 5 0 0 0 - - -;
#X obj 165 171 / 256, f 15;
#X obj 398 239 * 2;
#X obj 449 255 + -1, f 7;
#X obj 449 273 change;
#X obj 317 187 *;
#X obj 317 205 i;
#X obj 317 223 *;
#X obj 359 207 /;
#X msg 359 189 1 \$1;
#X obj 332 169 t f f;
#X obj 222 109 route resolution;
#X obj 332 125 route steps;
#X obj 413 141 route range;
#X obj 488 157 route min, f 11;
#X obj 222 88 inlet;
#X obj 63 88 inlet delta;
#X obj 449 330 outlet;
#X obj 165 66 inlet set;
#X connect 0 0 1 0;
#X connect 1 0 0 1;
#X connect 1 0 2 0;
#X connect 2 0 3 0;
#X connect 3 0 7 0;
#X connect 4 0 5 0;
#X connect 5 0 6 0;
#X connect 6 0 19 0;
#X connect 7 0 8 0;
#X connect 8 0 9 0;
#X connect 9 0 4 0;
#X connect 10 0 9 1;
#X connect 11 0 10 0;
#X connect 12 0 7 1;
#X connect 12 1 11 0;
#X connect 13 0 1 2;
#X connect 13 0 3 1;
#X connect 13 1 14 0;
#X connect 14 0 12 0;
#X connect 14 1 15 0;
#X connect 15 0 4 1;
#X connect 15 1 16 0;
#X connect 16 0 5 1;
#X connect 17 0 13 0;
#X connect 18 0 0 0;
#X connect 20 0 1 0;
#X restore 293 266 pd calc;
#X f 10;
#X obj 321 208 /;
#X obj 321 183 -;
#X obj 321 235 *;
#X obj 360 167 route min;
#X obj 411 192 route range;
#X obj 474 219 route resolution;
#X obj 567 239 route steps;
#X obj 388 112 r \$0-set-arrays;
#X obj 321 128 tabread;
#X obj 113 437 r \$0-set-arrays;
#X obj 43 453 tabwrite;
#X obj 43 435 f;
#X obj 321 92 r \$0-dx-load-preset;
#X obj 103 73 loadbang;
#X msg 103 94 0;
#X text 133 93 <- par;
#X text 464 147 <- group;
#X obj 321 110 +;
#X obj 43 364 r \$0-dx-save-preset;
#X obj 223 455 s \$0-par;
#X obj 223 419 pack f f;
#X msg 223 437 set \$2 \$1;
#X obj 88 435 +;
#X obj 43 382 t b f, f 8;
#X obj 350 146 r \$0-par-group-0;
#N canvas 0 50 607 319 label 0;
#X obj 158 84 inlet;
#X obj 158 198 outlet;
#X obj 317 164 makefilename %02.2f;
#X obj 158 105 moses 0, f 27;
#X obj 158 163 makefilename %02.2f;
#X msg 317 182 label +\$1;
#X msg 158 181 label \$1;
#X connect 0 0 3 0;
#X connect 2 0 5 0;
#X connect 3 0 4 0;
#X connect 3 1 2 0;
#X connect 4 0 6 0;
#X connect 5 0 1 0;
#X connect 6 0 1 0;
#X restore 550 282 pd label;
#X connect 0 0 1 0;
#X connect 1 0 2 0;
#X connect 2 0 14 1;
#X connect 2 0 23 0;
#X connect 2 0 28 0;
#X connect 3 0 5 0;
#X connect 4 0 3 0;
#X connect 5 0 2 1;
#X connect 6 0 4 1;
#X connect 6 1 7 0;
#X connect 7 0 3 1;
#X connect 7 1 8 0;
#X connect 8 0 5 1;
#X connect 8 1 9 0;
#X connect 9 1 0 0;
#X connect 10 0 11 0;
#X connect 11 0 4 0;
#X connect 12 0 13 0;
#X connect 14 0 13 0;
#X connect 15 0 20 0;
#X connect 16 0 17 0;
#X connect 17 0 20 1;
#X connect 17 0 23 1;
#X connect 17 0 25 1;
#X connect 20 0 11 0;
#X connect 21 0 26 0;
#X connect 23 0 24 0;
#X connect 24 0 22 0;
#X connect 25 0 13 1;
#X connect 26 0 14 0;
#X connect 26 1 25 0;
#X connect 27 0 2 2;
#X connect 27 0 6 0;
#X connect 28 0 0 0;
#X coords 0 -1 1 1 50 16 2 550 440;
#X restore 754 513 pd;
#N canvas 210 137 1156 576 view 0;
#X msg 33 81 size \$1 \$2;
#X obj 33 63 pack;
#X obj 88 47 t b f;
#X obj 33 31 nbx 3 14 1 1e+37 0 1 empty empty w 0 -8 0 10 -262144 -1
-1 50 256;
#X obj 88 31 nbx 3 14 1 1e+37 0 1 empty empty h 0 -8 0 10 -262144 -1
-1 16 256;
#X obj 153 63 pack;
#X obj 208 47 t b f;
#X obj 153 31 nbx 3 14 1 1e+37 0 1 empty empty ldx 0 -8 0 10 -262144
-1 -1 8 256;
#X obj 208 31 nbx 3 14 1 1e+37 0 1 empty empty ldy 0 -8 0 10 -262144
-1 -1 8 256;
#X msg 153 81 label_pos \$1 \$2;
#X obj 328 47 t b f;
#X obj 273 31 nbx 3 14 0 1e+37 0 1 empty empty bcol 0 -8 0 10 -262144
-1 -1 10 256;
#X obj 328 31 nbx 3 14 0 1e+37 0 1 empty empty fcol 0 -8 0 10 -262144
-1 -1 20 256;
#X obj 273 63 pack f f f;
#X obj 388 47 t b f;
#X obj 388 31 nbx 3 14 0 1e+37 0 1 empty empty lcol 0 -8 0 10 -262144
-1 -1 12 256;
#X msg 273 81 color \$1 \$2 \$3;
#X msg 448 58 resolution 200 \, steps 100 \, range 2 \, min -1, f
15;
#X obj 448 40 loadbang;
#X obj 33 99 s \$0-par-group-0;
#X obj 153 99 s \$0-par-group-0;
#X obj 273 99 s \$0-par-group-0;
#X obj 448 98 s \$0-par-group-0;
#X connect 0 0 19 0;
#X connect 1 0 0 0;
#X connect 2 0 1 0;
#X connect 2 1 1 1;
#X connect 3 0 1 0;
#X connect 4 0 2 0;
#X connect 5 0 9 0;
#X connect 6 0 5 0;
#X connect 6 1 5 1;
#X connect 7 0 5 0;
#X connect 8 0 6 0;
#X connect 9 0 20 0;
#X connect 10 0 13 0;
#X connect 10 1 13 1;
#X connect 11 0 13 0;
#X connect 12 0 10 0;
#X connect 13 0 16 0;
#X connect 14 0 13 0;
#X connect 14 1 13 2;
#X connect 15 0 14 0;
#X connect 16 0 21 0;
#X connect 17 0 22 0;
#X connect 18 0 17 0;
#X restore 813 51 pd view;
#X obj 637 533 print;
#N canvas 0 50 450 250 (subpatch) 0;
#X array \$0-dx-mem 13 float 3;
#A 0 115 110 97 112 0 0 0 0 0 0 0 0 0;
#X coords 0 1 13 -1 200 140 1;
#X restore 788 124 graph;
#X obj 904 506 loadbang;
#X obj 904 563 s \$0-set-arrays;
#X obj 904 527 i \$0;
#X obj 602 333 bng 15 250 50 0 empty empty save 17 7 0 10 -262144 -1
-1;
#X obj 504 69 bng 15 250 50 0 empty empty load 17 7 0 10 -262144 -1
-1;
#X obj 532 212 n_array;
#X msg 532 194 copy \$3-dx-mem \$3-dx-mem-preset \$1 \$2;
#X text 616 174 <- offset \, size preset \, id;
#X obj 504 237 s \$0-dx-load-preset;
#X floatatom 521 94 5 0 9 1 number_preset - -;
#X obj 505 118 i;
#X obj 505 155 t f f;
#X obj 624 379 s \$0-dx-save-preset;
#X obj 602 353 t b b;
#X obj 637 512 r \$0-par;
#X obj 505 136 * 256;
#X obj 532 175 pack f 256 \$0;
#X obj 481 468 n_array;
#X text 565 430 <- offset \, size preset \, id;
#X obj 481 431 pack f 256 \$0;
#X floatatom 497 366 5 0 9 1 number_preset - -;
#X obj 481 390 i;
#X obj 481 408 * 256;
#X msg 481 450 replace \$3-dx-mem-preset \$3-dx-mem 0 \$2 \$1;
#X msg 904 545 set \$1-dx-mem;
#X obj 46 43 bng 15 250 50 0 empty empty empty 17 7 0 10 -262144 -1
-1;
#X obj 46 63 i \$0;
#X msg 46 84 init \$1-dx-mem;
#X obj 46 105 s \$0-to;
#X obj 178 47 r \$0-to;
#N canvas 200 45 737 509 (subpatch) 0;
#X obj 550 440 n_canvas 50 16 empty empty -1 8 8 11 14737632 12369084
2105376 1;
#N canvas 737 334 450 300 unpack/delta 0;
#X obj 129 37 inlet;
#X obj 249 140 outlet;
#X obj 180 81 unpack f f f;
#X obj 249 119 * -1;
#X obj 154 100 unpack f f f;
#X obj 129 62 route 0 1;
#N canvas 0 50 450 300 delta 0;
#X obj 40 45 inlet;
#X obj 40 180 outlet;
#X obj 40 135 -;
#X obj 67 118 f;
#X obj 40 81 t f b;
#X obj 82 45 inlet set;
#X connect 0 0 4 0;
#X connect 2 0 1 0;
#X connect 3 0 2 1;
#X connect 4 0 2 0;
#X connect 4 0 3 1;
#X connect 4 1 3 0;
#X connect 5 0 3 1;
#X restore 249 99 pd delta;
#X connect 0 0 5 0;
#X connect 2 2 6 0;
#X connect 3 0 1 0;
#X connect 4 1 6 1;
#X connect 5 1 4 0;
#X connect 5 2 2 0;
#X connect 6 0 3 0;
#X restore 293 456 pd unpack/delta;
#N canvas 116 45 623 417 calc 0;
#X obj 63 134 +;
#X obj 165 134 clip 0 256;
#X floatatom 165 153 5 0 0 0 - - -;
#X obj 165 171 / 256, f 15;
#X obj 398 239 * 2;
#X obj 449 255 + -1, f 7;
#X obj 449 273 change;
#X obj 317 187 *;
#X obj 317 205 i;
#X obj 317 223 *;
#X obj 359 207 /;
#X msg 359 189 1 \$1;
#X obj 332 169 t f f;
#X obj 222 109 route resolution;
#X obj 332 125 route steps;
#X obj 413 141 route range;
#X obj 488 157 route min, f 11;
#X obj 222 88 inlet;
#X obj 63 88 inlet delta;
#X obj 449 330 outlet;
#X obj 165 66 inlet set;
#X connect 0 0 1 0;
#X connect 1 0 0 1;
#X connect 1 0 2 0;
#X connect 2 0 3 0;
#X connect 3 0 7 0;
#X connect 4 0 5 0;
#X connect 5 0 6 0;
#X connect 6 0 19 0;
#X connect 7 0 8 0;
#X connect 8 0 9 0;
#X connect 9 0 4 0;
#X connect 10 0 9 1;
#X connect 11 0 10 0;
#X connect 12 0 7 1;
#X connect 12 1 11 0;
#X connect 13 0 1 2;
#X connect 13 0 3 1;
#X connect 13 1 14 0;
#X connect 14 0 12 0;
#X connect 14 1 15 0;
#X connect 15 0 4 1;
#X connect 15 1 16 0;
#X connect 16 0 5 1;
#X connect 17 0 13 0;
#X connect 18 0 0 0;
#X connect 20 0 1 0;
#X restore 293 266 pd calc;
#X f 10;
#X obj 321 208 /;
#X obj 321 183 -;
#X obj 321 235 *;
#X obj 360 167 route min;
#X obj 411 192 route range;
#X obj 474 219 route resolution;
#X obj 567 239 route steps;
#X obj 388 112 r \$0-set-arrays;
#X obj 321 128 tabread;
#X obj 113 437 r \$0-set-arrays;
#X obj 43 453 tabwrite;
#X obj 43 435 f;
#X obj 321 92 r \$0-dx-load-preset;
#X obj 103 73 loadbang;
#X text 133 93 <- par;
#X text 464 147 <- group;
#X obj 321 110 +;
#X obj 43 364 r \$0-dx-save-preset;
#X obj 223 455 s \$0-par;
#X obj 223 419 pack f f;
#X msg 223 437 set \$2 \$1;
#X obj 88 435 +;
#X obj 43 382 t b f, f 8;
#X obj 350 146 r \$0-par-group-0;
#N canvas 0 50 607 319 label 0;
#X obj 158 84 inlet;
#X obj 158 198 outlet;
#X obj 317 164 makefilename %02.2f;
#X obj 158 105 moses 0, f 27;
#X obj 158 163 makefilename %02.2f;
#X msg 317 182 label +\$1;
#X msg 158 181 label \$1;
#X connect 0 0 3 0;
#X connect 2 0 5 0;
#X connect 3 0 4 0;
#X connect 3 1 2 0;
#X connect 4 0 6 0;
#X connect 5 0 1 0;
#X connect 6 0 1 0;
#X restore 550 282 pd label;
#X msg 103 94 1;
#X connect 0 0 1 0;
#X connect 1 0 2 0;
#X connect 2 0 14 1;
#X connect 2 0 22 0;
#X connect 2 0 27 0;
#X connect 3 0 5 0;
#X connect 4 0 3 0;
#X connect 5 0 2 1;
#X connect 6 0 4 1;
#X connect 6 1 7 0;
#X connect 7 0 3 1;
#X connect 7 1 8 0;
#X connect 8 0 5 1;
#X connect 8 1 9 0;
#X connect 9 1 0 0;
#X connect 10 0 11 0;
#X connect 11 0 4 0;
#X connect 12 0 13 0;
#X connect 14 0 13 0;
#X connect 15 0 19 0;
#X connect 16 0 28 0;
#X connect 19 0 11 0;
#X connect 20 0 25 0;
#X connect 22 0 23 0;
#X connect 23 0 21 0;
#X connect 24 0 13 1;
#X connect 25 0 14 0;
#X connect 25 1 24 0;
#X connect 26 0 2 2;
#X connect 26 0 6 0;
#X connect 27 0 0 0;
#X connect 28 0 19 1;
#X connect 28 0 22 1;
#X connect 28 0 24 1;
#X coords 0 -1 1 1 50 16 2 550 440;
#X restore 796 541 pd;
#X obj 178 179 n_canvas 168 256 empty empty empty 10 10 11 16579836
0 0 32;
#X obj 178 494 route 0;
#X obj 217 512 list prepend cnv;
#X obj 217 530 list trim;
#X obj 217 548 s \$0-to;
#X obj 162 197 vsl 16 219 1 0 0 0 \$0-s-sl \$0-r-sl empty 0 -9 0 10
-262144 -1 -1 21800 1;
#X msg 162 572 scroll_f \$1;
#X obj 162 590 s \$0-to;
#X obj 162 179 bng 16 250 50 0 empty empty empty 17 7 0 10 -262144
-1 -1;
#X msg 67 195 scroll_up 1;
#X obj 67 213 s \$0-to;
#X obj 162 419 bng 16 250 50 0 empty empty empty 17 7 0 10 -262144
-1 -1;
#X obj 62 453 s \$0-to;
#X msg 62 435 scroll_down 1;
#X obj 162 437 bng 16 250 50 0 empty empty add 18 7 0 10 -204786 -1
-1;
#X obj 375 597 s \$0-to;
#X obj 228 437 bng 16 250 50 0 empty empty erase 18 7 0 10 -261234
-1 -1;
#X obj 455 597 s \$0-to;
#X msg 455 576 erase;
#X obj 292 437 bng 16 250 50 0 empty empty store 18 7 0 10 -204800
-1 -1;
#X obj 525 597 s \$0-to;
#X msg 525 576 store;
#X msg 375 576 add;
#X obj 441 298 r \$0-preset_ctrl;
#X obj 441 319 print;
#X obj 178 83 route cnv sl;
#X msg 212 130 set \$1;
#X obj 368 145 s \$0-preset_ctrl;
#X obj 212 151 s \$0-r-sl;
#X obj 124 140 print;
#X obj 178 65 n_snapshot 11 168 16 4 8 16 16 22 0 22 14 4 13;
#X obj 0 448 keyname;
#X obj 47 554 route Up Down;
#X obj 0 472 pack f s;
#X obj 0 514 route 1;
#X connect 4 0 6 0;
#X connect 6 0 28 0;
#X connect 7 0 17 0;
#X connect 8 0 14 0;
#X connect 10 0 9 0;
#X connect 13 0 14 1;
#X connect 14 0 19 0;
#X connect 15 0 12 0;
#X connect 15 1 20 0;
#X connect 17 0 25 0;
#X connect 17 1 16 0;
#X connect 18 0 2 0;
#X connect 19 0 15 0;
#X connect 20 0 10 0;
#X connect 23 0 27 0;
#X connect 24 0 25 1;
#X connect 25 0 26 0;
#X connect 26 0 23 0;
#X connect 27 0 21 0;
#X connect 28 0 5 0;
#X connect 29 0 30 0;
#X connect 30 0 31 0;
#X connect 31 0 32 0;
#X connect 33 0 65 0;
#X connect 35 0 36 0;
#X connect 36 1 37 0;
#X connect 37 0 38 0;
#X connect 38 0 39 0;
#X connect 40 0 41 0;
#X connect 41 0 42 0;
#X connect 43 0 44 0;
#X connect 44 0 45 0;
#X connect 46 0 48 0;
#X connect 48 0 47 0;
#X connect 49 0 57 0;
#X connect 51 0 53 0;
#X connect 53 0 52 0;
#X connect 54 0 56 0;
#X connect 56 0 55 0;
#X connect 57 0 50 0;
#X connect 58 0 59 0;
#X connect 60 0 35 0;
#X connect 60 1 61 0;
#X connect 61 0 63 0;
#X connect 65 0 60 0;
#X connect 66 0 68 0;
#X connect 66 1 68 1;
#X connect 67 0 44 0;
#X connect 67 1 48 0;
#X connect 68 0 69 0;
#X connect 69 0 67 0;
