#N canvas 339 131 808 464 10;
#X obj 134 138 inlet snap;
#X text 137 28 1) name ins;
#X text 137 89 4) number parameters in snap;
#X obj 134 416 * \$4;
#X text 137 48 2) \$0;
#X text 137 68 3) \$1;
#X obj 134 156 route load save;
#X obj 134 434 s \$2_load_state_par;
#X obj 177 271 * \$4;
#X obj 177 289 s \$2_save_state_par;
#X text 137 109 5) number snapshots;
#X obj 222 181 loadbang;
#X obj 222 199 i \$5;
#X obj 222 235 - 1;
#X obj 177 253 clip 0 1;
#X obj 134 398 clip 0 1;
#X obj 179 326 loadbang;
#X obj 179 344 i \$5;
#X obj 179 380 - 1;
#X obj 360 134 loadbang;
#X obj 387 188 t b b, f 7;
#X obj 426 206 i \$5;
#X obj 387 206 i \$4;
#X obj 387 253 *, f 7;
#X obj 387 271 list \$2;
#X msg 387 289 \; \$2_ss_a_0 resize \$1;
#X obj 222 217 max 1;
#X obj 179 362 max 1;
#X obj 426 225 max 1;
#X obj 360 152 i \$3;
#X obj 360 170 sel 0;
#X obj 360 347 print -n;
#X msg 360 329 n_ss_snap error. id ins = 0;
#X connect 0 0 6 0;
#X connect 3 0 7 0;
#X connect 6 0 15 0;
#X connect 6 1 14 0;
#X connect 8 0 9 0;
#X connect 11 0 12 0;
#X connect 12 0 26 0;
#X connect 13 0 14 2;
#X connect 14 0 8 0;
#X connect 15 0 3 0;
#X connect 16 0 17 0;
#X connect 17 0 27 0;
#X connect 18 0 15 2;
#X connect 19 0 29 0;
#X connect 20 0 22 0;
#X connect 20 1 21 0;
#X connect 21 0 28 0;
#X connect 22 0 23 0;
#X connect 23 0 24 0;
#X connect 24 0 25 0;
#X connect 26 0 13 0;
#X connect 27 0 18 0;
#X connect 28 0 23 1;
#X connect 29 0 30 0;
#X connect 30 1 20 0;
#X connect 32 0 31 0;
