#N canvas 502 65 728 618 10;
#X obj 228 135 savepanel;
#X obj 228 171 t b a;
#X msg 157 260 empty;
#X obj 167 344 loadbang;
#X obj 85 133 openpanel;
#N canvas 0 50 602 535 split 0;
#X obj 212 15 inlet;
#X obj 295 82 list fromsymbol;
#X obj 269 133 until;
#X obj 282 216 list store;
#X obj 307 159 + 1;
#X msg 321 133 0, f 2;
#X msg 268 198 get \$1 1;
#X obj 282 259 i;
#X obj 269 158 i;
#X obj 269 179 t f f;
#X obj 176 318 list split;
#X obj 236 299 i;
#X obj 204 343 list tosymbol;
#X obj 176 387 list tosymbol;
#X obj 137 103 list;
#X obj 212 36 t b b s;
#X obj 204 361 outlet;
#X obj 176 406 outlet;
#X obj 282 279 + 1;
#X obj 295 100 t b b l l;
#X obj 353 294 list length;
#X obj 282 237 sel 47;
#X connect 0 0 15 0;
#X connect 1 0 14 1;
#X connect 1 0 19 0;
#X connect 2 0 8 0;
#X connect 3 0 21 0;
#X connect 3 1 2 1;
#X connect 4 0 8 1;
#X connect 5 0 8 1;
#X connect 6 0 3 0;
#X connect 7 0 18 0;
#X connect 8 0 4 0;
#X connect 8 0 9 0;
#X connect 9 0 6 0;
#X connect 9 1 7 1;
#X connect 10 0 13 0;
#X connect 10 1 12 0;
#X connect 11 0 10 1;
#X connect 12 0 16 0;
#X connect 13 0 17 0;
#X connect 14 0 10 0;
#X connect 15 0 14 0;
#X connect 15 1 11 0;
#X connect 15 2 1 0;
#X connect 18 0 11 1;
#X connect 19 0 2 0;
#X connect 19 1 5 0;
#X connect 19 2 3 1;
#X connect 19 3 20 0;
#X connect 20 0 11 1;
#X connect 21 0 7 0;
#X restore 85 303 pd split '/';
#X obj 16 133 symbol;
#N canvas 401 45 544 379 save 0;
#X obj 183 63 inlet;
#X obj 83 343 outlet;
#X obj 83 280 pack s s s, f 24;
#X msg 83 301 symbol \$1\$2\$3;
#N canvas 0 50 602 535 split 0;
#X obj 212 15 inlet;
#X obj 295 82 list fromsymbol;
#X obj 269 133 until;
#X obj 282 216 list store;
#X obj 307 159 + 1;
#X msg 321 133 0, f 2;
#X msg 268 198 get \$1 1;
#X obj 282 259 i;
#X obj 269 158 i;
#X obj 269 179 t f f;
#X obj 176 318 list split;
#X obj 236 299 i;
#X obj 204 343 list tosymbol;
#X obj 176 387 list tosymbol;
#X obj 137 103 list;
#X obj 212 36 t b b s;
#X obj 204 361 outlet;
#X obj 176 406 outlet;
#X obj 282 279 + 1;
#X obj 295 100 t b b l l;
#X obj 353 294 list length;
#X obj 282 237 sel 47;
#X connect 0 0 15 0;
#X connect 1 0 14 1;
#X connect 1 0 19 0;
#X connect 2 0 8 0;
#X connect 3 0 21 0;
#X connect 3 1 2 1;
#X connect 4 0 8 1;
#X connect 5 0 8 1;
#X connect 6 0 3 0;
#X connect 7 0 18 0;
#X connect 8 0 4 0;
#X connect 8 0 9 0;
#X connect 9 0 6 0;
#X connect 9 1 7 1;
#X connect 10 0 13 0;
#X connect 10 1 12 0;
#X connect 11 0 10 1;
#X connect 12 0 16 0;
#X connect 13 0 17 0;
#X connect 14 0 10 0;
#X connect 15 0 14 0;
#X connect 15 1 11 0;
#X connect 15 2 1 0;
#X connect 18 0 11 1;
#X connect 19 0 2 0;
#X connect 19 1 5 0;
#X connect 19 2 3 1;
#X connect 19 3 20 0;
#X connect 20 0 11 1;
#X connect 21 0 7 0;
#X restore 83 111 pd split '/';
#N canvas 0 50 602 535 split 0;
#X obj 212 15 inlet;
#X obj 295 82 list fromsymbol;
#X obj 269 133 until;
#X obj 282 216 list store;
#X obj 307 159 + 1;
#X msg 321 133 0, f 2;
#X msg 268 198 get \$1 1;
#X obj 282 259 i;
#X obj 269 158 i;
#X obj 269 179 t f f;
#X obj 176 318 list split;
#X obj 236 299 i;
#X obj 204 343 list tosymbol;
#X obj 176 387 list tosymbol;
#X obj 137 103 list;
#X obj 212 36 t b b s;
#X obj 204 361 outlet;
#X obj 176 406 outlet;
#X obj 282 279 + 1;
#X obj 295 100 t b b l l;
#X obj 353 294 list length;
#X obj 282 237 sel 46;
#X connect 0 0 15 0;
#X connect 1 0 14 1;
#X connect 1 0 19 0;
#X connect 2 0 8 0;
#X connect 3 0 21 0;
#X connect 3 1 2 1;
#X connect 4 0 8 1;
#X connect 5 0 8 1;
#X connect 6 0 3 0;
#X connect 7 0 18 0;
#X connect 8 0 4 0;
#X connect 8 0 9 0;
#X connect 9 0 6 0;
#X connect 9 1 7 1;
#X connect 10 0 13 0;
#X connect 10 1 12 0;
#X connect 11 0 10 1;
#X connect 12 0 16 0;
#X connect 13 0 17 0;
#X connect 14 0 10 0;
#X connect 15 0 14 0;
#X connect 15 1 11 0;
#X connect 15 2 1 0;
#X connect 18 0 11 1;
#X connect 19 0 2 0;
#X connect 19 1 5 0;
#X connect 19 2 3 1;
#X connect 19 3 20 0;
#X connect 20 0 11 1;
#X connect 21 0 7 0;
#X restore 153 146 pd split '.';
#X obj 183 86 t a b;
#X obj 270 155 sel txt;
#X msg 224 185 symbol txt;
#X msg 314 185 symbol \$1.txt;
#X msg 437 192 symbol txt;
#X connect 0 0 6 0;
#X connect 2 0 3 0;
#X connect 3 0 1 0;
#X connect 4 0 2 0;
#X connect 4 1 5 0;
#X connect 5 0 2 1;
#X connect 5 1 7 0;
#X connect 6 0 4 0;
#X connect 6 1 10 0;
#X connect 7 0 8 0;
#X connect 7 1 9 0;
#X connect 8 0 2 2;
#X connect 9 0 2 2;
#X connect 10 0 2 2;
#X restore 228 153 pd save as *.txt;
#X obj 266 209 loadbang;
#N canvas 609 45 757 702 get 0;
#X obj 402 397 t f b;
#X obj 259 425 t f b;
#X obj 186 509 n_array;
#X msg 286 445 2;
#X obj 259 407 n_array;
#X obj 112 564 n_array;
#X obj 480 302 n_array;
#X text 541 303 resize buffer.;
#X obj 452 342 t f b;
#X msg 479 360 0;
#X msg 429 415 1;
#X text 166 565 copy buffer to main.;
#X text 239 510 copy to buffer.;
#X text 104 614 print.;
#X obj 39 245 t a b a a a a b, f 74;
#X obj 39 441 list;
#X obj 45 9 r \$0_ss_get_array;
#X obj 45 48 s ss_get_array;
#X obj 39 75 r ss_get_array_receive;
#X obj 45 30 t b b;
#X msg 72 109 1;
#X obj 39 127 spigot;
#X obj 109 93 r \$0_ss_stop_save;
#X msg 109 111 0;
#X text 55 146 1) ins name;
#X text 55 166 2) \$0;
#X text 55 186 3) \$1;
#X text 55 206 4) number;
#X text 55 226 5) name;
#X obj 480 266 i \$0;
#X msg 480 284 resize \$1_ss_buffer 3;
#X obj 452 376 tabwrite \$0_ss_buffer;
#X text 586 377 number ins.;
#X text 542 431 number array.;
#X obj 402 431 tabwrite \$0_ss_buffer;
#X obj 406 322 unpack s f f f s;
#X obj 333 377 unpack s f f f s;
#X msg 259 389 size \$5;
#X obj 259 461 tabwrite \$0_ss_buffer;
#X text 392 459 size array.;
#X obj 112 528 i \$0;
#X obj 186 473 list \$0;
#X msg 39 596 copy \$5 from \$1 \$3 to main \$6 elements;
#X obj 39 615 print -n;
#X msg 186 491 concat \$5 0 0 \$6_ss_buffer;
#X msg 112 546 concat \$1_ss_buffer 0 0 \$1_ss_main;
#X connect 0 0 34 0;
#X connect 0 1 10 0;
#X connect 1 0 38 0;
#X connect 1 0 15 1;
#X connect 1 1 3 0;
#X connect 3 0 38 1;
#X connect 4 0 1 0;
#X connect 8 0 31 0;
#X connect 8 1 9 0;
#X connect 9 0 31 1;
#X connect 10 0 34 1;
#X connect 14 0 15 0;
#X connect 14 1 40 0;
#X connect 14 2 41 0;
#X connect 14 3 37 0;
#X connect 14 4 36 0;
#X connect 14 5 35 0;
#X connect 14 6 29 0;
#X connect 15 0 42 0;
#X connect 16 0 19 0;
#X connect 18 0 21 0;
#X connect 19 0 17 0;
#X connect 19 1 20 0;
#X connect 20 0 21 1;
#X connect 21 0 14 0;
#X connect 22 0 23 0;
#X connect 23 0 21 1;
#X connect 29 0 30 0;
#X connect 30 0 6 0;
#X connect 35 2 8 0;
#X connect 36 3 0 0;
#X connect 37 0 4 0;
#X connect 40 0 45 0;
#X connect 41 0 44 0;
#X connect 42 0 43 0;
#X connect 44 0 2 0;
#X connect 45 0 5 0;
#X restore 205 278 pd get all arrays;
#N canvas 219 69 991 650 save 0;
#X obj 596 192 n_array;
#X obj 474 259 n_array;
#X msg 501 295 0;
#X obj 474 277 t f b;
#X obj 291 510 n_array;
#X text 718 145 print.;
#X text 649 190 resize main.;
#X text 646 213 get all arrays and copy to main.;
#X text 533 347 write to file.;
#X text 344 511 clear.;
#X text 409 408 print.;
#X obj 25 56 inlet file;
#X obj 230 547 outlet;
#X text 275 547 label.;
#X obj 658 144 print -n;
#X obj 352 408 print -n;
#X obj 596 155 i \$0;
#X msg 596 173 resize \$1_ss_main 1;
#X obj 535 214 s \$0_ss_get_array;
#X obj 169 573 s \$0_ss_stop_save;
#X text 288 574 stop saving.;
#X obj 169 90 symbol;
#X obj 474 222 i \$0;
#X obj 474 311 tabwrite \$0_ss_main;
#X text 598 312 size main.;
#X msg 474 241 size \$1_ss_main;
#X obj 413 323 list \$0;
#X msg 413 341 \; \$2_ss_main write \$1;
#X obj 291 463 i \$0;
#X msg 291 481 resize \$1_ss_buffer 1 \, resize \$1_ss_main 1, f 23
;
#X msg 658 126 save ..........;
#X text 85 162 print.;
#X obj 25 161 print -n;
#X msg 25 142 save .......... \, empty;
#X obj 25 74 route empty;
#X obj 352 321 list;
#X msg 352 390 save to file \$1 \$2 elements;
#X obj 169 108 t b s b s s b b b b, f 82;
#X obj 724 349 n_array;
#X obj 724 307 i \$0;
#X msg 724 328 dump \$1_ss_main 0 0;
#X text 780 351 dump main.;
#X text 723 456 print.;
#X obj 666 456 print -n;
#X obj 666 369 i;
#X obj 169 58 t b s b b b b b b b, f 82;
#X msg 666 438 save \$1 elements;
#X obj 724 373 outlet;
#X obj 169 21 inlet local;
#X msg 169 39 symbol local;
#X connect 1 0 3 0;
#X connect 2 0 23 1;
#X connect 3 0 23 0;
#X connect 3 0 35 1;
#X connect 3 0 44 1;
#X connect 3 1 2 0;
#X connect 11 0 34 0;
#X connect 16 0 17 0;
#X connect 17 0 0 0;
#X connect 21 0 37 0;
#X connect 22 0 25 0;
#X connect 25 0 1 0;
#X connect 26 0 27 0;
#X connect 28 0 29 0;
#X connect 29 0 4 0;
#X connect 30 0 14 0;
#X connect 33 0 32 0;
#X connect 34 0 33 0;
#X connect 34 1 21 0;
#X connect 35 0 36 0;
#X connect 36 0 15 0;
#X connect 37 0 19 0;
#X connect 37 1 12 0;
#X connect 37 2 28 0;
#X connect 37 3 35 0;
#X connect 37 4 26 0;
#X connect 37 5 22 0;
#X connect 37 6 18 0;
#X connect 37 7 16 0;
#X connect 37 8 30 0;
#X connect 38 0 47 0;
#X connect 39 0 40 0;
#X connect 40 0 38 0;
#X connect 44 0 46 0;
#X connect 45 0 19 0;
#X connect 45 2 28 0;
#X connect 45 3 44 0;
#X connect 45 4 39 0;
#X connect 45 5 22 0;
#X connect 45 6 18 0;
#X connect 45 7 16 0;
#X connect 45 8 30 0;
#X connect 46 0 43 0;
#X connect 48 0 49 0;
#X connect 49 0 45 0;
#X restore 157 278 pd save;
#N canvas 384 45 948 626 load 0;
#X msg 65 171 0;
#X obj 653 335 n_array;
#X msg 201 333 1;
#X obj 186 393 moses, f 7;
#X obj 225 598 s ss_init;
#X obj 277 527 symbol;
#X obj 65 209 moses 1, f 57;
#X obj 570 374 symbol;
#X obj 330 479 n_array;
#N canvas 264 136 628 562 read 0;
#X obj 17 26 inlet;
#X obj 154 536 outlet;
#X obj 411 139 + 0;
#X obj 297 127 + 1;
#X obj 319 492 n_array;
#X obj 180 113 + 2;
#X obj 154 517 +;
#X obj 147 172 + 3;
#X obj 42 126 + 0;
#X obj 154 455 t a a a, f 28;
#X text 429 117 number ins.;
#X text 307 107 number array.;
#X text 196 98 size array.;
#X text 55 26 ofs.;
#X text 200 538 ofs.;
#X text 371 493 copy.;
#X obj 236 534 print -n;
#X text 297 535 print.;
#X obj 537 176 i \$0;
#X obj 41 220 s ss_get_array_by_ins_num;
#X obj 32 243 r ss_get_array_by_ins_num_receive;
#X text 51 183 1) number ins;
#X text 51 203 2) number array;
#X obj 41 163 list;
#X text 85 126 number ins.;
#X obj 154 299 pack s f f f f f f, f 51;
#X text 174 317 1) name array;
#X text 174 337 2) ofs data;
#X text 174 357 3) size array;
#X text 174 377 4) number array;
#X text 174 397 5) number ins;
#X text 174 417 6) ofs;
#X text 174 437 7) \$0;
#X msg 319 474 copy \$7_ss_main \$2 \$3 \$1;
#X msg 236 516 copy \$3 elements to ins \$5 \$1;
#X msg 154 499 \$2 \$3;
#X obj 180 131 tabread \$0_ss_main;
#X obj 297 145 tabread \$0_ss_main;
#X obj 411 157 tabread \$0_ss_main;
#X obj 41 144 tabread \$0_ss_main;
#X obj 18 45 t b f f f f f f b, f 87;
#X obj 18 266 symbol;
#X connect 0 0 40 0;
#X connect 2 0 38 0;
#X connect 3 0 37 0;
#X connect 5 0 36 0;
#X connect 6 0 1 0;
#X connect 7 0 25 1;
#X connect 8 0 39 0;
#X connect 9 0 35 0;
#X connect 9 1 34 0;
#X connect 9 2 33 0;
#X connect 18 0 25 6;
#X connect 20 0 41 1;
#X connect 23 0 19 0;
#X connect 25 0 9 0;
#X connect 33 0 4 0;
#X connect 34 0 16 0;
#X connect 35 0 6 0;
#X connect 36 0 25 2;
#X connect 37 0 23 1;
#X connect 37 0 25 3;
#X connect 38 0 25 4;
#X connect 39 0 23 0;
#X connect 40 0 41 0;
#X connect 40 1 8 0;
#X connect 40 2 7 0;
#X connect 40 3 5 0;
#X connect 40 4 3 0;
#X connect 40 5 2 0;
#X connect 40 6 25 5;
#X connect 40 7 18 0;
#X connect 41 0 25 0;
#X restore 186 375 pd read array;
#X obj 186 357 i;
#N canvas 70 104 450 300 delay 0;
#X obj 85 88 inlet;
#X obj 83 190 outlet;
#X obj 85 109 t b f;
#X obj 57 140 delay 1;
#X obj 69 164 f;
#X connect 0 0 2 0;
#X connect 2 0 3 0;
#X connect 2 1 4 1;
#X connect 3 0 4 0;
#X connect 4 0 1 0;
#X restore 124 375 pd delay;
#X text 424 97 print.;
#X text 294 163 read file.;
#X text 194 190 read size file.;
#X text 692 413 read file.;
#X text 707 335 resize main.;
#X text 382 479 clear.;
#X msg 322 113 0;
#X msg 264 113 0;
#X text 399 129 init.;
#X text 125 274 error.;
#X obj 487 479 outlet;
#X text 532 479 label.;
#X obj 225 414 t b b b, f 18;
#X text 287 597 init.;
#X text 336 567 print.;
#X msg 364 79 load ..........;
#X obj 364 97 print -n;
#X obj 264 97 t b b;
#X obj 264 129 tabwrite \$0_ss_buffer;
#X msg 164 155 \; \$2_ss_buffer read \$1;
#X obj 164 137 list \$0;
#X obj 478 70 s \$0_ss_filename;
#X obj 603 356 r \$0_ss_filename;
#X obj 310 509 r \$0_ss_filename;
#X obj 65 40 t b s b b s, f 67;
#X obj 65 21 inlet filename;
#X obj 65 190 tabread \$0_ss_buffer;
#X obj 65 274 print -n;
#X obj 65 238 list;
#X obj 100 228 r \$0_ss_filename;
#X msg 65 256 error: file \$2 bad size: \$1;
#X obj 737 284 print -n;
#X obj 737 248 list;
#X obj 758 230 r \$0_ss_filename;
#X text 797 284 print.;
#X msg 737 266 file \$2 size: \$1;
#X obj 653 299 list \$0;
#X msg 653 317 resize \$2_ss_main \$1;
#X obj 570 392 list \$0;
#X msg 570 410 \; \$2_ss_main read \$1;
#X obj 487 461 symbol;
#X obj 520 443 r \$0_ss_filename;
#X obj 404 227 t f b b f f, f 56;
#X obj 186 308 t b b f;
#X text 285 377 count;
#X obj 330 432 i \$0;
#X msg 330 450 resize \$1_ss_buffer 1 \, resize \$1_ss_main 1, f 22
;
#X obj 277 563 print -n;
#X obj 657 59 inlet local;
#X obj 617 135 i \$0;
#X msg 617 156 size \$1_ss_main;
#X obj 617 177 n_array;
#X msg 277 545 load \$1;
#X obj 730 146 s \$0_ss_filename;
#X obj 657 80 t b b b;
#X msg 738 121 symbol local;
#X connect 0 0 38 0;
#X connect 2 0 10 1;
#X connect 3 0 11 0;
#X connect 3 1 24 0;
#X connect 5 0 64 0;
#X connect 6 0 40 0;
#X connect 6 1 54 0;
#X connect 7 0 50 0;
#X connect 9 0 3 0;
#X connect 10 0 9 0;
#X connect 11 0 10 0;
#X connect 18 0 30 1;
#X connect 19 0 30 0;
#X connect 24 0 4 0;
#X connect 24 1 5 0;
#X connect 24 2 57 0;
#X connect 27 0 28 0;
#X connect 29 0 19 0;
#X connect 29 1 18 0;
#X connect 32 0 31 0;
#X connect 34 0 7 1;
#X connect 35 0 5 1;
#X connect 36 0 0 0;
#X connect 36 1 32 0;
#X connect 36 2 29 0;
#X connect 36 3 27 0;
#X connect 36 4 33 0;
#X connect 37 0 36 0;
#X connect 38 0 6 0;
#X connect 40 0 42 0;
#X connect 41 0 40 1;
#X connect 42 0 39 0;
#X connect 44 0 47 0;
#X connect 45 0 44 1;
#X connect 47 0 43 0;
#X connect 48 0 49 0;
#X connect 49 0 1 0;
#X connect 50 0 51 0;
#X connect 52 0 22 0;
#X connect 53 0 52 1;
#X connect 54 0 55 0;
#X connect 54 1 52 0;
#X connect 54 2 7 0;
#X connect 54 3 48 0;
#X connect 54 4 44 0;
#X connect 55 0 10 0;
#X connect 55 1 2 0;
#X connect 55 2 3 1;
#X connect 57 0 58 0;
#X connect 58 0 8 0;
#X connect 60 0 66 0;
#X connect 61 0 62 0;
#X connect 62 0 63 0;
#X connect 63 0 55 0;
#X connect 64 0 59 0;
#X connect 66 0 61 0;
#X connect 66 1 27 0;
#X connect 66 2 67 0;
#X connect 67 0 65 0;
#X restore 85 161 pd load;
#X text 555 179 [0] size file;
#X obj 16 40 inlet;
#X obj 154 401 outlet;
#X msg 154 381 set \$1;
#X obj 228 79 bng 15 250 50 0 empty empty save_as 17 7 0 10 -260097
-1 -1;
#X obj 157 79 bng 15 250 50 0 empty empty save 17 7 0 10 -260097 -1
-1;
#X obj 85 79 bng 15 250 50 0 empty empty load 17 7 0 10 -257985 -1
-1;
#X text 206 395 name.;
#X text 556 161 structure file:;
#X msg 167 362 symbol empty;
#X obj 555 125 table \$0_ss_buffer;
#X obj 555 107 table \$0_ss_main;
#X msg 255 189 set symbol \$1;
#X msg 112 204 set symbol \$1;
#X text 555 198 data:;
#X text 555 214 [1 + ofs + 0] number ins;
#X text 555 226 [1 + ofs + 1] number array;
#X text 555 238 [1 + ofs + 2] size array;
#X text 555 250 [1 + ofs + 3 ... x] data;
#X msg 266 227 set empty;
#X obj 85 180 t a a;
#X obj 293 320 savestate;
#X obj 381 239 bng 15 250 50 0 empty empty save_local 17 7 0 10 -260097
-1 -1;
#X obj 344 339 spigot \$1;
#X obj 293 363 spigot \$1;
#X obj 16 61 route load_file load save save_as, f 34;
#X obj 360 473 list prepend set;
#X obj 293 384 t b a b, f 23;
#X obj 428 409 i \$0;
#X msg 428 430 \$1_ss_main;
#X obj 360 453 list prepend;
#X obj 360 514 n_array;
#X obj 360 494 list trim;
#X connect 0 0 7 0;
#X connect 1 0 2 0;
#X connect 1 1 24 0;
#X connect 2 0 10 0;
#X connect 3 0 21 0;
#X connect 4 0 11 0;
#X connect 5 1 15 0;
#X connect 6 0 11 0;
#X connect 7 0 1 0;
#X connect 8 0 31 0;
#X connect 10 0 5 0;
#X connect 10 1 33 0;
#X connect 11 0 32 0;
#X connect 13 0 37 0;
#X connect 15 0 14 0;
#X connect 16 0 0 0;
#X connect 17 0 2 0;
#X connect 18 0 4 0;
#X connect 21 0 15 0;
#X connect 24 0 2 0;
#X connect 25 0 2 0;
#X connect 31 0 2 0;
#X connect 32 0 5 0;
#X connect 32 1 25 0;
#X connect 33 0 36 0;
#X connect 33 1 35 0;
#X connect 34 0 10 1;
#X connect 35 0 34 0;
#X connect 36 0 39 0;
#X connect 37 0 6 0;
#X connect 37 1 18 0;
#X connect 37 2 17 0;
#X connect 37 3 16 0;
#X connect 38 0 44 0;
#X connect 39 0 11 1;
#X connect 39 1 42 0;
#X connect 39 2 40 0;
#X connect 40 0 41 0;
#X connect 41 0 42 1;
#X connect 42 0 38 0;
#X connect 44 0 43 0;
#X coords 0 618 1 617 206 40 0;
