#N canvas 229 67 1076 622 10;
#X msg 410 66 0;
#X msg 441 66 1;
#X obj 27 170 n_ss;
#X text 149 42 load file *.txt;
#X text 83 171 files are saved with the extension *.txt;
#X text 175 75 if file exist - nothing todo;
#X obj 28 402 tgl 15 0 empty empty get_parameter 17 7 0 10 -262144
-1 -1 0 1;
#X floatatom 46 578 5 0 0 1 id0(ins_id) - -;
#X symbolatom 28 595 16 0 0 1 ins_name - -;
#X obj 270 415 nbx 5 14 -1e+37 1e+37 0 0 empty empty automatisation
0 -8 0 10 -262144 -1 -1 0 256;
#X obj 167 245 n_ss;
#X obj 167 263 n_ss_array;
#X obj 167 281 n_ss_par;
#X obj 167 299 n_ss_snap;
#X obj 64 113 bng 15 250 50 0 empty empty save_as 17 7 0 10 -260097
-1 -1;
#X obj 130 113 bng 15 250 50 0 empty empty save 17 7 0 10 -260097 -1
-1;
#X obj 179 113 bng 15 250 50 0 empty empty load 17 7 0 10 -257985 -1
-1;
#X msg 49 75 load_file ./not.txt;
#X msg 27 35 load_file ./1.txt;
#X msg 37 53 load_file ./2.txt;
#X msg 64 133 save_as;
#X msg 130 133 save;
#X msg 179 133 load;
#X msg 27 191 ;
#X text 178 14 n_ss - save state objects and automatisation parameters.
;
#X obj 28 422 s ss_get_par;
#X obj 28 440 r ss_act_par;
#X obj 28 458 unpack s f f f s s f f;
#X floatatom 64 561 5 0 0 1 id1(ins_number) - -;
#X floatatom 83 544 5 0 0 1 number - -;
#X floatatom 138 493 5 0 0 1 lower - -;
#X floatatom 157 476 5 0 0 1 upper - -;
#X symbolatom 101 527 16 0 0 1 type - -;
#X symbolatom 120 510 16 0 0 1 name - -;
#X obj 543 103 example1 1;
#X obj 543 213 example1 2;
#N canvas 0 50 450 300 save/load 0;
#X obj 226 64 inlet;
#X obj 239 230 outlet;
#X obj 226 85 t f b;
#X msg 175 196 save \$1;
#X msg 249 188 load \$1;
#X obj 254 116 i -1;
#X obj 158 148 sel -1;
#X obj 310 62 r ss_init;
#X obj 310 83 t b b;
#X msg 341 170 load 0;
#X msg 315 116 0;
#X connect 0 0 2 0;
#X connect 2 0 4 0;
#X connect 2 0 5 1;
#X connect 2 1 5 0;
#X connect 3 0 1 0;
#X connect 4 0 1 0;
#X connect 5 0 6 0;
#X connect 6 1 3 0;
#X connect 7 0 8 0;
#X connect 8 0 10 0;
#X connect 8 1 9 0;
#X connect 9 0 1 0;
#X connect 10 0 5 1;
#X restore 410 87 pd save/load;
#X msg 410 176 0;
#X msg 441 176 1;
#N canvas 0 50 450 300 save/load 0;
#X obj 226 64 inlet;
#X obj 239 230 outlet;
#X obj 226 85 t f b;
#X msg 175 196 save \$1;
#X msg 249 188 load \$1;
#X obj 254 116 i -1;
#X obj 158 148 sel -1;
#X obj 310 62 r ss_init;
#X obj 310 83 t b b;
#X msg 341 170 load 0;
#X msg 315 116 0;
#X connect 0 0 2 0;
#X connect 2 0 4 0;
#X connect 2 0 5 1;
#X connect 2 1 5 0;
#X connect 3 0 1 0;
#X connect 4 0 1 0;
#X connect 5 0 6 0;
#X connect 6 1 3 0;
#X connect 7 0 8 0;
#X connect 8 0 10 0;
#X connect 8 1 9 0;
#X connect 9 0 1 0;
#X connect 10 0 5 1;
#X restore 410 197 pd save/load;
#X text 227 244 manager state's;
#X text 251 264 for saving array's;
#X text 241 284 for parameters;
#X text 231 300 for save/load snap;
#X msg 410 276 0;
#X msg 441 276 1;
#N canvas 0 50 450 300 save/load 0;
#X obj 226 64 inlet;
#X obj 239 230 outlet;
#X obj 226 85 t f b;
#X msg 175 196 save \$1;
#X msg 249 188 load \$1;
#X obj 254 116 i -1;
#X obj 158 148 sel -1;
#X obj 310 62 r ss_init;
#X obj 310 83 t b b;
#X msg 341 170 load 0;
#X msg 315 116 0;
#X connect 0 0 2 0;
#X connect 2 0 4 0;
#X connect 2 0 5 1;
#X connect 2 1 5 0;
#X connect 3 0 1 0;
#X connect 4 0 1 0;
#X connect 5 0 6 0;
#X connect 6 1 3 0;
#X connect 7 0 8 0;
#X connect 8 0 10 0;
#X connect 8 1 9 0;
#X connect 9 0 1 0;
#X connect 10 0 5 1;
#X restore 410 297 pd save/load;
#X obj 543 313 example2 3;
#X msg 410 386 0;
#X msg 441 386 1;
#N canvas 0 50 450 300 save/load 0;
#X obj 226 64 inlet;
#X obj 239 230 outlet;
#X obj 226 85 t f b;
#X msg 175 196 save \$1;
#X msg 249 188 load \$1;
#X obj 254 116 i -1;
#X obj 158 148 sel -1;
#X obj 310 62 r ss_init;
#X obj 310 83 t b b;
#X msg 341 170 load 0;
#X msg 315 116 0;
#X connect 0 0 2 0;
#X connect 2 0 4 0;
#X connect 2 0 5 1;
#X connect 2 1 5 0;
#X connect 3 0 1 0;
#X connect 4 0 1 0;
#X connect 5 0 6 0;
#X connect 6 1 3 0;
#X connect 7 0 8 0;
#X connect 8 0 10 0;
#X connect 8 1 9 0;
#X connect 9 0 1 0;
#X connect 10 0 5 1;
#X restore 410 407 pd save/load;
#X obj 543 423 example2 4;
#X text 731 59 for example:;
#X obj 285 436 bng 15 250 50 0 empty empty automate_this 17 7 0 10
-262144 -1 -1;
#X obj 285 456 list;
#X obj 270 492 s;
#X msg 285 474 symbol \$2_r_\$4;
#X msg 472 276 2;
#X msg 503 276 3;
#X msg 472 386 2;
#X msg 503 386 3;
#X msg 543 13 load 0;
#X msg 552 32 load 1;
#X msg 573 54 save 0;
#X msg 582 73 save 1;
#X text 611 21 load snap;
#X text 637 60 save snap;
#X text 41 341 for automatisation. set on 'get_parameter' and change
one.;
#X text 49 363 after \, click 'automate_this' and change 'automatisation'
;
#X connect 0 0 36 0;
#X connect 1 0 36 0;
#X connect 2 0 23 0;
#X connect 6 0 25 0;
#X connect 9 0 55 0;
#X connect 14 0 20 0;
#X connect 15 0 21 0;
#X connect 16 0 22 0;
#X connect 17 0 2 0;
#X connect 18 0 2 0;
#X connect 19 0 2 0;
#X connect 20 0 2 0;
#X connect 21 0 2 0;
#X connect 22 0 2 0;
#X connect 26 0 27 0;
#X connect 26 0 54 1;
#X connect 27 0 8 0;
#X connect 27 1 7 0;
#X connect 27 2 28 0;
#X connect 27 3 29 0;
#X connect 27 4 32 0;
#X connect 27 5 33 0;
#X connect 27 6 30 0;
#X connect 27 7 31 0;
#X connect 36 0 34 0;
#X connect 37 0 39 0;
#X connect 38 0 39 0;
#X connect 39 0 35 0;
#X connect 44 0 46 0;
#X connect 45 0 46 0;
#X connect 46 0 47 0;
#X connect 48 0 50 0;
#X connect 49 0 50 0;
#X connect 50 0 51 0;
#X connect 53 0 54 0;
#X connect 54 0 56 0;
#X connect 56 0 55 1;
#X connect 57 0 46 0;
#X connect 58 0 46 0;
#X connect 59 0 50 0;
#X connect 60 0 50 0;
#X connect 61 0 34 0;
#X connect 62 0 34 0;
#X connect 63 0 34 0;
#X connect 64 0 34 0;
