#N canvas 261 57 755 541 10;
#X obj 35 51 bng 15 250 50 0 empty empty Save_as 17 7 0 10 -260097
-1 -1;
#X obj 101 51 bng 15 250 50 0 empty empty Save 17 7 0 10 -260097 -1
-1;
#X obj 165 51 bng 15 250 50 0 empty empty Load 17 7 0 10 -257985 -1
-1;
#X obj 637 366 table ss-buffer;
#X obj 375 90 savepanel;
#X obj 375 126 t b a;
#X msg 375 170 symbol /home/nio/data/pd_my/ss/ins_4lfos.txt;
#X msg 330 117 set;
#X obj 177 310 loadbang;
#X msg 399 146 set symbol \$1;
#X obj 643 392 table ss-main;
#X obj 149 132 openpanel;
#X msg 375 191 symbol \$1;
#X obj 33 33 cnv 15 200 15 empty ss-label ins_4lfos.txt 3 8 0 11 -258113
-262144 0;
#X obj 234 379 s ss-label;
#X msg 234 359 label \$1;
#N canvas 0 50 602 535 split 0;
#X obj 212 15 inlet;
#X obj 295 82 list fromsymbol;
#X obj 269 133 until;
#X obj 282 216 list store;
#X obj 307 159 + 1;
#X msg 321 133 0, f 2;
#X msg 268 198 get \$1 1;
#X obj 282 259 i;
#X obj 269 158 i;
#X obj 269 179 t f f;
#X obj 176 318 list split;
#X obj 236 299 i;
#X obj 204 343 list tosymbol;
#X obj 176 387 list tosymbol;
#X obj 137 103 list;
#X obj 212 36 t b b s;
#X obj 204 361 outlet;
#X obj 176 406 outlet;
#X obj 282 279 + 1;
#X obj 295 100 t b b l l;
#X obj 353 294 list length;
#X obj 282 237 sel 47;
#X connect 0 0 15 0;
#X connect 1 0 14 1;
#X connect 1 0 19 0;
#X connect 2 0 8 0;
#X connect 3 0 21 0;
#X connect 3 1 2 1;
#X connect 4 0 8 1;
#X connect 5 0 8 1;
#X connect 6 0 3 0;
#X connect 7 0 18 0;
#X connect 8 0 4 0;
#X connect 8 0 9 0;
#X connect 9 0 6 0;
#X connect 9 1 7 1;
#X connect 10 0 13 0;
#X connect 10 1 12 0;
#X connect 11 0 10 1;
#X connect 12 0 16 0;
#X connect 13 0 17 0;
#X connect 14 0 10 0;
#X connect 15 0 14 0;
#X connect 15 1 11 0;
#X connect 15 2 1 0;
#X connect 18 0 11 1;
#X connect 19 0 2 0;
#X connect 19 1 5 0;
#X connect 19 2 3 1;
#X connect 19 3 20 0;
#X connect 20 0 11 1;
#X connect 21 0 7 0;
#X restore 222 281 pd split '/';
#X msg 251 142 set symbol \$1;
#X msg 180 330 symbol ...;
#X obj 68 119 inlet load;
#X obj 68 140 symbol;
#N canvas 401 45 594 439 save 0;
#X obj 145 13 inlet;
#X obj 161 311 outlet;
#X obj 161 248 pack s s s;
#X msg 161 269 symbol \$1\$2\$3;
#N canvas 0 50 602 535 split 0;
#X obj 212 15 inlet;
#X obj 295 82 list fromsymbol;
#X obj 269 133 until;
#X obj 282 216 list store;
#X obj 307 159 + 1;
#X msg 321 133 0, f 2;
#X msg 268 198 get \$1 1;
#X obj 282 259 i;
#X obj 269 158 i;
#X obj 269 179 t f f;
#X obj 176 318 list split;
#X obj 236 299 i;
#X obj 204 343 list tosymbol;
#X obj 176 387 list tosymbol;
#X obj 137 103 list;
#X obj 212 36 t b b s;
#X obj 204 361 outlet;
#X obj 176 406 outlet;
#X obj 282 279 + 1;
#X obj 295 100 t b b l l;
#X obj 353 294 list length;
#X obj 282 237 sel 47;
#X connect 0 0 15 0;
#X connect 1 0 14 1;
#X connect 1 0 19 0;
#X connect 2 0 8 0;
#X connect 3 0 21 0;
#X connect 3 1 2 1;
#X connect 4 0 8 1;
#X connect 5 0 8 1;
#X connect 6 0 3 0;
#X connect 7 0 18 0;
#X connect 8 0 4 0;
#X connect 8 0 9 0;
#X connect 9 0 6 0;
#X connect 9 1 7 1;
#X connect 10 0 13 0;
#X connect 10 1 12 0;
#X connect 11 0 10 1;
#X connect 12 0 16 0;
#X connect 13 0 17 0;
#X connect 14 0 10 0;
#X connect 15 0 14 0;
#X connect 15 1 11 0;
#X connect 15 2 1 0;
#X connect 18 0 11 1;
#X connect 19 0 2 0;
#X connect 19 1 5 0;
#X connect 19 2 3 1;
#X connect 19 3 20 0;
#X connect 20 0 11 1;
#X connect 21 0 7 0;
#X restore 83 111 pd split '/';
#N canvas 0 50 602 535 split 0;
#X obj 212 15 inlet;
#X obj 295 82 list fromsymbol;
#X obj 269 133 until;
#X obj 282 216 list store;
#X obj 307 159 + 1;
#X msg 321 133 0, f 2;
#X msg 268 198 get \$1 1;
#X obj 282 259 i;
#X obj 269 158 i;
#X obj 269 179 t f f;
#X obj 176 318 list split;
#X obj 236 299 i;
#X obj 204 343 list tosymbol;
#X obj 176 387 list tosymbol;
#X obj 137 103 list;
#X obj 212 36 t b b s;
#X obj 204 361 outlet;
#X obj 176 406 outlet;
#X obj 282 279 + 1;
#X obj 295 100 t b b l l;
#X obj 353 294 list length;
#X obj 282 237 sel 46;
#X connect 0 0 15 0;
#X connect 1 0 14 1;
#X connect 1 0 19 0;
#X connect 2 0 8 0;
#X connect 3 0 21 0;
#X connect 3 1 2 1;
#X connect 4 0 8 1;
#X connect 5 0 8 1;
#X connect 6 0 3 0;
#X connect 7 0 18 0;
#X connect 8 0 4 0;
#X connect 8 0 9 0;
#X connect 9 0 6 0;
#X connect 9 1 7 1;
#X connect 10 0 13 0;
#X connect 10 1 12 0;
#X connect 11 0 10 1;
#X connect 12 0 16 0;
#X connect 13 0 17 0;
#X connect 14 0 10 0;
#X connect 15 0 14 0;
#X connect 15 1 11 0;
#X connect 15 2 1 0;
#X connect 18 0 11 1;
#X connect 19 0 2 0;
#X connect 19 1 5 0;
#X connect 19 2 3 1;
#X connect 19 3 20 0;
#X connect 20 0 11 1;
#X connect 21 0 7 0;
#X restore 152 146 pd split '.';
#X obj 145 36 t a b;
#X obj 266 155 sel txt;
#X msg 220 185 symbol txt;
#X msg 310 185 symbol \$1.txt;
#X msg 433 192 symbol txt;
#X connect 0 0 6 0;
#X connect 2 0 3 0;
#X connect 3 0 1 0;
#X connect 4 0 2 0;
#X connect 4 1 5 0;
#X connect 5 0 2 1;
#X connect 5 1 7 0;
#X connect 6 0 4 0;
#X connect 6 1 10 0;
#X connect 7 0 8 0;
#X connect 7 1 9 0;
#X connect 8 0 2 2;
#X connect 9 0 2 2;
#X connect 10 0 2 2;
#X restore 375 108 pd save as *.txt;
#X obj 21 76 s ss-save_as;
#X obj 101 76 s ss-save;
#X obj 170 76 s ss-load;
#X obj 150 112 r ss-load;
#X obj 354 51 r ss-save;
#X obj 375 72 r ss-save_as;
#X obj 305 95 loadbang;
#N canvas 597 61 767 564 get 0;
#X obj 498 228 tabwrite ss-buffer;
#X obj 428 268 tabwrite ss-buffer;
#X obj 428 227 t f b;
#X obj 326 346 tabwrite ss-buffer;
#X obj 326 303 t f b;
#X obj 280 403 n_array;
#X obj 236 57 r ss-get-array-receive;
#X msg 353 323 2;
#X obj 326 284 n_array;
#X obj 207 452 n_array;
#X msg 207 433 concat ss-buffer ss-main;
#X obj 151 506 n_print 4;
#X obj 465 165 unpack f f f;
#X obj 566 181 n_array;
#X msg 566 163 resize ss-buffer 3;
#X text 627 182 resize buffer.;
#X obj 498 185 t f b;
#X obj 376 207 unpack f f f;
#X text 447 348 write size array.;
#X text 544 269 write number array.;
#X text 618 227 write number ins.;
#X msg 525 206 0;
#X msg 455 247 1;
#X text 262 458 copy buffer to main.;
#X text 352 405 copy to buffer.;
#X text 218 509 print.;
#X obj 236 104 t a b a a a a b;
#X msg 326 265 size \$1-ss-\$3;
#X msg 280 384 concat \$1-ss-\$3 ss-buffer;
#X text 421 46 2) dollar one \$1;
#X text 421 26 1) dollar zero \$0;
#X text 421 66 3) number array;
#X obj 148 441 list;
#X msg 151 487 SS: copy \$1-ss-\$3 from ins \$2 to main \$4 elements
;
#X connect 2 0 1 0;
#X connect 2 1 22 0;
#X connect 4 0 3 0;
#X connect 4 0 32 1;
#X connect 4 1 7 0;
#X connect 6 0 26 0;
#X connect 7 0 3 1;
#X connect 8 0 4 0;
#X connect 10 0 9 0;
#X connect 12 1 16 0;
#X connect 14 0 13 0;
#X connect 16 0 0 0;
#X connect 16 1 21 0;
#X connect 17 2 2 0;
#X connect 21 0 0 1;
#X connect 22 0 1 1;
#X connect 26 0 32 0;
#X connect 26 1 10 0;
#X connect 26 2 28 0;
#X connect 26 3 27 0;
#X connect 26 4 17 0;
#X connect 26 5 12 0;
#X connect 26 6 14 0;
#X connect 27 0 8 0;
#X connect 28 0 5 0;
#X connect 32 0 33 0;
#X connect 33 0 11 0;
#X restore 430 238 pd get all arrays;
#N canvas 447 65 804 588 save 0;
#X obj 452 212 s ss-get-array;
#X msg 503 159 resize ss-main 1;
#X obj 503 178 n_array;
#X msg 305 349 \; ss-main write \$1;
#X msg 359 249 size ss-main;
#X obj 359 267 n_array;
#X msg 386 303 0;
#X obj 359 285 t f b;
#X obj 359 323 tabwrite ss-main;
#X obj 248 420 n_array;
#X msg 248 390 resize ss-buffer 1 \, resize ss-main 1, f 23;
#X obj 187 469 n_print 4;
#X msg 187 451 SS: save \$1;
#X obj 565 128 n_print 4;
#X msg 565 109 SS: save -----------------------;
#X text 638 128 print.;
#X text 556 176 resize main.;
#X text 548 210 get all arrays and copy to main.;
#X text 469 322 write size main.;
#X text 412 357 write to file.;
#X text 319 421 clear.;
#X text 281 459 print.;
#X obj 273 33 inlet file;
#X obj 273 53 t s s b s b b b b;
#X obj 123 535 outlet;
#X text 186 529 label.;
#X connect 1 0 2 0;
#X connect 4 0 5 0;
#X connect 5 0 7 0;
#X connect 6 0 8 1;
#X connect 7 0 8 0;
#X connect 7 1 6 0;
#X connect 10 0 9 0;
#X connect 12 0 11 0;
#X connect 14 0 13 0;
#X connect 22 0 23 0;
#X connect 23 0 24 0;
#X connect 23 1 12 0;
#X connect 23 2 10 0;
#X connect 23 3 3 0;
#X connect 23 4 4 0;
#X connect 23 5 0 0;
#X connect 23 6 1 0;
#X connect 23 7 14 0;
#X restore 362 238 pd save;
#N canvas 325 45 838 650 load 0;
#X obj 288 37 inlet file;
#X msg 383 254 0;
#X msg 574 403 resize ss-main \$1;
#X obj 574 421 n_array;
#X msg 491 464 \; ss-main read \$1;
#X text 161 437 <- count;
#X msg 145 387 1;
#X obj 130 506 moses;
#X obj 65 617 n_print 4;
#X obj 170 566 s ss_init;
#X obj 65 581 symbol;
#X msg 65 599 SS: load \$1;
#X obj 383 297 moses 1;
#X obj 491 446 symbol;
#X obj 257 566 n_array;
#X obj 297 362 n_print 1;
#N canvas 622 108 673 638 read 0;
#X obj 271 18 inlet;
#X obj 147 456 outlet;
#X obj 371 103 + 0;
#X obj 371 124 tabread ss-main;
#X obj 327 168 tabread ss-main;
#X obj 327 147 + 1;
#X obj 108 143 s ss-get-dollarzero;
#X obj 64 254 r ss-get-dollarzero-receive;
#X obj 372 404 n_array;
#X obj 279 202 tabread ss-main;
#X obj 279 181 + 2;
#X obj 147 407 +;
#X obj 147 428 + 3;
#X obj 248 188 + 3;
#X obj 306 460 n_print 4;
#X obj 115 96 + 0;
#X obj 115 117 tabread ss-main;
#X obj 271 51 t f f f f f f;
#X msg 372 386 copy ss-main \$1-ss-\$4 \$2 \$3;
#X obj 230 287 pack f f f f f f;
#X obj 230 308 t a a a;
#X msg 213 340 \$3 \$6;
#X msg 306 442 SS: copy \$3 elements to ins \$5 \$1-ss-\$4;
#X text 24 104 number ins.;
#X text 362 243 1) dollarzero;
#X text 362 263 2) offset;
#X text 362 283 3) size;
#X text 362 303 4) array;
#X text 362 323 5) ins;
#X text 362 343 6) offset prev;
#X text 309 18 offset.;
#X text 193 458 offset.;
#X text 472 124 number ins.;
#X text 428 168 number array.;
#X text 378 204 size array.;
#X connect 0 0 17 0;
#X connect 2 0 3 0;
#X connect 3 0 19 4;
#X connect 4 0 19 3;
#X connect 5 0 4 0;
#X connect 7 0 19 0;
#X connect 9 0 19 2;
#X connect 10 0 9 0;
#X connect 11 0 12 0;
#X connect 12 0 1 0;
#X connect 13 0 19 1;
#X connect 15 0 16 0;
#X connect 16 0 6 0;
#X connect 17 0 15 0;
#X connect 17 1 13 0;
#X connect 17 2 10 0;
#X connect 17 3 5 0;
#X connect 17 4 2 0;
#X connect 17 5 19 5;
#X connect 18 0 8 0;
#X connect 19 0 20 0;
#X connect 20 0 21 0;
#X connect 20 1 22 0;
#X connect 20 2 18 0;
#X connect 21 0 11 0;
#X connect 22 0 14 0;
#X restore 130 461 pd read array;
#X obj 130 443 i;
#X obj 613 142 n_print 4;
#X msg 613 123 SS: load -----------------------;
#N canvas 70 104 450 300 delay 0;
#X obj 85 88 inlet;
#X obj 83 190 outlet;
#X obj 85 109 t b f;
#X obj 57 140 delay 1;
#X obj 69 164 f;
#X connect 0 0 2 0;
#X connect 2 0 3 0;
#X connect 2 1 4 1;
#X connect 3 0 4 0;
#X connect 4 0 1 0;
#X restore 50 478 pd delay;
#X text 681 147 print.;
#X text 569 223 read file.;
#X text 515 279 read size file.;
#X msg 297 344 SS: bad file size: \$1;
#X text 593 475 read file.;
#X text 632 425 resize main.;
#X text 310 570 clear.;
#X msg 588 167 0;
#X msg 483 167 0;
#X text 608 185 init.;
#X obj 483 185 tabwrite ss-buffer;
#X msg 435 217 \; ss-buffer read \$1;
#X obj 383 273 tabread ss-buffer;
#X msg 257 535 resize ss-buffer 1 \, resize ss-main 1, f 22;
#X obj 288 56 t b b s b b b b s;
#X text 366 367 error.;
#X obj 432 507 outlet;
#X text 478 511 label.;
#X msg 705 382 SS: file size: \$1;
#X text 774 405 print.;
#X obj 457 359 t b b f f, f 12;
#X obj 705 400 n_print 4;
#X obj 157 525 t b b b;
#X text 190 588 init.;
#X text 144 621 print.;
#X connect 0 0 35 0;
#X connect 1 0 33 0;
#X connect 2 0 3 0;
#X connect 6 0 17 1;
#X connect 7 0 20 0;
#X connect 7 1 43 0;
#X connect 10 0 11 0;
#X connect 11 0 8 0;
#X connect 12 0 24 0;
#X connect 12 1 41 0;
#X connect 13 0 4 0;
#X connect 13 0 37 0;
#X connect 16 0 7 0;
#X connect 17 0 16 0;
#X connect 19 0 18 0;
#X connect 20 0 17 0;
#X connect 24 0 15 0;
#X connect 28 0 31 1;
#X connect 29 0 31 0;
#X connect 33 0 12 0;
#X connect 34 0 14 0;
#X connect 35 1 1 0;
#X connect 35 2 32 0;
#X connect 35 3 29 0;
#X connect 35 4 28 0;
#X connect 35 5 19 0;
#X connect 35 6 6 0;
#X connect 35 7 10 1;
#X connect 35 7 13 1;
#X connect 39 0 42 0;
#X connect 41 0 17 0;
#X connect 41 1 13 0;
#X connect 41 2 2 0;
#X connect 41 2 7 1;
#X connect 41 3 39 0;
#X connect 43 0 10 0;
#X connect 43 1 9 0;
#X connect 43 2 34 0;
#X restore 122 218 pd load;
#X text 442 289 structure file.;
#X text 443 315 [0] size file;
#X text 471 346 [1] number ins;
#X text 471 360 [2] number array;
#X text 471 374 [3] size array;
#X text 505 402 [4...x] data;
#X text 502 512 ...;
#X text 471 454 [x+2] size array;
#X text 471 440 [x+1] number array;
#X text 471 426 [x+0] number ins;
#X text 505 482 [x+3...y] data;
#X obj 46 461 savestate;
#X obj 97 488 s ss-save;
#X text 15 435 for saving with parrent path.;
#X text 280 335 label.;
#X connect 0 0 22 0;
#X connect 1 0 23 0;
#X connect 2 0 24 0;
#X connect 4 0 21 0;
#X connect 5 0 6 0;
#X connect 5 1 9 0;
#X connect 6 0 12 0;
#X connect 7 0 6 0;
#X connect 8 0 18 0;
#X connect 9 0 6 0;
#X connect 11 0 31 0;
#X connect 12 0 30 0;
#X connect 15 0 14 0;
#X connect 16 1 15 0;
#X connect 17 0 6 0;
#X connect 18 0 15 0;
#X connect 19 0 20 0;
#X connect 20 0 31 0;
#X connect 21 0 5 0;
#X connect 25 0 11 0;
#X connect 26 0 6 0;
#X connect 27 0 4 0;
#X connect 28 0 7 0;
#X connect 30 0 16 0;
#X connect 31 0 16 0;
#X connect 31 0 17 0;
#X connect 43 1 44 0;
#X coords 0 -1 1 1 206 40 2 30 30;
