#N canvas 416 96 666 454 10;
#X text 317 83 save state.;
#X text 318 265 load state.;
#X obj 42 209 spigot;
#X obj 295 125 + \$4;
#X text 509 16 1) ins name;
#X text 509 56 3) \$1;
#X text 509 36 2) \$0;
#X text 509 96 5) type;
#X text 509 116 6) label;
#X text 509 136 7) lower;
#X text 509 156 8) upper;
#X obj 295 107 r \$2_save_state_par;
#X obj 310 162 r \$2_s_\$4;
#X obj 295 341 s \$2_r_\$4;
#X obj 295 143 t b f, f 18;
#X obj 295 180 f;
#X obj 295 287 r \$2_load_state_par;
#X obj 295 305 + \$4;
#X obj 75 191 r ss_get_par;
#X obj 42 173 r \$2_s_\$4;
#X obj 42 285 s ss_act_par;
#X obj 42 248 symbol \$1;
#X obj 115 248 symbol \$5;
#X obj 189 248 symbol \$6;
#X obj 42 266 pack s \$2 \$3 \$4 s s \$7 \$8;
#X obj 42 230 t b b b, f 25;
#X text 509 76 4) number;
#X obj 295 198 tabwrite \$2_ss_a_0;
#X obj 295 323 tabread \$2_ss_a_0;
#X connect 2 0 25 0;
#X connect 3 0 14 0;
#X connect 11 0 3 0;
#X connect 12 0 15 1;
#X connect 14 0 15 0;
#X connect 14 1 27 1;
#X connect 15 0 27 0;
#X connect 16 0 17 0;
#X connect 17 0 28 0;
#X connect 18 0 2 1;
#X connect 19 0 2 0;
#X connect 21 0 24 0;
#X connect 22 0 24 4;
#X connect 23 0 24 5;
#X connect 24 0 20 0;
#X connect 25 0 21 0;
#X connect 25 1 22 0;
#X connect 25 2 23 0;
#X connect 28 0 13 0;
