#N canvas 666 186 634 439 10;
#X text 212 24 1) ins name;
#X text 212 44 2) \$0;
#X text 212 64 3) \$1;
#X text 212 84 4) number;
#X text 212 104 5) name;
#X obj 64 135 r ss_get_array;
#X obj 64 280 s ss_get_array_receive;
#X obj 64 173 pdcontrol;
#X msg 64 155 args 0;
#X obj 91 215 list length;
#X obj 64 193 t a a;
#X obj 91 236 == 5;
#X obj 64 261 spigot;
#X obj 381 85 pdcontrol;
#X msg 381 67 args 0;
#X obj 381 103 list length;
#X obj 381 124 == 5;
#X obj 354 143 spigot;
#X obj 354 28 r ss_get_array_by_ins_num;
#X obj 354 49 t a b;
#X text 359 162 1) number ins;
#X obj 354 361 s ss_get_array_by_ins_num_receive;
#X text 359 182 2) number array;
#X obj 423 223 list \$4;
#X obj 423 244 ==;
#X obj 354 260 spigot;
#X obj 354 301 ==;
#X obj 354 280 list \$3;
#X obj 354 341 symbol \$5;
#X obj 354 322 sel 1;
#X obj 354 204 unpack, f 12;
#X connect 5 0 8 0;
#X connect 7 0 10 0;
#X connect 8 0 7 0;
#X connect 9 0 11 0;
#X connect 10 0 12 0;
#X connect 10 1 9 0;
#X connect 11 0 12 1;
#X connect 12 0 6 0;
#X connect 13 0 15 0;
#X connect 14 0 13 0;
#X connect 15 0 16 0;
#X connect 16 0 17 1;
#X connect 17 0 30 0;
#X connect 18 0 19 0;
#X connect 19 0 17 0;
#X connect 19 1 14 0;
#X connect 23 0 24 0;
#X connect 24 0 25 1;
#X connect 25 0 27 0;
#X connect 26 0 29 0;
#X connect 27 0 26 0;
#X connect 28 0 21 0;
#X connect 29 0 28 0;
#X connect 30 0 25 0;
#X connect 30 1 23 0;
