#N canvas 720 126 666 454 10;
#X text 317 83 save state.;
#X text 318 265 load state.;
#X obj 44 92 spigot;
#X obj 295 125 + \$4;
#X text 509 16 1) ins name;
#X text 509 56 3) \$1;
#X text 509 36 2) \$0;
#X text 509 96 5) type;
#X text 509 116 6) label;
#X text 509 136 7) lower;
#X text 509 156 8) upper;
#X obj 295 107 r \$2_save_state_par;
#X obj 310 162 r \$2_s_\$4;
#X obj 295 341 s \$2_r_\$4;
#X obj 295 143 t b f, f 18;
#X obj 295 180 f;
#X obj 295 287 r \$2_load_state_par;
#X obj 295 305 + \$4;
#X obj 77 74 r ss_get_par;
#X obj 44 56 r \$2_s_\$4;
#X obj 44 168 s ss_act_par;
#X text 509 76 4) number;
#X obj 295 198 tabwrite \$2_ss_a_0;
#X obj 295 323 tabread \$2_ss_a_0;
#X obj 42 229 r ss_get_par_info;
#X text 126 252 ins_n n;
#X obj 42 399 s ss_get_par_info_return;
#X obj 42 250 unpack f f;
#X obj 99 280 == \$4;
#X obj 42 301 spigot;
#X obj 42 322 sel \$3;
#X obj 42 363 symbol \$1;
#X obj 115 363 symbol \$5;
#X obj 189 363 symbol \$6;
#X obj 42 381 pack s \$2 \$3 \$4 s s \$7 \$8;
#X obj 42 345 t b b b, f 25;
#X obj 44 113 t b;
#X obj 44 145 pack \$3 \$4;
#X text 126 144 ins_n n;
#X connect 2 0 36 0;
#X connect 3 0 14 0;
#X connect 11 0 3 0;
#X connect 12 0 15 1;
#X connect 14 0 15 0;
#X connect 14 1 22 1;
#X connect 15 0 22 0;
#X connect 16 0 17 0;
#X connect 17 0 23 0;
#X connect 18 0 2 1;
#X connect 19 0 2 0;
#X connect 23 0 13 0;
#X connect 24 0 27 0;
#X connect 27 0 29 0;
#X connect 27 1 28 0;
#X connect 28 0 29 1;
#X connect 29 0 30 0;
#X connect 30 0 35 0;
#X connect 31 0 34 0;
#X connect 32 0 34 4;
#X connect 33 0 34 5;
#X connect 34 0 26 0;
#X connect 35 0 31 0;
#X connect 35 1 32 0;
#X connect 35 2 33 0;
#X connect 36 0 37 0;
#X connect 37 0 20 0;
