#N canvas 0 174 680 472 12;
#X obj 247 104 r ss-get-array;
#X obj 247 148 s ss-get-array-receive;
#X text 265 46 2) dollar one \$1;
#X text 265 26 1) dollar zero \$0;
#X obj 247 126 pack \$1 \$2 \$3;
#X text 265 66 3) number array;
#X connect 0 0 4 0;
#X connect 4 0 1 0;
