#N canvas 194 308 465 314 10;
#X obj 134 138 inlet snap;
#X text 137 28 1) name ins;
#X text 137 89 4) number parameters in snap;
#X obj 134 270 * \$4;
#X text 137 48 2) \$0;
#X text 137 68 3) \$1;
#X obj 134 156 route load save;
#X obj 134 288 s \$2_load_state_par;
#X obj 177 204 * \$4;
#X obj 177 222 s \$2_save_state_par;
#X obj 134 252 clip 0 \$5;
#X text 137 109 5) number snaps - 1;
#X obj 177 186 clip 0 \$5;
#X connect 0 0 6 0;
#X connect 3 0 7 0;
#X connect 6 0 10 0;
#X connect 6 1 12 0;
#X connect 8 0 9 0;
#X connect 10 0 3 0;
#X connect 12 0 8 0;
