#N canvas 48 103 1318 584 10;
#X obj 35 51 bng 15 250 50 0 empty empty Save_as 17 7 0 10 -260097
-1 -1;
#X obj 101 51 bng 15 250 50 0 empty empty Save 17 7 0 10 -260097 -1
-1;
#X obj 165 51 bng 15 250 50 0 empty empty Load 17 7 0 10 -257985 -1
-1;
#X obj 1177 253 n_array;
#X obj 1103 280 tabwrite ss-buffer;
#X obj 1105 213 t f b;
#X obj 1007 315 tabwrite ss-buffer;
#X obj 1009 255 t f b;
#X obj 935 368 tabwrite ss-buffer;
#X obj 937 316 t f b;
#X msg 1177 235 resize ss-buffer 3;
#X obj 841 412 n_array;
#X obj 411 22 table ss-buffer;
#X obj 901 129 r ss-get-array-receive;
#X obj 576 56 savepanel;
#X obj 570 96 t b a;
#X msg 563 140 symbol /m/data/pd_my/n_ss/2.ss;
#X msg 498 95 set;
#X obj 451 66 loadbang;
#X msg 609 110 set symbol \$1;
#X obj 509 22 table ss-main;
#X obj 1024 161 unpack f f;
#X obj 1105 189 t f b;
#X msg 1035 279 0;
#X msg 1131 259 1;
#X msg 963 342 2;
#X obj 919 189 unpack f f;
#X obj 884 210 s ss-get-dollarzero;
#X obj 842 230 r ss-get-dollarzero-receive;
#X obj 845 249 pack f f;
#X msg 877 297 size \$1-ss-\$2;
#X obj 877 318 n_array;
#X obj 877 339 t f f;
#X text 1200 208 resize:;
#X text 1225 284 arrray;
#X text 1127 322 ins;
#X text 1057 368 size;
#X obj 845 270 t a a;
#X msg 841 393 concat \$1-ss-\$2 ss-buffer;
#X obj 758 204 n_array;
#X msg 758 185 concat ss-buffer ss-main;
#X obj 913 159 t b a a;
#X text 913 416 to buffer;
#X text 777 226 to main;
#X text 915 104 write array's to main;
#X obj 563 181 t s s b b b;
#X obj 612 240 s ss-get-array;
#X msg 635 201 resize ss-main 1;
#X obj 635 220 n_array;
#X msg 555 373 \; ss-main write \$1;
#X msg 592 267 size ss-main;
#X obj 592 288 n_array;
#X msg 602 331 0;
#X obj 592 309 t f b;
#X obj 574 353 tabwrite ss-main;
#X obj 538 424 n_print 4;
#X obj 149 132 openpanel;
#X obj 499 463 n_array;
#X msg 499 445 resize ss-buffer 1 \, resize ss-main 1;
#X msg 201 173 \; ss-main read \$1;
#X obj 149 153 t b a b a;
#X msg 182 207 0;
#X obj 182 228 tabread ss-main;
#X msg 182 249 resize ss-main \$1;
#X obj 182 270 n_array;
#X msg 160 288 \; ss-main read \$1;
#X obj 126 354 i;
#X text 160 354 <- count;
#X msg 142 322 1;
#N canvas 255 111 439 528 read 0;
#X obj 75 44 inlet;
#X obj 27 436 outlet;
#X obj 111 121 t f f f f;
#X obj 205 139 + 0;
#X obj 205 160 tabread ss-main;
#X obj 151 220 tabread ss-main;
#X obj 151 199 + 1;
#X obj 244 200 s ss-get-dollarzero;
#X obj 205 181 t f f;
#X obj 224 240 r ss-get-dollarzero-receive;
#X obj 64 365 n_array;
#X obj 87 290 tabread ss-main;
#X obj 87 269 + 2;
#X obj 64 323 pack f f f f f;
#X text 176 317 ofset \, size \, array \, ins \, dollarzero;
#X msg 64 344 copy ss-main \$5-ss-\$3 \$1 \$2;
#X obj 35 391 +;
#X obj 83 93 t f f;
#X obj 35 412 + 3;
#X obj 71 224 + 3;
#X connect 0 0 17 0;
#X connect 2 0 19 0;
#X connect 2 1 12 0;
#X connect 2 2 6 0;
#X connect 2 3 3 0;
#X connect 3 0 4 0;
#X connect 4 0 8 0;
#X connect 5 0 13 2;
#X connect 6 0 5 0;
#X connect 8 0 13 3;
#X connect 8 1 7 0;
#X connect 9 0 13 4;
#X connect 11 0 13 1;
#X connect 11 0 16 1;
#X connect 12 0 11 0;
#X connect 13 0 15 0;
#X connect 15 0 10 0;
#X connect 16 0 18 0;
#X connect 17 0 16 0;
#X connect 17 1 2 0;
#X connect 18 0 1 0;
#X connect 19 0 13 0;
#X restore 118 380 pd read array;
#X obj 145 410 moses;
#X obj 84 480 n_print 4;
#X msg 563 161 symbol \$1;
#X obj 165 437 t b b;
#X obj 33 33 cnv 15 200 15 empty ss-label 2.ss 3 8 0 11 -258113 -262144
0;
#X obj 414 260 s ss-label;
#N canvas 401 45 594 439 save 0;
#X obj 145 13 inlet;
#X obj 161 311 outlet;
#X obj 161 248 pack s s s;
#X msg 161 269 symbol \$1\$2\$3;
#N canvas 0 50 602 535 split 0;
#X obj 212 15 inlet;
#X obj 295 82 list fromsymbol;
#X obj 269 133 until;
#X obj 282 216 list store;
#X obj 307 159 + 1;
#X msg 321 133 0, f 2;
#X msg 268 198 get \$1 1;
#X obj 282 259 i;
#X obj 269 158 i;
#X obj 269 179 t f f;
#X obj 176 318 list split;
#X obj 236 299 i;
#X obj 204 343 list tosymbol;
#X obj 176 387 list tosymbol;
#X obj 137 103 list;
#X obj 212 36 t b b s;
#X obj 204 361 outlet;
#X obj 176 406 outlet;
#X obj 282 279 + 1;
#X obj 295 100 t b b l l;
#X obj 353 294 list length;
#X obj 282 237 sel 47;
#X connect 0 0 15 0;
#X connect 1 0 14 1;
#X connect 1 0 19 0;
#X connect 2 0 8 0;
#X connect 3 0 21 0;
#X connect 3 1 2 1;
#X connect 4 0 8 1;
#X connect 5 0 8 1;
#X connect 6 0 3 0;
#X connect 7 0 18 0;
#X connect 8 0 4 0;
#X connect 8 0 9 0;
#X connect 9 0 6 0;
#X connect 9 1 7 1;
#X connect 10 0 13 0;
#X connect 10 1 12 0;
#X connect 11 0 10 1;
#X connect 12 0 16 0;
#X connect 13 0 17 0;
#X connect 14 0 10 0;
#X connect 15 0 14 0;
#X connect 15 1 11 0;
#X connect 15 2 1 0;
#X connect 18 0 11 1;
#X connect 19 0 2 0;
#X connect 19 1 5 0;
#X connect 19 2 3 1;
#X connect 19 3 20 0;
#X connect 20 0 11 1;
#X connect 21 0 7 0;
#X restore 83 111 pd split '/';
#N canvas 0 50 602 535 split 0;
#X obj 212 15 inlet;
#X obj 295 82 list fromsymbol;
#X obj 269 133 until;
#X obj 282 216 list store;
#X obj 307 159 + 1;
#X msg 321 133 0, f 2;
#X msg 268 198 get \$1 1;
#X obj 282 259 i;
#X obj 269 158 i;
#X obj 269 179 t f f;
#X obj 176 318 list split;
#X obj 236 299 i;
#X obj 204 343 list tosymbol;
#X obj 176 387 list tosymbol;
#X obj 137 103 list;
#X obj 212 36 t b b s;
#X obj 204 361 outlet;
#X obj 176 406 outlet;
#X obj 282 279 + 1;
#X obj 295 100 t b b l l;
#X obj 353 294 list length;
#X obj 282 237 sel 46;
#X connect 0 0 15 0;
#X connect 1 0 14 1;
#X connect 1 0 19 0;
#X connect 2 0 8 0;
#X connect 3 0 21 0;
#X connect 3 1 2 1;
#X connect 4 0 8 1;
#X connect 5 0 8 1;
#X connect 6 0 3 0;
#X connect 7 0 18 0;
#X connect 8 0 4 0;
#X connect 8 0 9 0;
#X connect 9 0 6 0;
#X connect 9 1 7 1;
#X connect 10 0 13 0;
#X connect 10 1 12 0;
#X connect 11 0 10 1;
#X connect 12 0 16 0;
#X connect 13 0 17 0;
#X connect 14 0 10 0;
#X connect 15 0 14 0;
#X connect 15 1 11 0;
#X connect 15 2 1 0;
#X connect 18 0 11 1;
#X connect 19 0 2 0;
#X connect 19 1 5 0;
#X connect 19 2 3 1;
#X connect 19 3 20 0;
#X connect 20 0 11 1;
#X connect 21 0 7 0;
#X restore 152 146 pd split '.';
#X msg 433 192 symbol ss;
#X msg 310 185 symbol \$1.ss;
#X msg 220 185 symbol ss;
#X obj 266 155 sel ss;
#X obj 145 36 t a b;
#X connect 0 0 10 0;
#X connect 2 0 3 0;
#X connect 3 0 1 0;
#X connect 4 0 2 0;
#X connect 4 1 5 0;
#X connect 5 0 2 1;
#X connect 5 1 9 0;
#X connect 6 0 2 2;
#X connect 7 0 2 2;
#X connect 8 0 2 2;
#X connect 9 0 8 0;
#X connect 9 1 7 0;
#X connect 10 0 4 0;
#X connect 10 1 6 0;
#X restore 565 76 pd save as *.ss;
#X obj 225 467 s ss_init;
#X msg 427 236 label \$1;
#N canvas 0 50 602 535 split 0;
#X obj 212 15 inlet;
#X obj 295 82 list fromsymbol;
#X obj 269 133 until;
#X obj 282 216 list store;
#X obj 307 159 + 1;
#X msg 321 133 0, f 2;
#X msg 268 198 get \$1 1;
#X obj 282 259 i;
#X obj 269 158 i;
#X obj 269 179 t f f;
#X obj 176 318 list split;
#X obj 236 299 i;
#X obj 204 343 list tosymbol;
#X obj 176 387 list tosymbol;
#X obj 137 103 list;
#X obj 212 36 t b b s;
#X obj 204 361 outlet;
#X obj 176 406 outlet;
#X obj 282 279 + 1;
#X obj 295 100 t b b l l;
#X obj 353 294 list length;
#X obj 282 237 sel 47;
#X connect 0 0 15 0;
#X connect 1 0 14 1;
#X connect 1 0 19 0;
#X connect 2 0 8 0;
#X connect 3 0 21 0;
#X connect 3 1 2 1;
#X connect 4 0 8 1;
#X connect 5 0 8 1;
#X connect 6 0 3 0;
#X connect 7 0 18 0;
#X connect 8 0 4 0;
#X connect 8 0 9 0;
#X connect 9 0 6 0;
#X connect 9 1 7 1;
#X connect 10 0 13 0;
#X connect 10 1 12 0;
#X connect 11 0 10 1;
#X connect 12 0 16 0;
#X connect 13 0 17 0;
#X connect 14 0 10 0;
#X connect 15 0 14 0;
#X connect 15 1 11 0;
#X connect 15 2 1 0;
#X connect 18 0 11 1;
#X connect 19 0 2 0;
#X connect 19 1 5 0;
#X connect 19 2 3 1;
#X connect 19 3 20 0;
#X connect 20 0 11 1;
#X connect 21 0 7 0;
#X restore 353 215 pd split '/';
#X obj 71 432 symbol;
#X msg 76 461 SS: load \$1;
#X msg 538 403 SS: save \$1;
#X msg 321 158 set symbol \$1;
#X msg 472 176 symbol ...;
#X connect 0 0 14 0;
#X connect 1 0 16 0;
#X connect 2 0 56 0;
#X connect 5 0 4 0;
#X connect 5 1 24 0;
#X connect 7 0 6 0;
#X connect 7 1 23 0;
#X connect 9 0 8 0;
#X connect 9 1 25 0;
#X connect 10 0 3 0;
#X connect 13 0 41 0;
#X connect 14 0 76 0;
#X connect 15 0 16 0;
#X connect 15 1 19 0;
#X connect 16 0 72 0;
#X connect 17 0 16 0;
#X connect 18 0 17 0;
#X connect 18 0 84 0;
#X connect 19 0 16 0;
#X connect 21 0 7 0;
#X connect 21 1 22 0;
#X connect 22 0 5 0;
#X connect 22 1 10 0;
#X connect 23 0 6 1;
#X connect 24 0 4 1;
#X connect 25 0 8 1;
#X connect 26 0 27 0;
#X connect 26 1 29 1;
#X connect 28 0 29 0;
#X connect 29 0 37 0;
#X connect 30 0 31 0;
#X connect 31 0 32 0;
#X connect 32 1 9 0;
#X connect 37 0 38 0;
#X connect 37 1 30 0;
#X connect 38 0 11 0;
#X connect 40 0 39 0;
#X connect 41 0 40 0;
#X connect 41 1 26 0;
#X connect 41 2 21 0;
#X connect 45 0 82 0;
#X connect 45 0 58 0;
#X connect 45 1 49 0;
#X connect 45 2 50 0;
#X connect 45 3 46 0;
#X connect 45 4 47 0;
#X connect 47 0 48 0;
#X connect 50 0 51 0;
#X connect 51 0 53 0;
#X connect 52 0 54 1;
#X connect 53 0 54 0;
#X connect 53 1 52 0;
#X connect 56 0 60 0;
#X connect 58 0 57 0;
#X connect 60 0 66 0;
#X connect 60 1 65 0;
#X connect 60 2 61 0;
#X connect 60 2 68 0;
#X connect 60 3 59 0;
#X connect 60 3 83 0;
#X connect 60 3 79 0;
#X connect 60 3 80 1;
#X connect 61 0 62 0;
#X connect 62 0 63 0;
#X connect 62 0 70 1;
#X connect 63 0 64 0;
#X connect 66 0 69 0;
#X connect 68 0 66 1;
#X connect 69 0 70 0;
#X connect 70 0 66 0;
#X connect 70 1 73 0;
#X connect 72 0 45 0;
#X connect 72 0 79 0;
#X connect 73 0 80 0;
#X connect 73 1 77 0;
#X connect 76 0 15 0;
#X connect 78 0 75 0;
#X connect 79 1 78 0;
#X connect 80 0 81 0;
#X connect 81 0 71 0;
#X connect 82 0 55 0;
#X connect 83 0 16 0;
#X connect 84 0 78 0;
#X coords 0 -1 1 1 206 40 2 30 30;
