#N canvas 316 37 1318 584 10;
#X obj 35 51 bng 15 250 50 0 empty empty Save_as 17 7 0 10 -260097
-1 -1;
#X obj 101 51 bng 15 250 50 0 empty empty Save 17 7 0 10 -260097 -1
-1;
#X obj 165 51 bng 15 250 50 0 empty empty Load 17 7 0 10 -257985 -1
-1;
#X obj 1177 253 n_array;
#X obj 1103 280 tabwrite ss-buffer;
#X obj 1105 213 t f b;
#X obj 1007 315 tabwrite ss-buffer;
#X obj 1009 255 t f b;
#X obj 935 368 tabwrite ss-buffer;
#X obj 937 316 t f b;
#X msg 1177 235 resize ss-buffer 3;
#X obj 841 412 n_array;
#X obj 411 22 table ss-buffer;
#X obj 901 129 r ss-get-array-receive;
#X obj 576 67 savepanel;
#X obj 576 88 t b a;
#X msg 563 140;
#X msg 716 117 set;
#X obj 717 96 loadbang;
#X msg 609 110 set symbol \$1;
#X obj 509 22 table ss-main;
#X obj 1024 161 unpack f f;
#X obj 1105 189 t f b;
#X msg 1035 279 0;
#X msg 1131 259 1;
#X msg 963 342 2;
#X obj 919 189 unpack f f;
#X obj 884 210 s ss-get-dollarzero;
#X obj 842 230 r ss-get-dollarzero-receive;
#X obj 845 249 pack f f;
#X msg 877 297 size \$1-ss-\$2;
#X obj 877 318 n_array;
#X obj 877 339 t f f;
#X text 1200 208 resize:;
#X text 1225 284 arrray;
#X text 1127 322 ins;
#X text 1057 368 size;
#X obj 845 270 t a a;
#X msg 841 393 concat \$1-ss-\$2 ss-buffer;
#X obj 758 204 n_array;
#X msg 758 185 concat ss-buffer ss-main;
#X obj 913 159 t b a a;
#X text 913 416 to buffer;
#X text 777 226 to main;
#X text 915 104 write array's to main;
#X obj 563 181 t s s b b b;
#X obj 612 240 s ss-get-array;
#X msg 635 201 resize ss-main 1;
#X obj 635 220 n_array;
#X msg 555 373 \; ss-main write \$1;
#X msg 592 267 size ss-main;
#X obj 592 288 n_array;
#X msg 602 331 0;
#X obj 592 309 t f b;
#X obj 574 353 tabwrite ss-main;
#X obj 538 424 n_print 4;
#X msg 538 403 SS: save to: \$1;
#X obj 149 132 openpanel;
#X obj 499 463 n_array;
#X msg 499 445 resize ss-buffer 1 \, resize ss-main 1;
#X msg 201 173 \; ss-main read \$1;
#X obj 149 153 t b a b a;
#X msg 182 207 0;
#X obj 182 228 tabread ss-main;
#X msg 182 249 resize ss-main \$1;
#X obj 182 270 n_array;
#X msg 160 288 \; ss-main read \$1;
#X obj 126 354 i;
#X text 160 354 <- count;
#X msg 142 322 1;
#N canvas 255 111 439 528 read 0;
#X obj 75 44 inlet;
#X obj 27 436 outlet;
#X obj 111 121 t f f f f;
#X obj 205 139 + 0;
#X obj 205 160 tabread ss-main;
#X obj 151 220 tabread ss-main;
#X obj 151 199 + 1;
#X obj 244 200 s ss-get-dollarzero;
#X obj 205 181 t f f;
#X obj 224 240 r ss-get-dollarzero-receive;
#X obj 64 365 n_array;
#X obj 87 290 tabread ss-main;
#X obj 87 269 + 2;
#X obj 64 323 pack f f f f f;
#X text 176 317 ofset \, size \, array \, ins \, dollarzero;
#X msg 64 344 copy ss-main \$5-ss-\$3 \$1 \$2;
#X obj 35 391 +;
#X obj 83 93 t f f;
#X obj 35 412 + 3;
#X obj 71 224 + 3;
#X connect 0 0 17 0;
#X connect 2 0 19 0;
#X connect 2 1 12 0;
#X connect 2 2 6 0;
#X connect 2 3 3 0;
#X connect 3 0 4 0;
#X connect 4 0 8 0;
#X connect 5 0 13 2;
#X connect 6 0 5 0;
#X connect 8 0 13 3;
#X connect 8 1 7 0;
#X connect 9 0 13 4;
#X connect 11 0 13 1;
#X connect 11 0 16 1;
#X connect 12 0 11 0;
#X connect 13 0 15 0;
#X connect 15 0 10 0;
#X connect 16 0 18 0;
#X connect 17 0 16 0;
#X connect 17 1 2 0;
#X connect 18 0 1 0;
#X connect 19 0 13 0;
#X restore 118 380 pd read array;
#X obj 145 410 moses;
#X msg 76 461 SS: load done;
#X obj 84 480 n_print 4;
#X msg 563 161 symbol \$1;
#X obj 165 437 t b b;
#X obj 225 467 outlet init;
#X obj 33 33 cnv 15 200 15 empty ss-label Song123-12321-213.ss 3 8
0 11 -258113 -262144 0;
#X obj 337 217 s ss-label;
#X msg 345 179 label Song123-12321-213.ss;
#X obj 410 511 print;
#X msg 297 343 symbol /m/data/afrwess.exe;
#X msg 319 373 symbol /m/data/afss;
#N canvas 401 45 450 300 save 0;
#X obj 145 13 inlet;
#X obj 127 247 outlet;
#N canvas 801 45 472 602 split 0;
#X obj 118 99 inlet;
#X obj 183 156 list fromsymbol;
#X obj 175 217 until;
#X obj 188 300 list store;
#X obj 201 184 t b b l;
#X obj 213 243 + 1;
#X msg 227 217 0, f 2;
#X msg 174 282 get \$1 1;
#X obj 186 348 i;
#X obj 175 242 i;
#X obj 175 263 t f f;
#X obj 82 402 list split;
#X obj 118 120 t s b s;
#X obj 142 358 i;
#X obj 182 434 list tosymbol;
#X obj 43 188 list fromsymbol;
#X obj 28 436 list tosymbol;
#X obj 142 379 + 1;
#X text 240 334 46 = '.';
#X obj 188 321 sel 46;
#X obj 19 462 outlet;
#X obj 216 470 outlet;
#X connect 0 0 12 0;
#X connect 1 0 4 0;
#X connect 2 0 9 0;
#X connect 3 0 19 0;
#X connect 3 1 2 1;
#X connect 4 0 2 0;
#X connect 4 1 6 0;
#X connect 4 2 3 1;
#X connect 5 0 9 1;
#X connect 6 0 9 1;
#X connect 7 0 3 0;
#X connect 8 0 13 1;
#X connect 9 0 5 0;
#X connect 9 0 10 0;
#X connect 10 0 7 0;
#X connect 10 1 8 1;
#X connect 11 0 16 0;
#X connect 11 1 14 0;
#X connect 12 0 15 0;
#X connect 12 1 13 0;
#X connect 12 2 1 0;
#X connect 13 0 17 0;
#X connect 14 0 21 0;
#X connect 15 0 11 0;
#X connect 16 0 20 0;
#X connect 17 0 11 1;
#X connect 19 0 8 0;
#X restore 209 96 pd split file extension;
#N canvas 801 45 472 602 split 0;
#X obj 118 99 inlet;
#X obj 183 156 list fromsymbol;
#X text 240 334 47 = '/';
#X obj 175 217 until;
#X obj 188 300 list store;
#X obj 201 184 t b b l;
#X obj 213 243 + 1;
#X msg 227 217 0, f 2;
#X msg 174 282 get \$1 1;
#X obj 186 348 i;
#X obj 175 242 i;
#X obj 175 263 t f f;
#X obj 188 321 sel 47;
#X obj 19 462 outlet path;
#X obj 216 470 outlet file;
#X obj 82 402 list split;
#X obj 118 120 t s b s;
#X obj 142 358 i;
#X obj 182 434 list tosymbol;
#X obj 43 188 list fromsymbol;
#X obj 28 436 list tosymbol;
#X obj 142 379 + 1;
#X connect 0 0 16 0;
#X connect 1 0 5 0;
#X connect 3 0 10 0;
#X connect 4 0 12 0;
#X connect 4 1 3 1;
#X connect 5 0 3 0;
#X connect 5 1 7 0;
#X connect 5 2 4 1;
#X connect 6 0 10 1;
#X connect 7 0 10 1;
#X connect 8 0 4 0;
#X connect 9 0 17 1;
#X connect 10 0 6 0;
#X connect 10 0 11 0;
#X connect 11 0 8 0;
#X connect 11 1 9 1;
#X connect 12 0 9 0;
#X connect 15 0 20 0;
#X connect 15 1 18 0;
#X connect 16 0 19 0;
#X connect 16 1 17 0;
#X connect 16 2 1 0;
#X connect 17 0 21 0;
#X connect 18 0 14 0;
#X connect 19 0 15 0;
#X connect 20 0 13 0;
#X connect 21 0 15 1;
#X restore 105 74 pd split file name;
#X msg 321 152 set \$1;
#X obj 145 34 t b a b;
#X obj 135 128 t b b b;
#X obj 135 198 pack s s s;
#X obj 365 203 symbol;
#X obj 107 165 symbol;
#X msg 135 219 symbol \$1\$2\$3;
#X obj 317 44 print EX;
#X obj 259 26 print FILE;
#X obj 61 142 print PATH;
#X msg 365 98 set ss;
#X msg 365 182 exe;
#X msg 46 192 symbol;
#X connect 0 0 5 0;
#X connect 2 0 7 1;
#X connect 2 0 12 0;
#X connect 2 1 4 0;
#X connect 2 1 11 0;
#X connect 3 0 9 1;
#X connect 3 0 13 0;
#X connect 3 1 2 0;
#X connect 4 0 15 0;
#X connect 5 0 6 0;
#X connect 5 1 3 0;
#X connect 5 2 14 0;
#X connect 5 2 16 0;
#X connect 6 0 9 0;
#X connect 6 2 15 0;
#X connect 7 0 10 0;
#X connect 8 0 7 2;
#X connect 9 0 7 0;
#X connect 10 0 1 0;
#X connect 14 0 15 0;
#X connect 15 0 8 0;
#X connect 16 0 7 1;
#X connect 16 0 7 2;
#X restore 343 462 pd save as *.ss;
#X msg 337 419 symbol /m/data/;
#X connect 0 0 14 0;
#X connect 1 0 16 0;
#X connect 2 0 57 0;
#X connect 5 0 4 0;
#X connect 5 1 24 0;
#X connect 7 0 6 0;
#X connect 7 1 23 0;
#X connect 9 0 8 0;
#X connect 9 1 25 0;
#X connect 10 0 3 0;
#X connect 13 0 41 0;
#X connect 14 0 15 0;
#X connect 15 0 16 0;
#X connect 15 1 19 0;
#X connect 16 0 74 0;
#X connect 17 0 16 0;
#X connect 18 0 17 0;
#X connect 19 0 16 0;
#X connect 21 0 7 0;
#X connect 21 1 22 0;
#X connect 22 0 5 0;
#X connect 22 1 10 0;
#X connect 23 0 6 1;
#X connect 24 0 4 1;
#X connect 25 0 8 1;
#X connect 26 0 27 0;
#X connect 26 1 29 1;
#X connect 28 0 29 0;
#X connect 29 0 37 0;
#X connect 30 0 31 0;
#X connect 31 0 32 0;
#X connect 32 1 9 0;
#X connect 37 0 38 0;
#X connect 37 1 30 0;
#X connect 38 0 11 0;
#X connect 40 0 39 0;
#X connect 41 0 40 0;
#X connect 41 1 26 0;
#X connect 41 2 21 0;
#X connect 45 0 56 0;
#X connect 45 0 59 0;
#X connect 45 1 49 0;
#X connect 45 2 50 0;
#X connect 45 3 46 0;
#X connect 45 4 47 0;
#X connect 47 0 48 0;
#X connect 50 0 51 0;
#X connect 51 0 53 0;
#X connect 52 0 54 1;
#X connect 53 0 54 0;
#X connect 53 1 52 0;
#X connect 56 0 55 0;
#X connect 57 0 61 0;
#X connect 59 0 58 0;
#X connect 61 0 67 0;
#X connect 61 1 66 0;
#X connect 61 2 62 0;
#X connect 61 2 69 0;
#X connect 61 3 60 0;
#X connect 62 0 63 0;
#X connect 63 0 64 0;
#X connect 63 0 71 1;
#X connect 64 0 65 0;
#X connect 67 0 70 0;
#X connect 69 0 67 1;
#X connect 70 0 71 0;
#X connect 71 0 67 0;
#X connect 71 1 75 0;
#X connect 72 0 73 0;
#X connect 74 0 45 0;
#X connect 75 0 72 0;
#X connect 75 1 76 0;
#X connect 79 0 78 0;
#X connect 81 0 83 0;
#X connect 82 0 83 0;
#X connect 83 0 80 0;
#X connect 84 0 83 0;
#X coords 0 -1 1 1 206 40 2 30 30;
