#N canvas 562 68 680 472 12;
#X text 417 249 save state.;
#X text 165 343 load state.;
#X obj 267 162 r \$1-load-state-par;
#X obj 267 183 + \$3;
#X obj 281 236 r \$1-s-\$3;
#X obj 267 352 s \$1-r-\$3;
#X text 265 46 2) number array;
#X text 265 66 3) number parametr;
#X obj 281 258 tabwrite \$1-ss-\$2;
#X obj 267 331 tabread \$1-ss-\$2;
#X obj 267 207 t f f, f 19;
#X text 265 26 1) dollarzero;
#X connect 2 0 3 0;
#X connect 3 0 10 0;
#X connect 4 0 8 0;
#X connect 9 0 5 0;
#X connect 10 0 9 0;
#X connect 10 1 8 1;
