#N canvas 154 104 1015 442 10;
#X obj 53 389 sss_par;
#X obj 220 251 example2 \$0 1;
#X obj 220 179 example1 \$0 34;
#X obj 220 107 example1 \$0 7;
#X obj 220 323 example3 \$0 12;
#X obj 27 119 sss_main \$0;
#X obj 27 43 hradio 17 1 0 8 empty empty snap 0 -9 0 10 #fcfcfc #000000 #000000 0;
#X msg 184 28 7;
#X msg 174 8 1;
#X msg 194 48 12;
#X msg 204 68 34;
#X obj 27 65 pack f f, f 25;
#X msg 27 87 snap \$2 \$1;
#X obj 712 63 hsl 145 17 0 1 0 0 empty empty auto -2 -9 0 10 #bbbbbb #000000 #000000 0 1;
#X obj 646 84 sss_auto \$0;
#X obj 748 86 cnv 10 160 10 empty \$0-cnv0 example1:4:hsl:par_5 2 6 0 8 #bbbbbb #000000 0;
#X obj 922 145 s \$0-cnv0;
#X obj 107 389 sss_ar;
#X obj 67 415 sss_auto \$0, f 13;
#X obj 675 145 bng 15 250 50 0 empty empty empty 0 -9 0 10 #fcfcfc #fcfcfc #fc2828;
#X obj 724 145 nbx 4 15 0 1e+37 0 1 empty empty id 8 -9 0 10 #bbbbbb #000000 #000000 1796 256;
#X obj 774 145 nbx 4 15 0 127 0 1 empty empty min 8 -9 0 10 #bbbbbb #000000 #000000 0 256;
#X obj 823 145 nbx 4 15 0 127 0 1 empty empty max 8 -9 0 10 #bbbbbb #000000 #000000 127 256;
#X obj 873 145 nbx 4 15 0 3 0 1 empty empty step 8 -9 0 10 #bbbbbb #000000 #000000 0.01 256;
#X obj 675 108 route rec id min max step cnv, f 50;
#X msg 675 162 rec;
#X msg 724 162 id \$1;
#X msg 774 162 min \$1;
#X msg 823 162 max \$1;
#X msg 873 162 step \$1;
#N canvas 455 216 450 300 (subpatch) 0;
#X obj 105 46 inlet;
#X obj 105 68 outlet;
#X connect 0 0 1 0;
#X restore 646 179 pd;
#X obj 706 236 hsl 145 17 0 1 0 0 empty empty auto -2 -9 0 10 #bbbbbb #000000 #000000 0 1;
#X obj 640 257 sss_auto \$0;
#X obj 742 259 cnv 10 160 10 empty \$0-cnv1 example2:6:vrd:empty 2 6 0 8 #bbbbbb #000000 0;
#X obj 669 318 bng 15 250 50 0 empty empty empty 0 -9 0 10 #fcfcfc #fcfcfc #fc2828;
#X obj 718 318 nbx 4 15 0 1e+37 0 1 empty empty id 8 -9 0 10 #bbbbbb #000000 #000000 262 256;
#X obj 768 318 nbx 4 15 0 3 0 1 empty empty min 8 -9 0 10 #bbbbbb #000000 #000000 0 256;
#X obj 817 318 nbx 4 15 0 3 0 1 empty empty max 8 -9 0 10 #bbbbbb #000000 #000000 3 256;
#X obj 867 318 nbx 4 15 0 3 0 1 empty empty step 8 -9 0 10 #bbbbbb #000000 #000000 1 256;
#X obj 669 281 route rec id min max step cnv, f 50;
#X msg 669 335 rec;
#X msg 718 335 id \$1;
#X msg 768 335 min \$1;
#X msg 817 335 max \$1;
#X msg 867 335 step \$1;
#N canvas 455 216 450 300 (subpatch) 0;
#X obj 105 46 inlet;
#X obj 105 68 outlet;
#X connect 0 0 1 0;
#X restore 640 352 pd;
#X obj 916 318 s \$0-cnv1;
#X connect 6 0 11 0;
#X connect 7 0 11 1;
#X connect 8 0 11 1;
#X connect 9 0 11 1;
#X connect 10 0 11 1;
#X connect 11 0 12 0;
#X connect 12 0 5 0;
#X connect 13 0 14 1;
#X connect 14 0 24 0;
#X connect 19 0 25 0;
#X connect 20 0 26 0;
#X connect 21 0 27 0;
#X connect 22 0 28 0;
#X connect 23 0 29 0;
#X connect 24 0 19 0;
#X connect 24 1 20 0;
#X connect 24 2 21 0;
#X connect 24 3 22 0;
#X connect 24 4 23 0;
#X connect 24 5 16 0;
#X connect 25 0 30 0;
#X connect 26 0 30 0;
#X connect 27 0 30 0;
#X connect 28 0 30 0;
#X connect 29 0 30 0;
#X connect 30 0 14 0;
#X connect 31 0 32 1;
#X connect 32 0 39 0;
#X connect 34 0 40 0;
#X connect 35 0 41 0;
#X connect 36 0 42 0;
#X connect 37 0 43 0;
#X connect 38 0 44 0;
#X connect 39 0 34 0;
#X connect 39 1 35 0;
#X connect 39 2 36 0;
#X connect 39 3 37 0;
#X connect 39 4 38 0;
#X connect 39 5 46 0;
#X connect 40 0 45 0;
#X connect 41 0 45 0;
#X connect 42 0 45 0;
#X connect 43 0 45 0;
#X connect 44 0 45 0;
#X connect 45 0 32 0;
