#N canvas 434 101 492 531 12;
#X declare -path pdpython;
#X obj 73 63 inlet;
#X obj 214 330 outlet;
#X obj 133 20 loadbang;
#X obj 24 485 declare -path pdpython;
#X msg 133 42 init;
#X obj 6 261 print;
#X obj 120 370 s;
#X obj 73 391 print SSS;
#X obj 187 70 r \$1-sss-get-info-par-return;
#X obj 212 119 r \$1-sss-get-info-array-return;
#X obj 180 44 r \$1-sss-loop;
#X obj 167 351 symbol;
#X obj 73 255 pdpython sss_class SSSClass \$1;
#X obj 195 95 r \$1-sss-get-info-par-local-return;
#X obj 261 302 savestate;
#X obj 73 280 route print msg send out savestate;
#X obj 261 360 list prepend savestate;
#X msg 321 325 save;
#X connect 0 0 12 0;
#X connect 2 0 4 0;
#X connect 4 0 12 0;
#X connect 8 0 12 0;
#X connect 9 0 12 0;
#X connect 10 0 12 0;
#X connect 11 0 6 1;
#X connect 12 0 15 0;
#X connect 13 0 12 0;
#X connect 14 0 16 0;
#X connect 14 1 17 0;
#X connect 15 0 7 0;
#X connect 15 1 6 0;
#X connect 15 2 11 0;
#X connect 15 3 1 0;
#X connect 15 4 14 0;
#X connect 16 0 12 0;
#X connect 17 0 12 0;
#X coords 0 531 1 530 206 40 0;
