#N canvas 819 -27 541 542 12;
#X declare -path pdpython;
#X obj 73 64 inlet;
#X obj 196 321 outlet;
#X obj 423 210 loadbang;
#X obj 78 480 declare -path pdpython;
#X obj 73 256 pdpython sss_class SSSClass;
#X msg 430 237 init;
#X obj 15 212 print;
#X obj 114 321 s, f 6;
#X obj 73 344 print SSS;
#X obj 73 281 route print msg send out;
#X obj 164 22 r \$1-sss-get-info-par-return;
#X obj 196 49 r \$1-sss-get-info-par-return-auto;
#X obj 158 81 r \$1-sss-get-info-array-return;
#X obj 197 364 bng 19 250 50 0 empty empty empty 0 -10 0 12 #fcfcfc #000000 #000000;
#X obj 198 408 s \$1-sss-get-info-par;
#X obj 275 444 bng 19 250 50 0 empty empty empty 0 -10 0 12 #fcfcfc #000000 #000000;
#X obj 276 488 s \$1-sss-get-info-array;
#X obj 191 115 list prepend get-info-par;
#X obj 210 146 list prepend get-info-array;
#X connect 0 0 4 0;
#X connect 2 0 5 0;
#X connect 4 0 9 0;
#X connect 5 0 4 0;
#X connect 9 0 8 0;
#X connect 9 1 7 0;
#X connect 9 2 7 1;
#X connect 9 3 1 0;
#X connect 10 0 6 0;
#X connect 10 0 17 0;
#X connect 12 0 6 0;
#X connect 12 0 18 0;
#X connect 13 0 14 0;
#X connect 15 0 16 0;
#X connect 17 0 4 0;
#X connect 18 0 4 0;
#X coords 0 542 1 541 206 40 0;
