#N canvas 331 -21 1100 464 10;
#X declare -path pdpython;
#X obj 528 265 inlet;
#X obj 790 258 loadbang;
#X obj 112 296 declare -path pdpython;
#X msg 790 419 init;
#X obj 64 371 s;
#X obj 328 323 r \$1-sss-get-info-par-return;
#X obj 328 345 r \$1-sss-get-info-array-return;
#X obj 328 297 r \$1-sss-loop;
#X obj 379 394 r \$1-sss-get-info-par-local-return;
#X obj 353 37 savestate;
#X obj 64 335 route msg send;
#X obj 104 354 symbol;
#X obj 897 66 openpanel;
#X obj 788 66 savepanel;
#X obj 442 54 bng 12 250 50 0 empty empty save 16 5 0 10 #fcfcfc #000000 #000000;
#X obj 702 85 s \$0-to;
#X obj 788 104 s \$0-to;
#X obj 897 104 s \$0-to;
#X obj 817 318 n_cnvinfo;
#X obj 817 337 route name;
#X msg 817 299 canvas 1;
#X obj 817 356 symbol;
#X obj 790 280 t b b;
#X obj 64 315 pdpython sss_class SSSClass \$1;
#N canvas 455 216 450 300 (subpatch) 0;
#X obj 101 101 cnv 12 158 12 empty \$0-cnv-abs-name Abc 2 6 0 10 #bbbbbb #000000 0;
#X coords 0 -1 1 1 160 14 2 100 100;
#X restore 440 24 pd;
#N canvas 455 216 450 300 (subpatch) 0;
#X obj 101 101 cnv 12 158 12 empty \$0-cnv-project-name Abc 2 6 0 10 #bbbbbb #000000 0;
#X coords 0 -1 1 1 160 14 2 100 100;
#X restore 440 38 pd;
#N canvas 455 216 450 300 (subpatch) 0;
#X obj 101 101 cnv 12 158 12 empty \$0-cnv-ins-name Abc 2 6 0 10 #bbbbbb #000000 0;
#X coords 0 -1 1 1 160 14 2 100 100;
#X restore 440 68 pd;
#X obj 620 330 s \$0-to;
#X obj 817 394 s \$0-to;
#X obj 790 438 s \$0-to;
#X obj 488 54 bng 12 250 50 0 empty empty save\ as 16 5 0 10 #fcfcfc #000000 #000000;
#X obj 556 54 bng 12 250 50 0 empty empty open 16 5 0 10 #fcfcfc #000000 #000000;
#X obj 328 407 s \$0-to;
#X obj 528 284 s \$0-to;
#X obj 64 296 r \$0-to;
#X obj 440 97 hradio 20 1 0 8 empty empty bank 2 -7 0 10 #fcfcfc #000000 #000000 0;
#X obj 440 132 hradio 20 1 0 8 empty empty snap 2 -7 0 10 #fcfcfc #000000 #000000 0;
#X obj 442 154 bng 12 250 50 0 empty empty c 16 5 0 10 #fcfcfc #000000 #000000;
#X obj 475 154 bng 12 250 50 0 empty empty p 16 5 0 10 #fcfcfc #000000 #000000;
#X obj 507 154 bng 12 250 50 0 empty empty save 16 5 0 10 #fcfcfc #000000 #000000;
#X obj 554 154 bng 12 250 50 0 empty empty open 16 5 0 10 #fcfcfc #000000 #000000;
#N canvas 342 118 676 496 (subpatch) 0;
#X obj 100 100 bng 12 250 50 0 empty empty empty 17 7 0 10 #ffffff #000000 #000000;
#X obj 112 100 nbx 3 12 0 100 0 0 empty empty empty 0 -8 0 10 #ffffff #000000 #000000 0 256;
#X obj 125 132 * 0.01;
#X obj 147 100 tgl 12 0 empty empty empty 17 7 0 10 #ffffff #000000 #000000 0 1;
#X obj 92 153 pack f f f;
#X obj 92 187 outlet;
#X connect 0 0 4 0;
#X connect 1 0 2 0;
#X connect 2 0 4 1;
#X connect 3 0 4 2;
#X connect 4 0 5 0;
#X coords 0 -1 1 1 59 12 2 100 100;
#X restore 442 169 pd;
#X obj 99 212 s \$0-to;
#X text 502 166 rand nbx;
#N canvas 342 118 676 496 (subpatch) 0;
#X obj 100 100 bng 12 250 50 0 empty empty empty 17 7 0 10 #ffffff #000000 #000000;
#X obj 112 100 nbx 3 12 0 100 0 0 empty empty empty 0 -8 0 10 #ffffff #000000 #000000 0 256;
#X obj 125 132 * 0.01;
#X obj 147 100 tgl 12 0 empty empty empty 17 7 0 10 #ffffff #000000 #000000 0 1;
#X obj 92 153 pack f f f;
#X obj 92 187 outlet;
#X connect 0 0 4 0;
#X connect 1 0 2 0;
#X connect 2 0 4 1;
#X connect 3 0 4 2;
#X connect 4 0 5 0;
#X coords 0 -1 1 1 59 12 2 100 100;
#X restore 442 181 pd;
#N canvas 342 118 676 496 (subpatch) 0;
#X obj 100 100 bng 12 250 50 0 empty empty empty 17 7 0 10 #ffffff #000000 #000000;
#X obj 112 100 nbx 3 12 0 100 0 0 empty empty empty 0 -8 0 10 #ffffff #000000 #000000 0 256;
#X obj 125 132 * 0.01;
#X obj 92 187 outlet;
#X obj 92 153 pack f f;
#X connect 0 0 4 0;
#X connect 1 0 2 0;
#X connect 2 0 4 1;
#X connect 4 0 3 0;
#X coords 0 -1 1 1 47 12 2 100 100;
#X restore 442 205 pd;
#N canvas 342 118 676 496 (subpatch) 0;
#X obj 100 100 bng 12 250 50 0 empty empty empty 17 7 0 10 #ffffff #000000 #000000;
#X obj 112 100 nbx 3 12 0 100 0 0 empty empty empty 0 -8 0 10 #ffffff #000000 #000000 0 256;
#X obj 125 132 * 0.01;
#X obj 147 100 tgl 12 0 empty empty empty 17 7 0 10 #ffffff #000000 #000000 0 1;
#X obj 92 153 pack f f f;
#X obj 92 187 outlet;
#X connect 0 0 4 0;
#X connect 1 0 2 0;
#X connect 2 0 4 1;
#X connect 3 0 4 2;
#X connect 4 0 5 0;
#X coords 0 -1 1 1 59 12 2 100 100;
#X restore 442 217 pd;
#X text 502 190 rand radio;
#X text 502 202 rand tgl;
#X text 502 214 rand knob;
#N canvas 342 118 676 496 (subpatch) 0;
#X obj 100 100 bng 12 250 50 0 empty empty empty 17 7 0 10 #ffffff #000000 #000000;
#X obj 112 100 nbx 3 12 0 100 0 0 empty empty empty 0 -8 0 10 #ffffff #000000 #000000 0 256;
#X obj 125 132 * 0.01;
#X obj 92 187 outlet;
#X obj 92 153 pack f f;
#X connect 0 0 4 0;
#X connect 1 0 2 0;
#X connect 2 0 4 1;
#X connect 4 0 3 0;
#X coords 0 -1 1 1 47 12 2 100 100;
#X restore 442 193 pd;
#X msg 606 166 snap_copy;
#X msg 686 166 snap_paste;
#X msg 781 185 snap_save \$1;
#X msg 884 185 snap_open \$1;
#X obj 781 166 savepanel;
#X obj 884 166 openpanel;
#X obj 686 185 s \$0-to;
#X obj 620 292 r \$1-sss-focus;
#X msg 620 311 focus \$1;
#X msg 702 66 pro_save;
#X msg 788 85 pro_save_as \$1;
#X msg 897 85 pro_open \$1;
#X obj 884 204 s \$0-to;
#X obj 781 204 s \$0-to;
#X obj 606 185 s \$0-to;
#X obj 11 200 s \$0-to;
#X msg 209 205 rnd radio \$2;
#X msg 292 217 rnd tgl \$2;
#X msg 363 229 rnd knob \$2 \$3;
#X obj 209 224 s \$0-to;
#X obj 292 236 s \$0-to;
#X obj 363 248 s \$0-to;
#X msg 11 181 rnd nbx \$2 \$3;
#X text 502 178 rand slider;
#X msg 99 193 rnd slider \$2 \$3;
#X obj 971 171 s \$0-to;
#X msg 971 152 snap \$1;
#X obj 347 136 s \$0-to;
#X msg 347 117 bank \$1;
#X msg 817 375 abs_name \$1;
#X obj 244 380 print;
#X connect 0 0 33 0;
#X connect 1 0 22 0;
#X connect 3 0 29 0;
#X connect 5 0 32 0;
#X connect 5 0 81 0;
#X connect 6 0 32 0;
#X connect 6 0 81 0;
#X connect 7 0 32 0;
#X connect 8 0 32 0;
#X connect 9 1 14 0;
#X connect 10 0 4 0;
#X connect 10 1 11 0;
#X connect 11 0 4 1;
#X connect 12 0 62 0;
#X connect 13 0 61 0;
#X connect 14 0 60 0;
#X connect 18 0 19 0;
#X connect 19 0 21 0;
#X connect 20 0 18 0;
#X connect 21 0 80 0;
#X connect 22 0 3 0;
#X connect 22 1 20 0;
#X connect 23 0 10 0;
#X connect 30 0 13 0;
#X connect 31 0 12 0;
#X connect 34 0 23 0;
#X connect 35 0 79 0;
#X connect 36 0 77 0;
#X connect 37 0 51 0;
#X connect 38 0 52 0;
#X connect 39 0 55 0;
#X connect 40 0 56 0;
#X connect 41 0 73 0;
#X connect 44 0 75 0;
#X connect 45 0 68 0;
#X connect 46 0 69 0;
#X connect 50 0 67 0;
#X connect 51 0 65 0;
#X connect 52 0 57 0;
#X connect 53 0 64 0;
#X connect 54 0 63 0;
#X connect 55 0 53 0;
#X connect 56 0 54 0;
#X connect 58 0 59 0;
#X connect 59 0 27 0;
#X connect 60 0 15 0;
#X connect 61 0 16 0;
#X connect 62 0 17 0;
#X connect 67 0 70 0;
#X connect 68 0 71 0;
#X connect 69 0 72 0;
#X connect 73 0 66 0;
#X connect 75 0 42 0;
#X connect 77 0 76 0;
#X connect 79 0 78 0;
#X connect 80 0 28 0;
#X coords 0 -1 1 1 160 222 1 440 10;
