#N canvas 292 -54 776 841 10;
#X obj 303 62 bng 15 250 50 0 empty empty open 20 7 0 10 #fcfcfc #000000 #000000;
#X obj 161 285 openpanel;
#X obj 303 47 bng 15 250 50 0 empty empty save_as 20 7 0 10 #fcfcfc #000000 #000000;
#X obj 160 239 savepanel;
#X msg 117 309 open \$1;
#X msg 117 217 save;
#X msg 117 266 save_as \$1;
#X obj 307 98 hradio 12 1 1 8 empty empty ins_num 0 -9 0 10 #fcfcfc #000000 #000000 0;
#X obj 537 204 s \$0-ins-num;
#X obj 291 430 r \$0-ins-num;
#X obj 303 182 bng 15 250 50 0 empty empty save_ins_as 20 7 0 10 #fcfcfc #000000 #000000;
#X obj 189 327 savepanel;
#X obj 189 355 pack s f;
#X obj 303 197 bng 15 250 50 0 empty empty open_ins 20 7 0 10 #fcfcfc #000000 #000000;
#X obj 187 432 pack s f;
#X msg 124 457 open_ins \$1 \$2;
#X msg 117 383 save_ins_as \$1 \$2;
#X obj 187 407 openpanel;
#X msg 117 532 copy_ins \$1 \$2;
#X obj 308 143 hradio 12 1 1 8 empty empty snap 0 -9 0 10 #fcfcfc #000000 #000000 0;
#X obj 534 236 s \$0-snap;
#X obj 298 524 r \$0-snap;
#X obj 148 503 pack f f;
#X obj 148 483 f;
#X obj 303 219 bng 15 250 50 0 empty empty copy_ins 20 7 0 10 #fcfcfc #000000 #000000;
#X obj 139 576 pack f f;
#X obj 139 556 f;
#X obj 303 234 bng 15 250 50 0 empty empty paste_ins 20 7 0 10 #fcfcfc #000000 #000000;
#X msg 121 599 paste_ins \$1 \$2;
#X obj 17 749 outlet;
#X obj 303 32 bng 15 250 50 0 empty empty save 20 7 0 10 #fcfcfc #000000 #000000;
#X obj 307 113 nbx 3 12 0 1e+37 0 0 empty empty empty 0 -9 0 10 #fcfcfc #000000 #000000 0 256;
#X msg 432 112 set \$1;
#X msg 487 108 set \$1;
#X obj 309 158 nbx 3 12 0 1e+37 0 0 empty empty empty 0 -9 0 10 #fcfcfc #000000 #000000 0 256;
#X msg 432 147 set \$1;
#X msg 487 143 set \$1;
#X obj 620 337 bng 15 250 50 0 empty empty nbx 17 7 0 10 #ff8300 #000000 #000000;
#X obj 672 337 nbx 3 14 0 100 0 1 empty empty empty 0 -8 0 10 #bbbbbb #000000 #000000 100 256;
#X obj 923 446 * 0.01;
#X obj 708 337 tgl 14 1 empty empty empty 17 7 0 10 #bbbbbb #000000 #000000 0 1;
#X msg 890 488 rand nbx \$2 \$3;
#X obj 890 467 pack f f f;
#X obj 620 352 bng 14 250 50 0 empty empty sl 17 7 0 10 #ff8300 #000000 #000000;
#X obj 672 351 nbx 3 14 0 100 0 1 empty empty empty 0 -8 0 10 #bbbbbb #000000 #000000 100 256;
#X obj 806 480 * 0.01;
#X obj 708 351 tgl 14 1 empty empty empty 17 7 0 10 #bbbbbb #000000 #000000 0 1;
#X obj 773 502 pack f f f;
#X msg 773 523 rand sl \$2 \$3;
#X obj 620 366 bng 14 250 50 0 empty empty radio 17 7 0 10 #ff8300 #000000 #000000;
#X obj 672 365 nbx 3 14 0 100 0 1 empty empty empty 0 -8 0 10 #bbbbbb #000000 #000000 100 256;
#X obj 686 481 * 0.01;
#X msg 631 524 rand radio \$2;
#X obj 620 380 bng 14 250 50 0 empty empty tgl 17 7 0 10 #ff8300 #000000 #000000;
#X obj 620 394 bng 14 250 50 0 empty empty knob 17 7 0 10 #ff8300 #000000 #000000;
#X obj 672 394 nbx 3 14 0 100 0 1 empty empty empty 0 -8 0 10 #bbbbbb #000000 #000000 100 256;
#X obj 497 487 * 0.01;
#X obj 708 394 tgl 14 1 empty empty empty 17 7 0 10 #bbbbbb #000000 #000000 0 1;
#X obj 464 511 pack f f f;
#X msg 464 532 rand knob \$2 \$3;
#X msg 407 454 rand tgl;
#X obj 464 553 s \$0-to;
#X obj 407 475 s \$0-to;
#X obj 631 503 pack f f;
#X obj 631 545 s \$0-to;
#X obj 773 544 s \$0-to;
#X obj 890 509 s \$0-to;
#X connect 0 0 1 0;
#X connect 1 0 4 0;
#X connect 2 0 3 0;
#X connect 3 0 6 0;
#X connect 4 0 29 0;
#X connect 5 0 29 0;
#X connect 6 0 29 0;
#X connect 7 0 8 0;
#X connect 7 0 32 0;
#X connect 9 0 12 1;
#X connect 9 0 14 1;
#X connect 9 0 22 1;
#X connect 9 0 25 1;
#X connect 10 0 11 0;
#X connect 11 0 12 0;
#X connect 12 0 16 0;
#X connect 13 0 17 0;
#X connect 14 0 15 0;
#X connect 15 0 29 0;
#X connect 16 0 29 0;
#X connect 17 0 14 0;
#X connect 18 0 29 0;
#X connect 19 0 20 0;
#X connect 19 0 35 0;
#X connect 21 0 23 1;
#X connect 21 0 26 1;
#X connect 22 0 18 0;
#X connect 23 0 22 0;
#X connect 24 0 23 0;
#X connect 25 0 28 0;
#X connect 26 0 25 0;
#X connect 27 0 26 0;
#X connect 28 0 29 0;
#X connect 30 0 5 0;
#X connect 31 0 33 0;
#X connect 31 0 8 0;
#X connect 32 0 31 0;
#X connect 33 0 7 0;
#X connect 34 0 36 0;
#X connect 34 0 20 0;
#X connect 35 0 34 0;
#X connect 36 0 19 0;
#X connect 37 0 42 0;
#X connect 38 0 39 0;
#X connect 39 0 42 1;
#X connect 40 0 42 2;
#X connect 41 0 66 0;
#X connect 42 0 41 0;
#X connect 43 0 47 0;
#X connect 44 0 45 0;
#X connect 45 0 47 1;
#X connect 46 0 47 2;
#X connect 47 0 48 0;
#X connect 48 0 65 0;
#X connect 49 0 63 0;
#X connect 50 0 51 0;
#X connect 51 0 63 1;
#X connect 52 0 64 0;
#X connect 53 0 60 0;
#X connect 54 0 58 0;
#X connect 55 0 56 0;
#X connect 56 0 58 1;
#X connect 57 0 58 2;
#X connect 58 0 59 0;
#X connect 59 0 61 0;
#X connect 60 0 62 0;
#X connect 63 0 52 0;
#X coords 0 -1 1 1 112 320 1 300 10;
