#N canvas 302 130 756 472 10;
#X obj 300 117 hradio 14 1 0 8 empty empty empty 0 -8 0 10 #fcfcfc #000000 #000000 0;
#X msg 60 146 save;
#X msg 217 177 paste;
#X msg 129 163 save \, copy;
#X obj 357 154 bng 14 250 50 0 empty empty save 17 7 0 10 #c7c6ff #000000 #000000;
#X obj 466 185 savepanel;
#X obj 357 140 bng 14 250 50 0 empty empty open 17 7 0 10 #c7c6ff #000000 #000000;
#X msg 628 156 open \$1 \, paste;
#X obj 628 135 openpanel;
#X msg 466 206 save \, copy \, save_as \$1;
#X obj 300 183 bng 15 250 50 0 empty empty nbx 17 7 0 10 #ff8300 #000000 #000000;
#X obj 352 183 nbx 3 14 0 100 0 1 empty empty empty 0 -8 0 10 #bbbbbb #000000 #000000 100 256;
#X obj 603 292 * 0.01;
#X obj 300 132 bng 14 250 50 0 empty empty save 17 7 0 10 #fcfcfc #000000 #000000;
#X obj 300 149 bng 14 250 50 0 empty empty copy 17 7 0 10 #c6ffc7 #000000 #000000;
#X obj 300 163 bng 14 250 50 0 empty empty paste 17 7 0 10 #c6ffc7 #000000 #000000;
#X obj 56 245 outlet;
#X obj 388 183 tgl 14 1 empty empty empty 17 7 0 10 #bbbbbb #000000 #000000 0 1;
#X msg 570 334 rand nbx \$2 \$3;
#X obj 570 313 pack f f f;
#X obj 300 198 bng 14 250 50 0 empty empty sl 17 7 0 10 #ff8300 #000000 #000000;
#X obj 352 197 nbx 3 14 0 100 0 1 empty empty empty 0 -8 0 10 #bbbbbb #000000 #000000 100 256;
#X obj 486 326 * 0.01;
#X obj 388 197 tgl 14 1 empty empty empty 17 7 0 10 #bbbbbb #000000 #000000 0 1;
#X obj 453 348 pack f f f;
#X msg 453 369 rand sl \$2 \$3;
#X obj 300 212 bng 14 250 50 0 empty empty radio 17 7 0 10 #ff8300 #000000 #000000;
#X obj 352 211 nbx 3 14 0 100 0 1 empty empty empty 0 -8 0 10 #bbbbbb #000000 #000000 100 256;
#X obj 366 327 * 0.01;
#X msg 311 370 rand radio \$2;
#X obj 300 226 bng 14 250 50 0 empty empty tgl 17 7 0 10 #ff8300 #000000 #000000;
#X obj 300 240 bng 14 250 50 0 empty empty knob 17 7 0 10 #ff8300 #000000 #000000;
#X obj 352 240 nbx 3 14 0 100 0 1 empty empty empty 0 -8 0 10 #bbbbbb #000000 #000000 100 256;
#X obj 177 333 * 0.01;
#X obj 388 240 tgl 14 1 empty empty empty 17 7 0 10 #bbbbbb #000000 #000000 0 1;
#X obj 144 357 pack f f f;
#X msg 144 378 rand knob \$2 \$3;
#X msg 87 300 rand tgl;
#X obj 107 131 s \$0-to;
#X obj 56 222 r \$0-to;
#X obj 60 167 s \$0-to;
#X obj 129 184 s \$0-to;
#X obj 217 198 s \$0-to;
#X obj 628 177 s \$0-to;
#X obj 466 227 s \$0-to;
#X msg 107 109 save \, \$1;
#X obj 144 399 s \$0-to;
#X obj 87 321 s \$0-to;
#X obj 311 349 pack f f;
#X obj 311 391 s \$0-to;
#X obj 453 390 s \$0-to;
#X obj 570 355 s \$0-to;
#X msg 444 70 100;
#X obj 444 49 loadbang;
#X obj 626 112 n_env;
#X msg 626 91 getenv PD_SS;
#X obj 465 164 n_env;
#X msg 465 143 getenv PD_SS;
#X connect 0 0 45 0;
#X connect 1 0 40 0;
#X connect 2 0 42 0;
#X connect 3 0 41 0;
#X connect 4 0 57 0;
#X connect 5 0 9 0;
#X connect 6 0 55 0;
#X connect 7 0 43 0;
#X connect 8 0 7 0;
#X connect 9 0 44 0;
#X connect 10 0 19 0;
#X connect 11 0 12 0;
#X connect 12 0 19 1;
#X connect 13 0 1 0;
#X connect 14 0 3 0;
#X connect 15 0 2 0;
#X connect 17 0 19 2;
#X connect 18 0 51 0;
#X connect 19 0 18 0;
#X connect 20 0 24 0;
#X connect 21 0 22 0;
#X connect 22 0 24 1;
#X connect 23 0 24 2;
#X connect 24 0 25 0;
#X connect 25 0 50 0;
#X connect 26 0 48 0;
#X connect 27 0 28 0;
#X connect 28 0 48 1;
#X connect 29 0 49 0;
#X connect 30 0 37 0;
#X connect 31 0 35 0;
#X connect 32 0 33 0;
#X connect 33 0 35 1;
#X connect 34 0 35 2;
#X connect 35 0 36 0;
#X connect 36 0 46 0;
#X connect 37 0 47 0;
#X connect 39 0 16 0;
#X connect 45 0 38 0;
#X connect 48 0 29 0;
#X connect 52 0 11 0;
#X connect 52 0 21 0;
#X connect 52 0 27 0;
#X connect 52 0 32 0;
#X connect 53 0 52 0;
#X connect 54 0 8 0;
#X connect 55 0 54 0;
#X connect 56 0 5 0;
#X connect 57 0 56 0;
#X coords 0 -1 1 1 112 154 1 300 100;
