#N canvas 87 315 1094 585 10;
#X msg 113 109 1;
#N canvas 455 216 450 300 color 0;
#X obj 123 10 inlet;
#X obj 172 215 outlet;
#X obj 147 53 sel 1 0;
#X msg 155 94 color 13 13 13;
#X msg 205 139 color 0 0 13;
#X obj 91 158 outlet;
#X obj 123 32 t f f;
#X connect 0 0 6 0;
#X connect 2 0 3 0;
#X connect 2 1 4 0;
#X connect 3 0 1 0;
#X connect 4 0 1 0;
#X connect 6 0 5 0;
#X connect 6 1 2 0;
#X restore 113 171 pd color;
#X obj 142 72 loadbang;
#X obj 339 260 unpack s f f f f s s f f f;
#X msg 793 227 \$10;
#X msg 655 347 range \$8 \$9 \, \$8;
#X msg 724 286 range \$8 \$9 \, \$9;
#X obj 916 300 s;
#X msg 931 244 symbol \$2-sss-r-\$5;
#X obj 113 269 s \$1-sss-find-auto;
#X obj 202 43 r \$1-sss-find-auto-par;
#X obj 477 205 s \$1-sss-get-auto-par;
#X obj 916 15 inlet;
#X obj 477 182 pack f f \$0;
#X obj 643 49 list split 1;
#X obj 643 30 r \$1-sss-get-auto-par-return;
#X obj 656 107 list;
#X obj 339 235 spigot 0;
#X obj 477 135 t f f;
#X obj 525 155 % 256;
#X obj 477 155 div 256;
#X obj 390 297 * 256;
#X obj 390 326 +;
#X obj 643 88 sel 1;
#X obj 643 69 == \$0;
#N canvas 445 146 469 440 mod/quantize 0;
#X obj 158 31 inlet;
#X obj 387 131 inlet;
#X obj 158 327 outlet;
#X obj 158 250 /;
#X obj 158 272 i;
#X obj 158 294 *;
#X obj 197 136 t b f;
#X obj 238 167 -;
#X obj 158 198 *;
#X obj 158 220 +;
#X obj 199 55 inlet;
#X obj 239 56 inlet;
#X text 398 107 step;
#X text 162 10 0-1;
#X text 206 35 min;
#X text 246 35 max;
#X connect 0 0 8 0;
#X connect 1 0 3 1;
#X connect 1 0 5 1;
#X connect 3 0 4 0;
#X connect 4 0 5 0;
#X connect 5 0 2 0;
#X connect 6 0 7 0;
#X connect 6 1 7 1;
#X connect 7 0 8 1;
#X connect 8 0 9 0;
#X connect 9 0 3 0;
#X connect 10 0 9 1;
#X connect 10 0 6 0;
#X connect 11 0 7 0;
#X restore 916 224 pd mod/quantize;
#X obj 113 142 t f f;
#X msg 142 109 0;
#X obj 202 70 t b a b;
#X msg 119 248 0;
#X obj 62 77 t b b;
#X msg 792 353 label :;
#X msg 943 283 symbol \$0;
#X msg 564 289 range 0 1 \, 0;
#X msg 293 331 0;
#X obj 62 302 s \$0-reset;
#X obj 293 311 r \$0-reset;
#X obj 792 334 r \$0-reset;
#X obj 943 264 r \$0-reset;
#X obj 564 270 r \$0-reset;
#N canvas 698 55 450 300 dblclk 0;
#X obj 44 40 inlet;
#X obj 17 94 timer;
#X obj 44 146 f;
#X obj 17 163 -;
#X obj 17 119 t f b;
#X obj 17 235 outlet;
#X obj 44 67 bang;
#X obj 17 209 bang;
#X obj 68 235 outlet;
#X obj 68 210 bang;
#X obj 17 182 moses 200;
#X connect 0 0 6 0;
#X connect 1 0 4 0;
#X connect 2 0 3 1;
#X connect 3 0 10 0;
#X connect 4 0 3 0;
#X connect 4 0 2 1;
#X connect 4 1 2 0;
#X connect 6 0 1 1;
#X connect 7 0 5 0;
#X connect 9 0 8 0;
#X connect 10 0 7 0;
#X connect 10 1 9 0;
#X restore 62 57 pd dblclk;
#X obj 419 523 outlet;
#X obj 419 482 r \$0-out;
#X obj 158 209 s \$0-out;
#X obj 158 190 list prepend rec;
#X obj 390 367 s \$0-out;
#X obj 390 348 list prepend id;
#X obj 655 385 s \$0-out;
#X obj 655 366 list prepend min;
#X obj 724 325 s \$0-out;
#X obj 724 306 list prepend max;
#X obj 793 265 s \$0-out;
#X obj 793 246 list prepend step;
#X obj 861 391 s \$0-out;
#X obj 861 370 list prepend cnv;
#X msg 1021 184 \$10;
#X obj 655 124 t a a a a a a, f 58;
#X obj 505 428 inlet;
#X obj 505 546 s \$0-rec;
#X obj 535 527 s \$0-id;
#X obj 566 509 s \$0-min;
#X obj 596 489 s \$0-max;
#X obj 627 470 s \$0-step;
#X obj 505 448 route rec id min max step, f 26;
#X obj 62 36 r \$0-rec;
#X obj 477 115 r \$0-id;
#X obj 945 34 r \$0-min;
#X obj 974 53 r \$0-max;
#X obj 1003 72 r \$0-step;
#X obj 419 502 list trim;
#X msg 861 349 label \$1:\$5:\$6:\$7;
#X connect 0 0 26 0;
#X connect 1 0 9 0;
#X connect 1 1 44 0;
#X connect 2 0 27 0;
#X connect 3 3 21 0;
#X connect 3 4 22 1;
#X connect 4 0 52 0;
#X connect 5 0 48 0;
#X connect 6 0 50 0;
#X connect 8 0 7 1;
#X connect 10 0 28 0;
#X connect 12 0 25 0;
#X connect 13 0 11 0;
#X connect 14 0 24 0;
#X connect 14 1 16 1;
#X connect 15 0 14 0;
#X connect 16 0 56 0;
#X connect 17 0 3 0;
#X connect 18 0 20 0;
#X connect 18 1 19 0;
#X connect 19 0 13 1;
#X connect 20 0 13 0;
#X connect 21 0 22 0;
#X connect 22 0 46 0;
#X connect 23 0 16 0;
#X connect 24 0 23 0;
#X connect 25 0 7 0;
#X connect 26 0 1 0;
#X connect 26 1 17 1;
#X connect 27 0 26 0;
#X connect 28 0 27 0;
#X connect 28 1 17 0;
#X connect 28 2 29 0;
#X connect 29 0 9 0;
#X connect 30 0 35 0;
#X connect 30 1 27 0;
#X connect 31 0 54 0;
#X connect 32 0 7 1;
#X connect 33 0 48 0;
#X connect 33 0 50 0;
#X connect 34 0 46 0;
#X connect 36 0 34 0;
#X connect 37 0 31 0;
#X connect 38 0 32 0;
#X connect 39 0 33 0;
#X connect 40 0 30 0;
#X connect 40 1 0 0;
#X connect 42 0 69 0;
#X connect 44 0 43 0;
#X connect 46 0 45 0;
#X connect 48 0 47 0;
#X connect 50 0 49 0;
#X connect 52 0 51 0;
#X connect 54 0 53 0;
#X connect 55 0 25 3;
#X connect 56 0 5 0;
#X connect 56 1 6 0;
#X connect 56 2 4 0;
#X connect 56 3 70 0;
#X connect 56 4 8 0;
#X connect 56 5 55 0;
#X connect 57 0 63 0;
#X connect 63 0 58 0;
#X connect 63 1 59 0;
#X connect 63 2 60 0;
#X connect 63 3 61 0;
#X connect 63 4 62 0;
#X connect 64 0 40 0;
#X connect 65 0 18 0;
#X connect 66 0 25 1;
#X connect 67 0 25 2;
#X connect 68 0 25 3;
#X connect 69 0 41 0;
#X connect 70 0 54 0;
