#N canvas 446 212 468 309 12;
#X obj 61 35 r \$3-sss-get-info;
#X obj 61 108 s \$3-sss-get-info-return;
#X obj 61 88 list trim;
#X obj 61 55 list prepend get_info_par_return \$1 \$2 \$3 \$4 \$5 \$6 \$7 \$8 \$9 \$10, f 32;
#X connect 0 0 3 0;
#X connect 2 0 1 0;
#X connect 3 0 2 0;
