#N canvas 455 216 450 300 12;
#X obj 100 100 tgl 14 0 \$0-s \$0-r f 4 8 0 10 #fcfcfc #fcfcfc #000000 0 1;
#X obj 100 117 bang;
#X obj 100 29 sel \$2;
#X obj 100 140 i \$2;
#X obj 100 5 r \$1-sss-focus;
#X obj 100 167 s \$1-sss-focus;
#X obj 262 131 outlet;
#X msg 262 82 1;
#X msg 297 83 0;
#X text 129 230 use: sss_focus \$1 \$2;
#X msg 100 56 color 14 14 22;
#X msg 156 81 color 0 0 22;
#X connect 0 0 1 0;
#X connect 1 0 3 0;
#X connect 2 0 10 0;
#X connect 2 0 7 0;
#X connect 2 1 11 0;
#X connect 2 1 8 0;
#X connect 3 0 5 0;
#X connect 4 0 2 0;
#X connect 7 0 6 0;
#X connect 8 0 6 0;
#X connect 10 0 0 0;
#X connect 11 0 0 0;
#X coords 0 -1 1 1 14 14 2 100 100;
