#N canvas 390 201 580 331 10;
#X obj 164 93 r \$3-sss-get-info;
#X obj 164 166 s \$3-sss-get-info-return;
#X obj 164 146 list trim;
#X obj 164 113 list prepend get_info_ar_return \$1 \$2 \$3 \$4 \$5 \$6, f 31;
#X connect 0 0 3 0;
#X connect 2 0 1 0;
#X connect 3 0 2 0;
