#N canvas 339 450 936 283 12;
#X obj 195 157 f;
#X obj 440 138 route float;
#X obj 583 157 spigot;
#X obj 195 178 list append \$1 \$2 \$3 \$4 \$5 \$6 \$7 \$8 \$9 \$10;
#X obj 583 178 list append \$1 \$2 \$3 \$4 \$5 \$6 \$7 \$8 \$9 \$10;
#X obj 440 117 r \$2-sss-s-\$5;
#X obj 195 136 r \$3-sss-get-info-par;
#X obj 622 136 r \$3-sss-get-info-par-auto;
#X obj 195 199 s \$3-sss-get-info-par-return;
#X obj 583 199 s \$3-sss-get-info-par-return-auto;
#X connect 0 0 3 0;
#X connect 1 0 0 1;
#X connect 1 0 2 0;
#X connect 2 0 4 0;
#X connect 3 0 8 0;
#X connect 4 0 9 0;
#X connect 5 0 1 0;
#X connect 6 0 0 0;
#X connect 7 0 2 1;
