#N canvas 258 171 843 391 10;
#X msg 22 142 1;
#X msg 55 154 0;
#N canvas 455 216 450 300 color 0;
#X obj 123 10 inlet;
#X obj 172 215 outlet;
#X obj 147 53 sel 1 0;
#X msg 155 94 color 13 13 13;
#X msg 205 139 color 0 0 13;
#X obj 91 158 outlet;
#X obj 123 32 t f f;
#X connect 0 0 6 0;
#X connect 2 0 3 0;
#X connect 2 1 4 0;
#X connect 3 0 1 0;
#X connect 4 0 1 0;
#X connect 6 0 5 0;
#X connect 6 1 2 0;
#X restore 22 180 pd color;
#X obj 87 137 loadbang;
#X obj 150 156 unpack s f f f f s s f f f;
#X obj 338 164 t b f;
#X obj 321 187 pack;
#X msg 662 273 \$10;
#X msg 452 262 range \$8 \$9 \, \$8;
#X msg 497 287 range \$8 \$9 \, \$9;
#X obj 642 205 t b f;
#X obj 678 232 -;
#X obj 599 248 *;
#X obj 599 270 +;
#X obj 599 352 s;
#X msg 614 327 symbol \$2-sss-r-\$5;
#N canvas 455 216 450 300 quantize 0;
#X obj 182 45 inlet;
#X obj 330 43 inlet;
#X obj 174 211 outlet;
#X obj 207 105 /;
#X obj 207 127 i;
#X obj 207 149 *;
#X connect 0 0 3 0;
#X connect 1 0 3 1;
#X connect 1 0 5 1;
#X connect 3 0 4 0;
#X connect 4 0 5 0;
#X connect 5 0 2 0;
#X restore 599 296 pd quantize;
#X obj 22 86 inlet;
#X obj 67 230 outlet;
#X obj 55 108 r \$1-sss-find-auto-complete;
#X obj 22 202 s \$1-sss-find-auto;
#X obj 150 137 r \$1-sss-find-auto-par;
#X obj 321 211 s \$1-sss-get-auto-par;
#X obj 498 60 r \$1-sss-get-auto-par-return;
#X obj 321 121 inlet;
#X obj 201 200 outlet;
#X obj 218 180 outlet;
#X obj 338 144 inlet;
#X obj 642 178 inlet;
#X obj 678 178 inlet;
#X obj 452 287 outlet;
#X obj 497 312 outlet;
#X obj 716 177 inlet;
#X msg 725 120 label \$1:\$7;
#X obj 725 144 outlet;
#X obj 544 314 outlet;
#X connect 0 0 2 0;
#X connect 1 0 2 0;
#X connect 2 0 20 0;
#X connect 2 1 18 0;
#X connect 3 0 1 0;
#X connect 4 3 25 0;
#X connect 4 4 26 0;
#X connect 5 0 6 0;
#X connect 5 1 6 1;
#X connect 6 0 22 0;
#X connect 7 0 16 1;
#X connect 7 0 35 0;
#X connect 8 0 30 0;
#X connect 9 0 31 0;
#X connect 10 0 11 0;
#X connect 10 1 11 1;
#X connect 11 0 12 1;
#X connect 12 0 13 0;
#X connect 13 0 16 0;
#X connect 15 0 14 1;
#X connect 16 0 14 0;
#X connect 17 0 0 0;
#X connect 19 0 1 0;
#X connect 21 0 4 0;
#X connect 23 0 8 0;
#X connect 23 0 9 0;
#X connect 23 0 7 0;
#X connect 23 0 15 0;
#X connect 23 0 33 0;
#X connect 24 0 6 0;
#X connect 27 0 5 0;
#X connect 28 0 13 1;
#X connect 28 0 10 0;
#X connect 29 0 11 0;
#X connect 32 0 12 0;
#X connect 33 0 34 0;
