#N canvas 164 50 1028 352 12;
#X obj 96 156 f;
#X obj 440 138 route float;
#X obj 583 157 spigot;
#X obj 440 117 r \$2-sss-s-\$5;
#X obj 622 136 r \$3-sss-get-info-par-auto;
#X obj 401 28 r \$3-sss-get-info-par;
#X obj 401 84 s \$3-sss-get-info-par-return;
#X obj 96 135 r \$5-sss-get-info-par-local;
#X obj 96 213 s \$3-sss-get-info-par-local-return;
#X obj 584 214 s \$3-sss-get-info-par-auto-return;
#X obj 584 179 list prepend get-info-par-auto-return \$1 \$2 \$3 \$4 \$5 \$6 \$7 \$8 \$9 \$10, f 37;
#X obj 401 49 list append get-info-par-return \$1 \$2 \$3 \$4 \$5 \$6 \$7 \$8 \$9 \$10, f 31;
#X obj 96 177 list prepend get-info-par-local-return \$1 \$2 \$3 \$4 \$5 \$6 \$7 \$8 \$9 \$10, f 38;
#X connect 0 0 12 0;
#X connect 1 0 0 1;
#X connect 1 0 2 0;
#X connect 2 0 10 0;
#X connect 3 0 1 0;
#X connect 4 0 2 1;
#X connect 5 0 11 0;
#X connect 7 0 0 0;
#X connect 10 0 9 0;
#X connect 11 0 6 0;
#X connect 12 0 8 0;
