#N canvas 172 152 1016 429 10;
#X msg 21 61 1;
#N canvas 455 216 450 300 color 0;
#X obj 123 10 inlet;
#X obj 172 215 outlet;
#X obj 147 53 sel 1 0;
#X msg 155 94 color 13 13 13;
#X msg 205 139 color 0 0 13;
#X obj 91 158 outlet;
#X obj 123 32 t f f;
#X connect 0 0 6 0;
#X connect 2 0 3 0;
#X connect 2 1 4 0;
#X connect 3 0 1 0;
#X connect 4 0 1 0;
#X connect 6 0 5 0;
#X connect 6 1 2 0;
#X restore 21 216 pd color;
#X obj 77 61 loadbang;
#X obj 320 270 unpack s f f f f s s f f f;
#X msg 669 272 \$10;
#X msg 573 219 range \$8 \$9 \, \$8;
#X msg 618 245 range \$8 \$9 \, \$9;
#X obj 842 376 s;
#X msg 857 351 symbol \$2-sss-r-\$5;
#X obj 21 40 inlet;
#X obj 66 266 outlet;
#X obj 20 292 s \$1-sss-find-auto;
#X obj 328 175 r \$1-sss-find-auto-par;
#X obj 322 148 s \$1-sss-get-auto-par;
#X obj 322 20 inlet;
#X obj 371 361 outlet;
#X obj 886 157 inlet;
#X obj 922 157 inlet;
#X obj 573 244 outlet;
#X obj 618 269 outlet;
#X obj 960 156 inlet;
#X msg 718 319 label \$1:\$7;
#X obj 718 343 outlet;
#X obj 667 302 outlet;
#X obj 322 125 pack f f \$0;
#X obj 731 71 list split 1;
#X obj 731 49 r \$1-sss-get-auto-par-return;
#X obj 729 145 list;
#X obj 319 245 spigot 0;
#X obj 322 45 t f f;
#X obj 349 73 % 256;
#X obj 322 98 div 256;
#X obj 371 307 * 256;
#X obj 371 336 +;
#X obj 698 120 sel 1;
#X obj 719 94 == \$0;
#N canvas 455 216 469 440 mod/quantize 0;
#X obj 158 31 inlet;
#X obj 387 131 inlet;
#X obj 158 327 outlet;
#X obj 158 250 /;
#X obj 158 272 i;
#X obj 158 294 *;
#X obj 197 136 t b f;
#X obj 238 167 -;
#X obj 158 198 *;
#X obj 158 220 +;
#X obj 199 55 inlet;
#X obj 239 56 inlet;
#X text 398 107 step;
#X text 162 10 0-1;
#X text 206 35 min;
#X text 246 35 max;
#X connect 0 0 8 0;
#X connect 1 0 3 1;
#X connect 1 0 5 1;
#X connect 3 0 4 0;
#X connect 4 0 5 0;
#X connect 5 0 2 0;
#X connect 6 0 7 0;
#X connect 6 1 7 1;
#X connect 7 0 8 1;
#X connect 8 0 9 0;
#X connect 9 0 3 0;
#X connect 10 0 9 1;
#X connect 10 0 6 0;
#X connect 11 0 7 0;
#X restore 842 320 pd mod/quantize;
#X obj 21 127 t f f;
#X msg 85 115 0;
#X obj 320 197 t b a b;
#X msg 99 231 0;
#X connect 0 0 37 0;
#X connect 1 0 11 0;
#X connect 1 1 10 0;
#X connect 2 0 38 0;
#X connect 3 3 32 0;
#X connect 3 4 33 1;
#X connect 4 0 36 3;
#X connect 4 0 23 0;
#X connect 5 0 18 0;
#X connect 6 0 19 0;
#X connect 8 0 7 1;
#X connect 9 0 0 0;
#X connect 12 0 39 0;
#X connect 14 0 29 0;
#X connect 16 0 36 1;
#X connect 17 0 36 2;
#X connect 20 0 36 0;
#X connect 21 0 22 0;
#X connect 24 0 13 0;
#X connect 25 0 35 0;
#X connect 25 1 27 1;
#X connect 26 0 25 0;
#X connect 27 0 5 0;
#X connect 27 0 6 0;
#X connect 27 0 4 0;
#X connect 27 0 8 0;
#X connect 27 0 21 0;
#X connect 28 0 3 0;
#X connect 29 0 31 0;
#X connect 29 1 30 0;
#X connect 30 0 24 1;
#X connect 31 0 24 0;
#X connect 32 0 33 0;
#X connect 33 0 15 0;
#X connect 34 0 27 0;
#X connect 35 0 34 0;
#X connect 36 0 7 0;
#X connect 37 0 1 0;
#X connect 37 1 28 1;
#X connect 38 0 37 0;
#X connect 39 0 38 0;
#X connect 39 1 28 0;
#X connect 39 2 40 0;
#X connect 40 0 11 0;
