#N canvas 404 177 551 378 10;
#X obj 61 35 r \$3-sss-get-info;
#X obj 61 108 s \$3-sss-get-info-return;
#X obj 61 88 list trim;
#X obj 61 55 list prepend get_info_par_return \$1 \$2 \$3 \$4 \$5 \$6 \$7 \$8 \$9 \$10, f 32;
#X obj 279 77 spigot;
#X obj 279 178 s \$3-sss-find-auto-par;
#X obj 279 99 t b b;
#X obj 306 124 s \$3-sss-find-auto-complete;
#X obj 279 145 list prepend \$1 \$2 \$3 \$4 \$5 \$6 \$7 \$8 \$9 \$10, f 24;
#X obj 332 76 r \$3-sss-find-auto;
#X obj 279 55 r \$2-sss-s-\$5;
#X obj 46 156 r \$3-sss-get-auto-par;
#X obj 46 178 unpack;
#X obj 79 201 == \$5;
#X obj 46 226 == \$4;
#X obj 64 250 &&;
#X obj 64 272 sel 1;
#X obj 64 300 list prepend \$1 \$2 \$3 \$4 \$5 \$6 \$7 \$8 \$9 \$10, f 24;
#X obj 64 333 s \$3-sss-get-auto-par-return;
#X connect 0 0 3 0;
#X connect 2 0 1 0;
#X connect 3 0 2 0;
#X connect 4 0 6 0;
#X connect 6 0 8 0;
#X connect 6 1 7 0;
#X connect 8 0 5 0;
#X connect 9 0 4 1;
#X connect 10 0 4 0;
#X connect 11 0 12 0;
#X connect 12 0 14 0;
#X connect 12 1 13 0;
#X connect 13 0 15 1;
#X connect 14 0 15 0;
#X connect 15 0 16 0;
#X connect 16 0 17 0;
#X connect 17 0 18 0;
