#N canvas 263 68 843 570 10;
#X obj 143 411 inlet;
#N canvas 455 216 450 300 (subpatch) 0;
#X obj 101 101 cnv 12 158 12 empty \$0-sss-cnv-abs-name sss-help 2 6 0 10 #bbbbbb #000000 0;
#X coords 0 -1 1 1 160 14 2 100 100;
#X restore 200 24 pd;
#N canvas 455 216 450 300 (subpatch) 0;
#X obj 101 101 cnv 12 158 12 empty \$0-sss-cnv-pro-name default 2 6 0 10 #bbbbbb #000000 0;
#X coords 0 -1 1 1 160 14 2 100 100;
#X restore 200 38 pd;
#N canvas 455 216 450 300 (subpatch) 0;
#X obj 101 101 cnv 12 158 12 empty \$0-sss-cnv-ins-name (34)example1 2 6 0 10 #bbbbbb #000000 0;
#X coords 0 -1 1 1 160 14 2 100 100;
#X restore 200 68 pd;
#X obj 315 430 s \$0-to;
#X obj 139 434 s \$0-to;
#X obj 28 371 r \$1-sss-focus;
#N canvas 552 175 742 506 (subpatch) 0;
#X obj 235 317 i;
#N canvas 75 195 512 366 set 0;
#X obj 133 21 inlet;
#X obj 133 83 until;
#X msg 170 83 0;
#X obj 133 104 i;
#X obj 169 104 + 1;
#X obj 133 41 t b b f, f 13;
#X obj 133 144 == 0, f 13;
#X obj 133 168 sel 0, f 8;
#X obj 133 125 t f f, f 9;
#X msg 178 195 set 1;
#X msg 133 195 set 0;
#X msg 133 62 32;
#X msg 220 217 symbol \$2-r-tgl-\$1;
#X obj 220 195 pack f \$0;
#X obj 133 242 s, f 15;
#X connect 0 0 5 0;
#X connect 1 0 3 0;
#X connect 2 0 3 1;
#X connect 3 0 4 0;
#X connect 3 0 8 0;
#X connect 4 0 3 1;
#X connect 5 0 11 0;
#X connect 5 1 2 0;
#X connect 5 2 6 1;
#X connect 6 0 7 0;
#X connect 7 0 10 0;
#X connect 7 1 9 0;
#X connect 8 0 6 0;
#X connect 8 1 13 0;
#X connect 9 0 14 0;
#X connect 10 0 14 0;
#X connect 11 0 1 0;
#X connect 12 0 14 1;
#X connect 13 0 12 0;
#X restore 124 62 pd set;
#X f 17;
#X obj 247 378 outlet;
#X obj 91 417 s \$0-to;
#X obj 100 100 tgl 20 0 \$0-s \$0-r-tgl-0 empty 0 -9 0 10 #fcfcfc #000000 #000000 0 1;
#X obj 120 100 tgl 20 0 \$0-s \$0-r-tgl-1 empty 0 -9 0 10 #fcfcfc #000000 #000000 0 1;
#X obj 140 100 tgl 20 0 \$0-s \$0-r-tgl-2 empty 0 -9 0 10 #fcfcfc #000000 #000000 0 1;
#X obj 160 100 tgl 20 0 \$0-s \$0-r-tgl-3 empty 0 -9 0 10 #fcfcfc #000000 #000000 0 1;
#X obj 180 100 tgl 20 0 \$0-s \$0-r-tgl-4 empty 0 -9 0 10 #fcfcfc #000000 #000000 0 1;
#X obj 200 100 tgl 20 0 \$0-s \$0-r-tgl-5 empty 0 -9 0 10 #fcfcfc #000000 #000000 0 1;
#X obj 220 100 tgl 20 0 \$0-s \$0-r-tgl-6 empty 0 -9 0 10 #fcfcfc #000000 #000000 0 1;
#X obj 240 100 tgl 20 0 \$0-s \$0-r-tgl-7 empty 0 -9 0 10 #fcfcfc #000000 #000000 0 1;
#X msg 64 207 0;
#X msg 92 207 1;
#X msg 120 207 2;
#X msg 148 207 3;
#X msg 177 207 4;
#X msg 205 207 5;
#X msg 233 207 6;
#X msg 262 207 7;
#X obj 100 120 tgl 20 0 \$0-s \$0-r-tgl-8 empty 0 -9 0 10 #fcfcfc #000000 #000000 0 1;
#X obj 120 120 tgl 20 0 \$0-s \$0-r-tgl-9 empty 0 -9 0 10 #fcfcfc #000000 #000000 0 1;
#X obj 140 120 tgl 20 0 \$0-s \$0-r-tgl-10 empty 0 -9 0 10 #fcfcfc #000000 #000000 0 1;
#X obj 160 120 tgl 20 0 \$0-s \$0-r-tgl-11 empty 0 -9 0 10 #fcfcfc #000000 #000000 0 1;
#X obj 180 120 tgl 20 0 \$0-s \$0-r-tgl-12 empty 0 -9 0 10 #fcfcfc #000000 #000000 0 1;
#X obj 200 120 tgl 20 0 \$0-s \$0-r-tgl-13 empty 0 -9 0 10 #fcfcfc #000000 #000000 0 1;
#X obj 220 120 tgl 20 0 \$0-s \$0-r-tgl-14 empty 0 -9 0 10 #fcfcfc #000000 #000000 0 1;
#X obj 240 120 tgl 20 0 \$0-s \$0-r-tgl-15 empty 0 -9 0 10 #fcfcfc #000000 #000000 0 1;
#X msg 64 226 8;
#X msg 92 226 9;
#X msg 120 226 10;
#X msg 148 226 11;
#X msg 177 226 12;
#X msg 205 226 13;
#X msg 233 226 14;
#X msg 262 226 15;
#X obj 100 140 tgl 20 0 \$0-s \$0-r-tgl-16 empty 0 -9 0 10 #fcfcfc #000000 #000000 0 1;
#X obj 120 140 tgl 20 0 \$0-s \$0-r-tgl-17 empty 0 -9 0 10 #fcfcfc #000000 #000000 0 1;
#X obj 140 140 tgl 20 0 \$0-s \$0-r-tgl-18 empty 0 -9 0 10 #fcfcfc #000000 #000000 0 1;
#X obj 160 140 tgl 20 0 \$0-s \$0-r-tgl-19 empty 0 -9 0 10 #fcfcfc #000000 #000000 0 1;
#X obj 180 140 tgl 20 0 \$0-s \$0-r-tgl-20 empty 0 -9 0 10 #fcfcfc #000000 #000000 0 1;
#X obj 200 140 tgl 20 0 \$0-s \$0-r-tgl-21 empty 0 -9 0 10 #fcfcfc #000000 #000000 0 1;
#X obj 220 140 tgl 20 0 \$0-s \$0-r-tgl-22 empty 0 -9 0 10 #fcfcfc #000000 #000000 0 1;
#X obj 240 140 tgl 20 0 \$0-s \$0-r-tgl-23 empty 0 -9 0 10 #fcfcfc #000000 #000000 0 1;
#X msg 64 246 16;
#X msg 92 246 17;
#X msg 120 246 18;
#X msg 148 246 19;
#X msg 177 246 20;
#X msg 205 246 21;
#X msg 233 246 22;
#X msg 264 246 23;
#X obj 100 160 tgl 20 0 \$0-s \$0-r-tgl-24 empty 0 -9 0 10 #fcfcfc #000000 #000000 0 1;
#X obj 120 160 tgl 20 0 \$0-s \$0-r-tgl-25 empty 0 -9 0 10 #fcfcfc #000000 #000000 0 1;
#X obj 140 160 tgl 20 0 \$0-s \$0-r-tgl-26 empty 0 -9 0 10 #fcfcfc #000000 #000000 0 1;
#X obj 160 160 tgl 20 0 \$0-s \$0-r-tgl-27 empty 0 -9 0 10 #fcfcfc #000000 #000000 0 1;
#X obj 180 160 tgl 20 0 \$0-s \$0-r-tgl-28 empty 0 -9 0 10 #fcfcfc #000000 #000000 0 1;
#X obj 200 160 tgl 20 0 \$0-s \$0-r-tgl-29 empty 0 -9 0 10 #fcfcfc #000000 #000000 0 1;
#X obj 220 160 tgl 20 0 \$0-s \$0-r-tgl-30 empty 0 -9 0 10 #fcfcfc #000000 #000000 0 1;
#X obj 240 160 tgl 20 0 \$0-s \$0-r-tgl-31 empty 0 -9 0 10 #fcfcfc #000000 #000000 0 1;
#X msg 64 267 24;
#X msg 92 267 25;
#X msg 120 267 26;
#X msg 148 267 27;
#X msg 177 267 28;
#X msg 205 267 29;
#X msg 233 267 30;
#X msg 264 267 31;
#X obj 321 357 s \$0-sss-sel-snap;
#X obj 124 37 r \$0-sss-sel-snap;
#N canvas 609 141 567 353 color 0;
#X obj 133 21 inlet;
#X obj 133 83 until;
#X msg 170 83 0;
#X obj 133 104 i;
#X obj 169 104 + 1;
#X msg 133 62 32;
#X msg 340 214 symbol \$2-r-tgl-\$1;
#X obj 340 192 pack f \$0;
#X obj 133 242 s, f 35;
#X obj 133 41 t b b a, f 13;
#X obj 133 189 sel 0, f 16;
#X obj 133 150 list;
#X obj 133 169 list split 1;
#X msg 133 215 color 0 22 22;
#X msg 226 214 color 14 22 22;
#X obj 133 125 t b f, f 9;
#X connect 0 0 9 0;
#X connect 1 0 3 0;
#X connect 2 0 3 1;
#X connect 3 0 4 0;
#X connect 3 0 15 0;
#X connect 4 0 3 1;
#X connect 5 0 1 0;
#X connect 6 0 8 1;
#X connect 7 0 6 0;
#X connect 9 0 5 0;
#X connect 9 1 2 0;
#X connect 9 2 11 1;
#X connect 10 0 13 0;
#X connect 10 1 14 0;
#X connect 11 0 12 0;
#X connect 12 0 10 0;
#X connect 12 1 11 1;
#X connect 13 0 8 0;
#X connect 14 0 8 0;
#X connect 15 0 11 0;
#X connect 15 1 7 0;
#X restore 325 103 pd color;
#X f 17;
#X msg 329 44 1 0 0 0 1 0 0 0 1 0 0 0 1 0 0 0 1 0 0 0 1 0 0 0 1 0 0 0 1 0 0 0;
#X obj 370 78 r \$0-sss-have-data;
#X msg 88 369 sel_snap \$1, f 14;
#X connect 0 0 2 0;
#X connect 0 0 73 0;
#X connect 0 0 68 0;
#X connect 4 0 12 0;
#X connect 5 0 13 0;
#X connect 6 0 14 0;
#X connect 7 0 15 0;
#X connect 8 0 16 0;
#X connect 9 0 17 0;
#X connect 10 0 18 0;
#X connect 11 0 19 0;
#X connect 12 0 0 0;
#X connect 13 0 0 0;
#X connect 14 0 0 0;
#X connect 15 0 0 0;
#X connect 16 0 0 0;
#X connect 17 0 0 0;
#X connect 18 0 0 0;
#X connect 19 0 0 0;
#X connect 20 0 28 0;
#X connect 21 0 29 0;
#X connect 22 0 30 0;
#X connect 23 0 31 0;
#X connect 24 0 32 0;
#X connect 25 0 33 0;
#X connect 26 0 34 0;
#X connect 27 0 35 0;
#X connect 28 0 0 0;
#X connect 29 0 0 0;
#X connect 30 0 0 0;
#X connect 31 0 0 0;
#X connect 32 0 0 0;
#X connect 33 0 0 0;
#X connect 34 0 0 0;
#X connect 35 0 0 0;
#X connect 36 0 44 0;
#X connect 37 0 45 0;
#X connect 38 0 46 0;
#X connect 39 0 47 0;
#X connect 40 0 48 0;
#X connect 41 0 49 0;
#X connect 42 0 50 0;
#X connect 43 0 51 0;
#X connect 44 0 0 0;
#X connect 45 0 0 0;
#X connect 46 0 0 0;
#X connect 47 0 0 0;
#X connect 48 0 0 0;
#X connect 49 0 0 0;
#X connect 50 0 0 0;
#X connect 51 0 0 0;
#X connect 52 0 60 0;
#X connect 53 0 61 0;
#X connect 54 0 62 0;
#X connect 55 0 63 0;
#X connect 56 0 64 0;
#X connect 57 0 65 0;
#X connect 58 0 66 0;
#X connect 59 0 67 0;
#X connect 60 0 0 0;
#X connect 61 0 0 0;
#X connect 62 0 0 0;
#X connect 63 0 0 0;
#X connect 64 0 0 0;
#X connect 65 0 0 0;
#X connect 66 0 0 0;
#X connect 67 0 0 0;
#X connect 69 0 1 0;
#X connect 71 0 70 0;
#X connect 72 0 70 0;
#X connect 73 0 3 0;
#X coords 0 -1 1 1 160 80 2 100 100;
#X restore 200 82 pd;
#X obj 314 404 r \$1-sss-get-info-return;
#N canvas 366 15 734 463 rnd 0;
#N canvas 342 118 676 496 (subpatch) 0;
#X obj 100 100 bng 12 250 50 0 empty empty empty 17 7 0 10 #ffffff #000000 #000000;
#X obj 112 100 nbx 3 12 0 100 0 0 empty empty empty 0 -8 0 10 #ffffff #000000 #000000 0 256;
#X obj 125 132 * 0.01;
#X obj 147 100 tgl 12 0 empty empty empty 17 7 0 10 #ffffff #000000 #000000 0 1;
#X obj 92 153 pack f f f;
#X obj 92 187 outlet;
#X connect 0 0 4 0;
#X connect 1 0 2 0;
#X connect 2 0 4 1;
#X connect 3 0 4 2;
#X connect 4 0 5 0;
#X coords 0 -1 1 1 59 12 2 100 100;
#X restore 140 157 pd;
#X obj 96 274 s \$0-to;
#X text 200 154 rand nbx;
#N canvas 342 118 676 496 (subpatch) 0;
#X obj 100 100 bng 12 250 50 0 empty empty empty 17 7 0 10 #ffffff #000000 #000000;
#X obj 112 100 nbx 3 12 0 100 0 0 empty empty empty 0 -8 0 10 #ffffff #000000 #000000 0 256;
#X obj 125 132 * 0.01;
#X obj 147 100 tgl 12 0 empty empty empty 17 7 0 10 #ffffff #000000 #000000 0 1;
#X obj 92 153 pack f f f;
#X obj 92 187 outlet;
#X connect 0 0 4 0;
#X connect 1 0 2 0;
#X connect 2 0 4 1;
#X connect 3 0 4 2;
#X connect 4 0 5 0;
#X coords 0 -1 1 1 59 12 2 100 100;
#X restore 140 169 pd;
#N canvas 342 118 676 496 (subpatch) 0;
#X obj 100 100 bng 12 250 50 0 empty empty empty 17 7 0 10 #ffffff #000000 #000000;
#X obj 112 100 nbx 3 12 0 100 0 0 empty empty empty 0 -8 0 10 #ffffff #000000 #000000 0 256;
#X obj 125 132 * 0.01;
#X obj 92 187 outlet;
#X obj 92 153 pack f f;
#X connect 0 0 4 0;
#X connect 1 0 2 0;
#X connect 2 0 4 1;
#X connect 4 0 3 0;
#X coords 0 -1 1 1 47 12 2 100 100;
#X restore 140 193 pd;
#N canvas 342 118 676 496 (subpatch) 0;
#X obj 100 100 bng 12 250 50 0 empty empty empty 17 7 0 10 #ffffff #000000 #000000;
#X obj 112 100 nbx 3 12 0 100 0 0 empty empty empty 0 -8 0 10 #ffffff #000000 #000000 0 256;
#X obj 125 132 * 0.01;
#X obj 147 100 tgl 12 0 empty empty empty 17 7 0 10 #ffffff #000000 #000000 0 1;
#X obj 92 153 pack f f f;
#X obj 92 187 outlet;
#X connect 0 0 4 0;
#X connect 1 0 2 0;
#X connect 2 0 4 1;
#X connect 3 0 4 2;
#X connect 4 0 5 0;
#X coords 0 -1 1 1 59 12 2 100 100;
#X restore 140 205 pd;
#X text 200 178 rand radio;
#X text 200 190 rand tgl;
#X text 200 202 rand knob;
#N canvas 342 118 676 496 (subpatch) 0;
#X obj 100 100 bng 12 250 50 0 empty empty empty 17 7 0 10 #ffffff #000000 #000000;
#X obj 112 100 nbx 3 12 0 100 0 0 empty empty empty 0 -8 0 10 #ffffff #000000 #000000 0 256;
#X obj 125 132 * 0.01;
#X obj 92 187 outlet;
#X obj 92 153 pack f f;
#X connect 0 0 4 0;
#X connect 1 0 2 0;
#X connect 2 0 4 1;
#X connect 4 0 3 0;
#X coords 0 -1 1 1 47 12 2 100 100;
#X restore 140 181 pd;
#X obj 8 262 s \$0-to;
#X msg 206 267 rnd radio \$2;
#X msg 289 279 rnd tgl \$2;
#X msg 360 291 rnd knob \$2 \$3;
#X obj 206 286 s \$0-to;
#X obj 289 298 s \$0-to;
#X obj 360 310 s \$0-to;
#X msg 12 241 rnd nbx \$2 \$3;
#X text 200 166 rand slider;
#X msg 96 255 rnd slider \$2 \$3;
#X connect 0 0 17 0;
#X connect 3 0 19 0;
#X connect 4 0 12 0;
#X connect 5 0 13 0;
#X connect 9 0 11 0;
#X connect 11 0 14 0;
#X connect 12 0 15 0;
#X connect 13 0 16 0;
#X connect 17 0 10 0;
#X connect 19 0 1 0;
#X restore 278 356 pd rnd;
#X msg 569 365 path;
#X obj 602 249 loadbang;
#X obj 657 352 n_cnvinfo;
#X obj 657 371 route name;
#X obj 657 390 symbol;
#X obj 657 428 s \$0-to;
#X obj 757 325 s \$0-to;
#X msg 657 409 abs_name \$1;
#X msg 757 306 init;
#X obj 602 469 s \$1-sss-get-info;
#X msg 617 438 bang;
#X obj 495 501 s \$0-to;
#X obj 547 238 bng 17 250 50 0 empty empty empty 0 -9 0 10 #fcfcfc #000000 #000000;
#X obj 574 280 t b b b b b b;
#X obj 217 411 r \$0-to;
#X msg 130 241 info;
#X obj 217 435 sss \$0 \$1;
#X msg 657 333 canvas 1;
#X obj 567 395 s \$0-to;
#X obj 17 492 s \$0-to;
#X msg 576 123 snap_load \$1 \$2;
#X obj 562 41 nbx 5 15 -1e+37 1e+37 0 0 empty empty empty 0 -9 0 10 #fcfcfc #000000 #000000 0 256;
#X obj 587 147 s \$0-to;
#X obj 625 54 nbx 5 15 -1e+37 1e+37 0 0 empty empty empty 0 -9 0 10 #fcfcfc #000000 #000000 0 256;
#X obj 581 102 pack;
#X obj 611 76 t b f;
#N canvas 454 102 548 492 (subpatch) 1;
#X obj 154 102 bng 12 250 50 0 empty empty copy 16 5 0 10 #fcfcfc #000000 #000000;
#X obj 206 102 bng 12 250 50 0 empty empty paste 16 5 0 10 #fcfcfc #000000 #000000;
#X obj 102 102 bng 12 250 50 0 empty empty save 16 5 0 10 #fcfcfc #000000 #000000;
#X msg 282 294 snap_copy;
#X obj 406 211 s \$0-to;
#X obj 282 313 s \$0-to;
#X obj 14 328 s \$0-to;
#X obj 102 116 bng 12 250 50 0 empty empty save\ as 16 5 0 10 #fcfcfc #000000 #000000;
#X obj 206 116 bng 12 250 50 0 empty empty open 16 5 0 10 #fcfcfc #000000 #000000;
#X obj 155 132 bng 12 250 50 0 empty empty erase 16 5 0 10 #fcfcfc #000000 #000000;
#X obj 284 412 s \$0-to;
#X msg 13 296 snap_save \, set_have_data, f 13;
#X msg 284 381 snap_erase \, set_have_data, f 14;
#X msg 405 165 snap_paste \, snap_save \, set_have_data, f 13;
#X obj 93 381 savepanel;
#X obj 93 444 s \$0-to;
#X obj 93 362 symbol;
#X obj 126 343 r \$0-sss-path-snap;
#X msg 93 400 snap_save \, set_have_data \, snap_save_as \$1, f 15;
#X obj 369 284 openpanel;
#X obj 369 336 s \$0-to;
#X obj 369 265 symbol;
#X obj 402 245 r \$0-sss-path-snap;
#X msg 369 304 snap_open \$1 \, set_have_data, f 13;
#X connect 0 0 3 0;
#X connect 1 0 13 0;
#X connect 2 0 11 0;
#X connect 3 0 5 0;
#X connect 7 0 16 0;
#X connect 8 0 21 0;
#X connect 9 0 12 0;
#X connect 11 0 6 0;
#X connect 12 0 10 0;
#X connect 13 0 4 0;
#X connect 14 0 18 0;
#X connect 16 0 14 0;
#X connect 17 0 16 1;
#X connect 18 0 15 0;
#X connect 19 0 23 0;
#X connect 21 0 19 0;
#X connect 22 0 21 1;
#X connect 23 0 20 0;
#X coords 0 -1 1 1 160 46 2 100 100;
#X restore 200 162 pd;
#N canvas 406 120 575 379 (subpatch) 0;
#X obj 51 48 savestate;
#X obj 102 102 bng 12 250 50 0 empty empty save 16 5 0 10 #fcfcfc #000000 #000000;
#X obj 102 188 s \$0-to;
#X obj 148 102 bng 12 250 50 0 empty empty save\ as 16 5 0 10 #fcfcfc #000000 #000000;
#X obj 216 102 bng 12 250 50 0 empty empty open 16 5 0 10 #fcfcfc #000000 #000000;
#X msg 102 169 pro_save;
#X obj 182 217 savepanel;
#X obj 182 255 s \$0-to;
#X msg 182 236 pro_save_as \$1;
#X obj 182 198 symbol;
#X obj 215 175 r \$0-sss-path-pro;
#X obj 347 184 openpanel;
#X obj 347 222 s \$0-to;
#X msg 347 203 pro_open \$1;
#X obj 347 165 symbol;
#X obj 380 145 r \$0-sss-path-pro;
#X connect 0 1 1 0;
#X connect 1 0 5 0;
#X connect 3 0 9 0;
#X connect 4 0 14 0;
#X connect 5 0 2 0;
#X connect 6 0 8 0;
#X connect 8 0 7 0;
#X connect 9 0 6 0;
#X connect 10 0 9 1;
#X connect 11 0 13 0;
#X connect 13 0 12 0;
#X connect 14 0 11 0;
#X connect 15 0 14 1;
#X coords 0 -1 1 1 160 16 2 100 100;
#X restore 200 52 pd;
#X obj 207 215 bng 12 250 50 0 empty empty info 16 5 0 10 #fcfcfc #000000 #000000;
#X obj 120 271 s \$0-to;
#X msg 494 428 set_pro_path \, set_abs_name \, set_pro_name \, calc_focus, f 14;
#X msg 15 400 focus \$1 \, set_ins_name \, set_snap_path \, set_sel_snap \, set_have_data, f 15;
#X connect 0 0 5 0;
#X connect 6 0 41 0;
#X connect 8 0 4 0;
#X connect 10 0 28 0;
#X connect 11 0 23 0;
#X connect 12 0 13 0;
#X connect 13 0 14 0;
#X connect 14 0 17 0;
#X connect 17 0 15 0;
#X connect 18 0 16 0;
#X connect 20 0 19 0;
#X connect 22 0 23 0;
#X connect 23 1 40 0;
#X connect 23 2 10 0;
#X connect 23 3 20 0;
#X connect 23 4 27 0;
#X connect 23 5 18 0;
#X connect 24 0 26 0;
#X connect 25 0 39 0;
#X connect 27 0 12 0;
#X connect 30 0 32 0;
#X connect 31 0 34 0;
#X connect 33 0 35 0;
#X connect 34 0 30 0;
#X connect 35 0 34 0;
#X connect 35 1 34 1;
#X connect 38 0 25 0;
#X connect 40 0 21 0;
#X connect 41 0 29 0;
#X coords 0 -1 1 1 160 222 1 200 10;
