#N canvas 189 104 981 525 10;
#X obj 135 293 inlet;
#X obj 27 8 savestate;
#X obj 202 54 bng 12 250 50 0 empty empty save 16 5 0 10 #fcfcfc #000000 #000000;
#X obj 387 85 s \$0-to;
#N canvas 455 216 450 300 (subpatch) 0;
#X obj 101 101 cnv 12 158 12 empty \$0-sss-cnv-abs-name sss-help 2 6 0 10 #bbbbbb #000000 0;
#X coords 0 -1 1 1 160 14 2 100 100;
#X restore 200 24 pd;
#N canvas 455 216 450 300 (subpatch) 0;
#X obj 101 101 cnv 12 158 12 empty \$0-sss-cnv-pro-name default 2 6 0 10 #bbbbbb #000000 0;
#X coords 0 -1 1 1 160 14 2 100 100;
#X restore 200 38 pd;
#N canvas 455 216 450 300 (subpatch) 0;
#X obj 101 101 cnv 12 158 12 empty \$0-sss-cnv-ins-name example1 2 6 0 10 #bbbbbb #000000 0;
#X coords 0 -1 1 1 160 14 2 100 100;
#X restore 200 68 pd;
#X obj 248 54 bng 12 250 50 0 empty empty save\ as 16 5 0 10 #fcfcfc #000000 #000000;
#X obj 316 54 bng 12 250 50 0 empty empty open 16 5 0 10 #fcfcfc #000000 #000000;
#X obj 480 298 s \$0-to;
#X obj 131 316 s \$0-to;
#X obj 202 139 bng 12 250 50 0 empty empty copy 16 5 0 10 #fcfcfc #000000 #000000;
#X obj 248 139 bng 12 250 50 0 empty empty paste 16 5 0 10 #fcfcfc #000000 #000000;
#X obj 315 139 bng 12 250 50 0 empty empty save 16 5 0 10 #fcfcfc #000000 #000000;
#X msg 310 185 snap_copy;
#X msg 390 185 snap_paste;
#X obj 390 204 s \$0-to;
#X obj 72 360 r \$1-sss-focus;
#X msg 387 66 pro_save;
#X obj 310 204 s \$0-to;
#X obj 486 141 s \$0-to;
#X obj 566 122 s \$0-to;
#X obj 477 204 s \$0-to;
#X msg 477 185 snap_save;
#N canvas 562 238 450 300 save_as 0;
#X obj 88 42 inlet;
#X obj 88 135 savepanel;
#X obj 88 173 s \$0-to;
#X msg 88 154 pro_save_as \$1;
#X obj 88 116 symbol;
#X obj 121 93 symbol;
#X obj 121 71 r \$0-sss-path-pro;
#X connect 0 0 4 0;
#X connect 1 0 3 0;
#X connect 3 0 2 0;
#X connect 4 0 1 0;
#X connect 5 0 4 1;
#X connect 6 0 5 0;
#X restore 463 66 pd save_as;
#N canvas 455 216 450 300 open 0;
#X obj 88 42 inlet;
#X obj 88 141 openpanel;
#X obj 88 179 s \$0-to;
#X msg 88 160 pro_open \$1;
#X obj 88 122 symbol;
#X obj 121 100 symbol;
#X obj 121 78 r \$0-sss-path-pro;
#X connect 0 0 4 0;
#X connect 1 0 3 0;
#X connect 3 0 2 0;
#X connect 4 0 1 0;
#X connect 5 0 4 1;
#X connect 6 0 5 0;
#X restore 548 66 pd open;
#X obj 248 124 bng 12 250 50 0 empty empty save\ as 16 5 0 10 #fcfcfc #000000 #000000;
#X obj 315 124 bng 12 250 50 0 empty empty open 16 5 0 10 #fcfcfc #000000 #000000;
#N canvas 455 216 450 300 save_as 0;
#X obj 88 42 inlet;
#X obj 88 135 savepanel;
#X obj 88 173 s \$0-to;
#X obj 88 116 symbol;
#X msg 88 154 snap_save_as \$1;
#X obj 121 91 symbol;
#X obj 121 69 r \$0-sss-path-snap;
#X connect 0 0 3 0;
#X connect 1 0 4 0;
#X connect 3 0 1 0;
#X connect 4 0 2 0;
#X connect 5 0 3 1;
#X connect 6 0 5 0;
#X restore 365 136 pd save_as;
#N canvas 455 216 450 300 open 0;
#X obj 88 42 inlet;
#X obj 88 141 openpanel;
#X obj 88 179 s \$0-to;
#X obj 88 122 symbol;
#X msg 88 160 snap_open \$1;
#X obj 121 100 symbol;
#X obj 121 78 r \$0-sss-path-snap;
#X connect 0 0 3 0;
#X connect 1 0 4 0;
#X connect 3 0 1 0;
#X connect 4 0 2 0;
#X connect 5 0 3 1;
#X connect 6 0 5 0;
#X restore 434 136 pd open;
#N canvas 455 156 449 421 (subpatch) 0;
#X obj 100 100 tgl 20 0 \$0-s \$0-r empty 0 -9 0 10 #fcfcfc #000000 #000000 0 1;
#X obj 120 100 tgl 20 0 \$0-s \$0-r empty 0 -9 0 10 #fcfcfc #000000 #000000 0 1;
#X obj 140 100 tgl 20 0 \$0-s \$0-r empty 0 -9 0 10 #fcfcfc #000000 #000000 0 1;
#X obj 160 100 tgl 20 0 1058-s 1058-r empty 0 -9 0 10 #fcfcfc #000000 #000000 0 1;
#X obj 180 100 tgl 20 0 \$0-s \$0-r empty 0 -9 0 10 #fcfcfc #000000 #000000 0 1;
#X obj 200 100 tgl 20 0 \$0-s \$0-r empty 0 -9 0 10 #fcfcfc #000000 #000000 0 1;
#X obj 220 100 tgl 20 0 \$0-s \$0-r empty 0 -9 0 10 #fcfcfc #000000 #000000 0 1;
#X obj 240 100 tgl 20 0 \$0-s \$0-r empty 0 -9 0 10 #fcfcfc #000000 #000000 0 1;
#X msg 100 152 0;
#X msg 120 176 1;
#X msg 140 198 2;
#X msg 160 222 3;
#X msg 180 249 4;
#X msg 200 273 5;
#X msg 220 295 6;
#X msg 240 319 7;
#X obj 246 340 i;
#N canvas 343 97 674 539 color 0;
#X obj 241 12 inlet;
#X obj 70 431 outlet;
#X obj 201 81 until;
#X msg 242 87 0;
#X obj 203 108 i;
#X obj 238 111 + 1;
#X msg 205 57 8;
#X obj 187 270 sel 0;
#X obj 215 340 list prepend;
#X obj 215 362 route 0 1 2 3 4 5 6 7;
#X obj 116 431 outlet;
#X obj 168 430 outlet;
#X obj 214 430 outlet;
#X obj 266 429 outlet;
#X obj 312 429 outlet;
#X obj 364 428 outlet;
#X obj 410 428 outlet;
#X obj 168 198 list;
#X obj 170 224 list split 1;
#X obj 239 35 t b b a;
#X obj 205 136 t b f;
#X msg 149 316 color 0 22 22;
#X msg 241 315 color 14 22 22;
#X connect 0 0 19 0;
#X connect 2 0 4 0;
#X connect 3 0 4 1;
#X connect 4 0 5 0;
#X connect 4 0 20 0;
#X connect 5 0 4 1;
#X connect 6 0 2 0;
#X connect 7 0 21 0;
#X connect 7 1 22 0;
#X connect 8 0 9 0;
#X connect 9 0 1 0;
#X connect 9 1 10 0;
#X connect 9 2 11 0;
#X connect 9 3 12 0;
#X connect 9 4 13 0;
#X connect 9 5 14 0;
#X connect 9 6 15 0;
#X connect 9 7 16 0;
#X connect 17 0 18 0;
#X connect 18 0 7 0;
#X connect 18 1 17 1;
#X connect 19 0 6 0;
#X connect 19 1 3 0;
#X connect 19 2 17 1;
#X connect 20 0 17 0;
#X connect 20 1 8 1;
#X connect 21 0 8 0;
#X connect 22 0 8 0;
#X restore 266 54 pd color;
#X f 17;
#X obj 124 37 r \$0-sss-sel-bank;
#X obj 297 357 s \$0-sss-sel-bank;
#N canvas 395 142 570 448 set 0;
#X obj 241 12 inlet;
#X obj 84 347 outlet;
#X obj 201 81 until;
#X msg 242 87 0;
#X obj 203 108 i;
#X obj 238 111 + 1;
#X msg 205 57 8;
#X obj 239 35 t b b f;
#X obj 217 180 == 0;
#X obj 217 202 sel 0;
#X obj 206 136 t f f;
#X obj 229 256 list prepend;
#X obj 229 278 route 0 1 2 3 4 5 6 7;
#X obj 130 347 outlet;
#X obj 182 346 outlet;
#X obj 228 346 outlet;
#X obj 280 345 outlet;
#X obj 326 345 outlet;
#X obj 378 344 outlet;
#X obj 424 344 outlet;
#X msg 254 232 set 1;
#X msg 162 231 set 0;
#X connect 0 0 7 0;
#X connect 2 0 4 0;
#X connect 3 0 4 1;
#X connect 4 0 5 0;
#X connect 4 0 10 0;
#X connect 5 0 4 1;
#X connect 6 0 2 0;
#X connect 7 0 6 0;
#X connect 7 1 3 0;
#X connect 7 2 8 1;
#X connect 8 0 9 0;
#X connect 9 0 21 0;
#X connect 9 1 20 0;
#X connect 10 0 8 0;
#X connect 10 1 11 1;
#X connect 11 0 12 0;
#X connect 12 0 1 0;
#X connect 12 1 13 0;
#X connect 12 2 14 0;
#X connect 12 3 15 0;
#X connect 12 4 16 0;
#X connect 12 5 17 0;
#X connect 12 6 18 0;
#X connect 12 7 19 0;
#X connect 20 0 11 0;
#X connect 21 0 11 0;
#X restore 124 62 pd set;
#X f 17;
#X msg 253 13 1 0 0 0 1 0 0 0;
#X obj 270 33 r \$0-sss-bank-have-data;
#X obj 116 358 outlet;
#X connect 0 0 8 0;
#X connect 1 0 9 0;
#X connect 2 0 10 0;
#X connect 3 0 11 0;
#X connect 4 0 12 0;
#X connect 5 0 13 0;
#X connect 6 0 14 0;
#X connect 7 0 15 0;
#X connect 8 0 16 0;
#X connect 9 0 16 0;
#X connect 10 0 16 0;
#X connect 11 0 16 0;
#X connect 12 0 16 0;
#X connect 13 0 16 0;
#X connect 14 0 16 0;
#X connect 15 0 16 0;
#X connect 16 0 19 0;
#X connect 16 0 23 0;
#X connect 17 0 0 0;
#X connect 17 1 1 0;
#X connect 17 2 2 0;
#X connect 17 3 3 0;
#X connect 17 4 4 0;
#X connect 17 5 5 0;
#X connect 17 6 6 0;
#X connect 17 7 7 0;
#X connect 18 0 20 0;
#X connect 20 0 0 0;
#X connect 20 1 1 0;
#X connect 20 2 2 0;
#X connect 20 3 3 0;
#X connect 20 4 4 0;
#X connect 20 5 5 0;
#X connect 20 6 6 0;
#X connect 20 7 7 0;
#X connect 21 0 17 0;
#X connect 22 0 17 0;
#X coords 0 -1 1 1 160 20 2 100 100;
#X restore 200 82 pd;
#N canvas 455 156 449 421 (subpatch) 0;
#X obj 100 100 tgl 20 0 \$0-s \$0-r empty 0 -9 0 10 #fcfcfc #000000 #000000 0 1;
#X obj 120 100 tgl 20 0 \$0-s \$0-r empty 0 -9 0 10 #fcfcfc #000000 #000000 0 1;
#X obj 140 100 tgl 20 0 \$0-s \$0-r empty 0 -9 0 10 #fcfcfc #000000 #000000 0 1;
#X obj 160 100 tgl 20 0 1058-s 1058-r empty 0 -9 0 10 #fcfcfc #000000 #000000 0 1;
#X obj 180 100 tgl 20 0 \$0-s \$0-r empty 0 -9 0 10 #fcfcfc #000000 #000000 0 1;
#X obj 200 100 tgl 20 0 \$0-s \$0-r empty 0 -9 0 10 #fcfcfc #000000 #000000 0 1;
#X obj 220 100 tgl 20 0 \$0-s \$0-r empty 0 -9 0 10 #fcfcfc #000000 #000000 0 1;
#X obj 240 100 tgl 20 0 \$0-s \$0-r empty 0 -9 0 10 #fcfcfc #000000 #000000 0 1;
#X msg 100 152 0;
#X msg 120 176 1;
#X msg 140 198 2;
#X msg 160 222 3;
#X msg 180 249 4;
#X msg 200 273 5;
#X msg 220 295 6;
#X msg 240 319 7;
#X obj 246 340 i;
#N canvas 141 99 674 539 color 0;
#X obj 241 12 inlet;
#X obj 70 431 outlet;
#X obj 201 81 until;
#X msg 242 87 0;
#X obj 203 108 i;
#X obj 238 111 + 1;
#X msg 205 57 8;
#X obj 187 270 sel 0;
#X obj 215 340 list prepend;
#X obj 215 362 route 0 1 2 3 4 5 6 7;
#X obj 116 431 outlet;
#X obj 168 430 outlet;
#X obj 214 430 outlet;
#X obj 266 429 outlet;
#X obj 312 429 outlet;
#X obj 364 428 outlet;
#X obj 410 428 outlet;
#X obj 168 198 list;
#X obj 170 224 list split 1;
#X obj 239 35 t b b a;
#X obj 205 136 t b f;
#X msg 149 316 color 0 22 22;
#X msg 241 315 color 15 22 22;
#X connect 0 0 19 0;
#X connect 2 0 4 0;
#X connect 3 0 4 1;
#X connect 4 0 5 0;
#X connect 4 0 20 0;
#X connect 5 0 4 1;
#X connect 6 0 2 0;
#X connect 7 0 21 0;
#X connect 7 1 22 0;
#X connect 8 0 9 0;
#X connect 9 0 1 0;
#X connect 9 1 10 0;
#X connect 9 2 11 0;
#X connect 9 3 12 0;
#X connect 9 4 13 0;
#X connect 9 5 14 0;
#X connect 9 6 15 0;
#X connect 9 7 16 0;
#X connect 17 0 18 0;
#X connect 18 0 7 0;
#X connect 18 1 17 1;
#X connect 19 0 6 0;
#X connect 19 1 3 0;
#X connect 19 2 17 1;
#X connect 20 0 17 0;
#X connect 20 1 8 1;
#X connect 21 0 8 0;
#X connect 22 0 8 0;
#X restore 266 54 pd color;
#X f 17;
#N canvas 395 142 570 448 set 0;
#X obj 241 12 inlet;
#X obj 84 347 outlet;
#X obj 201 81 until;
#X msg 242 87 0;
#X obj 203 108 i;
#X obj 238 111 + 1;
#X msg 205 57 8;
#X obj 239 35 t b b f;
#X obj 217 180 == 0;
#X obj 217 202 sel 0;
#X obj 206 136 t f f;
#X obj 229 256 list prepend;
#X obj 229 278 route 0 1 2 3 4 5 6 7;
#X obj 130 347 outlet;
#X obj 182 346 outlet;
#X obj 228 346 outlet;
#X obj 280 345 outlet;
#X obj 326 345 outlet;
#X obj 378 344 outlet;
#X obj 424 344 outlet;
#X msg 254 232 set 1;
#X msg 162 231 set 0;
#X connect 0 0 7 0;
#X connect 2 0 4 0;
#X connect 3 0 4 1;
#X connect 4 0 5 0;
#X connect 4 0 10 0;
#X connect 5 0 4 1;
#X connect 6 0 2 0;
#X connect 7 0 6 0;
#X connect 7 1 3 0;
#X connect 7 2 8 1;
#X connect 8 0 9 0;
#X connect 9 0 21 0;
#X connect 9 1 20 0;
#X connect 10 0 8 0;
#X connect 10 1 11 1;
#X connect 11 0 12 0;
#X connect 12 0 1 0;
#X connect 12 1 13 0;
#X connect 12 2 14 0;
#X connect 12 3 15 0;
#X connect 12 4 16 0;
#X connect 12 5 17 0;
#X connect 12 6 18 0;
#X connect 12 7 19 0;
#X connect 20 0 11 0;
#X connect 21 0 11 0;
#X restore 124 62 pd set;
#X f 17;
#X msg 253 13 1 0 0 0 1 0 0 0;
#X obj 269 32 r \$0-sss-snap-have-data;
#X obj 124 37 r \$0-sss-sel-snap;
#X obj 297 357 s \$0-sss-sel-snap;
#X obj 116 358 outlet;
#X connect 0 0 8 0;
#X connect 1 0 9 0;
#X connect 2 0 10 0;
#X connect 3 0 11 0;
#X connect 4 0 12 0;
#X connect 5 0 13 0;
#X connect 6 0 14 0;
#X connect 7 0 15 0;
#X connect 8 0 16 0;
#X connect 9 0 16 0;
#X connect 10 0 16 0;
#X connect 11 0 16 0;
#X connect 12 0 16 0;
#X connect 13 0 16 0;
#X connect 14 0 16 0;
#X connect 15 0 16 0;
#X connect 16 0 22 0;
#X connect 16 0 23 0;
#X connect 17 0 0 0;
#X connect 17 1 1 0;
#X connect 17 2 2 0;
#X connect 17 3 3 0;
#X connect 17 4 4 0;
#X connect 17 5 5 0;
#X connect 17 6 6 0;
#X connect 17 7 7 0;
#X connect 18 0 0 0;
#X connect 18 1 1 0;
#X connect 18 2 2 0;
#X connect 18 3 3 0;
#X connect 18 4 4 0;
#X connect 18 5 5 0;
#X connect 18 6 6 0;
#X connect 18 7 7 0;
#X connect 19 0 17 0;
#X connect 20 0 17 0;
#X connect 21 0 18 0;
#X coords 0 -1 1 1 160 20 2 100 100;
#X restore 200 102 pd;
#X msg 486 122 sel_snap \$1;
#X msg 566 102 sel_bank \$1 \, set_sel_snap;
#X obj 475 269 r \$1-sss-get-info-return;
#N canvas 366 15 734 463 rnd 0;
#N canvas 342 118 676 496 (subpatch) 0;
#X obj 100 100 bng 12 250 50 0 empty empty empty 17 7 0 10 #ffffff #000000 #000000;
#X obj 112 100 nbx 3 12 0 100 0 0 empty empty empty 0 -8 0 10 #ffffff #000000 #000000 0 256;
#X obj 125 132 * 0.01;
#X obj 147 100 tgl 12 0 empty empty empty 17 7 0 10 #ffffff #000000 #000000 0 1;
#X obj 92 153 pack f f f;
#X obj 92 187 outlet;
#X connect 0 0 4 0;
#X connect 1 0 2 0;
#X connect 2 0 4 1;
#X connect 3 0 4 2;
#X connect 4 0 5 0;
#X coords 0 -1 1 1 59 12 2 100 100;
#X restore 140 157 pd;
#X obj 96 274 s \$0-to;
#X text 200 154 rand nbx;
#N canvas 342 118 676 496 (subpatch) 0;
#X obj 100 100 bng 12 250 50 0 empty empty empty 17 7 0 10 #ffffff #000000 #000000;
#X obj 112 100 nbx 3 12 0 100 0 0 empty empty empty 0 -8 0 10 #ffffff #000000 #000000 0 256;
#X obj 125 132 * 0.01;
#X obj 147 100 tgl 12 0 empty empty empty 17 7 0 10 #ffffff #000000 #000000 0 1;
#X obj 92 153 pack f f f;
#X obj 92 187 outlet;
#X connect 0 0 4 0;
#X connect 1 0 2 0;
#X connect 2 0 4 1;
#X connect 3 0 4 2;
#X connect 4 0 5 0;
#X coords 0 -1 1 1 59 12 2 100 100;
#X restore 140 169 pd;
#N canvas 342 118 676 496 (subpatch) 0;
#X obj 100 100 bng 12 250 50 0 empty empty empty 17 7 0 10 #ffffff #000000 #000000;
#X obj 112 100 nbx 3 12 0 100 0 0 empty empty empty 0 -8 0 10 #ffffff #000000 #000000 0 256;
#X obj 125 132 * 0.01;
#X obj 92 187 outlet;
#X obj 92 153 pack f f;
#X connect 0 0 4 0;
#X connect 1 0 2 0;
#X connect 2 0 4 1;
#X connect 4 0 3 0;
#X coords 0 -1 1 1 47 12 2 100 100;
#X restore 140 193 pd;
#N canvas 342 118 676 496 (subpatch) 0;
#X obj 100 100 bng 12 250 50 0 empty empty empty 17 7 0 10 #ffffff #000000 #000000;
#X obj 112 100 nbx 3 12 0 100 0 0 empty empty empty 0 -8 0 10 #ffffff #000000 #000000 0 256;
#X obj 125 132 * 0.01;
#X obj 147 100 tgl 12 0 empty empty empty 17 7 0 10 #ffffff #000000 #000000 0 1;
#X obj 92 153 pack f f f;
#X obj 92 187 outlet;
#X connect 0 0 4 0;
#X connect 1 0 2 0;
#X connect 2 0 4 1;
#X connect 3 0 4 2;
#X connect 4 0 5 0;
#X coords 0 -1 1 1 59 12 2 100 100;
#X restore 140 205 pd;
#X text 200 178 rand radio;
#X text 200 190 rand tgl;
#X text 200 202 rand knob;
#N canvas 342 118 676 496 (subpatch) 0;
#X obj 100 100 bng 12 250 50 0 empty empty empty 17 7 0 10 #ffffff #000000 #000000;
#X obj 112 100 nbx 3 12 0 100 0 0 empty empty empty 0 -8 0 10 #ffffff #000000 #000000 0 256;
#X obj 125 132 * 0.01;
#X obj 92 187 outlet;
#X obj 92 153 pack f f;
#X connect 0 0 4 0;
#X connect 1 0 2 0;
#X connect 2 0 4 1;
#X connect 4 0 3 0;
#X coords 0 -1 1 1 47 12 2 100 100;
#X restore 140 181 pd;
#X obj 8 262 s \$0-to;
#X msg 206 267 rnd radio \$2;
#X msg 289 279 rnd tgl \$2;
#X msg 360 291 rnd knob \$2 \$3;
#X obj 206 286 s \$0-to;
#X obj 289 298 s \$0-to;
#X obj 360 310 s \$0-to;
#X msg 12 241 rnd nbx \$2 \$3;
#X text 200 166 rand slider;
#X msg 96 255 rnd slider \$2 \$3;
#X connect 0 0 17 0;
#X connect 3 0 19 0;
#X connect 4 0 12 0;
#X connect 5 0 13 0;
#X connect 9 0 11 0;
#X connect 11 0 14 0;
#X connect 12 0 15 0;
#X connect 13 0 16 0;
#X connect 17 0 10 0;
#X connect 19 0 1 0;
#X restore 788 100 pd rnd;
#X msg 732 329 path;
#X obj 765 213 loadbang;
#X obj 820 316 n_cnvinfo;
#X obj 820 335 route name;
#X obj 820 354 symbol;
#X obj 820 392 s \$0-to;
#X obj 920 289 s \$0-to;
#X msg 820 373 abs_name \$1;
#X msg 920 270 init;
#X obj 765 433 s \$1-sss-get-info;
#X msg 780 402 bang;
#X obj 623 400 s \$0-to;
#X obj 740 215 bng 17 250 50 0 empty empty empty 0 -9 0 10 #fcfcfc #000000 #000000;
#X obj 737 244 t b b b b b b;
#X obj 247 279 r \$0-to;
#X msg 365 327 info;
#X obj 267 360 sss \$0 \$1;
#X msg 820 297 canvas 1;
#X obj 730 359 s \$0-to;
#X obj 85 471 s \$0-to;
#X msg 621 326 set_pro_path \, set_abs_name \, set_pro_name \, set_focus, f 14;
#X msg 59 381 focus \$1 \, set_ins_name \, set_snap_path \, set_bank \, set_sel_bank \, set_sel_snap, f 15;
#X connect 0 0 10 0;
#X connect 1 1 2 0;
#X connect 2 0 18 0;
#X connect 7 0 24 0;
#X connect 8 0 25 0;
#X connect 11 0 14 0;
#X connect 12 0 15 0;
#X connect 13 0 23 0;
#X connect 14 0 19 0;
#X connect 15 0 16 0;
#X connect 17 0 57 0;
#X connect 18 0 3 0;
#X connect 23 0 22 0;
#X connect 26 0 28 0;
#X connect 27 0 29 0;
#X connect 30 0 33 0;
#X connect 31 0 32 0;
#X connect 32 0 20 0;
#X connect 33 0 21 0;
#X connect 34 0 9 0;
#X connect 36 0 54 0;
#X connect 38 0 39 0;
#X connect 39 0 40 0;
#X connect 40 0 43 0;
#X connect 43 0 41 0;
#X connect 44 0 42 0;
#X connect 46 0 45 0;
#X connect 48 0 49 0;
#X connect 49 1 56 0;
#X connect 49 2 36 0;
#X connect 49 3 46 0;
#X connect 49 4 53 0;
#X connect 49 5 44 0;
#X connect 50 0 52 0;
#X connect 51 0 52 0;
#X connect 53 0 38 0;
#X connect 56 0 47 0;
#X connect 57 0 55 0;
#X coords 0 -1 1 1 160 222 1 200 10;
