#N canvas 274 15 1196 576 10;
#X declare -path pdpython;
#X obj 93 336 inlet;
#X obj 829 249 loadbang;
#X obj 91 460 declare -path pdpython;
#X obj 43 535 s;
#X obj 353 37 savestate;
#X obj 43 499 route msg send;
#X obj 83 518 symbol;
#X obj 442 54 bng 12 250 50 0 empty empty save 16 5 0 10 #fcfcfc #000000 #000000;
#X obj 627 85 s \$0-to;
#X obj 931 428 n_cnvinfo;
#X obj 931 447 route name;
#X msg 931 409 canvas 1;
#X obj 931 466 symbol;
#N canvas 455 216 450 300 (subpatch) 0;
#X obj 101 101 cnv 12 158 12 empty \$0-sss-cnv-abs-name sss-help 2 6 0 10 #bbbbbb #000000 0;
#X coords 0 -1 1 1 160 14 2 100 100;
#X restore 440 24 pd;
#N canvas 455 216 450 300 (subpatch) 0;
#X obj 101 101 cnv 12 158 12 empty \$0-sss-cnv-pro-name default 2 6 0 10 #bbbbbb #000000 0;
#X coords 0 -1 1 1 160 14 2 100 100;
#X restore 440 38 pd;
#N canvas 455 216 450 300 (subpatch) 0;
#X obj 101 101 cnv 12 158 12 empty \$0-sss-cnv-ins-name ----- 2 6 0 10 #bbbbbb #000000 0;
#X coords 0 -1 1 1 160 14 2 100 100;
#X restore 440 68 pd;
#X obj 672 540 s \$0-to;
#X obj 931 504 s \$0-to;
#X obj 1001 418 s \$0-to;
#X obj 488 54 bng 12 250 50 0 empty empty save\ as 16 5 0 10 #fcfcfc #000000 #000000;
#X obj 556 54 bng 12 250 50 0 empty empty open 16 5 0 10 #fcfcfc #000000 #000000;
#X obj 343 531 s \$0-to;
#X obj 93 355 s \$0-to;
#X obj 43 460 r \$0-to;
#X obj 442 139 bng 12 250 50 0 empty empty copy 16 5 0 10 #fcfcfc #000000 #000000;
#X obj 488 139 bng 12 250 50 0 empty empty paste 16 5 0 10 #fcfcfc #000000 #000000;
#X obj 555 139 bng 12 250 50 0 empty empty save 16 5 0 10 #fcfcfc #000000 #000000;
#N canvas 342 118 676 496 (subpatch) 0;
#X obj 100 100 bng 12 250 50 0 empty empty empty 17 7 0 10 #ffffff #000000 #000000;
#X obj 112 100 nbx 3 12 0 100 0 0 empty empty empty 0 -8 0 10 #ffffff #000000 #000000 0 256;
#X obj 125 132 * 0.01;
#X obj 147 100 tgl 12 0 empty empty empty 17 7 0 10 #ffffff #000000 #000000 0 1;
#X obj 92 153 pack f f f;
#X obj 92 187 outlet;
#X connect 0 0 4 0;
#X connect 1 0 2 0;
#X connect 2 0 4 1;
#X connect 3 0 4 2;
#X connect 4 0 5 0;
#X coords 0 -1 1 1 59 12 2 100 100;
#X restore 87 45 pd;
#X obj 96 251 s \$0-to;
#X text 147 42 rand nbx;
#N canvas 342 118 676 496 (subpatch) 0;
#X obj 100 100 bng 12 250 50 0 empty empty empty 17 7 0 10 #ffffff #000000 #000000;
#X obj 112 100 nbx 3 12 0 100 0 0 empty empty empty 0 -8 0 10 #ffffff #000000 #000000 0 256;
#X obj 125 132 * 0.01;
#X obj 147 100 tgl 12 0 empty empty empty 17 7 0 10 #ffffff #000000 #000000 0 1;
#X obj 92 153 pack f f f;
#X obj 92 187 outlet;
#X connect 0 0 4 0;
#X connect 1 0 2 0;
#X connect 2 0 4 1;
#X connect 3 0 4 2;
#X connect 4 0 5 0;
#X coords 0 -1 1 1 59 12 2 100 100;
#X restore 87 57 pd;
#N canvas 342 118 676 496 (subpatch) 0;
#X obj 100 100 bng 12 250 50 0 empty empty empty 17 7 0 10 #ffffff #000000 #000000;
#X obj 112 100 nbx 3 12 0 100 0 0 empty empty empty 0 -8 0 10 #ffffff #000000 #000000 0 256;
#X obj 125 132 * 0.01;
#X obj 92 187 outlet;
#X obj 92 153 pack f f;
#X connect 0 0 4 0;
#X connect 1 0 2 0;
#X connect 2 0 4 1;
#X connect 4 0 3 0;
#X coords 0 -1 1 1 47 12 2 100 100;
#X restore 87 81 pd;
#N canvas 342 118 676 496 (subpatch) 0;
#X obj 100 100 bng 12 250 50 0 empty empty empty 17 7 0 10 #ffffff #000000 #000000;
#X obj 112 100 nbx 3 12 0 100 0 0 empty empty empty 0 -8 0 10 #ffffff #000000 #000000 0 256;
#X obj 125 132 * 0.01;
#X obj 147 100 tgl 12 0 empty empty empty 17 7 0 10 #ffffff #000000 #000000 0 1;
#X obj 92 153 pack f f f;
#X obj 92 187 outlet;
#X connect 0 0 4 0;
#X connect 1 0 2 0;
#X connect 2 0 4 1;
#X connect 3 0 4 2;
#X connect 4 0 5 0;
#X coords 0 -1 1 1 59 12 2 100 100;
#X restore 87 93 pd;
#X text 147 66 rand radio;
#X text 147 78 rand tgl;
#X text 147 90 rand knob;
#N canvas 342 118 676 496 (subpatch) 0;
#X obj 100 100 bng 12 250 50 0 empty empty empty 17 7 0 10 #ffffff #000000 #000000;
#X obj 112 100 nbx 3 12 0 100 0 0 empty empty empty 0 -8 0 10 #ffffff #000000 #000000 0 256;
#X obj 125 132 * 0.01;
#X obj 92 187 outlet;
#X obj 92 153 pack f f;
#X connect 0 0 4 0;
#X connect 1 0 2 0;
#X connect 2 0 4 1;
#X connect 4 0 3 0;
#X coords 0 -1 1 1 47 12 2 100 100;
#X restore 87 69 pd;
#X msg 193 151 snap_copy;
#X msg 273 151 snap_paste;
#X obj 273 170 s \$0-to;
#X obj 619 375 r \$1-sss-focus;
#X msg 627 66 pro_save;
#X obj 193 170 s \$0-to;
#X obj 8 239 s \$0-to;
#X msg 206 244 rnd radio \$2;
#X msg 289 256 rnd tgl \$2;
#X msg 360 268 rnd knob \$2 \$3;
#X obj 206 263 s \$0-to;
#X obj 289 275 s \$0-to;
#X obj 360 287 s \$0-to;
#X msg 8 220 rnd nbx \$2 \$3;
#X text 147 54 rand slider;
#X msg 96 232 rnd slider \$2 \$3;
#X obj 782 141 s \$0-to;
#X obj 909 134 s \$0-to;
#X msg 931 485 abs_name \$1;
#X obj 235 379 print;
#X obj 360 170 s \$0-to;
#X msg 360 151 snap_save;
#N canvas 455 216 450 300 save_as 0;
#X obj 88 42 inlet;
#X obj 88 135 savepanel;
#X obj 88 173 s \$0-to;
#X msg 88 154 pro_save_as \$1;
#X obj 88 116 symbol;
#X obj 121 69 r \$0-sss-pro-path;
#X obj 121 93 symbol;
#X connect 0 0 4 0;
#X connect 1 0 3 0;
#X connect 3 0 2 0;
#X connect 4 0 1 0;
#X connect 5 0 6 0;
#X connect 6 0 4 1;
#X restore 703 66 pd save_as;
#N canvas 455 216 450 300 open 0;
#X obj 88 42 inlet;
#X obj 88 141 openpanel;
#X obj 88 179 s \$0-to;
#X msg 88 160 pro_open \$1;
#X obj 88 122 symbol;
#X obj 121 78 r \$0-sss-pro-path;
#X obj 121 100 symbol;
#X connect 0 0 4 0;
#X connect 1 0 3 0;
#X connect 3 0 2 0;
#X connect 4 0 1 0;
#X connect 5 0 6 0;
#X connect 6 0 4 1;
#X restore 788 66 pd open;
#X obj 488 124 bng 12 250 50 0 empty empty save\ as 16 5 0 10 #fcfcfc #000000 #000000;
#X obj 555 124 bng 12 250 50 0 empty empty open 16 5 0 10 #fcfcfc #000000 #000000;
#N canvas 455 216 450 300 save_as 0;
#X obj 88 42 inlet;
#X obj 88 135 savepanel;
#X obj 88 173 s \$0-to;
#X obj 88 116 symbol;
#X obj 121 69 r \$0-sss-snap-path;
#X msg 88 154 snap_save_as \$1;
#X obj 121 91 symbol;
#X connect 0 0 3 0;
#X connect 1 0 5 0;
#X connect 3 0 1 0;
#X connect 4 0 6 0;
#X connect 5 0 2 0;
#X connect 6 0 3 1;
#X restore 629 136 pd save_as;
#N canvas 455 216 450 300 open 0;
#X obj 88 42 inlet;
#X obj 88 141 openpanel;
#X obj 88 179 s \$0-to;
#X obj 88 122 symbol;
#X obj 121 78 r \$0-sss-snap-path;
#X msg 88 160 snap_open \$1;
#X obj 121 100 symbol;
#X connect 0 0 3 0;
#X connect 1 0 5 0;
#X connect 3 0 1 0;
#X connect 4 0 6 0;
#X connect 5 0 2 0;
#X connect 6 0 3 1;
#X restore 714 136 pd open;
#N canvas 455 156 449 421 (subpatch) 0;
#X obj 100 100 tgl 20 0 \$0-s \$0-r empty 0 -9 0 10 #fcfcfc #000000 #000000 0 1;
#X obj 120 100 tgl 20 0 \$0-s \$0-r empty 0 -9 0 10 #fcfcfc #000000 #000000 0 1;
#X obj 140 100 tgl 20 0 \$0-s \$0-r empty 0 -9 0 10 #fcfcfc #000000 #000000 0 1;
#X obj 160 100 tgl 20 0 1058-s 1058-r empty 0 -9 0 10 #fcfcfc #000000 #000000 0 1;
#X obj 180 100 tgl 20 0 \$0-s \$0-r empty 0 -9 0 10 #fcfcfc #000000 #000000 0 1;
#X obj 200 100 tgl 20 0 \$0-s \$0-r empty 0 -9 0 10 #fcfcfc #000000 #000000 0 1;
#X obj 220 100 tgl 20 0 \$0-s \$0-r empty 0 -9 0 10 #fcfcfc #000000 #000000 0 1;
#X obj 240 100 tgl 20 0 \$0-s \$0-r empty 0 -9 0 10 #fcfcfc #000000 #000000 0 1;
#X msg 100 152 0;
#X msg 120 176 1;
#X msg 140 198 2;
#X msg 160 222 3;
#X msg 180 249 4;
#X msg 200 273 5;
#X msg 220 295 6;
#X msg 240 319 7;
#X obj 246 340 i;
#N canvas 343 97 674 539 color 0;
#X obj 241 12 inlet;
#X obj 70 431 outlet;
#X obj 201 81 until;
#X msg 242 87 0;
#X obj 203 108 i;
#X obj 238 111 + 1;
#X msg 205 57 8;
#X obj 187 270 sel 0;
#X obj 215 340 list prepend;
#X obj 215 362 route 0 1 2 3 4 5 6 7;
#X obj 116 431 outlet;
#X obj 168 430 outlet;
#X obj 214 430 outlet;
#X obj 266 429 outlet;
#X obj 312 429 outlet;
#X obj 364 428 outlet;
#X obj 410 428 outlet;
#X obj 168 198 list;
#X obj 170 224 list split 1;
#X obj 239 35 t b b a;
#X obj 205 136 t b f;
#X msg 149 316 color 0 22 22;
#X msg 241 315 color 14 22 22;
#X connect 0 0 19 0;
#X connect 2 0 4 0;
#X connect 3 0 4 1;
#X connect 4 0 5 0;
#X connect 4 0 20 0;
#X connect 5 0 4 1;
#X connect 6 0 2 0;
#X connect 7 0 21 0;
#X connect 7 1 22 0;
#X connect 8 0 9 0;
#X connect 9 0 1 0;
#X connect 9 1 10 0;
#X connect 9 2 11 0;
#X connect 9 3 12 0;
#X connect 9 4 13 0;
#X connect 9 5 14 0;
#X connect 9 6 15 0;
#X connect 9 7 16 0;
#X connect 17 0 18 0;
#X connect 18 0 7 0;
#X connect 18 1 17 1;
#X connect 19 0 6 0;
#X connect 19 1 3 0;
#X connect 19 2 17 1;
#X connect 20 0 17 0;
#X connect 20 1 8 1;
#X connect 21 0 8 0;
#X connect 22 0 8 0;
#X restore 266 54 pd color;
#X f 17;
#X obj 124 37 r \$0-sss-sel-bank;
#X obj 297 357 s \$0-sss-sel-bank;
#N canvas 395 142 570 448 set 0;
#X obj 241 12 inlet;
#X obj 84 347 outlet;
#X obj 201 81 until;
#X msg 242 87 0;
#X obj 203 108 i;
#X obj 238 111 + 1;
#X msg 205 57 8;
#X obj 239 35 t b b f;
#X obj 217 180 == 0;
#X obj 217 202 sel 0;
#X obj 206 136 t f f;
#X obj 229 256 list prepend;
#X obj 229 278 route 0 1 2 3 4 5 6 7;
#X obj 130 347 outlet;
#X obj 182 346 outlet;
#X obj 228 346 outlet;
#X obj 280 345 outlet;
#X obj 326 345 outlet;
#X obj 378 344 outlet;
#X obj 424 344 outlet;
#X msg 254 232 set 1;
#X msg 162 231 set 0;
#X connect 0 0 7 0;
#X connect 2 0 4 0;
#X connect 3 0 4 1;
#X connect 4 0 5 0;
#X connect 4 0 10 0;
#X connect 5 0 4 1;
#X connect 6 0 2 0;
#X connect 7 0 6 0;
#X connect 7 1 3 0;
#X connect 7 2 8 1;
#X connect 8 0 9 0;
#X connect 9 0 21 0;
#X connect 9 1 20 0;
#X connect 10 0 8 0;
#X connect 10 1 11 1;
#X connect 11 0 12 0;
#X connect 12 0 1 0;
#X connect 12 1 13 0;
#X connect 12 2 14 0;
#X connect 12 3 15 0;
#X connect 12 4 16 0;
#X connect 12 5 17 0;
#X connect 12 6 18 0;
#X connect 12 7 19 0;
#X connect 20 0 11 0;
#X connect 21 0 11 0;
#X restore 124 62 pd set;
#X f 17;
#X msg 253 13 1 0 0 0 1 0 0 0;
#X obj 270 33 r \$0-sss-bank-have-data;
#X obj 116 358 outlet;
#X connect 0 0 8 0;
#X connect 1 0 9 0;
#X connect 2 0 10 0;
#X connect 3 0 11 0;
#X connect 4 0 12 0;
#X connect 5 0 13 0;
#X connect 6 0 14 0;
#X connect 7 0 15 0;
#X connect 8 0 16 0;
#X connect 9 0 16 0;
#X connect 10 0 16 0;
#X connect 11 0 16 0;
#X connect 12 0 16 0;
#X connect 13 0 16 0;
#X connect 14 0 16 0;
#X connect 15 0 16 0;
#X connect 16 0 19 0;
#X connect 16 0 23 0;
#X connect 17 0 0 0;
#X connect 17 1 1 0;
#X connect 17 2 2 0;
#X connect 17 3 3 0;
#X connect 17 4 4 0;
#X connect 17 5 5 0;
#X connect 17 6 6 0;
#X connect 17 7 7 0;
#X connect 18 0 20 0;
#X connect 20 0 0 0;
#X connect 20 1 1 0;
#X connect 20 2 2 0;
#X connect 20 3 3 0;
#X connect 20 4 4 0;
#X connect 20 5 5 0;
#X connect 20 6 6 0;
#X connect 20 7 7 0;
#X connect 21 0 17 0;
#X connect 22 0 17 0;
#X coords 0 -1 1 1 160 20 2 100 100;
#X restore 440 82 pd;
#N canvas 455 156 449 421 (subpatch) 0;
#X obj 100 100 tgl 20 0 \$0-s \$0-r empty 0 -9 0 10 #fcfcfc #000000 #000000 0 1;
#X obj 120 100 tgl 20 0 \$0-s \$0-r empty 0 -9 0 10 #fcfcfc #000000 #000000 0 1;
#X obj 140 100 tgl 20 0 \$0-s \$0-r empty 0 -9 0 10 #fcfcfc #000000 #000000 0 1;
#X obj 160 100 tgl 20 0 1058-s 1058-r empty 0 -9 0 10 #fcfcfc #000000 #000000 0 1;
#X obj 180 100 tgl 20 0 \$0-s \$0-r empty 0 -9 0 10 #fcfcfc #000000 #000000 0 1;
#X obj 200 100 tgl 20 0 \$0-s \$0-r empty 0 -9 0 10 #fcfcfc #000000 #000000 0 1;
#X obj 220 100 tgl 20 0 \$0-s \$0-r empty 0 -9 0 10 #fcfcfc #000000 #000000 0 1;
#X obj 240 100 tgl 20 0 \$0-s \$0-r empty 0 -9 0 10 #fcfcfc #000000 #000000 0 1;
#X msg 100 152 0;
#X msg 120 176 1;
#X msg 140 198 2;
#X msg 160 222 3;
#X msg 180 249 4;
#X msg 200 273 5;
#X msg 220 295 6;
#X msg 240 319 7;
#X obj 246 340 i;
#N canvas 141 99 674 539 color 0;
#X obj 241 12 inlet;
#X obj 70 431 outlet;
#X obj 201 81 until;
#X msg 242 87 0;
#X obj 203 108 i;
#X obj 238 111 + 1;
#X msg 205 57 8;
#X obj 187 270 sel 0;
#X obj 215 340 list prepend;
#X obj 215 362 route 0 1 2 3 4 5 6 7;
#X obj 116 431 outlet;
#X obj 168 430 outlet;
#X obj 214 430 outlet;
#X obj 266 429 outlet;
#X obj 312 429 outlet;
#X obj 364 428 outlet;
#X obj 410 428 outlet;
#X obj 168 198 list;
#X obj 170 224 list split 1;
#X obj 239 35 t b b a;
#X obj 205 136 t b f;
#X msg 149 316 color 0 22 22;
#X msg 241 315 color 15 22 22;
#X connect 0 0 19 0;
#X connect 2 0 4 0;
#X connect 3 0 4 1;
#X connect 4 0 5 0;
#X connect 4 0 20 0;
#X connect 5 0 4 1;
#X connect 6 0 2 0;
#X connect 7 0 21 0;
#X connect 7 1 22 0;
#X connect 8 0 9 0;
#X connect 9 0 1 0;
#X connect 9 1 10 0;
#X connect 9 2 11 0;
#X connect 9 3 12 0;
#X connect 9 4 13 0;
#X connect 9 5 14 0;
#X connect 9 6 15 0;
#X connect 9 7 16 0;
#X connect 17 0 18 0;
#X connect 18 0 7 0;
#X connect 18 1 17 1;
#X connect 19 0 6 0;
#X connect 19 1 3 0;
#X connect 19 2 17 1;
#X connect 20 0 17 0;
#X connect 20 1 8 1;
#X connect 21 0 8 0;
#X connect 22 0 8 0;
#X restore 266 54 pd color;
#X f 17;
#N canvas 395 142 570 448 set 0;
#X obj 241 12 inlet;
#X obj 84 347 outlet;
#X obj 201 81 until;
#X msg 242 87 0;
#X obj 203 108 i;
#X obj 238 111 + 1;
#X msg 205 57 8;
#X obj 239 35 t b b f;
#X obj 217 180 == 0;
#X obj 217 202 sel 0;
#X obj 206 136 t f f;
#X obj 229 256 list prepend;
#X obj 229 278 route 0 1 2 3 4 5 6 7;
#X obj 130 347 outlet;
#X obj 182 346 outlet;
#X obj 228 346 outlet;
#X obj 280 345 outlet;
#X obj 326 345 outlet;
#X obj 378 344 outlet;
#X obj 424 344 outlet;
#X msg 254 232 set 1;
#X msg 162 231 set 0;
#X connect 0 0 7 0;
#X connect 2 0 4 0;
#X connect 3 0 4 1;
#X connect 4 0 5 0;
#X connect 4 0 10 0;
#X connect 5 0 4 1;
#X connect 6 0 2 0;
#X connect 7 0 6 0;
#X connect 7 1 3 0;
#X connect 7 2 8 1;
#X connect 8 0 9 0;
#X connect 9 0 21 0;
#X connect 9 1 20 0;
#X connect 10 0 8 0;
#X connect 10 1 11 1;
#X connect 11 0 12 0;
#X connect 12 0 1 0;
#X connect 12 1 13 0;
#X connect 12 2 14 0;
#X connect 12 3 15 0;
#X connect 12 4 16 0;
#X connect 12 5 17 0;
#X connect 12 6 18 0;
#X connect 12 7 19 0;
#X connect 20 0 11 0;
#X connect 21 0 11 0;
#X restore 124 62 pd set;
#X f 17;
#X msg 253 13 1 0 0 0 1 0 0 0;
#X obj 269 32 r \$0-sss-snap-have-data;
#X obj 124 37 r \$0-sss-sel-snap;
#X obj 297 357 s \$0-sss-sel-snap;
#X obj 116 358 outlet;
#X connect 0 0 8 0;
#X connect 1 0 9 0;
#X connect 2 0 10 0;
#X connect 3 0 11 0;
#X connect 4 0 12 0;
#X connect 5 0 13 0;
#X connect 6 0 14 0;
#X connect 7 0 15 0;
#X connect 8 0 16 0;
#X connect 9 0 16 0;
#X connect 10 0 16 0;
#X connect 11 0 16 0;
#X connect 12 0 16 0;
#X connect 13 0 16 0;
#X connect 14 0 16 0;
#X connect 15 0 16 0;
#X connect 16 0 22 0;
#X connect 16 0 23 0;
#X connect 17 0 0 0;
#X connect 17 1 1 0;
#X connect 17 2 2 0;
#X connect 17 3 3 0;
#X connect 17 4 4 0;
#X connect 17 5 5 0;
#X connect 17 6 6 0;
#X connect 17 7 7 0;
#X connect 18 0 0 0;
#X connect 18 1 1 0;
#X connect 18 2 2 0;
#X connect 18 3 3 0;
#X connect 18 4 4 0;
#X connect 18 5 5 0;
#X connect 18 6 6 0;
#X connect 18 7 7 0;
#X connect 19 0 17 0;
#X connect 20 0 17 0;
#X connect 21 0 18 0;
#X coords 0 -1 1 1 160 20 2 100 100;
#X restore 440 102 pd;
#X obj 43 479 pdpython sss_class SSSClass \$0 \$1;
#X msg 782 122 sel_snap \$1;
#X msg 639 414 focus \$1 \, set_ins_name \, set_snap_path \, set_sel_bank \, set_sel_snap \, set_bank_have_data \, set_snap_have_data, f 20;
#X msg 1001 399 init;
#X msg 909 102 sel_bank \$1 \, set_sel_snap;
#X obj 343 447 r \$1-sss-get-info-return;
#X obj 892 536 s \$1-sss-get-info;
#X msg 891 514 bang;
#X obj 782 535 s \$0-to;
#X obj 839 268 bng 17 250 50 0 empty empty empty 0 -9 0 10 #fcfcfc #000000 #000000;
#X msg 718 385 -1;
#X obj 539 401 s \$0-to;
#X msg 558 332 print_info;
#X obj 831 295 t b b b b b b;
#X msg 782 430 ins_sort \, get_path \, set_abs_name \, set_pro_name \, set_pro_path, f 14;
#X connect 0 0 22 0;
#X connect 1 0 80 0;
#X connect 4 1 7 0;
#X connect 5 0 3 0;
#X connect 5 1 6 0;
#X connect 6 0 3 1;
#X connect 7 0 41 0;
#X connect 9 0 10 0;
#X connect 10 0 12 0;
#X connect 11 0 9 0;
#X connect 12 0 55 0;
#X connect 19 0 59 0;
#X connect 20 0 60 0;
#X connect 23 0 67 0;
#X connect 24 0 37 0;
#X connect 25 0 38 0;
#X connect 26 0 58 0;
#X connect 27 0 50 0;
#X connect 30 0 52 0;
#X connect 31 0 45 0;
#X connect 32 0 46 0;
#X connect 36 0 44 0;
#X connect 37 0 42 0;
#X connect 38 0 39 0;
#X connect 40 0 69 0;
#X connect 41 0 8 0;
#X connect 44 0 47 0;
#X connect 45 0 48 0;
#X connect 46 0 49 0;
#X connect 50 0 43 0;
#X connect 52 0 28 0;
#X connect 55 0 17 0;
#X connect 58 0 57 0;
#X connect 61 0 63 0;
#X connect 62 0 64 0;
#X connect 65 0 71 0;
#X connect 66 0 68 0;
#X connect 67 0 5 0;
#X connect 68 0 53 0;
#X connect 69 0 16 0;
#X connect 70 0 18 0;
#X connect 71 0 54 0;
#X connect 72 0 21 0;
#X connect 74 0 73 0;
#X connect 76 0 80 0;
#X connect 77 0 69 0;
#X connect 79 0 78 0;
#X connect 80 0 79 0;
#X connect 80 1 77 0;
#X connect 80 2 81 0;
#X connect 80 3 74 0;
#X connect 80 4 11 0;
#X connect 80 5 70 0;
#X connect 81 0 75 0;
#X coords 0 -1 1 1 160 222 1 440 10;
